<svg width="48" height="48" viewBox="0 0 319 318" fill="none" xmlns="http://www.w3.org/2000/svg">
<rect x="16.3145" y="15.8943" width="286.211" height="286.211" rx="50.2047" fill="#121212"/>
<path d="M16.3145 159C16.3145 91.5393 16.3145 57.809 37.2717 36.8516C58.2292 15.8943 91.9595 15.8943 159.42 15.8943C226.88 15.8943 260.611 15.8943 281.569 36.8516C302.526 57.809 302.526 91.5393 302.526 159C302.526 226.46 302.526 260.191 281.569 281.149C260.611 302.105 226.88 302.105 159.42 302.105C91.9595 302.105 58.2292 302.105 37.2717 281.149C16.3145 260.191 16.3145 226.46 16.3145 159Z" stroke="#121212" stroke-width="31.8012"/>
<path d="M281.61 52.6617L266.872 38.2433C277.75 33.0939 284.418 28.6311 288.278 32.4073C291.436 35.497 287.927 40.3031 281.61 52.6617Z" fill="#D9D9D9" stroke="#D9D9D9" stroke-width="0.686588" stroke-linejoin="round"/>
<path d="M281.61 52.6615L266.872 38.2432L244.413 60.9006L258.8 74.9756L281.61 52.6615Z" fill="white" stroke="white" stroke-width="0.686588" stroke-linejoin="round"/>
<path d="M252.835 80.1253L238.798 66.3936L215.988 88.7077L230.376 102.439L252.835 80.1253Z" fill="white" stroke="white" stroke-width="0.686588" stroke-linejoin="round"/>
<path d="M223.708 108.275L209.671 94.5437L137.03 165.949L150.716 179.337L223.708 108.275Z" fill="white" stroke="white" stroke-width="0.686588" stroke-linejoin="round"/>
<path d="M238.798 66.363L252.866 80.1252L254.238 76.4329L242.915 65.0203L238.798 66.363Z" fill="#D9D9D9" stroke="#D9D9D9" stroke-width="0.686588" stroke-linejoin="round"/>
<path d="M209.671 94.5434L223.708 108.275L225.463 104.583L214.14 93.1702L209.671 94.5434Z" fill="#2C3333" stroke="#2C3333" stroke-width="0.686588" stroke-linejoin="round"/>
<path d="M258.801 74.9757L244.413 60.9006L243.009 64.6769L254.59 76.3489L258.801 74.9757Z" fill="#B63BF2" stroke="#B63BF2" stroke-width="0.686588" stroke-linejoin="round"/>
<path d="M230.376 102.439L215.988 88.7075L214.233 92.827L225.814 104.499L230.376 102.439Z" fill="#2C3333" stroke="#2C3333" stroke-width="0.686588" stroke-linejoin="round"/>
<path d="M204.057 97.2901L193.178 86.9913C204.057 81.8419 208.619 77.3791 211.075 79.7821C213.497 82.1513 210.373 84.9315 204.057 97.2901Z" fill="#D9D9D9" stroke="#D9D9D9" stroke-width="0.686588" stroke-linejoin="round"/>
<path d="M232.482 124.392L221.603 114.093C232.482 108.944 237.044 104.481 239.5 106.884C241.922 109.253 238.798 112.034 232.482 124.392Z" fill="#D9D9D9" stroke="#D9D9D9" stroke-width="0.686588" stroke-linejoin="round"/>
<path d="M204.056 97.2903L193.178 86.9915L123.695 154.62L134.223 164.576L204.056 97.2903Z" fill="white" stroke="white" stroke-width="0.686588" stroke-linejoin="round"/>
<path d="M232.481 124.392L221.603 114.093L152.12 181.722L162.648 191.678L232.481 124.392Z" fill="white" stroke="white" stroke-width="0.686588" stroke-linejoin="round"/>
<path d="M118.432 158.396L130.363 170.412L134.223 164.576L123.695 154.62L118.432 158.396Z" fill="#C9C9C9" stroke="#C9C9C9" stroke-width="0.686588" stroke-linejoin="round"/>
<ellipse cx="32.4553" cy="191.353" rx="2.80738" ry="2.74635" fill="#C9C9C9"/>
<ellipse cx="132.117" cy="275.803" rx="2.80738" ry="2.74635" fill="#C9C9C9"/>
<ellipse cx="238.096" cy="249.712" rx="2.80738" ry="2.74635" fill="#C9C9C9"/>
<ellipse cx="281.611" cy="132.993" rx="2.31609" ry="2.26574" fill="#C9C9C9"/>
<ellipse cx="49.2995" cy="194.786" rx="1.75461" ry="1.71647" fill="#B63BF2"/>
<ellipse cx="151.769" cy="279.922" rx="2.63192" ry="2.57471" fill="#B63BF2"/>
<ellipse cx="207.039" cy="221.391" rx="1.97394" ry="1.93103" fill="#B63BF2"/>
<ellipse cx="282.389" cy="190.054" rx="1.48046" ry="1.44827" fill="#B63BF2"/>
<ellipse cx="60.1784" cy="83.9015" rx="1.75461" ry="1.71647" fill="#B63BF2"/>
<ellipse cx="130.538" cy="90.939" rx="0.526384" ry="0.514941" fill="#B63BF2"/>
<ellipse cx="205.285" cy="52.8334" rx="1.22823" ry="1.20153" fill="#B63BF2"/>
<path d="M76.1923 144.318C76.237 144.199 76.4044 144.199 76.4492 144.318L76.9618 145.673C76.976 145.71 77.0059 145.74 77.0435 145.754L78.4205 146.252C78.5413 146.296 78.5413 146.466 78.4205 146.51L77.0435 147.009C77.0059 147.022 76.976 147.052 76.9618 147.089L76.4492 148.445C76.4044 148.563 76.237 148.563 76.1923 148.445L75.6796 147.089C75.6654 147.052 75.6356 147.022 75.5979 147.009L74.2209 146.51C74.1002 146.466 74.1002 146.296 74.2209 146.252L75.5979 145.754C75.6356 145.74 75.6654 145.71 75.6796 145.673L76.1923 144.318Z" fill="#C9C9C9"/>
<path d="M127.427 45.4489C127.472 45.3306 127.639 45.3306 127.684 45.4489L128.197 46.8043C128.211 46.8418 128.241 46.8712 128.278 46.8849L129.655 47.3833C129.776 47.427 129.776 47.5978 129.655 47.6416L128.278 48.14C128.241 48.1536 128.211 48.183 128.197 48.2205L127.684 49.5759C127.639 49.6943 127.472 49.6943 127.427 49.5759L126.914 48.2205C126.9 48.183 126.87 48.1536 126.833 48.14L125.456 47.6416C125.335 47.5978 125.335 47.427 125.456 47.3833L126.833 46.8849C126.87 46.8712 126.9 46.8418 126.914 46.8043L127.427 45.4489Z" fill="#C9C9C9"/>
<path d="M213.052 37.8964C213.097 37.7781 213.264 37.7781 213.309 37.8964L213.822 39.2519C213.836 39.2893 213.866 39.3187 213.903 39.3324L215.28 39.8308C215.401 39.8745 215.401 40.0453 215.28 40.0891L213.903 40.5875C213.866 40.6011 213.836 40.6306 213.822 40.668L213.309 42.0235C213.264 42.1418 213.097 42.1418 213.052 42.0235L212.539 40.668C212.525 40.6306 212.495 40.6011 212.458 40.5875L211.081 40.0891C210.96 40.0453 210.96 39.8745 211.081 39.8308L212.458 39.3324C212.495 39.3187 212.525 39.2893 212.539 39.2519L213.052 37.8964Z" fill="#C9C9C9"/>
<path d="M130.012 177.277L34.561 271.34L44.036 280.266L139.838 186.546L130.012 177.277Z" fill="url(#paint0_linear_4056_124)"/>
<path d="M142.645 194.442L70.0044 266.534L77.0229 273.4L150.366 201.995L142.645 194.442Z" fill="url(#paint1_linear_4056_124)"/>
<path d="M113.869 167.322L41.5791 239.07L48.5976 245.936L121.589 174.874L113.869 167.322Z" fill="url(#paint2_linear_4056_124)"/>
<path d="M112.817 165.949L122.643 175.561L125.099 171.098L117.73 163.889L112.817 165.949Z" fill="#2B2F37" stroke="#2B2F37" stroke-width="0.686588" stroke-linejoin="round"/>
<path d="M130.363 170.412L118.431 158.396L116.677 162.516L126.152 171.785L130.363 170.412Z" fill="#B63BF2" stroke="#B63BF2" stroke-width="0.686588" stroke-linejoin="round"/>
<path d="M129.31 176.248L140.54 187.233L142.996 182.427L134.574 174.188L129.31 176.248Z" fill="#2B2F37" stroke="#2B2F37" stroke-width="0.686588" stroke-linejoin="round"/>
<path d="M141.242 193.051L151.067 202.663L153.524 198.2L146.155 190.991L141.242 193.051Z" fill="#2B2F37" stroke="#2B2F37" stroke-width="0.686588" stroke-linejoin="round"/>
<path d="M158.788 197.514L146.856 185.498L145.102 189.618L154.576 198.887L158.788 197.514Z" fill="#B63BF2" stroke="#B63BF2" stroke-width="0.686588" stroke-linejoin="round"/>
<path d="M146.856 185.499L158.788 197.514L162.648 191.678L152.12 181.722L146.856 185.499Z" fill="#C9C9C9" stroke="#C9C9C9" stroke-width="0.686588" stroke-linejoin="round"/>
<path d="M150.717 179.337L137.031 165.949L133.17 172.128L144.751 183.457L150.717 179.337Z" fill="#B63BF2" stroke="#B63BF2" stroke-width="0.686588" stroke-linejoin="round"/>
<defs>
<linearGradient id="paint0_linear_4056_124" x1="133.965" y1="182.674" x2="41.355" y2="277.9" gradientUnits="userSpaceOnUse">
<stop stop-color="#AF3AEB"/>
<stop offset="1" stop-color="#EEE1FF" stop-opacity="0"/>
</linearGradient>
<linearGradient id="paint1_linear_4056_124" x1="145.804" y1="198.905" x2="75.1097" y2="271.521" gradientUnits="userSpaceOnUse">
<stop stop-color="#AF3AEB"/>
<stop offset="1" stop-color="#EEE1FF" stop-opacity="0"/>
</linearGradient>
<linearGradient id="paint2_linear_4056_124" x1="117.378" y1="171.442" x2="46.6844" y2="244.057" gradientUnits="userSpaceOnUse">
<stop stop-color="#AF3AEB"/>
<stop offset="1" stop-color="#EEE1FF" stop-opacity="0"/>
</linearGradient>
</defs>
</svg>
