<svg width="790" height="288" viewBox="0 0 790 288" fill="none" xmlns="http://www.w3.org/2000/svg">
<path d="M266.899 38.0495L252.222 23.373C263.055 18.1314 269.694 13.5887 273.538 17.4325C276.683 20.5775 273.189 25.4697 266.899 38.0495Z" fill="#D9D9D9" stroke="#D9D9D9" stroke-width="0.698881" stroke-linejoin="round"/>
<path d="M266.899 38.0496L252.222 23.373L229.858 46.4361L244.185 60.7632L266.899 38.0496Z" fill="#F2F2F2" stroke="#F2F2F2" stroke-width="0.698881" stroke-linejoin="round"/>
<path d="M238.244 66.0047L224.267 52.0271L201.553 74.7407L215.88 88.7184L238.244 66.0047Z" fill="#F2F2F2" stroke="#F2F2F2" stroke-width="0.698881" stroke-linejoin="round"/>
<path d="M209.241 94.6588L195.263 80.6812L122.929 153.365L136.557 166.993L209.241 94.6588Z" fill="#F2F2F2" stroke="#F2F2F2" stroke-width="0.698881" stroke-linejoin="round"/>
<path d="M224.267 51.996L238.275 66.0046L239.642 62.2462L228.367 50.6293L224.267 51.996Z" fill="#D9D9D9" stroke="#D9D9D9" stroke-width="0.698881" stroke-linejoin="round"/>
<path d="M195.263 80.6813L209.241 94.6589L210.988 90.9005L199.713 79.2835L195.263 80.6813Z" fill="#2C3333" stroke="#2C3333" stroke-width="0.698881" stroke-linejoin="round"/>
<path d="M244.185 60.7631L229.858 46.436L228.46 50.2799L239.992 62.1609L244.185 60.7631Z" fill="#B63BF2" stroke="#B63BF2" stroke-width="0.698881" stroke-linejoin="round"/>
<path d="M215.88 88.7183L201.553 74.7407L199.806 78.934L211.338 90.815L215.88 88.7183Z" fill="#2C3333" stroke="#2C3333" stroke-width="0.698881" stroke-linejoin="round"/>
<path d="M189.673 83.4769L178.84 72.9937C189.673 67.7521 194.215 63.2093 196.661 65.6554C199.073 68.067 195.962 70.897 189.673 83.4769Z" fill="#D9D9D9" stroke="#D9D9D9" stroke-width="0.698881" stroke-linejoin="round"/>
<path d="M217.977 111.065L207.144 100.581C217.977 95.3397 222.519 90.797 224.966 93.2431C227.377 95.6547 224.267 98.4847 217.977 111.065Z" fill="#D9D9D9" stroke="#D9D9D9" stroke-width="0.698881" stroke-linejoin="round"/>
<path d="M189.672 83.4769L178.84 72.9937L109.65 141.833L120.134 151.967L189.672 83.4769Z" fill="#F2F2F2" stroke="#F2F2F2" stroke-width="0.698881" stroke-linejoin="round"/>
<path d="M217.977 111.064L207.144 100.581L137.955 169.421L148.438 179.555L217.977 111.064Z" fill="#F2F2F2" stroke="#F2F2F2" stroke-width="0.698881" stroke-linejoin="round"/>
<path d="M104.408 145.677L116.289 157.908L120.133 151.967L109.65 141.833L104.408 145.677Z" fill="#C9C9C9" stroke="#C9C9C9" stroke-width="0.698881" stroke-linejoin="round"/>
<circle cx="18.7955" cy="179.224" r="2.79552" fill="#2C3333"/>
<circle cx="118.037" cy="265.186" r="2.79552" fill="#2C3333"/>
<circle cx="223.568" cy="238.629" r="2.79552" fill="#2C3333"/>
<circle cx="266.899" cy="119.819" r="2.30631" fill="#2C3333"/>
<circle cx="35.569" cy="182.718" r="1.7472" fill="#B63BF2"/>
<circle cx="137.606" cy="269.379" r="2.6208" fill="#B63BF2"/>
<circle cx="192.642" cy="209.8" r="1.9656" fill="#B63BF2"/>
<circle cx="267.674" cy="177.902" r="1.4742" fill="#B63BF2"/>
<circle cx="46.4015" cy="69.8485" r="1.7472" fill="#B63BF2"/>
<circle cx="116.465" cy="77.0122" r="0.524161" fill="#B63BF2"/>
<circle cx="190.895" cy="38.2243" r="1.22304" fill="#B63BF2"/>
<path d="M62.3448 131.355C62.3898 131.233 62.5619 131.233 62.607 131.355L63.1142 132.726C63.1284 132.764 63.1586 132.794 63.1968 132.808L64.5677 133.316C64.6894 133.361 64.6894 133.533 64.5677 133.578L63.1968 134.085C63.1586 134.099 63.1284 134.129 63.1142 134.168L62.607 135.539C62.5619 135.66 62.3898 135.66 62.3448 135.539L61.8375 134.168C61.8234 134.129 61.7932 134.099 61.7549 134.085L60.384 133.578C60.2624 133.533 60.2624 133.361 60.384 133.316L61.7549 132.808C61.7932 132.794 61.8234 132.764 61.8375 132.726L62.3448 131.355Z" fill="#2C3333"/>
<path d="M113.363 30.7163C113.408 30.5946 113.58 30.5946 113.626 30.7163L114.133 32.0872C114.147 32.1255 114.177 32.1556 114.215 32.1698L115.586 32.6771C115.708 32.7221 115.708 32.8942 115.586 32.9392L114.215 33.4465C114.177 33.4607 114.147 33.4908 114.133 33.5291L113.626 34.9C113.58 35.0217 113.408 35.0217 113.363 34.9L112.856 33.5291C112.842 33.4908 112.812 33.4607 112.773 33.4465L111.403 32.9392C111.281 32.8942 111.281 32.7221 111.403 32.6771L112.773 32.1698C112.812 32.1556 112.842 32.1255 112.856 32.0872L113.363 30.7163Z" fill="#2C3333"/>
<path d="M198.627 23.0286C198.672 22.9069 198.844 22.9069 198.889 23.0286L199.396 24.3995C199.41 24.4377 199.44 24.4679 199.479 24.482L200.849 24.9893C200.971 25.0343 200.971 25.2065 200.849 25.2515L199.479 25.7588C199.44 25.7729 199.41 25.8031 199.396 25.8413L198.889 27.2122C198.844 27.3339 198.672 27.3339 198.627 27.2122L198.119 25.8413C198.105 25.8031 198.075 25.7729 198.037 25.7588L196.666 25.2515C196.544 25.2065 196.544 25.0343 196.666 24.9893L198.037 24.482C198.075 24.4679 198.105 24.4377 198.119 24.3995L198.627 23.0286Z" fill="#2C3333"/>
<path d="M115.94 164.896L20.8921 260.643L30.327 269.729L125.724 174.331L115.94 164.896Z" fill="url(#paint0_linear_4056_54)"/>
<path d="M128.52 182.369L56.186 255.751L63.1748 262.74L136.208 190.056L128.52 182.369Z" fill="url(#paint1_linear_4056_54)"/>
<path d="M99.8661 154.763L27.8813 227.796L34.8702 234.785L107.554 162.45L99.8661 154.763Z" fill="url(#paint2_linear_4056_54)"/>
<path d="M98.8179 153.365L108.602 163.149L111.048 158.607L103.71 151.268L98.8179 153.365Z" fill="#2B2F37" stroke="#2B2F37" stroke-width="0.698881" stroke-linejoin="round"/>
<path d="M116.29 157.908L104.409 145.677L102.662 149.871L112.097 159.305L116.29 157.908Z" fill="#B63BF2" stroke="#B63BF2" stroke-width="0.698881" stroke-linejoin="round"/>
<path d="M115.241 163.848L126.424 175.03L128.87 170.138L120.483 161.752L115.241 163.848Z" fill="#2B2F37" stroke="#2B2F37" stroke-width="0.698881" stroke-linejoin="round"/>
<path d="M127.122 180.952L136.906 190.737L139.353 186.194L132.014 178.856L127.122 180.952Z" fill="#2B2F37" stroke="#2B2F37" stroke-width="0.698881" stroke-linejoin="round"/>
<path d="M144.594 185.495L132.714 173.265L130.966 177.458L140.401 186.893L144.594 185.495Z" fill="#B63BF2" stroke="#B63BF2" stroke-width="0.698881" stroke-linejoin="round"/>
<path d="M132.713 173.265L144.594 185.495L148.438 179.555L137.955 169.421L132.713 173.265Z" fill="#C9C9C9" stroke="#C9C9C9" stroke-width="0.698881" stroke-linejoin="round"/>
<path d="M136.557 166.993L122.929 153.365L119.085 159.655L130.617 171.186L136.557 166.993Z" fill="#B63BF2" stroke="#B63BF2" stroke-width="0.698881" stroke-linejoin="round"/>
<path d="M358.676 125.032C369.746 125.032 375.282 130.487 375.282 141.395V186H360.494V145.88C360.494 142.648 359.929 140.426 358.797 139.214C357.747 138.002 355.888 137.396 353.222 137.396C350.232 137.396 347.161 138.042 344.01 139.335C340.858 140.628 337.061 142.567 332.616 145.153L331.525 136.668C336.051 132.951 340.576 130.083 345.101 128.062C349.707 126.042 354.232 125.032 358.676 125.032ZM334.192 101.154L334.313 122.972C334.313 125.962 334.152 128.79 333.828 131.456C333.586 134.042 333.222 136.264 332.738 138.123L334.192 139.82V186H319.526V101.154H334.192ZM418.283 125.032C425.556 125.032 431.333 126.042 435.616 128.062C439.979 130.083 443.09 133.396 444.949 138.002C446.888 142.607 447.858 148.708 447.858 156.304C447.858 163.9 446.888 170.001 444.949 174.606C443.09 179.132 439.979 182.445 435.616 184.546C431.333 186.566 425.556 187.576 418.283 187.576C411.172 187.576 405.435 186.566 401.071 184.546C396.789 182.445 393.678 179.132 391.738 174.606C389.799 170.001 388.829 163.9 388.829 156.304C388.829 148.708 389.799 142.607 391.738 138.002C393.678 133.396 396.789 130.083 401.071 128.062C405.435 126.042 411.172 125.032 418.283 125.032ZM418.283 136.183C414.728 136.183 411.899 136.789 409.798 138.002C407.778 139.133 406.324 141.153 405.435 144.062C404.546 146.971 404.102 151.052 404.102 156.304C404.102 161.556 404.546 165.637 405.435 168.546C406.324 171.455 407.778 173.475 409.798 174.606C411.899 175.738 414.728 176.303 418.283 176.303C421.919 176.303 424.788 175.738 426.889 174.606C428.99 173.475 430.444 171.455 431.252 168.546C432.141 165.637 432.586 161.556 432.586 156.304C432.586 151.052 432.141 146.971 431.252 144.062C430.444 141.153 428.99 139.133 426.889 138.002C424.788 136.789 421.919 136.183 418.283 136.183ZM475.988 126.487V166.728C475.907 169.718 476.472 171.859 477.685 173.152C478.977 174.445 481.038 175.091 483.866 175.091C486.694 175.091 489.523 174.485 492.351 173.273C495.179 172.061 498.613 170.243 502.653 167.819L504.108 176.546C499.583 180.182 495.219 182.929 491.017 184.788C486.816 186.646 482.452 187.576 477.927 187.576C466.857 187.576 461.321 182.121 461.321 171.213V126.487H475.988ZM515.865 126.487V186H504.229L502.653 174.485L501.199 172.788V126.487H515.865ZM627.862 126.487V136.668L556.471 136.789C553.158 136.789 550.532 136.87 548.592 137.032C546.734 137.113 545.4 137.517 544.592 138.244C543.865 138.971 543.501 140.183 543.501 141.88C543.501 144.224 544.148 145.799 545.441 146.607C546.734 147.335 548.835 148.062 551.744 148.789L567.986 152.668C572.753 153.88 576.268 155.738 578.531 158.243C580.793 160.667 581.924 164.425 581.924 169.516C581.924 174.445 580.995 178.202 579.137 180.788C577.359 183.293 574.531 185.03 570.652 186C566.854 186.889 561.966 187.333 555.986 187.333C553.643 187.333 550.168 187.212 545.562 186.97C540.956 186.808 535.906 186.283 530.411 185.394L531.381 175.819C532.997 175.819 534.936 175.859 537.199 175.94C539.461 176.021 541.885 176.061 544.471 176.061C547.057 176.061 549.602 176.061 552.107 176.061C556.148 176.061 559.299 175.94 561.562 175.697C563.824 175.374 565.44 174.768 566.41 173.879C567.38 172.91 567.864 171.536 567.864 169.758C567.864 167.415 567.097 165.839 565.561 165.031C564.026 164.223 561.925 163.536 559.259 162.97L543.38 159.092C539.744 158.122 536.916 156.91 534.896 155.456C532.876 153.92 531.421 152.062 530.532 149.88C529.643 147.617 529.199 144.87 529.199 141.638C529.199 137.759 530.007 134.729 531.623 132.547C533.32 130.365 535.946 128.83 539.502 127.941C543.138 126.972 547.905 126.487 553.804 126.487H627.862ZM610.166 109.518V168.061C610.166 170.566 610.732 172.344 611.863 173.394C612.994 174.445 614.853 174.97 617.438 174.97H625.681L627.256 185.273C625.963 185.677 624.347 186.04 622.408 186.364C620.469 186.687 618.529 186.889 616.59 186.97C614.731 187.131 613.196 187.212 611.984 187.212C606.732 187.212 602.691 185.838 599.863 183.091C597.035 180.263 595.621 176.223 595.621 170.97V109.518H610.166ZM665.671 125.032C672.943 125.032 678.721 126.042 683.004 128.062C687.367 130.083 690.478 133.396 692.337 138.002C694.276 142.607 695.246 148.708 695.246 156.304C695.246 163.9 694.276 170.001 692.337 174.606C690.478 179.132 687.367 182.445 683.004 184.546C678.721 186.566 672.943 187.576 665.671 187.576C658.56 187.576 652.823 186.566 648.459 184.546C644.177 182.445 641.066 179.132 639.126 174.606C637.187 170.001 636.217 163.9 636.217 156.304C636.217 148.708 637.187 142.607 639.126 138.002C641.066 133.396 644.177 130.083 648.459 128.062C652.823 126.042 658.56 125.032 665.671 125.032ZM665.671 136.183C662.115 136.183 659.287 136.789 657.186 138.002C655.166 139.133 653.712 141.153 652.823 144.062C651.934 146.971 651.489 151.052 651.489 156.304C651.489 161.556 651.934 165.637 652.823 168.546C653.712 171.455 655.166 173.475 657.186 174.606C659.287 175.738 662.115 176.303 665.671 176.303C669.307 176.303 672.176 175.738 674.277 174.606C676.378 173.475 677.832 171.455 678.64 168.546C679.529 165.637 679.973 161.556 679.973 156.304C679.973 151.052 679.529 146.971 678.64 144.062C677.832 141.153 676.378 139.133 674.277 138.002C672.176 136.789 669.307 136.183 665.671 136.183ZM748.223 125.032C759.293 125.032 764.829 130.487 764.829 141.395V186H750.162V145.88C750.162 142.648 749.597 140.426 748.465 139.214C747.334 138.002 745.435 137.396 742.769 137.396C739.779 137.396 736.708 138.082 733.557 139.456C730.405 140.749 726.608 142.648 722.163 145.153L721.557 136.305C725.921 132.668 730.365 129.881 734.89 127.941C739.415 126.002 743.86 125.032 748.223 125.032ZM721.072 126.487L722.527 138.123L723.739 139.82V186H709.073V126.487H721.072Z" fill="white"/>
<defs>
<linearGradient id="paint0_linear_4056_54" x1="119.876" y1="170.39" x2="25.5731" y2="265.249" gradientUnits="userSpaceOnUse">
<stop stop-color="#AF3AEB"/>
<stop offset="1" stop-color="#EEE1FF" stop-opacity="0"/>
</linearGradient>
<linearGradient id="paint1_linear_4056_54" x1="131.665" y1="186.911" x2="59.6804" y2="259.246" gradientUnits="userSpaceOnUse">
<stop stop-color="#AF3AEB"/>
<stop offset="1" stop-color="#EEE1FF" stop-opacity="0"/>
</linearGradient>
<linearGradient id="paint2_linear_4056_54" x1="103.361" y1="158.956" x2="31.3757" y2="231.29" gradientUnits="userSpaceOnUse">
<stop stop-color="#AF3AEB"/>
<stop offset="1" stop-color="#EEE1FF" stop-opacity="0"/>
</linearGradient>
</defs>
</svg>
