<svg width="179" height="57" viewBox="0 0 179 57" fill="none" xmlns="http://www.w3.org/2000/svg">
<path d="M54.3087 5.82333L51.1318 2.61285C53.4766 1.46624 54.9138 0.472523 55.7458 1.31336C56.4265 2.00133 55.6702 3.07149 54.3087 5.82333Z" fill="#004D4D" stroke="#004D4D" stroke-width="0.15015" stroke-linejoin="round"/>
<path d="M54.3087 5.82337L51.1319 2.61288L46.291 7.65793L49.3922 10.792L54.3087 5.82337Z" fill="#121212" stroke="#121212" stroke-width="0.15015" stroke-linejoin="round"/>
<path d="M48.1063 11.9386L45.0807 8.88095L40.1642 13.8496L43.2654 16.9072L48.1063 11.9386Z" fill="#121212" stroke="#121212" stroke-width="0.15015" stroke-linejoin="round"/>
<path d="M41.8283 18.2066L38.8027 15.149L23.1455 31.0485L26.0954 34.0297L41.8283 18.2066Z" fill="#121212" stroke="#121212" stroke-width="0.15015" stroke-linejoin="round"/>
<path d="M45.0808 8.87414L48.113 11.9385L48.4089 11.1164L45.9683 8.57517L45.0808 8.87414Z" fill="#004D4D" stroke="#004D4D" stroke-width="0.15015" stroke-linejoin="round"/>
<path d="M38.8027 15.149L41.8283 18.2066L42.2065 17.3844L39.7658 14.8432L38.8027 15.149Z" fill="#004D4D" stroke="#004D4D" stroke-width="0.15015" stroke-linejoin="round"/>
<path d="M49.3921 10.7919L46.291 7.6579L45.9884 8.49874L48.4845 11.0977L49.3921 10.7919Z" fill="#6A0D91" stroke="#6A0D91" stroke-width="0.15015" stroke-linejoin="round"/>
<path d="M43.2654 16.9072L40.1642 13.8495L39.786 14.7668L42.2821 17.3658L43.2654 16.9072Z" fill="#004D4D" stroke="#004D4D" stroke-width="0.15015" stroke-linejoin="round"/>
<path d="M37.5925 15.7606L35.2477 13.4674C37.5925 12.3208 38.5758 11.3271 39.1053 11.8622C39.6273 12.3897 38.954 13.0088 37.5925 15.7606Z" fill="#004D4D" stroke="#004D4D" stroke-width="0.15015" stroke-linejoin="round"/>
<path d="M43.7193 21.7954L41.3745 19.5022C43.7193 18.3556 44.7026 17.3618 45.232 17.8969C45.754 18.4245 45.0808 19.0435 43.7193 21.7954Z" fill="#333333" stroke="#333333" stroke-width="0.15015" stroke-linejoin="round"/>
<path d="M37.5925 15.7606L35.2477 13.4673L20.2712 28.5261L22.5404 30.7428L37.5925 15.7606Z" fill="#121212" stroke="#121212" stroke-width="0.15015" stroke-linejoin="round"/>
<path d="M43.7192 21.7953L41.3744 19.5021L26.3979 34.5608L28.6671 36.7776L43.7192 21.7953Z" fill="#121212" stroke="#121212" stroke-width="0.15015" stroke-linejoin="round"/>
<path d="M19.1366 29.3669L21.7083 32.0423L22.5404 30.7428L20.2712 28.5261L19.1366 29.3669Z" fill="#404040" stroke="#404040" stroke-width="0.15015" stroke-linejoin="round"/>
<ellipse cx="0.60511" cy="36.7052" rx="0.60511" ry="0.611521" fill="#404040"/>
<ellipse cx="22.0866" cy="55.5094" rx="0.60511" ry="0.611521" fill="#404040"/>
<ellipse cx="44.9295" cy="49.7" rx="0.60511" ry="0.611521" fill="#404040"/>
<ellipse cx="54.3087" cy="23.7103" rx="0.499216" ry="0.504505" fill="#404040"/>
<ellipse cx="4.2358" cy="37.4695" rx="0.378194" ry="0.382201" fill="#6A0D91"/>
<ellipse cx="26.3224" cy="56.4268" rx="0.567291" ry="0.573301" fill="#6A0D91"/>
<ellipse cx="38.2355" cy="43.3937" rx="0.425468" ry="0.429976" fill="#6A0D91"/>
<ellipse cx="54.4764" cy="36.4161" rx="0.319101" ry="0.322482" fill="#6A0D91"/>
<ellipse cx="6.58065" cy="12.7794" rx="0.378194" ry="0.382201" fill="#6A0D91"/>
<ellipse cx="21.7462" cy="14.3465" rx="0.113458" ry="0.11466" fill="#6A0D91"/>
<ellipse cx="37.8573" cy="5.86157" rx="0.264736" ry="0.26754" fill="#6A0D91"/>
<path d="M10.0318 26.2334C10.0414 26.2072 10.0786 26.2072 10.0882 26.2334L10.1982 26.534C10.2012 26.5423 10.2077 26.5488 10.2159 26.5518L10.5142 26.6634C10.5402 26.6731 10.5402 26.7099 10.5142 26.7196L10.2159 26.8312C10.2077 26.8343 10.2012 26.8408 10.1982 26.849L10.0882 27.1496C10.0786 27.1759 10.0414 27.1759 10.0318 27.1496L9.92172 26.849C9.9187 26.8408 9.91224 26.8343 9.90404 26.8312L9.60572 26.7196C9.5797 26.7099 9.5797 26.6731 9.60572 26.6634L9.90404 26.5518C9.91224 26.5488 9.9187 26.5423 9.92172 26.534L10.0318 26.2334Z" fill="#404040"/>
<path d="M21.0751 4.21868C21.0847 4.1924 21.1219 4.1924 21.1315 4.21868L21.2416 4.51926C21.2446 4.52749 21.251 4.53399 21.2592 4.53706L21.5575 4.64862C21.5836 4.65834 21.5836 4.69514 21.5575 4.70487L21.2592 4.81643C21.251 4.8195 21.2446 4.826 21.2416 4.83423L21.1315 5.13481C21.1219 5.16108 21.0847 5.16108 21.0751 5.13481L20.965 4.83423C20.962 4.826 20.9556 4.8195 20.9474 4.81643L20.649 4.70487C20.623 4.69514 20.623 4.65834 20.649 4.64862L20.9474 4.53706C20.9556 4.53399 20.962 4.52749 20.965 4.51926L21.0751 4.21868Z" fill="#404040"/>
<path d="M39.5309 2.53701C39.5406 2.51073 39.5777 2.51073 39.5873 2.53701L39.6974 2.83759C39.7004 2.84582 39.7069 2.85232 39.7151 2.85539L40.0134 2.96694C40.0394 2.97667 40.0394 3.01347 40.0134 3.0232L39.7151 3.13476C39.7069 3.13783 39.7004 3.14433 39.6974 3.15256L39.5873 3.45314C39.5777 3.47941 39.5406 3.47941 39.5309 3.45314L39.4209 3.15256C39.4179 3.14433 39.4114 3.13783 39.4032 3.13476L39.1049 3.0232C39.0789 3.01347 39.0789 2.97667 39.1049 2.96694L39.4032 2.85539C39.4114 2.85232 39.4179 2.84582 39.4209 2.83759L39.5309 2.53701Z" fill="#404040"/>
<path d="M21.6327 33.5711L1.05894 54.5157L3.10119 56.5032L23.7506 35.635L21.6327 33.5711Z" fill="url(#paint0_linear_4056_54)"/>
<path d="M24.3557 37.3931L8.6985 53.4456L10.2113 54.9744L26.0198 39.0748L24.3557 37.3931Z" fill="url(#paint1_linear_4056_54)"/>
<path d="M18.1533 31.3543L2.57176 47.3303L4.08454 48.8591L19.8174 33.036L18.1533 31.3543Z" fill="url(#paint2_linear_4056_54)"/>
<path d="M17.9265 31.0486L20.0444 33.1889L20.5738 32.1952L18.9854 30.59L17.9265 31.0486Z" fill="#404040" stroke="#404040" stroke-width="0.15015" stroke-linejoin="round"/>
<path d="M21.7084 32.0423L19.1366 29.3669L18.7585 30.2842L20.8007 32.3481L21.7084 32.0423Z" fill="#6A0D91" stroke="#6A0D91" stroke-width="0.15015" stroke-linejoin="round"/>
<path d="M21.4815 33.3418L23.9019 35.7879L24.4314 34.7177L22.616 32.8831L21.4815 33.3418Z" fill="#404040" stroke="#404040" stroke-width="0.15015" stroke-linejoin="round"/>
<path d="M24.0531 37.0833L26.171 39.2236L26.7005 38.2299L25.1121 36.6247L24.0531 37.0833Z" fill="#404040" stroke="#404040" stroke-width="0.15015" stroke-linejoin="round"/>
<path d="M27.8351 38.077L25.2634 35.4016L24.8852 36.3189L26.9274 38.3828L27.8351 38.077Z" fill="#6A0D91" stroke="#6A0D91" stroke-width="0.15015" stroke-linejoin="round"/>
<path d="M25.2634 35.4017L27.8351 38.0771L28.6671 36.7776L26.398 34.5608L25.2634 35.4017Z" fill="#404040" stroke="#404040" stroke-width="0.15015" stroke-linejoin="round"/>
<path d="M26.0954 34.0297L23.1455 31.0486L22.3135 32.4245L24.8096 34.947L26.0954 34.0297Z" fill="#6A0D91" stroke="#6A0D91" stroke-width="0.15015" stroke-linejoin="round"/>
<path d="M88.3671 24.6633C90.7887 24.6633 91.9995 25.8565 91.9995 28.2427V38H88.7648V29.2238C88.7648 28.5167 88.6411 28.0306 88.3936 27.7655C88.1638 27.5003 87.7573 27.3678 87.1739 27.3678C86.5199 27.3678 85.8482 27.5092 85.1589 27.792C84.4695 28.0748 83.6387 28.499 82.6665 29.0647L82.4279 27.2087C83.4178 26.3956 84.4076 25.7681 85.3975 25.3262C86.405 24.8843 87.3949 24.6633 88.3671 24.6633ZM83.0112 19.44L83.0377 24.2126C83.0377 24.8666 83.0024 25.4853 82.9317 26.0686C82.8786 26.6342 82.7991 27.1203 82.693 27.5269L83.0112 27.8981V38H79.803V19.44H83.0112ZM101.406 24.6633C102.997 24.6633 104.261 24.8843 105.198 25.3262C106.152 25.7681 106.833 26.4928 107.239 27.5003C107.663 28.5079 107.876 29.8424 107.876 31.504C107.876 33.1656 107.663 34.5001 107.239 35.5077C106.833 36.4975 106.152 37.2222 105.198 37.6818C104.261 38.1237 102.997 38.3447 101.406 38.3447C99.8506 38.3447 98.5956 38.1237 97.6411 37.6818C96.7042 37.2222 96.0237 36.4975 95.5995 35.5077C95.1753 34.5001 94.9631 33.1656 94.9631 31.504C94.9631 29.8424 95.1753 28.5079 95.5995 27.5003C96.0237 26.4928 96.7042 25.7681 97.6411 25.3262C98.5956 24.8843 99.8506 24.6633 101.406 24.6633ZM101.406 27.1026C100.628 27.1026 100.01 27.2352 99.5501 27.5003C99.1082 27.7478 98.79 28.1897 98.5956 28.8261C98.4012 29.4624 98.3039 30.355 98.3039 31.504C98.3039 32.653 98.4012 33.5456 98.5956 34.1819C98.79 34.8183 99.1082 35.2602 99.5501 35.5077C100.01 35.7551 100.628 35.8789 101.406 35.8789C102.202 35.8789 102.829 35.7551 103.289 35.5077C103.748 35.2602 104.066 34.8183 104.243 34.1819C104.438 33.5456 104.535 32.653 104.535 31.504C104.535 30.355 104.438 29.4624 104.243 28.8261C104.066 28.1897 103.748 27.7478 103.289 27.5003C102.829 27.2352 102.202 27.1026 101.406 27.1026ZM114.029 24.9815V33.7842C114.011 34.4382 114.135 34.9067 114.4 35.1895C114.683 35.4723 115.134 35.6137 115.752 35.6137C116.371 35.6137 116.99 35.4811 117.608 35.216C118.227 34.9509 118.978 34.5531 119.862 34.0229L120.18 35.9319C119.19 36.7273 118.236 37.3283 117.317 37.7349C116.398 38.1414 115.443 38.3447 114.453 38.3447C112.032 38.3447 110.821 37.1515 110.821 34.7653V24.9815H114.029ZM122.752 24.9815V38H120.207L119.862 35.4811L119.544 35.1099V24.9815H122.752ZM147.252 24.9815V27.2087L131.635 27.2352C130.91 27.2352 130.335 27.2529 129.911 27.2882C129.505 27.3059 129.213 27.3943 129.036 27.5534C128.877 27.7125 128.798 27.9776 128.798 28.3488C128.798 28.8614 128.939 29.2061 129.222 29.3829C129.505 29.5419 129.964 29.701 130.601 29.8601L134.154 30.7086C135.196 30.9737 135.965 31.3803 136.46 31.9282C136.955 32.4585 137.203 33.2805 137.203 34.3941C137.203 35.4723 136.999 36.2942 136.593 36.8599C136.204 37.4078 135.585 37.7879 134.737 38C133.906 38.1944 132.837 38.2917 131.529 38.2917C131.016 38.2917 130.256 38.2651 129.248 38.2121C128.241 38.1768 127.136 38.0619 125.934 37.8674L126.146 35.7728C126.5 35.7728 126.924 35.7816 127.419 35.7993C127.914 35.817 128.444 35.8258 129.01 35.8258C129.575 35.8258 130.132 35.8258 130.68 35.8258C131.564 35.8258 132.253 35.7993 132.748 35.7463C133.243 35.6756 133.597 35.543 133.809 35.3486C134.021 35.1365 134.127 34.836 134.127 34.4471C134.127 33.9345 133.959 33.5898 133.623 33.413C133.287 33.2363 132.828 33.086 132.245 32.9623L128.771 32.1138C127.976 31.9017 127.357 31.6366 126.915 31.3184C126.473 30.9826 126.155 30.576 125.961 30.0987C125.766 29.6038 125.669 29.0028 125.669 28.2958C125.669 27.4473 125.846 26.7845 126.199 26.3072C126.57 25.8299 127.145 25.4941 127.923 25.2997C128.718 25.0875 129.761 24.9815 131.051 24.9815H147.252ZM143.381 21.2695V34.0759C143.381 34.6238 143.504 35.0127 143.752 35.2425C143.999 35.4723 144.406 35.5872 144.971 35.5872H146.774L147.119 37.8409C146.836 37.9293 146.483 38.0088 146.058 38.0795C145.634 38.1502 145.21 38.1944 144.786 38.2121C144.379 38.2475 144.043 38.2651 143.778 38.2651C142.629 38.2651 141.745 37.9646 141.127 37.3637C140.508 36.745 140.199 35.8612 140.199 34.7122V21.2695H143.381ZM155.522 24.6633C157.113 24.6633 158.377 24.8843 159.314 25.3262C160.268 25.7681 160.949 26.4928 161.355 27.5003C161.78 28.5079 161.992 29.8424 161.992 31.504C161.992 33.1656 161.78 34.5001 161.355 35.5077C160.949 36.4975 160.268 37.2222 159.314 37.6818C158.377 38.1237 157.113 38.3447 155.522 38.3447C153.967 38.3447 152.712 38.1237 151.757 37.6818C150.82 37.2222 150.14 36.4975 149.716 35.5077C149.291 34.5001 149.079 33.1656 149.079 31.504C149.079 29.8424 149.291 28.5079 149.716 27.5003C150.14 26.4928 150.82 25.7681 151.757 25.3262C152.712 24.8843 153.967 24.6633 155.522 24.6633ZM155.522 27.1026C154.744 27.1026 154.126 27.2352 153.666 27.5003C153.224 27.7478 152.906 28.1897 152.712 28.8261C152.517 29.4624 152.42 30.355 152.42 31.504C152.42 32.653 152.517 33.5456 152.712 34.1819C152.906 34.8183 153.224 35.2602 153.666 35.5077C154.126 35.7551 154.744 35.8789 155.522 35.8789C156.318 35.8789 156.945 35.7551 157.405 35.5077C157.864 35.2602 158.182 34.8183 158.359 34.1819C158.554 33.5456 158.651 32.653 158.651 31.504C158.651 30.355 158.554 29.4624 158.359 28.8261C158.182 28.1897 157.864 27.7478 157.405 27.5003C156.945 27.2352 156.318 27.1026 155.522 27.1026ZM173.58 24.6633C176.002 24.6633 177.213 25.8565 177.213 28.2427V38H174.005V29.2238C174.005 28.5167 173.881 28.0306 173.634 27.7655C173.386 27.5003 172.971 27.3678 172.387 27.3678C171.733 27.3678 171.062 27.518 170.372 27.8185C169.683 28.1013 168.852 28.5167 167.88 29.0647L167.747 27.1291C168.702 26.3337 169.674 25.7239 170.664 25.2997C171.654 24.8754 172.626 24.6633 173.58 24.6633ZM167.641 24.9815L167.959 27.5269L168.225 27.8981V38H165.016V24.9815H167.641Z" fill="black"/>
<defs>
<linearGradient id="paint0_linear_4056_54" x1="22.4846" y1="34.7728" x2="1.85578" y2="55.3058" gradientUnits="userSpaceOnUse">
<stop stop-color="#AF3AEB"/>
<stop offset="1" stop-color="#EEE1FF" stop-opacity="0"/>
</linearGradient>
<linearGradient id="paint1_linear_4056_54" x1="25.0365" y1="38.3868" x2="9.28988" y2="54.044" gradientUnits="userSpaceOnUse">
<stop stop-color="#AF3AEB"/>
<stop offset="1" stop-color="#EEE1FF" stop-opacity="0"/>
</linearGradient>
<linearGradient id="paint2_linear_4056_54" x1="18.9097" y1="32.2716" x2="3.16314" y2="47.9288" gradientUnits="userSpaceOnUse">
<stop stop-color="#AF3AEB"/>
<stop offset="1" stop-color="#EEE1FF" stop-opacity="0"/>
</linearGradient>
</defs>
</svg>
