<svg width="166" height="57" viewBox="0 0 166 57" fill="none" xmlns="http://www.w3.org/2000/svg">
<path d="M54.884 5.82333L51.6736 2.61285C54.0432 1.46624 55.4956 0.472523 56.3364 1.31336C57.0244 2.00133 56.26 3.07149 54.884 5.82333Z" fill="#D9D9D9" stroke="#D9D9D9" stroke-width="0.15288" stroke-linejoin="round"/>
<path d="M54.8841 5.82334L51.6736 2.61285L46.7814 7.6579L49.9155 10.7919L54.8841 5.82334Z" fill="#F2F2F2" stroke="#F2F2F2" stroke-width="0.15288" stroke-linejoin="round"/>
<path d="M48.6159 11.9385L45.5583 8.88092L40.5897 13.8495L43.7238 16.9071L48.6159 11.9385Z" fill="#F2F2F2" stroke="#F2F2F2" stroke-width="0.15288" stroke-linejoin="round"/>
<path d="M42.2714 18.2066L39.2138 15.149L23.3907 31.0485L26.3719 34.0297L42.2714 18.2066Z" fill="#F2F2F2" stroke="#F2F2F2" stroke-width="0.15288" stroke-linejoin="round"/>
<path d="M45.5584 8.87411L48.6228 11.9385L48.9217 11.1164L46.4553 8.57514L45.5584 8.87411Z" fill="#D9D9D9" stroke="#D9D9D9" stroke-width="0.15288" stroke-linejoin="round"/>
<path d="M39.2138 15.149L42.2714 18.2066L42.6536 17.3845L40.1871 14.8433L39.2138 15.149Z" fill="#2C3333" stroke="#2C3333" stroke-width="0.15288" stroke-linejoin="round"/>
<path d="M49.9154 10.7919L46.7814 7.6579L46.4756 8.49874L48.9981 11.0977L49.9154 10.7919Z" fill="#B63BF2" stroke="#B63BF2" stroke-width="0.15288" stroke-linejoin="round"/>
<path d="M43.7238 16.9072L40.5898 13.8495L40.2076 14.7668L42.7301 17.3658L43.7238 16.9072Z" fill="#2C3333" stroke="#2C3333" stroke-width="0.15288" stroke-linejoin="round"/>
<path d="M37.9908 15.7606L35.6212 13.4674C37.9908 12.3208 38.9845 11.327 39.5196 11.8621C40.0471 12.3897 39.3667 13.0087 37.9908 15.7606Z" fill="#D9D9D9" stroke="#D9D9D9" stroke-width="0.15288" stroke-linejoin="round"/>
<path d="M44.1824 21.7954L41.8128 19.5022C44.1824 18.3556 45.1761 17.3618 45.7112 17.8969C46.2388 18.4245 45.5583 19.0435 44.1824 21.7954Z" fill="#D9D9D9" stroke="#D9D9D9" stroke-width="0.15288" stroke-linejoin="round"/>
<path d="M37.9908 15.7606L35.6211 13.4673L20.486 28.5261L22.7792 30.7428L37.9908 15.7606Z" fill="#F2F2F2" stroke="#F2F2F2" stroke-width="0.15288" stroke-linejoin="round"/>
<path d="M44.1824 21.7953L41.8128 19.5021L26.6776 34.5608L28.9708 36.7776L44.1824 21.7953Z" fill="#F2F2F2" stroke="#F2F2F2" stroke-width="0.15288" stroke-linejoin="round"/>
<path d="M19.3394 29.3669L21.9383 32.0423L22.7792 30.7428L20.486 28.5261L19.3394 29.3669Z" fill="#C9C9C9" stroke="#C9C9C9" stroke-width="0.15288" stroke-linejoin="round"/>
<circle cx="0.611521" cy="36.7052" r="0.611521" fill="#2C3333"/>
<circle cx="22.3205" cy="55.5094" r="0.611521" fill="#2C3333"/>
<circle cx="45.4054" cy="49.7" r="0.611521" fill="#2C3333"/>
<circle cx="54.8841" cy="23.7103" r="0.504505" fill="#2C3333"/>
<circle cx="4.28067" cy="37.4695" r="0.382201" fill="#B63BF2"/>
<circle cx="26.6012" cy="56.4267" r="0.573301" fill="#B63BF2"/>
<circle cx="38.6405" cy="43.3937" r="0.429976" fill="#B63BF2"/>
<circle cx="55.0536" cy="36.4161" r="0.322482" fill="#B63BF2"/>
<circle cx="6.65033" cy="12.7794" r="0.382201" fill="#B63BF2"/>
<circle cx="21.9766" cy="14.3464" r="0.11466" fill="#B63BF2"/>
<circle cx="38.2583" cy="5.86157" r="0.26754" fill="#B63BF2"/>
<path d="M10.1379 26.2339C10.1477 26.2073 10.1854 26.2073 10.1952 26.2339L10.3062 26.5338C10.3093 26.5421 10.3159 26.5487 10.3243 26.5518L10.6241 26.6628C10.6508 26.6727 10.6508 26.7103 10.6241 26.7202L10.3243 26.8311C10.3159 26.8342 10.3093 26.8408 10.3062 26.8492L10.1952 27.1491C10.1854 27.1757 10.1477 27.1757 10.1379 27.1491L10.0269 26.8492C10.0238 26.8408 10.0172 26.8342 10.0088 26.8311L9.70896 26.7202C9.68234 26.7103 9.68234 26.6727 9.70896 26.6628L10.0088 26.5518C10.0172 26.5487 10.0238 26.5421 10.0269 26.5338L10.1379 26.2339Z" fill="#2C3333"/>
<path d="M21.2982 4.21919C21.308 4.19257 21.3457 4.19257 21.3555 4.21919L21.4665 4.51907C21.4696 4.52744 21.4762 4.53404 21.4846 4.53713L21.7844 4.6481C21.8111 4.65795 21.8111 4.6956 21.7844 4.70545L21.4846 4.81642C21.4762 4.81951 21.4696 4.82611 21.4665 4.83448L21.3555 5.13436C21.3457 5.16098 21.308 5.16098 21.2982 5.13436L21.1872 4.83448C21.1841 4.82611 21.1775 4.81951 21.1692 4.81642L20.8693 4.70545C20.8427 4.6956 20.8427 4.65795 20.8693 4.6481L21.1692 4.53713C21.1775 4.53404 21.1841 4.52744 21.1872 4.51907L21.2982 4.21919Z" fill="#2C3333"/>
<path d="M39.9496 2.53752C39.9594 2.5109 39.9971 2.5109 40.0069 2.53752L40.1179 2.8374C40.121 2.84577 40.1276 2.85236 40.1359 2.85546L40.4358 2.96643C40.4624 2.97628 40.4624 3.01393 40.4358 3.02378L40.1359 3.13474C40.1276 3.13784 40.121 3.14444 40.1179 3.15281L40.0069 3.45269C39.9971 3.47931 39.9594 3.47931 39.9496 3.45269L39.8386 3.15281C39.8355 3.14444 39.8289 3.13784 39.8205 3.13474L39.5206 3.02378C39.494 3.01393 39.494 2.97628 39.5206 2.96643L39.8205 2.85546C39.8289 2.85236 39.8355 2.84577 39.8386 2.8374L39.9496 2.53752Z" fill="#2C3333"/>
<path d="M21.8619 33.5711L1.07014 54.5157L3.13403 56.5031L24.0022 35.635L21.8619 33.5711Z" fill="url(#paint0_linear_4056_54)"/>
<path d="M24.6138 37.3931L8.79065 53.4456L10.3195 54.9744L26.2954 39.0748L24.6138 37.3931Z" fill="url(#paint1_linear_4056_54)"/>
<path d="M18.3457 31.3543L2.599 47.3303L4.1278 48.8591L20.0273 33.036L18.3457 31.3543Z" fill="url(#paint2_linear_4056_54)"/>
<path d="M18.1164 31.0486L20.2567 33.1889L20.7918 32.1952L19.1865 30.59L18.1164 31.0486Z" fill="#2B2F37" stroke="#2B2F37" stroke-width="0.15288" stroke-linejoin="round"/>
<path d="M21.9383 32.0423L19.3394 29.3669L18.9572 30.2842L21.0211 32.348L21.9383 32.0423Z" fill="#B63BF2" stroke="#B63BF2" stroke-width="0.15288" stroke-linejoin="round"/>
<path d="M21.709 33.3418L24.1551 35.7879L24.6902 34.7177L22.8556 32.8831L21.709 33.3418Z" fill="#2B2F37" stroke="#2B2F37" stroke-width="0.15288" stroke-linejoin="round"/>
<path d="M24.308 37.0833L26.4483 39.2236L26.9834 38.2299L25.3781 36.6247L24.308 37.0833Z" fill="#2B2F37" stroke="#2B2F37" stroke-width="0.15288" stroke-linejoin="round"/>
<path d="M28.13 38.077L25.531 35.4016L25.1488 36.3189L27.2127 38.3828L28.13 38.077Z" fill="#B63BF2" stroke="#B63BF2" stroke-width="0.15288" stroke-linejoin="round"/>
<path d="M25.531 35.4017L28.13 38.0771L28.9708 36.7776L26.6776 34.5608L25.531 35.4017Z" fill="#C9C9C9" stroke="#C9C9C9" stroke-width="0.15288" stroke-linejoin="round"/>
<path d="M26.3719 34.0297L23.3907 31.0485L22.5499 32.4244L25.0724 34.947L26.3719 34.0297Z" fill="#B63BF2" stroke="#B63BF2" stroke-width="0.15288" stroke-linejoin="round"/>
<path d="M74.9604 24.6633C77.382 24.6633 78.5928 25.8565 78.5928 28.2427V38H75.3581V29.2238C75.3581 28.5167 75.2344 28.0306 74.9869 27.7655C74.7571 27.5003 74.3505 27.3678 73.7672 27.3678C73.1132 27.3678 72.4415 27.5092 71.7521 27.792C71.0628 28.0748 70.232 28.499 69.2598 29.0647L69.0212 27.2087C70.011 26.3956 71.0009 25.7681 71.9908 25.3262C72.9983 24.8843 73.9882 24.6633 74.9604 24.6633ZM69.6045 19.44L69.631 24.2126C69.631 24.8666 69.5957 25.4853 69.5249 26.0686C69.4719 26.6342 69.3924 27.1203 69.2863 27.5269L69.6045 27.8981V38H66.3963V19.44H69.6045ZM87.9994 24.6633C89.5903 24.6633 90.8541 24.8843 91.7909 25.3262C92.7455 25.7681 93.426 26.4928 93.8325 27.5003C94.2568 28.5079 94.4689 29.8424 94.4689 31.504C94.4689 33.1656 94.2568 34.5001 93.8325 35.5077C93.426 36.4975 92.7455 37.2222 91.7909 37.6818C90.8541 38.1237 89.5903 38.3447 87.9994 38.3447C86.4439 38.3447 85.1889 38.1237 84.2344 37.6818C83.2975 37.2222 82.617 36.4975 82.1928 35.5077C81.7685 34.5001 81.5564 33.1656 81.5564 31.504C81.5564 29.8424 81.7685 28.5079 82.1928 27.5003C82.617 26.4928 83.2975 25.7681 84.2344 25.3262C85.1889 24.8843 86.4439 24.6633 87.9994 24.6633ZM87.9994 27.1026C87.2216 27.1026 86.603 27.2352 86.1434 27.5003C85.7015 27.7478 85.3833 28.1897 85.1889 28.8261C84.9944 29.4624 84.8972 30.355 84.8972 31.504C84.8972 32.653 84.9944 33.5456 85.1889 34.1819C85.3833 34.8183 85.7015 35.2602 86.1434 35.5077C86.603 35.7551 87.2216 35.8789 87.9994 35.8789C88.7948 35.8789 89.4223 35.7551 89.8819 35.5077C90.3415 35.2602 90.6597 34.8183 90.8364 34.1819C91.0309 33.5456 91.1281 32.653 91.1281 31.504C91.1281 30.355 91.0309 29.4624 90.8364 28.8261C90.6597 28.1897 90.3415 27.7478 89.8819 27.5003C89.4223 27.2352 88.7948 27.1026 87.9994 27.1026ZM100.622 24.9815V33.7842C100.605 34.4382 100.728 34.9067 100.993 35.1895C101.276 35.4723 101.727 35.6137 102.346 35.6137C102.964 35.6137 103.583 35.4811 104.202 35.216C104.82 34.9509 105.572 34.5531 106.455 34.0229L106.774 35.9319C105.784 36.7273 104.829 37.3283 103.91 37.7349C102.991 38.1414 102.036 38.3447 101.047 38.3447C98.6249 38.3447 97.414 37.1515 97.414 34.7653V24.9815H100.622ZM109.345 24.9815V38H106.8L106.455 35.4811L106.137 35.1099V24.9815H109.345ZM133.845 24.9815V27.2087L118.228 27.2352C117.503 27.2352 116.929 27.2529 116.505 27.2882C116.098 27.3059 115.806 27.3943 115.63 27.5534C115.47 27.7125 115.391 27.9776 115.391 28.3488C115.391 28.8614 115.532 29.2061 115.815 29.3829C116.098 29.5419 116.558 29.701 117.194 29.8601L120.747 30.7086C121.79 30.9737 122.559 31.3803 123.054 31.9282C123.548 32.4585 123.796 33.2805 123.796 34.3941C123.796 35.4723 123.593 36.2942 123.186 36.8599C122.797 37.4078 122.179 37.7879 121.33 38C120.499 38.1944 119.43 38.2917 118.122 38.2917C117.609 38.2917 116.849 38.2651 115.842 38.2121C114.834 38.1768 113.729 38.0619 112.527 37.8674L112.74 35.7728C113.093 35.7728 113.517 35.7816 114.012 35.7993C114.507 35.817 115.037 35.8258 115.603 35.8258C116.169 35.8258 116.725 35.8258 117.273 35.8258C118.157 35.8258 118.847 35.7993 119.342 35.7463C119.836 35.6756 120.19 35.543 120.402 35.3486C120.614 35.1365 120.72 34.836 120.72 34.4471C120.72 33.9345 120.552 33.5898 120.217 33.413C119.881 33.2363 119.421 33.086 118.838 32.9623L115.364 32.1138C114.569 31.9017 113.95 31.6366 113.508 31.3184C113.067 30.9826 112.748 30.576 112.554 30.0987C112.359 29.6038 112.262 29.0028 112.262 28.2958C112.262 27.4473 112.439 26.7845 112.793 26.3072C113.164 25.8299 113.738 25.4941 114.516 25.2997C115.311 25.0875 116.354 24.9815 117.645 24.9815H133.845ZM129.974 21.2695V34.0759C129.974 34.6238 130.098 35.0127 130.345 35.2425C130.592 35.4723 130.999 35.5872 131.565 35.5872H133.368L133.712 37.8409C133.429 37.9293 133.076 38.0088 132.652 38.0795C132.228 38.1502 131.803 38.1944 131.379 38.2121C130.972 38.2475 130.637 38.2651 130.372 38.2651C129.223 38.2651 128.339 37.9646 127.72 37.3637C127.101 36.745 126.792 35.8612 126.792 34.7122V21.2695H129.974ZM142.115 24.6633C143.706 24.6633 144.97 24.8843 145.907 25.3262C146.862 25.7681 147.542 26.4928 147.949 27.5003C148.373 28.5079 148.585 29.8424 148.585 31.504C148.585 33.1656 148.373 34.5001 147.949 35.5077C147.542 36.4975 146.862 37.2222 145.907 37.6818C144.97 38.1237 143.706 38.3447 142.115 38.3447C140.56 38.3447 139.305 38.1237 138.35 37.6818C137.414 37.2222 136.733 36.4975 136.309 35.5077C135.885 34.5001 135.673 33.1656 135.673 31.504C135.673 29.8424 135.885 28.5079 136.309 27.5003C136.733 26.4928 137.414 25.7681 138.35 25.3262C139.305 24.8843 140.56 24.6633 142.115 24.6633ZM142.115 27.1026C141.338 27.1026 140.719 27.2352 140.259 27.5003C139.818 27.7478 139.499 28.1897 139.305 28.8261C139.111 29.4624 139.013 30.355 139.013 31.504C139.013 32.653 139.111 33.5456 139.305 34.1819C139.499 34.8183 139.818 35.2602 140.259 35.5077C140.719 35.7551 141.338 35.8789 142.115 35.8789C142.911 35.8789 143.538 35.7551 143.998 35.5077C144.458 35.2602 144.776 34.8183 144.953 34.1819C145.147 33.5456 145.244 32.653 145.244 31.504C145.244 30.355 145.147 29.4624 144.953 28.8261C144.776 28.1897 144.458 27.7478 143.998 27.5003C143.538 27.2352 142.911 27.1026 142.115 27.1026ZM160.174 24.6633C162.595 24.6633 163.806 25.8565 163.806 28.2427V38H160.598V29.2238C160.598 28.5167 160.474 28.0306 160.227 27.7655C159.979 27.5003 159.564 27.3678 158.981 27.3678C158.327 27.3678 157.655 27.518 156.966 27.8185C156.276 28.1013 155.445 28.5167 154.473 29.0647L154.341 27.1291C155.295 26.3337 156.267 25.7239 157.257 25.2997C158.247 24.8754 159.219 24.6633 160.174 24.6633ZM154.235 24.9815L154.553 27.5269L154.818 27.8981V38H151.61V24.9815H154.235Z" fill="black"/>
<defs>
<linearGradient id="paint0_linear_4056_54" x1="22.7228" y1="34.7728" x2="2.09411" y2="55.5231" gradientUnits="userSpaceOnUse">
<stop stop-color="#AF3AEB"/>
<stop offset="1" stop-color="#EEE1FF" stop-opacity="0"/>
</linearGradient>
<linearGradient id="paint1_linear_4056_54" x1="25.3017" y1="38.3868" x2="9.55505" y2="54.21" gradientUnits="userSpaceOnUse">
<stop stop-color="#AF3AEB"/>
<stop offset="1" stop-color="#EEE1FF" stop-opacity="0"/>
</linearGradient>
<linearGradient id="paint2_linear_4056_54" x1="19.1101" y1="32.2716" x2="3.3634" y2="48.0947" gradientUnits="userSpaceOnUse">
<stop stop-color="#AF3AEB"/>
<stop offset="1" stop-color="#EEE1FF" stop-opacity="0"/>
</linearGradient>
</defs>
</svg>
