<svg width="201" height="64" viewBox="0 0 201 64" fill="none" xmlns="http://www.w3.org/2000/svg">
<path d="M58.4929 9.86367L55.3584 6.79729C57.672 5.70215 59.09 4.75303 59.9109 5.55613C60.5826 6.21322 59.8363 7.23535 58.4929 9.86367Z" fill="#D9D9D9" stroke="#D9D9D9" stroke-width="0.146018" stroke-linejoin="round"/>
<path d="M58.493 9.8635L55.3585 6.79712L50.582 11.6157L53.6419 14.6091L58.493 9.8635Z" fill="white" stroke="white" stroke-width="0.146018" stroke-linejoin="round"/>
<path d="M52.3734 15.7045L49.3882 12.7842L44.5371 17.5298L47.597 20.4501L52.3734 15.7045Z" fill="white" stroke="white" stroke-width="0.146018" stroke-linejoin="round"/>
<path d="M46.1791 21.6911L43.1939 18.7708L27.7451 33.9567L30.6557 36.804L46.1791 21.6911Z" fill="white" stroke="white" stroke-width="0.146018" stroke-linejoin="round"/>
<path d="M49.3881 12.7775L52.38 15.7043L52.6719 14.9191L50.2638 12.4919L49.3881 12.7775Z" fill="#D9D9D9" stroke="#D9D9D9" stroke-width="0.146018" stroke-linejoin="round"/>
<path d="M43.1938 18.7708L46.1791 21.6912L46.5522 20.9059L44.1441 18.4788L43.1938 18.7708Z" fill="#2C3333" stroke="#2C3333" stroke-width="0.146018" stroke-linejoin="round"/>
<path d="M53.6421 14.6093L50.5822 11.616L50.2837 12.4191L52.7465 14.9014L53.6421 14.6093Z" fill="#B63BF2" stroke="#B63BF2" stroke-width="0.146018" stroke-linejoin="round"/>
<path d="M47.5971 20.4499L44.5372 17.5295L44.1641 18.4057L46.6269 20.888L47.5971 20.4499Z" fill="#2C3333" stroke="#2C3333" stroke-width="0.146018" stroke-linejoin="round"/>
<path d="M41.9996 19.3549L39.686 17.1646C41.9996 16.0695 42.9698 15.1204 43.4922 15.6314C44.0073 16.1353 43.343 16.7266 41.9996 19.3549Z" fill="#D9D9D9" stroke="#D9D9D9" stroke-width="0.146018" stroke-linejoin="round"/>
<path d="M48.0445 25.1188L45.731 22.9286C48.0445 21.8334 49.0147 20.8843 49.5372 21.3954C50.0522 21.8992 49.3879 22.4905 48.0445 25.1188Z" fill="#D9D9D9" stroke="#D9D9D9" stroke-width="0.146018" stroke-linejoin="round"/>
<path d="M41.9998 19.3548L39.6862 17.1646L24.9092 31.5474L27.1481 33.6646L41.9998 19.3548Z" fill="white" stroke="white" stroke-width="0.146018" stroke-linejoin="round"/>
<path d="M48.0447 25.1187L45.7312 22.9285L30.9541 37.3113L33.193 39.4285L48.0447 25.1187Z" fill="white" stroke="white" stroke-width="0.146018" stroke-linejoin="round"/>
<path d="M23.7895 32.3504L26.327 34.9058L27.1479 33.6646L24.909 31.5473L23.7895 32.3504Z" fill="#C9C9C9" stroke="#C9C9C9" stroke-width="0.146018" stroke-linejoin="round"/>
<ellipse cx="5.50477" cy="39.3595" rx="0.597053" ry="0.584073" fill="#C9C9C9"/>
<ellipse cx="26.7001" cy="57.3197" rx="0.597053" ry="0.584073" fill="#C9C9C9"/>
<ellipse cx="49.2391" cy="51.7708" rx="0.597053" ry="0.584073" fill="#C9C9C9"/>
<ellipse cx="58.4931" cy="26.9479" rx="0.492568" ry="0.48186" fill="#C9C9C9"/>
<ellipse cx="9.08702" cy="40.0894" rx="0.373158" ry="0.365046" fill="#B63BF2"/>
<ellipse cx="30.8796" cy="58.1958" rx="0.559737" ry="0.547569" fill="#B63BF2"/>
<ellipse cx="42.6342" cy="45.7478" rx="0.419803" ry="0.410676" fill="#B63BF2"/>
<ellipse cx="58.6586" cy="39.0834" rx="0.314852" ry="0.308007" fill="#B63BF2"/>
<ellipse cx="11.4005" cy="16.5076" rx="0.373158" ry="0.365046" fill="#B63BF2"/>
<ellipse cx="26.3644" cy="18.0043" rx="0.111947" ry="0.109514" fill="#B63BF2"/>
<ellipse cx="42.2607" cy="9.90031" rx="0.26121" ry="0.255532" fill="#B63BF2"/>
<path d="M14.8066 29.3564C14.8161 29.3312 14.8517 29.3312 14.8613 29.3564L14.9703 29.6447C14.9733 29.6526 14.9797 29.6589 14.9877 29.6618L15.2805 29.7678C15.3062 29.7771 15.3062 29.8134 15.2805 29.8227L14.9877 29.9287C14.9797 29.9316 14.9733 29.9379 14.9703 29.9458L14.8613 30.2341C14.8517 30.2593 14.8161 30.2593 14.8066 30.2341L14.6976 29.9458C14.6946 29.9379 14.6882 29.9316 14.6802 29.9287L14.3874 29.8227C14.3617 29.8134 14.3617 29.7771 14.3874 29.7678L14.6802 29.6618C14.6882 29.6589 14.6946 29.6526 14.6976 29.6447L14.8066 29.3564Z" fill="#C9C9C9"/>
<path d="M25.7026 8.32978C25.7121 8.30462 25.7477 8.30462 25.7573 8.32978L25.8663 8.61804C25.8693 8.62601 25.8757 8.63227 25.8837 8.63517L26.1765 8.74117C26.2022 8.75047 26.2022 8.78679 26.1765 8.79609L25.8837 8.9021C25.8757 8.905 25.8693 8.91125 25.8663 8.91922L25.7573 9.20748C25.7477 9.23265 25.7121 9.23265 25.7026 9.20748L25.5936 8.91922C25.5906 8.91125 25.5842 8.905 25.5762 8.9021L25.2834 8.79609C25.2577 8.78679 25.2577 8.75047 25.2834 8.74117L25.5762 8.63517C25.5842 8.63227 25.5906 8.62601 25.5936 8.61804L25.7026 8.32978Z" fill="#C9C9C9"/>
<path d="M43.9126 6.72358C43.9221 6.69842 43.9577 6.69842 43.9672 6.72358L44.0763 7.01184C44.0793 7.01981 44.0856 7.02607 44.0936 7.02897L44.3865 7.13497C44.4121 7.14427 44.4121 7.18059 44.3865 7.18989L44.0936 7.29589C44.0856 7.2988 44.0793 7.30505 44.0763 7.31302L43.9672 7.60128C43.9577 7.62644 43.9221 7.62644 43.9126 7.60128L43.8036 7.31302C43.8005 7.30505 43.7942 7.2988 43.7862 7.29589L43.4933 7.18989C43.4677 7.18059 43.4677 7.14427 43.4933 7.13497L43.7862 7.02897C43.7942 7.02607 43.8005 7.01981 43.8036 7.01184L43.9126 6.72358Z" fill="#C9C9C9"/>
<path d="M26.2524 36.366L5.95264 56.3705L7.96769 58.2687L28.3421 38.3372L26.2524 36.366Z" fill="url(#paint0_linear_4163_108)"/>
<path d="M28.939 40.0164L13.4902 55.3483L14.9829 56.8085L30.5809 41.6226L28.939 40.0164Z" fill="url(#paint1_linear_4163_108)"/>
<path d="M22.8194 34.2488L7.44531 49.5077L8.93794 50.9679L24.4613 35.855L22.8194 34.2488Z" fill="url(#paint2_linear_4163_108)"/>
<path d="M22.5954 33.9567L24.6851 36.001L25.2075 35.0519L23.6403 33.5187L22.5954 33.9567Z" fill="#2B2F37" stroke="#2B2F37" stroke-width="0.146018" stroke-linejoin="round"/>
<path d="M26.3271 34.9059L23.7897 32.3506L23.4165 33.2267L25.4316 35.1979L26.3271 34.9059Z" fill="#B63BF2" stroke="#B63BF2" stroke-width="0.146018" stroke-linejoin="round"/>
<path d="M26.1026 36.1469L28.4908 38.4832L29.0132 37.461L27.222 35.7088L26.1026 36.1469Z" fill="#2B2F37" stroke="#2B2F37" stroke-width="0.146018" stroke-linejoin="round"/>
<path d="M28.6408 39.7206L30.7305 41.7649L31.2529 40.8158L29.6857 39.2826L28.6408 39.7206Z" fill="#2B2F37" stroke="#2B2F37" stroke-width="0.146018" stroke-linejoin="round"/>
<path d="M32.3721 40.6696L29.8346 38.1143L29.4614 38.9904L31.4765 40.9616L32.3721 40.6696Z" fill="#B63BF2" stroke="#B63BF2" stroke-width="0.146018" stroke-linejoin="round"/>
<path d="M29.8349 38.1144L32.3724 40.6697L33.1934 39.4285L30.9544 37.3113L29.8349 38.1144Z" fill="#C9C9C9" stroke="#C9C9C9" stroke-width="0.146018" stroke-linejoin="round"/>
<path d="M30.6554 36.8041L27.7448 33.9568L26.9238 35.271L29.3867 37.6803L30.6554 36.8041Z" fill="#B63BF2" stroke="#B63BF2" stroke-width="0.146018" stroke-linejoin="round"/>
<path d="M83.075 26.8625C86.096 26.8625 87.6065 28.351 87.6065 31.3278V43.5H83.5712V32.5517C83.5712 31.6696 83.4168 31.0632 83.1081 30.7325C82.8214 30.4017 82.3142 30.2363 81.5866 30.2363C80.7707 30.2363 79.9327 30.4127 79.0727 30.7655C78.2128 31.1184 77.1764 31.6476 75.9636 32.3532L75.6659 30.0379C76.9007 29.0235 78.1356 28.2407 79.3704 27.6894C80.6273 27.1382 81.8622 26.8625 83.075 26.8625ZM76.3935 20.3464L76.4266 26.3002C76.4266 27.1161 76.3825 27.8879 76.2943 28.6156C76.2282 29.3212 76.1289 29.9276 75.9966 30.4348L76.3935 30.8979V43.5H72.3913V20.3464H76.3935ZM99.3411 26.8625C101.326 26.8625 102.902 27.1382 104.071 27.6894C105.262 28.2407 106.111 29.1448 106.618 30.4017C107.147 31.6586 107.412 33.3235 107.412 35.3963C107.412 37.4691 107.147 39.1339 106.618 40.3908C106.111 41.6257 105.262 42.5298 104.071 43.1031C102.902 43.6544 101.326 43.93 99.3411 43.93C97.4007 43.93 95.835 43.6544 94.6443 43.1031C93.4756 42.5298 92.6266 41.6257 92.0974 40.3908C91.5682 39.1339 91.3036 37.4691 91.3036 35.3963C91.3036 33.3235 91.5682 31.6586 92.0974 30.4017C92.6266 29.1448 93.4756 28.2407 94.6443 27.6894C95.835 27.1382 97.4007 26.8625 99.3411 26.8625ZM99.3411 29.9056C98.3709 29.9056 97.5991 30.0709 97.0258 30.4017C96.4745 30.7104 96.0776 31.2617 95.835 32.0555C95.5925 32.8494 95.4712 33.9629 95.4712 35.3963C95.4712 36.8296 95.5925 37.9431 95.835 38.737C96.0776 39.5308 96.4745 40.0821 97.0258 40.3908C97.5991 40.6995 98.3709 40.8539 99.3411 40.8539C100.333 40.8539 101.116 40.6995 101.69 40.3908C102.263 40.0821 102.66 39.5308 102.88 38.737C103.123 37.9431 103.244 36.8296 103.244 35.3963C103.244 33.9629 103.123 32.8494 102.88 32.0555C102.66 31.2617 102.263 30.7104 101.69 30.4017C101.116 30.0709 100.333 29.9056 99.3411 29.9056ZM115.088 27.2594V38.2408C115.066 39.0567 115.22 39.6411 115.551 39.9939C115.904 40.3467 116.466 40.5231 117.238 40.5231C118.01 40.5231 118.782 40.3577 119.553 40.027C120.325 39.6962 121.262 39.2001 122.365 38.5385L122.762 40.92C121.527 41.9123 120.336 42.6621 119.19 43.1692C118.043 43.6764 116.852 43.93 115.617 43.93C112.596 43.93 111.086 42.4416 111.086 39.4647V27.2594H115.088ZM125.97 27.2594V43.5H122.795L122.365 40.3577L121.968 39.8947V27.2594H125.97ZM156.533 27.2594V30.0379L137.051 30.0709C136.147 30.0709 135.43 30.093 134.901 30.1371C134.394 30.1591 134.03 30.2694 133.81 30.4679C133.611 30.6663 133.512 30.9971 133.512 31.4602C133.512 32.0996 133.688 32.5296 134.041 32.7501C134.394 32.9486 134.967 33.1471 135.761 33.3455L140.193 34.404C141.494 34.7347 142.454 35.2419 143.071 35.9255C143.689 36.587 143.997 37.6124 143.997 39.0016C143.997 40.3467 143.744 41.3721 143.237 42.0777C142.751 42.7613 141.98 43.2354 140.921 43.5C139.885 43.7426 138.551 43.8638 136.919 43.8638C136.279 43.8638 135.331 43.8308 134.074 43.7646C132.817 43.7205 131.439 43.5772 129.94 43.3346L130.204 40.7216C130.645 40.7216 131.175 40.7326 131.792 40.7547C132.409 40.7767 133.071 40.7877 133.777 40.7877C134.482 40.7877 135.177 40.7877 135.86 40.7877C136.963 40.7877 137.823 40.7547 138.44 40.6885C139.058 40.6003 139.499 40.4349 139.763 40.1923C140.028 39.9277 140.16 39.5529 140.16 39.0677C140.16 38.4283 139.951 37.9983 139.532 37.7778C139.113 37.5573 138.54 37.3698 137.812 37.2155L133.479 36.157C132.487 35.8924 131.715 35.5616 131.164 35.1647C130.612 34.7458 130.215 34.2386 129.973 33.6432C129.73 33.0258 129.609 32.276 129.609 31.394C129.609 30.3356 129.83 29.5086 130.271 28.9133C130.734 28.3179 131.45 27.8989 132.42 27.6564C133.413 27.3917 134.714 27.2594 136.324 27.2594H156.533ZM151.704 22.6287V38.6047C151.704 39.2883 151.858 39.7734 152.167 40.06C152.476 40.3467 152.983 40.49 153.689 40.49H155.938L156.368 43.3015C156.015 43.4118 155.574 43.511 155.045 43.5992C154.516 43.6874 153.986 43.7426 153.457 43.7646C152.95 43.8087 152.531 43.8308 152.2 43.8308C150.767 43.8308 149.664 43.4559 148.893 42.7062C148.121 41.9344 147.735 40.8318 147.735 39.3985V22.6287H151.704ZM166.851 26.8625C168.835 26.8625 170.412 27.1382 171.581 27.6894C172.772 28.2407 173.62 29.1448 174.128 30.4017C174.657 31.6586 174.921 33.3235 174.921 35.3963C174.921 37.4691 174.657 39.1339 174.128 40.3908C173.62 41.6257 172.772 42.5298 171.581 43.1031C170.412 43.6544 168.835 43.93 166.851 43.93C164.91 43.93 163.345 43.6544 162.154 43.1031C160.985 42.5298 160.136 41.6257 159.607 40.3908C159.078 39.1339 158.813 37.4691 158.813 35.3963C158.813 33.3235 159.078 31.6586 159.607 30.4017C160.136 29.1448 160.985 28.2407 162.154 27.6894C163.345 27.1382 164.91 26.8625 166.851 26.8625ZM166.851 29.9056C165.881 29.9056 165.109 30.0709 164.535 30.4017C163.984 30.7104 163.587 31.2617 163.345 32.0555C163.102 32.8494 162.981 33.9629 162.981 35.3963C162.981 36.8296 163.102 37.9431 163.345 38.737C163.587 39.5308 163.984 40.0821 164.535 40.3908C165.109 40.6995 165.881 40.8539 166.851 40.8539C167.843 40.8539 168.626 40.6995 169.199 40.3908C169.773 40.0821 170.169 39.5308 170.39 38.737C170.633 37.9431 170.754 36.8296 170.754 35.3963C170.754 33.9629 170.633 32.8494 170.39 32.0555C170.169 31.2617 169.773 30.7104 169.199 30.4017C168.626 30.0709 167.843 29.9056 166.851 29.9056ZM189.378 26.8625C192.399 26.8625 193.91 28.351 193.91 31.3278V43.5H189.908V32.5517C189.908 31.6696 189.753 31.0632 189.445 30.7325C189.136 30.4017 188.618 30.2363 187.89 30.2363C187.074 30.2363 186.236 30.4238 185.376 30.7986C184.516 31.1514 183.48 31.6696 182.267 32.3532L182.102 29.9386C183.292 28.9463 184.505 28.1856 185.74 27.6564C186.975 27.1271 188.188 26.8625 189.378 26.8625ZM181.969 27.2594L182.366 30.4348L182.697 30.8979V43.5H178.695V27.2594H181.969Z" fill="white"/>
<defs>
<linearGradient id="paint0_linear_4163_108" x1="27.093" y1="37.5137" x2="7.39752" y2="57.7656" gradientUnits="userSpaceOnUse">
<stop stop-color="#AF3AEB"/>
<stop offset="1" stop-color="#EEE1FF" stop-opacity="0"/>
</linearGradient>
<linearGradient id="paint1_linear_4163_108" x1="29.6107" y1="40.9655" x2="14.576" y2="56.4088" gradientUnits="userSpaceOnUse">
<stop stop-color="#AF3AEB"/>
<stop offset="1" stop-color="#EEE1FF" stop-opacity="0"/>
</linearGradient>
<linearGradient id="paint2_linear_4163_108" x1="23.5657" y1="35.1249" x2="8.53108" y2="50.5682" gradientUnits="userSpaceOnUse">
<stop stop-color="#AF3AEB"/>
<stop offset="1" stop-color="#EEE1FF" stop-opacity="0"/>
</linearGradient>
</defs>
</svg>
