<svg width="558" height="400" viewBox="0 0 558 400" fill="none" xmlns="http://www.w3.org/2000/svg">
<g clip-path="url(#clip0_4075_13)">
<mask id="mask0_4075_13" style="mask-type:luminance" maskUnits="userSpaceOnUse" x="0" y="0" width="558" height="400">
<path d="M545.188 0.462402H12.1875C5.56008 0.462402 0.1875 5.83499 0.1875 12.4624V387.462C0.1875 394.09 5.56008 399.462 12.1875 399.462H545.188C551.815 399.462 557.188 394.09 557.188 387.462V12.4624C557.188 5.83499 551.815 0.462402 545.188 0.462402Z" fill="white"/>
</mask>
<g mask="url(#mask0_4075_13)">
<path d="M545.188 0.462402H12.1875C5.56008 0.462402 0.1875 5.83499 0.1875 12.4624V387.462C0.1875 394.09 5.56008 399.462 12.1875 399.462H545.188C551.815 399.462 557.188 394.09 557.188 387.462V12.4624C557.188 5.83499 551.815 0.462402 545.188 0.462402Z" fill="white"/>
<g opacity="0.3" filter="url(#filter0_f_4075_13)">
<path d="M278.686 242.518C346.642 242.518 401.731 198.786 401.731 144.841C401.731 90.8955 346.642 47.1641 278.686 47.1641C210.73 47.1641 155.641 90.8955 155.641 144.841C155.641 198.786 210.73 242.518 278.686 242.518Z" fill="url(#paint0_linear_4075_13)"/>
</g>
<path d="M54.8156 283.339H70.5094C74.7754 283.339 76.9084 283.339 78.4407 284.363C79.1041 284.806 79.6735 285.375 80.1168 286.039C81.1406 287.571 81.1406 289.704 81.1406 293.97C81.1406 301.08 81.1406 304.635 79.4342 307.189C78.6956 308.294 77.7463 309.244 76.6409 309.982C74.0869 311.689 70.5321 311.689 63.4219 311.689H60.8906C51.3447 311.689 46.5717 311.689 43.6062 308.723C40.6406 305.758 40.6406 300.985 40.6406 291.439V285.251C40.6406 281.573 40.6406 279.733 41.4108 278.353C41.9598 277.37 42.7715 276.558 43.7552 276.009C45.1352 275.239 46.9744 275.239 50.6528 275.239C53.0094 275.239 54.1877 275.239 55.2191 275.626C57.5741 276.509 58.5453 278.648 59.608 280.773L60.8906 283.339" stroke="#5DC837" stroke-width="3.0375" stroke-linecap="round"/>
<path d="M67.9688 293.464L69.8314 295.069C70.6145 295.744 71.0061 296.082 71.0061 296.501C71.0061 296.921 70.6145 297.258 69.8314 297.933L67.9688 299.539" stroke="#5DC837" stroke-width="3.0375" stroke-linecap="round" stroke-linejoin="round"/>
<path d="M53.8031 293.464L51.9403 295.069C51.1572 295.744 50.7656 296.082 50.7656 296.501C50.7656 296.921 51.1572 297.258 51.9403 297.933L53.8031 299.539" stroke="#5DC837" stroke-width="3.0375" stroke-linecap="round" stroke-linejoin="round"/>
<path d="M62.9094 291.439L58.8594 301.564" stroke="#5DC837" stroke-width="3.0375" stroke-linecap="round" stroke-linejoin="round"/>
<path d="M127.409 283.339H143.103C147.369 283.339 149.502 283.339 151.034 284.363C151.698 284.806 152.267 285.375 152.711 286.039C153.734 287.571 153.734 289.704 153.734 293.97C153.734 301.08 153.734 304.635 152.028 307.189C151.289 308.294 150.34 309.244 149.235 309.982C146.681 311.689 143.126 311.689 136.016 311.689H133.484C123.938 311.689 119.165 311.689 116.2 308.723C113.234 305.758 113.234 300.985 113.234 291.439V285.251C113.234 281.573 113.234 279.733 114.005 278.353C114.554 277.37 115.365 276.558 116.349 276.009C117.729 275.239 119.568 275.239 123.247 275.239C125.603 275.239 126.781 275.239 127.813 275.626C130.168 276.509 131.139 278.648 132.202 280.773L133.484 283.339" stroke="#5DC837" stroke-width="3.0375" stroke-linecap="round"/>
<path opacity="0.4" d="M140.578 293.464L142.441 295.069C143.224 295.744 143.616 296.082 143.616 296.501C143.616 296.921 143.224 297.258 142.441 297.933L140.578 299.539" stroke="#5DC837" stroke-width="3.0375" stroke-linecap="round" stroke-linejoin="round"/>
<path opacity="0.4" d="M126.397 293.464L124.534 295.069C123.751 295.744 123.359 296.082 123.359 296.501C123.359 296.921 123.751 297.258 124.534 297.933L126.397 299.539" stroke="#5DC837" stroke-width="3.0375" stroke-linecap="round" stroke-linejoin="round"/>
<path opacity="0.4" d="M135.511 291.439L131.461 301.564" stroke="#5DC837" stroke-width="3.0375" stroke-linecap="round" stroke-linejoin="round"/>
<path opacity="0.4" d="M206.094 311.689H208.625C215.735 311.689 219.29 311.689 221.844 309.982C222.949 309.244 223.899 308.294 224.637 307.189C226.344 304.635 226.344 301.08 226.344 293.97C226.344 289.704 226.344 287.571 225.32 286.039C224.877 285.375 224.307 284.806 223.644 284.363C222.112 283.339 219.979 283.339 215.713 283.339H206.094L204.811 280.773C203.748 278.648 202.777 276.509 200.422 275.626C199.391 275.239 198.212 275.239 195.856 275.239C192.178 275.239 190.338 275.239 188.958 276.009C187.975 276.558 187.163 277.37 186.614 278.353C185.844 279.733 185.844 281.573 185.844 285.251V291.439C185.844 300.985 185.844 305.758 188.809 308.723C191.775 311.689 196.548 311.689 206.094 311.689Z" fill="#5DC837"/>
<path d="M200.019 283.339H215.713C219.979 283.339 222.112 283.339 223.644 284.363C224.307 284.806 224.877 285.375 225.32 286.039C226.344 287.571 226.344 289.704 226.344 293.97C226.344 301.08 226.344 304.635 224.637 307.189C223.899 308.294 222.949 309.244 221.844 309.982C219.29 311.689 215.735 311.689 208.625 311.689H206.094C196.548 311.689 191.775 311.689 188.809 308.723C185.844 305.758 185.844 300.985 185.844 291.439V285.251C185.844 281.573 185.844 279.733 186.614 278.353C187.163 277.37 187.975 276.558 188.958 276.009C190.338 275.239 192.178 275.239 195.856 275.239C198.212 275.239 199.391 275.239 200.422 275.626C202.777 276.509 203.748 278.648 204.811 280.773L206.094 283.339" stroke="#5DC837" stroke-width="3.0375" stroke-linecap="round"/>
<path d="M213.172 293.464L215.035 295.069C215.818 295.744 216.209 296.082 216.209 296.501C216.209 296.921 215.818 297.258 215.035 297.933L213.172 299.539" stroke="#5DC837" stroke-width="3.0375" stroke-linecap="round" stroke-linejoin="round"/>
<path d="M199.006 293.464L197.143 295.069C196.36 295.744 195.969 296.082 195.969 296.501C195.969 296.921 196.36 297.258 197.143 297.933L199.006 299.539" stroke="#5DC837" stroke-width="3.0375" stroke-linecap="round" stroke-linejoin="round"/>
<path d="M208.112 291.439L204.062 301.564" stroke="#5DC837" stroke-width="3.0375" stroke-linecap="round" stroke-linejoin="round"/>
<path fill-rule="evenodd" clip-rule="evenodd" d="M279.621 281.821L278.566 279.707C277.61 277.773 276.37 275.264 273.545 274.204C272.251 273.719 270.81 273.72 268.725 273.721C266.946 273.721 265.16 273.721 264.001 273.823C262.807 273.928 261.762 274.151 260.807 274.683C259.578 275.37 258.563 276.384 257.877 277.614C257.344 278.568 257.121 279.613 257.016 280.808C256.914 281.967 256.914 283.402 256.914 285.181V291.556C256.914 296.23 256.914 299.893 257.298 302.752C257.692 305.677 258.512 307.986 260.324 309.798C262.136 311.61 264.445 312.431 267.371 312.824C270.229 313.208 273.892 313.208 278.567 313.208H281.3C284.782 313.208 287.512 313.208 289.686 312.987C291.903 312.761 293.709 312.293 295.277 311.246C296.548 310.396 297.64 309.305 298.489 308.033C299.537 306.465 300.005 304.659 300.23 302.442C300.452 300.269 300.452 297.539 300.452 294.056C300.452 291.993 300.452 290.161 300.316 288.826C300.176 287.448 299.878 286.253 299.172 285.196C298.618 284.366 297.906 283.654 297.077 283.1C296.019 282.394 294.824 282.097 293.446 281.956C292.111 281.821 290.447 281.821 288.384 281.821H279.621ZM285.791 294.615C285.156 294.067 285.085 293.108 285.632 292.473C286.18 291.838 287.139 291.766 287.774 292.314L289.637 293.92L289.693 293.968C290.035 294.262 290.398 294.575 290.664 294.875C290.964 295.214 291.339 295.753 291.339 296.502C291.339 297.251 290.964 297.79 290.664 298.129C290.398 298.429 290.035 298.741 289.694 299.036L289.637 299.084L287.774 300.69C287.139 301.238 286.18 301.166 285.632 300.531C285.085 299.896 285.156 298.937 285.791 298.389L287.654 296.783C287.778 296.677 287.885 296.585 287.979 296.502C287.885 296.419 287.778 296.327 287.654 296.22L285.791 294.615ZM272.746 292.473C273.293 293.108 273.222 294.067 272.587 294.615L270.724 296.22C270.6 296.327 270.493 296.419 270.399 296.502C270.493 296.585 270.6 296.677 270.724 296.783L272.587 298.389C273.222 298.937 273.293 299.896 272.746 300.531C272.198 301.166 271.239 301.238 270.604 300.69L268.741 299.084L268.685 299.036C268.343 298.741 267.98 298.429 267.714 298.129C267.414 297.79 267.039 297.251 267.039 296.502C267.039 295.753 267.414 295.214 267.714 294.875C267.98 294.575 268.343 294.262 268.685 293.968L268.741 293.92L270.604 292.314C271.239 291.766 272.198 291.838 272.746 292.473ZM282.118 292.003C282.43 291.225 282.051 290.341 281.272 290.029C280.494 289.718 279.61 290.096 279.298 290.875L275.248 301C274.937 301.779 275.315 302.663 276.094 302.974C276.873 303.286 277.757 302.907 278.068 302.128L282.118 292.003Z" fill="#5DC837"/>
<path opacity="0.4" d="M351.168 279.707L352.223 281.821H360.985C363.048 281.821 364.713 281.821 366.048 281.956C367.426 282.097 368.621 282.394 369.678 283.1C370.507 283.654 371.219 284.366 371.773 285.196C372.48 286.253 372.777 287.448 372.917 288.826C373.053 290.161 373.053 291.993 373.053 294.056C373.053 297.539 373.053 300.269 372.832 302.442C372.607 304.659 372.138 306.465 371.091 308.033C370.241 309.305 369.15 310.396 367.878 311.246C366.31 312.293 364.504 312.761 362.287 312.987C360.114 313.208 357.384 313.208 353.901 313.208H351.168C346.494 313.208 342.83 313.208 339.972 312.824C337.047 312.431 334.738 311.61 332.926 309.798C331.114 307.986 330.293 305.677 329.9 302.752C329.516 299.893 329.516 296.23 329.516 291.556V285.181C329.516 283.402 329.516 281.967 329.618 280.808C329.723 279.613 329.946 278.568 330.478 277.614C331.165 276.384 332.179 275.37 333.409 274.683C334.363 274.151 335.408 273.928 336.603 273.823C337.762 273.721 339.547 273.721 341.327 273.721C343.411 273.72 344.852 273.719 346.146 274.204C348.972 275.264 350.212 277.773 351.168 279.707Z" fill="#5DC837"/>
<path fill-rule="evenodd" clip-rule="evenodd" d="M358.236 292.472C357.688 293.108 357.759 294.067 358.394 294.614L360.257 296.22C360.381 296.327 360.488 296.419 360.582 296.501C360.488 296.584 360.381 296.676 360.257 296.783L358.394 298.388C357.759 298.936 357.688 299.895 358.236 300.53C358.783 301.166 359.742 301.237 360.378 300.689L362.24 299.084C362.259 299.068 362.278 299.051 362.296 299.035C362.638 298.741 363.001 298.428 363.267 298.128C363.567 297.789 363.942 297.251 363.942 296.501C363.942 295.752 363.567 295.214 363.267 294.875C363.001 294.575 362.638 294.262 362.296 293.967C362.278 293.951 362.259 293.935 362.24 293.919L360.378 292.313C359.742 291.766 358.783 291.837 358.236 292.472Z" fill="#5DC837"/>
<path fill-rule="evenodd" clip-rule="evenodd" d="M345.347 292.472C345.895 293.108 345.824 294.067 345.188 294.614L343.326 296.22C343.202 296.327 343.095 296.419 343.001 296.501C343.095 296.584 343.202 296.676 343.326 296.783L345.188 298.388C345.824 298.936 345.895 299.895 345.347 300.53C344.8 301.166 343.841 301.237 343.205 300.689L341.343 299.084C341.324 299.068 341.305 299.051 341.286 299.035C340.944 298.741 340.581 298.428 340.316 298.128C340.016 297.789 339.641 297.251 339.641 296.501C339.641 295.752 340.016 295.214 340.316 294.875C340.581 294.575 340.944 294.262 341.286 293.967C341.305 293.951 341.324 293.935 341.343 293.919L343.205 292.313C343.841 291.766 344.8 291.837 345.347 292.472Z" fill="#5DC837"/>
<path fill-rule="evenodd" clip-rule="evenodd" d="M353.875 290.029C354.654 290.34 355.033 291.224 354.722 292.003L350.672 302.128C350.36 302.907 349.476 303.286 348.697 302.974C347.919 302.662 347.54 301.779 347.851 301L351.901 290.875C352.213 290.096 353.097 289.717 353.875 290.029Z" fill="#5DC837"/>
<path d="M444.136 311.689V313.208C444.975 313.208 445.655 312.528 445.655 311.689H444.136ZM403.636 311.689H402.117C402.117 312.528 402.797 313.208 403.636 313.208V311.689ZM444.136 283.339H445.655C445.655 282.5 444.975 281.82 444.136 281.82V283.339ZM417.811 275.239L419.026 274.328L418.57 273.72H417.811V275.239ZM403.636 275.239V273.72C403.233 273.72 402.847 273.88 402.562 274.165C402.277 274.45 402.117 274.836 402.117 275.239H403.636ZM444.136 310.17H403.636V313.208H444.136V310.17ZM413.761 284.858H444.136V281.82H413.761V284.858ZM416.596 276.15L422.671 284.25L425.101 282.428L419.026 274.328L416.596 276.15ZM405.155 311.689V275.239H402.117V311.689H405.155ZM417.811 273.72H403.636V276.758H417.811V273.72ZM442.617 283.339V311.689H445.655V283.339H442.617Z" fill="#5DC837"/>
<path d="M429.961 293.464L434.011 297.514L429.961 301.564" stroke="#5DC837" stroke-width="3.0375"/>
<path d="M417.816 293.464L413.766 297.514L417.816 301.564" stroke="#5DC837" stroke-width="3.0375"/>
<path d="M425.909 291.439L421.859 303.589" stroke="#5DC837" stroke-width="3.0375" stroke-linejoin="round"/>
<path fill-rule="evenodd" clip-rule="evenodd" d="M476.237 273.72C475.835 273.72 475.448 273.88 475.164 274.165C474.879 274.45 474.719 274.836 474.719 275.239V311.689C474.719 312.528 475.399 313.208 476.237 313.208H516.737C517.576 313.208 518.256 312.528 518.256 311.689V283.339C518.256 282.5 517.576 281.82 516.737 281.82H497.247L491.172 273.72H476.237ZM501.487 294.538L504.463 297.514L501.487 300.49L503.635 302.638L508.758 297.514L503.635 292.39L501.487 294.538ZM489.339 292.39L491.487 294.538L488.511 297.514L491.487 300.49L489.339 302.638L484.215 297.514L489.339 292.39ZM497.073 290.959L493.023 303.109L495.905 304.069L499.955 291.919L497.073 290.959Z" fill="#5DC837"/>
<path d="M82.659 156.838V165.906H79.686V150.633H82.5397V153.119H82.7286C83.0799 152.31 83.6301 151.661 84.3792 151.17C85.1348 150.68 86.0861 150.435 87.2329 150.435C88.2736 150.435 89.185 150.653 89.9672 151.091C90.7494 151.522 91.356 152.165 91.7868 153.02C92.2177 153.875 92.4331 154.932 92.4331 156.192V165.906H89.4601V156.55C89.4601 155.443 89.1718 154.578 88.5951 153.954C88.0184 153.325 87.2262 153.01 86.2187 153.01C85.5293 153.01 84.9161 153.159 84.3792 153.457C83.8489 153.756 83.4279 154.193 83.1164 154.77C82.8115 155.34 82.659 156.029 82.659 156.838ZM95.4204 171.633V150.633H98.3238V153.109H98.5723C98.7447 152.791 98.9933 152.423 99.3181 152.006C99.6429 151.588 100.094 151.223 100.67 150.912C101.247 150.594 102.009 150.435 102.957 150.435C104.19 150.435 105.291 150.746 106.259 151.369C107.226 151.992 107.985 152.891 108.536 154.064C109.092 155.237 109.371 156.649 109.371 158.3C109.371 159.95 109.096 161.365 108.545 162.545C107.995 163.719 107.24 164.623 106.278 165.26C105.317 165.89 104.22 166.204 102.987 166.204C102.059 166.204 101.3 166.049 100.71 165.737C100.127 165.426 99.6694 165.061 99.338 164.643C99.0065 164.226 98.7513 163.855 98.5723 163.53H98.3934V171.633H95.4204ZM98.3337 158.27C98.3337 159.344 98.4895 160.285 98.801 161.094C99.1126 161.902 99.5633 162.535 100.153 162.993C100.743 163.444 101.466 163.669 102.321 163.669C103.209 163.669 103.952 163.434 104.548 162.963C105.145 162.486 105.596 161.839 105.901 161.024C106.212 160.209 106.368 159.291 106.368 158.27C106.368 157.262 106.215 156.357 105.911 155.555C105.612 154.753 105.161 154.12 104.558 153.656C103.962 153.192 103.216 152.96 102.321 152.96C101.459 152.96 100.73 153.182 100.134 153.626C99.5435 154.07 99.096 154.69 98.7911 155.486C98.4862 156.281 98.3337 157.209 98.3337 158.27ZM113.447 150.633L116.817 156.579L120.218 150.633H123.469L118.707 158.27L123.509 165.906H120.258L116.817 160.199L113.387 165.906H110.126L114.879 158.27L110.185 150.633H113.447ZM144.192 171.444C142.137 171.444 140.314 171.163 138.723 170.599C137.139 170.042 135.803 169.221 134.716 168.133C133.629 167.053 132.804 165.727 132.24 164.156C131.677 162.585 131.395 160.792 131.395 158.777C131.395 156.815 131.68 155.051 132.25 153.487C132.82 151.923 133.649 150.59 134.736 149.49C135.83 148.383 137.159 147.538 138.723 146.954C140.288 146.371 142.064 146.079 144.053 146.079C145.955 146.079 147.632 146.378 149.084 146.974C150.536 147.571 151.756 148.39 152.743 149.43C153.738 150.471 154.487 151.664 154.99 153.01C155.494 154.355 155.746 155.777 155.746 157.275C155.746 158.323 155.68 159.347 155.547 160.348C155.415 161.342 155.169 162.244 154.811 163.052C154.46 163.855 153.95 164.498 153.28 164.981C152.617 165.459 151.756 165.707 150.695 165.727C150.132 165.747 149.585 165.681 149.054 165.528C148.524 165.376 148.073 165.131 147.702 164.792C147.331 164.448 147.105 164.01 147.026 163.48H146.907C146.748 163.871 146.482 164.236 146.111 164.574C145.74 164.905 145.266 165.17 144.689 165.369C144.119 165.561 143.456 165.641 142.701 165.608C141.865 165.575 141.113 165.386 140.444 165.041C139.774 164.696 139.201 164.219 138.723 163.609C138.253 162.999 137.891 162.277 137.64 161.442C137.388 160.606 137.262 159.678 137.262 158.658C137.262 157.676 137.404 156.798 137.689 156.023C137.974 155.24 138.362 154.568 138.853 154.004C139.35 153.434 139.92 152.983 140.563 152.652C141.206 152.32 141.885 152.112 142.601 152.025C143.297 151.946 143.937 151.966 144.52 152.085C145.104 152.204 145.587 152.387 145.972 152.632C146.363 152.877 146.608 153.146 146.708 153.437H146.837V152.324H149.283V161.551C149.283 162.075 149.419 162.519 149.691 162.883C149.969 163.248 150.364 163.43 150.874 163.43C151.477 163.43 151.948 163.208 152.286 162.764C152.631 162.32 152.873 161.637 153.012 160.716C153.158 159.794 153.23 158.614 153.23 157.176C153.23 156.168 153.095 155.221 152.823 154.332C152.558 153.437 152.163 152.629 151.64 151.906C151.123 151.177 150.486 150.551 149.73 150.027C148.975 149.503 148.113 149.099 147.145 148.814C146.184 148.529 145.12 148.386 143.953 148.386C142.369 148.386 140.961 148.632 139.728 149.122C138.495 149.606 137.454 150.305 136.605 151.22C135.764 152.135 135.124 153.232 134.686 154.511C134.256 155.784 134.04 157.212 134.04 158.797C134.04 160.447 134.262 161.912 134.706 163.192C135.15 164.464 135.807 165.538 136.675 166.413C137.543 167.288 138.617 167.951 139.897 168.402C141.176 168.859 142.651 169.088 144.321 169.088C145.064 169.088 145.793 169.022 146.509 168.889C147.225 168.763 147.861 168.617 148.418 168.452C148.981 168.292 149.402 168.163 149.681 168.064L150.377 170.241C149.966 170.434 149.419 170.623 148.736 170.808C148.06 170.994 147.324 171.146 146.529 171.266C145.74 171.385 144.961 171.444 144.192 171.444ZM143.277 163.172C144.139 163.172 144.832 162.999 145.355 162.655C145.886 162.31 146.267 161.796 146.499 161.114C146.738 160.424 146.857 159.562 146.857 158.528C146.85 157.521 146.721 156.719 146.469 156.122C146.224 155.519 145.839 155.088 145.316 154.829C144.799 154.564 144.132 154.432 143.317 154.432C142.568 154.432 141.928 154.614 141.398 154.979C140.874 155.343 140.473 155.837 140.195 156.46C139.923 157.083 139.784 157.776 139.777 158.538C139.784 159.34 139.897 160.096 140.115 160.805C140.341 161.508 140.705 162.078 141.209 162.516C141.72 162.953 142.409 163.172 143.277 163.172ZM161.003 156.838V165.906H158.03V145.542H160.963V153.119H161.152C161.51 152.297 162.057 151.644 162.793 151.16C163.528 150.676 164.49 150.435 165.676 150.435C166.723 150.435 167.638 150.65 168.42 151.081C169.209 151.512 169.819 152.155 170.25 153.01C170.688 153.858 170.906 154.919 170.906 156.192V165.906H167.933V156.55C167.933 155.429 167.645 154.561 167.068 153.944C166.491 153.321 165.689 153.01 164.662 153.01C163.959 153.01 163.33 153.159 162.773 153.457C162.223 153.756 161.788 154.193 161.47 154.77C161.159 155.34 161.003 156.029 161.003 156.838ZM183.548 159.572V150.633H186.531V165.906H183.608V163.261H183.449C183.098 164.077 182.534 164.756 181.759 165.3C180.99 165.837 180.032 166.105 178.885 166.105C177.904 166.105 177.036 165.89 176.28 165.459C175.531 165.021 174.941 164.375 174.51 163.52C174.086 162.665 173.874 161.607 173.874 160.348V150.633H176.847V159.99C176.847 161.031 177.135 161.859 177.712 162.476C178.288 163.092 179.037 163.4 179.959 163.4C180.516 163.4 181.069 163.261 181.619 162.983C182.176 162.704 182.637 162.283 183.001 161.72C183.373 161.157 183.555 160.441 183.548 159.572ZM195.929 171.952C194.716 171.952 193.672 171.792 192.797 171.474C191.929 171.156 191.22 170.735 190.669 170.212C190.119 169.688 189.708 169.114 189.436 168.491L191.992 167.437C192.171 167.729 192.409 168.037 192.708 168.362C193.013 168.694 193.424 168.975 193.941 169.207C194.464 169.439 195.137 169.555 195.959 169.555C197.086 169.555 198.017 169.28 198.753 168.73C199.489 168.186 199.857 167.318 199.857 166.125V163.122H199.668C199.489 163.447 199.23 163.808 198.892 164.206C198.561 164.604 198.104 164.948 197.52 165.24C196.937 165.532 196.178 165.677 195.243 165.677C194.037 165.677 192.95 165.396 191.982 164.832C191.021 164.262 190.258 163.424 189.695 162.317C189.138 161.203 188.86 159.834 188.86 158.21C188.86 156.586 189.135 155.194 189.685 154.034C190.242 152.874 191.004 151.986 191.972 151.369C192.94 150.746 194.037 150.435 195.263 150.435C196.211 150.435 196.977 150.594 197.56 150.912C198.143 151.223 198.597 151.588 198.922 152.006C199.254 152.423 199.509 152.791 199.688 153.109H199.907V150.633H202.82V166.244C202.82 167.557 202.515 168.634 201.905 169.476C201.295 170.318 200.47 170.941 199.429 171.345C198.395 171.749 197.229 171.952 195.929 171.952ZM195.9 163.212C196.755 163.212 197.477 163.013 198.067 162.615C198.664 162.211 199.114 161.634 199.419 160.885C199.731 160.129 199.887 159.224 199.887 158.17C199.887 157.143 199.734 156.238 199.429 155.456C199.124 154.674 198.677 154.064 198.087 153.626C197.497 153.182 196.768 152.96 195.9 152.96C195.005 152.96 194.259 153.192 193.662 153.656C193.066 154.114 192.615 154.737 192.31 155.525C192.012 156.314 191.863 157.196 191.863 158.17C191.863 159.171 192.015 160.05 192.32 160.805C192.625 161.561 193.076 162.151 193.672 162.575C194.275 162.999 195.018 163.212 195.9 163.212ZM212.39 166.214C210.885 166.214 209.589 165.893 208.502 165.25C207.421 164.6 206.586 163.689 205.996 162.516C205.413 161.336 205.121 159.953 205.121 158.369C205.121 156.805 205.413 155.426 205.996 154.233C206.586 153.04 207.408 152.108 208.462 151.439C209.523 150.769 210.762 150.435 212.181 150.435C213.042 150.435 213.878 150.577 214.686 150.862C215.495 151.147 216.221 151.595 216.864 152.204C217.507 152.814 218.014 153.606 218.385 154.581C218.757 155.549 218.942 156.725 218.942 158.111V159.165H206.801V156.937H216.029C216.029 156.155 215.87 155.462 215.551 154.859C215.233 154.249 214.786 153.769 214.209 153.417C213.639 153.066 212.97 152.891 212.201 152.891C211.365 152.891 210.636 153.096 210.013 153.507C209.397 153.911 208.919 154.442 208.581 155.098C208.25 155.748 208.084 156.453 208.084 157.216V158.956C208.084 159.977 208.263 160.845 208.621 161.561C208.986 162.277 209.493 162.824 210.142 163.202C210.792 163.573 211.551 163.758 212.419 163.758C212.983 163.758 213.497 163.679 213.961 163.52C214.425 163.354 214.826 163.109 215.164 162.784C215.502 162.459 215.76 162.058 215.939 161.581L218.753 162.088C218.528 162.917 218.123 163.642 217.54 164.266C216.963 164.882 216.238 165.363 215.363 165.707C214.494 166.045 213.503 166.214 212.39 166.214ZM221.241 165.906V150.633H224.214V165.906H221.241ZM222.742 148.277C222.225 148.277 221.781 148.105 221.41 147.76C221.045 147.408 220.863 146.991 220.863 146.507C220.863 146.016 221.045 145.599 221.41 145.254C221.781 144.903 222.225 144.727 222.742 144.727C223.259 144.727 223.7 144.903 224.065 145.254C224.436 145.599 224.621 146.016 224.621 146.507C224.621 146.991 224.436 147.408 224.065 147.76C223.7 148.105 223.259 148.277 222.742 148.277ZM233.647 166.214C232.168 166.214 230.896 165.88 229.828 165.21C228.768 164.534 227.953 163.603 227.382 162.416C226.812 161.23 226.527 159.871 226.527 158.339C226.527 156.788 226.819 155.419 227.402 154.233C227.986 153.04 228.808 152.108 229.868 151.439C230.929 150.769 232.178 150.435 233.617 150.435C234.777 150.435 235.811 150.65 236.719 151.081C237.627 151.505 238.36 152.102 238.917 152.871C239.48 153.64 239.815 154.538 239.921 155.565H237.027C236.868 154.849 236.504 154.233 235.934 153.716C235.37 153.199 234.614 152.94 233.667 152.94C232.838 152.94 232.112 153.159 231.489 153.596C230.873 154.027 230.392 154.644 230.047 155.446C229.703 156.241 229.53 157.183 229.53 158.27C229.53 159.383 229.699 160.345 230.037 161.153C230.375 161.962 230.853 162.588 231.469 163.033C232.092 163.477 232.825 163.699 233.667 163.699C234.23 163.699 234.74 163.596 235.198 163.391C235.662 163.178 236.05 162.877 236.361 162.486C236.679 162.095 236.901 161.624 237.027 161.074H239.921C239.815 162.061 239.493 162.943 238.956 163.719C238.419 164.494 237.7 165.104 236.799 165.548C235.904 165.992 234.853 166.214 233.647 166.214ZM248.533 166.214C247.102 166.214 245.852 165.886 244.785 165.23C243.718 164.574 242.889 163.656 242.299 162.476C241.709 161.296 241.414 159.917 241.414 158.339C241.414 156.755 241.709 155.37 242.299 154.183C242.889 152.997 243.718 152.075 244.785 151.419C245.852 150.763 247.102 150.435 248.533 150.435C249.965 150.435 251.215 150.763 252.282 151.419C253.349 152.075 254.178 152.997 254.768 154.183C255.358 155.37 255.653 156.755 255.653 158.339C255.653 159.917 255.358 161.296 254.768 162.476C254.178 163.656 253.349 164.574 252.282 165.23C251.215 165.886 249.965 166.214 248.533 166.214ZM248.543 163.719C249.471 163.719 250.24 163.473 250.85 162.983C251.46 162.492 251.911 161.839 252.202 161.024C252.501 160.209 252.65 159.31 252.65 158.329C252.65 157.355 252.501 156.46 252.202 155.645C251.911 154.823 251.46 154.163 250.85 153.666C250.24 153.169 249.471 152.92 248.543 152.92C247.609 152.92 246.833 153.169 246.217 153.666C245.607 154.163 245.153 154.823 244.854 155.645C244.563 156.46 244.417 157.355 244.417 158.329C244.417 159.31 244.563 160.209 244.854 161.024C245.153 161.839 245.607 162.492 246.217 162.983C246.833 163.473 247.609 163.719 248.543 163.719ZM260.944 156.838V165.906H257.971V150.633H260.825V153.119H261.014C261.365 152.31 261.915 151.661 262.664 151.17C263.42 150.68 264.371 150.435 265.518 150.435C266.559 150.435 267.47 150.653 268.252 151.091C269.035 151.522 269.641 152.165 270.072 153.02C270.503 153.875 270.718 154.932 270.718 156.192V165.906H267.745V156.55C267.745 155.443 267.457 154.578 266.88 153.954C266.304 153.325 265.511 153.01 264.504 153.01C263.815 153.01 263.201 153.159 262.664 153.457C262.134 153.756 261.713 154.193 261.402 154.77C261.097 155.34 260.944 156.029 260.944 156.838ZM285.15 154.362L282.456 154.839C282.343 154.495 282.164 154.167 281.919 153.855C281.68 153.543 281.355 153.288 280.944 153.089C280.533 152.891 280.02 152.791 279.403 152.791C278.561 152.791 277.859 152.98 277.295 153.358C276.732 153.729 276.45 154.21 276.45 154.8C276.45 155.31 276.639 155.721 277.017 156.033C277.395 156.344 278.004 156.599 278.846 156.798L281.272 157.355C282.678 157.68 283.725 158.18 284.414 158.856C285.104 159.533 285.449 160.411 285.449 161.491C285.449 162.406 285.183 163.221 284.653 163.937C284.129 164.647 283.397 165.203 282.456 165.608C281.521 166.012 280.437 166.214 279.204 166.214C277.494 166.214 276.099 165.85 275.018 165.121C273.938 164.385 273.275 163.341 273.029 161.989L275.903 161.551C276.082 162.3 276.45 162.867 277.007 163.251C277.564 163.629 278.289 163.818 279.184 163.818C280.159 163.818 280.938 163.616 281.521 163.212C282.104 162.801 282.396 162.3 282.396 161.71C282.396 161.233 282.217 160.832 281.859 160.507C281.508 160.182 280.967 159.937 280.238 159.771L277.653 159.204C276.228 158.88 275.174 158.363 274.491 157.653C273.815 156.944 273.477 156.046 273.477 154.959C273.477 154.057 273.729 153.268 274.233 152.592C274.736 151.916 275.432 151.389 276.321 151.011C277.209 150.627 278.226 150.435 279.373 150.435C281.024 150.435 282.323 150.792 283.271 151.508C284.219 152.218 284.845 153.169 285.15 154.362ZM295.473 144.588L288.911 168.969H286.256L292.818 144.588H295.473ZM299.972 156.838V165.906H296.999V145.542H299.932V153.119H300.121C300.479 152.297 301.026 151.644 301.761 151.16C302.497 150.676 303.458 150.435 304.645 150.435C305.692 150.435 306.607 150.65 307.389 151.081C308.178 151.512 308.788 152.155 309.219 153.01C309.656 153.858 309.875 154.919 309.875 156.192V165.906H306.902V156.55C306.902 155.429 306.614 154.561 306.037 153.944C305.46 153.321 304.658 153.01 303.631 153.01C302.928 153.01 302.298 153.159 301.741 153.457C301.191 153.756 300.757 154.193 300.439 154.77C300.127 155.34 299.972 156.029 299.972 156.838ZM322.517 159.572V150.633H325.5V165.906H322.577V163.261H322.418C322.066 164.077 321.503 164.756 320.727 165.3C319.958 165.837 319 166.105 317.854 166.105C316.873 166.105 316.004 165.89 315.249 165.459C314.5 165.021 313.91 164.375 313.479 163.52C313.054 162.665 312.842 161.607 312.842 160.348V150.633H315.815V159.99C315.815 161.031 316.104 161.859 316.68 162.476C317.257 163.092 318.006 163.4 318.928 163.4C319.484 163.4 320.038 163.261 320.588 162.983C321.145 162.704 321.606 162.283 321.97 161.72C322.341 161.157 322.524 160.441 322.517 159.572ZM334.898 171.952C333.685 171.952 332.641 171.792 331.766 171.474C330.898 171.156 330.188 170.735 329.638 170.212C329.088 169.688 328.677 169.114 328.405 168.491L330.961 167.437C331.14 167.729 331.378 168.037 331.676 168.362C331.981 168.694 332.392 168.975 332.909 169.207C333.433 169.439 334.106 169.555 334.928 169.555C336.055 169.555 336.986 169.28 337.722 168.73C338.458 168.186 338.826 167.318 338.826 166.125V163.122H338.637C338.458 163.447 338.199 163.808 337.861 164.206C337.53 164.604 337.072 164.948 336.489 165.24C335.906 165.532 335.147 165.677 334.212 165.677C333.006 165.677 331.918 165.396 330.951 164.832C329.989 164.262 329.227 163.424 328.664 162.317C328.107 161.203 327.828 159.834 327.828 158.21C327.828 156.586 328.104 155.194 328.654 154.034C329.211 152.874 329.973 151.986 330.941 151.369C331.908 150.746 333.006 150.435 334.232 150.435C335.18 150.435 335.945 150.594 336.529 150.912C337.112 151.223 337.566 151.588 337.891 152.006C338.222 152.423 338.478 152.791 338.657 153.109H338.875V150.633H341.789V166.244C341.789 167.557 341.484 168.634 340.874 169.476C340.264 170.318 339.439 170.941 338.398 171.345C337.364 171.749 336.197 171.952 334.898 171.952ZM334.868 163.212C335.723 163.212 336.446 163.013 337.036 162.615C337.632 162.211 338.083 161.634 338.388 160.885C338.7 160.129 338.855 159.224 338.855 158.17C338.855 157.143 338.703 156.238 338.398 155.456C338.093 154.674 337.646 154.064 337.056 153.626C336.466 153.182 335.737 152.96 334.868 152.96C333.973 152.96 333.228 153.192 332.631 153.656C332.034 154.114 331.584 154.737 331.279 155.525C330.98 156.314 330.831 157.196 330.831 158.17C330.831 159.171 330.984 160.05 331.289 160.805C331.594 161.561 332.044 162.151 332.641 162.575C333.244 162.999 333.987 163.212 334.868 163.212ZM351.358 166.214C349.854 166.214 348.558 165.893 347.471 165.25C346.39 164.6 345.555 163.689 344.965 162.516C344.382 161.336 344.09 159.953 344.09 158.369C344.09 156.805 344.382 155.426 344.965 154.233C345.555 153.04 346.377 152.108 347.431 151.439C348.491 150.769 349.731 150.435 351.15 150.435C352.011 150.435 352.846 150.577 353.655 150.862C354.464 151.147 355.19 151.595 355.833 152.204C356.476 152.814 356.983 153.606 357.354 154.581C357.725 155.549 357.911 156.725 357.911 158.111V159.165H345.77V156.937H354.998C354.998 156.155 354.838 155.462 354.52 154.859C354.202 154.249 353.755 153.769 353.178 153.417C352.608 153.066 351.938 152.891 351.169 152.891C350.334 152.891 349.605 153.096 348.982 153.507C348.365 153.911 347.888 154.442 347.55 155.098C347.219 155.748 347.053 156.453 347.053 157.216V158.956C347.053 159.977 347.232 160.845 347.59 161.561C347.954 162.277 348.462 162.824 349.111 163.202C349.761 163.573 350.52 163.758 351.388 163.758C351.952 163.758 352.465 163.679 352.929 163.52C353.393 163.354 353.794 163.109 354.132 162.784C354.471 162.459 354.729 162.058 354.908 161.581L357.722 162.088C357.497 162.917 357.092 163.642 356.509 164.266C355.932 164.882 355.206 165.363 354.331 165.707C353.463 166.045 352.472 166.214 351.358 166.214ZM360.21 165.906V150.633H363.183V165.906H360.21ZM361.711 148.277C361.194 148.277 360.75 148.105 360.379 147.76C360.014 147.408 359.832 146.991 359.832 146.507C359.832 146.016 360.014 145.599 360.379 145.254C360.75 144.903 361.194 144.727 361.711 144.727C362.228 144.727 362.669 144.903 363.033 145.254C363.405 145.599 363.59 146.016 363.59 146.507C363.59 146.991 363.405 147.408 363.033 147.76C362.669 148.105 362.228 148.277 361.711 148.277ZM372.615 166.214C371.137 166.214 369.864 165.88 368.797 165.21C367.737 164.534 366.921 163.603 366.351 162.416C365.781 161.23 365.496 159.871 365.496 158.339C365.496 156.788 365.788 155.419 366.371 154.233C366.954 153.04 367.776 152.108 368.837 151.439C369.898 150.769 371.147 150.435 372.586 150.435C373.746 150.435 374.78 150.65 375.688 151.081C376.596 151.505 377.328 152.102 377.885 152.871C378.449 153.64 378.783 154.538 378.89 155.565H375.996C375.837 154.849 375.472 154.233 374.902 153.716C374.339 153.199 373.583 152.94 372.635 152.94C371.807 152.94 371.081 153.159 370.458 153.596C369.841 154.027 369.361 154.644 369.016 155.446C368.671 156.241 368.499 157.183 368.499 158.27C368.499 159.383 368.668 160.345 369.006 161.153C369.344 161.962 369.821 162.588 370.438 163.033C371.061 163.477 371.793 163.699 372.635 163.699C373.199 163.699 373.709 163.596 374.167 163.391C374.631 163.178 375.018 162.877 375.33 162.486C375.648 162.095 375.87 161.624 375.996 161.074H378.89C378.783 162.061 378.462 162.943 377.925 163.719C377.388 164.494 376.669 165.104 375.767 165.548C374.873 165.992 373.822 166.214 372.615 166.214ZM387.502 166.214C386.07 166.214 384.821 165.886 383.754 165.23C382.686 164.574 381.858 163.656 381.268 162.476C380.678 161.296 380.383 159.917 380.383 158.339C380.383 156.755 380.678 155.37 381.268 154.183C381.858 152.997 382.686 152.075 383.754 151.419C384.821 150.763 386.07 150.435 387.502 150.435C388.934 150.435 390.183 150.763 391.251 151.419C392.318 152.075 393.147 152.997 393.737 154.183C394.326 155.37 394.621 156.755 394.621 158.339C394.621 159.917 394.326 161.296 393.737 162.476C393.147 163.656 392.318 164.574 391.251 165.23C390.183 165.886 388.934 166.214 387.502 166.214ZM387.512 163.719C388.44 163.719 389.209 163.473 389.819 162.983C390.429 162.492 390.879 161.839 391.171 161.024C391.469 160.209 391.619 159.31 391.619 158.329C391.619 157.355 391.469 156.46 391.171 155.645C390.879 154.823 390.429 154.163 389.819 153.666C389.209 153.169 388.44 152.92 387.512 152.92C386.577 152.92 385.802 153.169 385.185 153.666C384.576 154.163 384.121 154.823 383.823 155.645C383.531 156.46 383.386 157.355 383.386 158.329C383.386 159.31 383.531 160.209 383.823 161.024C384.121 161.839 384.576 162.492 385.185 162.983C385.802 163.473 386.577 163.719 387.512 163.719ZM399.913 156.838V165.906H396.94V150.633H399.794V153.119H399.983C400.334 152.31 400.884 151.661 401.633 151.17C402.389 150.68 403.34 150.435 404.487 150.435C405.528 150.435 406.439 150.653 407.221 151.091C408.003 151.522 408.61 152.165 409.041 153.02C409.472 153.875 409.687 154.932 409.687 156.192V165.906H406.714V156.55C406.714 155.443 406.426 154.578 405.849 153.954C405.272 153.325 404.48 153.01 403.473 153.01C402.783 153.01 402.17 153.159 401.633 153.457C401.103 153.756 400.682 154.193 400.37 154.77C400.065 155.34 399.913 156.029 399.913 156.838ZM424.119 154.362L421.424 154.839C421.312 154.495 421.133 154.167 420.887 153.855C420.649 153.543 420.324 153.288 419.913 153.089C419.502 152.891 418.988 152.791 418.372 152.791C417.53 152.791 416.827 152.98 416.264 153.358C415.7 153.729 415.419 154.21 415.419 154.8C415.419 155.31 415.608 155.721 415.985 156.033C416.363 156.344 416.973 156.599 417.815 156.798L420.241 157.355C421.646 157.68 422.694 158.18 423.383 158.856C424.073 159.533 424.417 160.411 424.417 161.491C424.417 162.406 424.152 163.221 423.622 163.937C423.098 164.647 422.366 165.203 421.424 165.608C420.49 166.012 419.406 166.214 418.173 166.214C416.463 166.214 415.067 165.85 413.987 165.121C412.906 164.385 412.243 163.341 411.998 161.989L414.872 161.551C415.051 162.3 415.419 162.867 415.975 163.251C416.532 163.629 417.258 163.818 418.153 163.818C419.127 163.818 419.906 163.616 420.49 163.212C421.073 162.801 421.365 162.3 421.365 161.71C421.365 161.233 421.186 160.832 420.828 160.507C420.476 160.182 419.936 159.937 419.207 159.771L416.622 159.204C415.197 158.88 414.143 158.363 413.46 157.653C412.784 156.944 412.446 156.046 412.446 154.959C412.446 154.057 412.698 153.268 413.201 152.592C413.705 151.916 414.401 151.389 415.289 151.011C416.178 150.627 417.195 150.435 418.342 150.435C419.993 150.435 421.292 150.792 422.24 151.508C423.188 152.218 423.814 153.169 424.119 154.362ZM435.685 156.013V158.588H426.656V156.013H435.685ZM438.647 171.633V150.633H441.55V153.109H441.799C441.971 152.791 442.22 152.423 442.545 152.006C442.87 151.588 443.32 151.223 443.897 150.912C444.474 150.594 445.236 150.435 446.184 150.435C447.417 150.435 448.517 150.746 449.485 151.369C450.453 151.992 451.212 152.891 451.762 154.064C452.319 155.237 452.597 156.649 452.597 158.3C452.597 159.95 452.322 161.365 451.772 162.545C451.222 163.719 450.466 164.623 449.505 165.26C448.544 165.89 447.447 166.204 446.214 166.204C445.286 166.204 444.527 166.049 443.937 165.737C443.353 165.426 442.896 165.061 442.565 164.643C442.233 164.226 441.978 163.855 441.799 163.53H441.62V171.633H438.647ZM441.56 158.27C441.56 159.344 441.716 160.285 442.028 161.094C442.339 161.902 442.79 162.535 443.38 162.993C443.97 163.444 444.692 163.669 445.548 163.669C446.436 163.669 447.178 163.434 447.775 162.963C448.371 162.486 448.822 161.839 449.127 161.024C449.439 160.209 449.594 159.291 449.594 158.27C449.594 157.262 449.442 156.357 449.137 155.555C448.839 154.753 448.388 154.12 447.785 153.656C447.188 153.192 446.442 152.96 445.548 152.96C444.686 152.96 443.957 153.182 443.36 153.626C442.77 154.07 442.323 154.69 442.018 155.486C441.713 156.281 441.56 157.209 441.56 158.27ZM454.928 165.906V150.633H457.802V153.06H457.961C458.239 152.238 458.73 151.591 459.433 151.121C460.142 150.643 460.944 150.405 461.839 150.405C462.024 150.405 462.243 150.411 462.495 150.425C462.754 150.438 462.956 150.454 463.102 150.474V153.318C462.982 153.285 462.77 153.248 462.465 153.209C462.16 153.162 461.855 153.139 461.55 153.139C460.848 153.139 460.221 153.288 459.671 153.587C459.128 153.878 458.697 154.286 458.379 154.81C458.06 155.327 457.901 155.917 457.901 156.579V165.906H454.928ZM470.561 166.214C469.129 166.214 467.879 165.886 466.812 165.23C465.745 164.574 464.916 163.656 464.326 162.476C463.736 161.296 463.441 159.917 463.441 158.339C463.441 156.755 463.736 155.37 464.326 154.183C464.916 152.997 465.745 152.075 466.812 151.419C467.879 150.763 469.129 150.435 470.561 150.435C471.993 150.435 473.242 150.763 474.309 151.419C475.377 152.075 476.205 152.997 476.795 154.183C477.385 155.37 477.68 156.755 477.68 158.339C477.68 159.917 477.385 161.296 476.795 162.476C476.205 163.656 475.377 164.574 474.309 165.23C473.242 165.886 471.993 166.214 470.561 166.214ZM470.571 163.719C471.499 163.719 472.268 163.473 472.877 162.983C473.487 162.492 473.938 161.839 474.23 161.024C474.528 160.209 474.677 159.31 474.677 158.329C474.677 157.355 474.528 156.46 474.23 155.645C473.938 154.823 473.487 154.163 472.877 153.666C472.268 153.169 471.499 152.92 470.571 152.92C469.636 152.92 468.86 153.169 468.244 153.666C467.634 154.163 467.18 154.823 466.882 155.645C466.59 156.46 466.444 157.355 466.444 158.329C466.444 159.31 466.59 160.209 466.882 161.024C467.18 161.839 467.634 162.492 468.244 162.983C468.86 163.473 469.636 163.719 470.571 163.719Z" fill="#0F131C"/>
</g>
<rect x="71" y="134" width="416" height="50" fill="url(#paint1_radial_4075_13)"/>
<path d="M131.355 151.679C133.774 151.679 134.983 152.871 134.983 155.254V165H131.778V156.234C131.778 155.528 131.655 155.042 131.408 154.778C131.161 154.513 130.746 154.38 130.163 154.38C129.51 154.38 128.839 154.53 128.15 154.831C127.462 155.113 126.632 155.528 125.661 156.075L125.529 154.142C126.482 153.348 127.453 152.738 128.442 152.315C129.43 151.891 130.401 151.679 131.355 151.679ZM125.423 151.997L125.74 154.539L126.005 154.91V165H122.801V151.997H125.423ZM146.576 151.679C148.183 151.679 149.339 152.271 150.046 153.454C150.752 154.636 151.105 156.349 151.105 158.591C151.105 160.304 150.92 161.654 150.549 162.643C150.196 163.614 149.657 164.311 148.933 164.735C148.209 165.141 147.291 165.344 146.179 165.344C145.296 165.344 144.431 165.221 143.584 164.974C142.754 164.709 141.986 164.303 141.28 163.755L141.492 162.166C142.18 162.361 142.798 162.528 143.345 162.67C143.893 162.811 144.493 162.881 145.146 162.881C145.8 162.881 146.312 162.775 146.682 162.564C147.071 162.334 147.353 161.91 147.53 161.292C147.706 160.674 147.795 159.783 147.795 158.618C147.795 157.47 147.715 156.578 147.556 155.943C147.397 155.307 147.132 154.866 146.762 154.619C146.409 154.354 145.941 154.222 145.358 154.222C144.723 154.222 144.122 154.363 143.557 154.645C142.992 154.91 142.339 155.307 141.598 155.837L141.227 154.142C141.633 153.665 142.118 153.242 142.683 152.871C143.266 152.5 143.893 152.209 144.564 151.997C145.235 151.785 145.905 151.679 146.576 151.679ZM141.094 151.997L141.412 154.513L141.704 154.884V163.279L141.571 163.596C141.624 164.108 141.659 164.62 141.677 165.132C141.695 165.662 141.704 166.201 141.704 166.748V170.164H138.499V151.997H141.094ZM165.963 151.997L162.096 158.326L166.28 165H162.97L158.945 158.326L162.652 151.997H165.963ZM156.137 151.997L159.845 158.326L155.873 165H152.509L156.694 158.326L152.827 151.997H156.137ZM161.196 157.188V159.333H157.647V157.188H161.196ZM186.104 149.269C187.498 149.269 188.575 149.578 189.334 150.196C190.094 150.814 190.473 151.873 190.473 153.374V161.451H188.09L187.825 159.571C187.507 159.889 187.101 160.215 186.607 160.551C186.112 160.886 185.547 161.169 184.912 161.398C184.276 161.61 183.596 161.716 182.873 161.716C182.166 161.716 181.54 161.593 180.992 161.345C180.445 161.098 180.012 160.736 179.695 160.26C179.377 159.783 179.218 159.191 179.218 158.485V157.188C179.218 156.305 179.5 155.616 180.065 155.122C180.63 154.61 181.443 154.354 182.502 154.354H187.481V153.427C187.481 152.809 187.339 152.368 187.057 152.103C186.792 151.838 186.271 151.706 185.494 151.706H182.184C181.072 151.706 180.18 151.75 179.509 151.838C178.856 151.926 178.362 152.165 178.026 152.553C177.691 152.942 177.461 153.559 177.338 154.407C177.232 155.254 177.179 156.428 177.179 157.929C177.179 159.165 177.214 160.189 177.285 161.001C177.373 161.796 177.532 162.414 177.761 162.855C177.991 163.296 178.326 163.614 178.768 163.808C179.209 164.002 179.792 164.126 180.516 164.179C181.24 164.214 182.131 164.232 183.19 164.232H190.42V166.404C189.22 166.492 188.019 166.562 186.819 166.615C185.618 166.668 184.417 166.695 183.217 166.695C181.593 166.713 180.233 166.66 179.139 166.536C178.062 166.412 177.188 166.183 176.517 165.847C175.864 165.512 175.369 165.026 175.034 164.391C174.698 163.738 174.478 162.881 174.372 161.822C174.266 160.763 174.213 159.465 174.213 157.929C174.213 156.411 174.257 155.14 174.345 154.116C174.433 153.074 174.628 152.235 174.928 151.6C175.228 150.964 175.669 150.479 176.252 150.143C176.852 149.808 177.629 149.578 178.582 149.455C179.536 149.331 180.736 149.269 182.184 149.269H186.104ZM187.481 155.996L183.614 156.102C183.084 156.119 182.705 156.234 182.475 156.446C182.246 156.64 182.131 156.958 182.131 157.399V157.982C182.131 158.494 182.264 158.865 182.528 159.094C182.793 159.324 183.173 159.439 183.667 159.439C184.091 159.439 184.532 159.386 184.991 159.28C185.45 159.156 185.892 158.997 186.315 158.803C186.757 158.591 187.145 158.335 187.481 158.035V155.996ZM202.501 151.679C204.92 151.679 206.129 152.871 206.129 155.254V165H202.899V156.234C202.899 155.528 202.775 155.042 202.528 154.778C202.298 154.513 201.892 154.38 201.31 154.38C200.656 154.38 199.985 154.522 199.297 154.804C198.608 155.087 197.779 155.51 196.808 156.075L196.569 154.222C197.558 153.409 198.547 152.783 199.535 152.341C200.542 151.9 201.53 151.679 202.501 151.679ZM197.152 146.462L197.178 151.229C197.178 151.882 197.143 152.5 197.072 153.083C197.019 153.648 196.94 154.133 196.834 154.539L197.152 154.91V165H193.947V146.462H197.152ZM215.525 151.679C217.114 151.679 218.376 151.9 219.312 152.341C220.265 152.783 220.945 153.506 221.351 154.513C221.775 155.519 221.987 156.852 221.987 158.512C221.987 160.171 221.775 161.504 221.351 162.511C220.945 163.499 220.265 164.223 219.312 164.682C218.376 165.124 217.114 165.344 215.525 165.344C213.971 165.344 212.718 165.124 211.764 164.682C210.829 164.223 210.149 163.499 209.725 162.511C209.301 161.504 209.09 160.171 209.09 158.512C209.09 156.852 209.301 155.519 209.725 154.513C210.149 153.506 210.829 152.783 211.764 152.341C212.718 151.9 213.971 151.679 215.525 151.679ZM215.525 154.116C214.748 154.116 214.13 154.248 213.671 154.513C213.23 154.76 212.912 155.201 212.718 155.837C212.523 156.473 212.426 157.364 212.426 158.512C212.426 159.659 212.523 160.551 212.718 161.186C212.912 161.822 213.23 162.263 213.671 162.511C214.13 162.758 214.748 162.881 215.525 162.881C216.319 162.881 216.946 162.758 217.405 162.511C217.864 162.263 218.182 161.822 218.358 161.186C218.553 160.551 218.65 159.659 218.65 158.512C218.65 157.364 218.553 156.473 218.358 155.837C218.182 155.201 217.864 154.76 217.405 154.513C216.946 154.248 216.319 154.116 215.525 154.116ZM228.133 151.997V160.789C228.115 161.442 228.239 161.91 228.503 162.193C228.786 162.475 229.236 162.617 229.854 162.617C230.472 162.617 231.09 162.484 231.708 162.219C232.326 161.954 233.076 161.557 233.959 161.028L234.277 162.934C233.288 163.729 232.335 164.329 231.417 164.735C230.498 165.141 229.545 165.344 228.556 165.344C226.138 165.344 224.928 164.153 224.928 161.769V151.997H228.133ZM236.846 151.997V165H234.303L233.959 162.484L233.641 162.113V151.997H236.846ZM245.135 151.679C245.735 151.679 246.38 151.697 247.068 151.732C247.774 151.767 248.463 151.82 249.134 151.891C249.805 151.944 250.405 152.023 250.935 152.129L250.723 154.222C249.875 154.204 249.028 154.186 248.18 154.169C247.351 154.133 246.53 154.116 245.717 154.116C244.994 154.116 244.42 154.133 243.996 154.169C243.59 154.204 243.299 154.31 243.122 154.486C242.963 154.663 242.884 154.963 242.884 155.387C242.884 155.899 243.025 156.243 243.308 156.42C243.59 156.578 244.049 156.737 244.685 156.896L248.233 157.717C249.293 157.982 250.078 158.388 250.59 158.935C251.102 159.465 251.358 160.286 251.358 161.398C251.358 162.475 251.155 163.296 250.749 163.861C250.361 164.409 249.734 164.788 248.869 165C248.021 165.194 246.936 165.291 245.612 165.291C245.1 165.291 244.34 165.265 243.334 165.212C242.328 165.177 241.224 165.062 240.024 164.868L240.236 162.775C240.589 162.775 241.004 162.784 241.48 162.802C241.975 162.82 242.495 162.828 243.043 162.828C243.608 162.828 244.181 162.828 244.764 162.828C245.7 162.828 246.415 162.802 246.909 162.749C247.421 162.678 247.774 162.546 247.968 162.352C248.163 162.14 248.26 161.84 248.26 161.451C248.26 160.957 248.092 160.63 247.757 160.471C247.439 160.295 246.962 160.127 246.327 159.968L242.857 159.121C242.063 158.909 241.445 158.644 241.004 158.326C240.562 157.991 240.244 157.585 240.05 157.108C239.856 156.614 239.759 156.014 239.759 155.307C239.759 154.354 239.935 153.612 240.288 153.083C240.659 152.553 241.233 152.182 242.01 151.97C242.804 151.759 243.846 151.662 245.135 151.679ZM258.548 148.289V161.081C258.548 161.628 258.663 162.016 258.892 162.246C259.139 162.475 259.554 162.59 260.137 162.59H261.938L262.282 164.841C261.982 164.929 261.62 165.009 261.196 165.079C260.772 165.15 260.358 165.194 259.952 165.212C259.545 165.247 259.201 165.265 258.919 165.265C257.789 165.265 256.906 164.965 256.27 164.364C255.652 163.746 255.344 162.864 255.344 161.716V148.289H258.548ZM262.414 151.997V154.222H253.04V152.129L255.582 151.997H262.414ZM270.663 151.679C272.252 151.679 273.514 151.9 274.45 152.341C275.403 152.783 276.083 153.506 276.489 154.513C276.913 155.519 277.125 156.852 277.125 158.512C277.125 160.171 276.913 161.504 276.489 162.511C276.083 163.499 275.403 164.223 274.45 164.682C273.514 165.124 272.252 165.344 270.663 165.344C269.109 165.344 267.856 165.124 266.902 164.682C265.966 164.223 265.287 163.499 264.863 162.511C264.439 161.504 264.227 160.171 264.227 158.512C264.227 156.852 264.439 155.519 264.863 154.513C265.287 153.506 265.966 152.783 266.902 152.341C267.856 151.9 269.109 151.679 270.663 151.679ZM270.663 154.116C269.886 154.116 269.268 154.248 268.809 154.513C268.368 154.76 268.05 155.201 267.856 155.837C267.661 156.473 267.564 157.364 267.564 158.512C267.564 159.659 267.661 160.551 267.856 161.186C268.05 161.822 268.368 162.263 268.809 162.511C269.268 162.758 269.886 162.881 270.663 162.881C271.457 162.881 272.084 162.758 272.543 162.511C273.002 162.263 273.32 161.822 273.496 161.186C273.691 160.551 273.788 159.659 273.788 158.512C273.788 157.364 273.691 156.473 273.496 155.837C273.32 155.201 273.002 154.76 272.543 154.513C272.084 154.248 271.457 154.116 270.663 154.116ZM288.7 151.679C291.118 151.679 292.328 152.871 292.328 155.254V165H289.123V156.234C289.123 155.528 289 155.042 288.753 154.778C288.505 154.513 288.09 154.38 287.508 154.38C286.855 154.38 286.184 154.53 285.495 154.831C284.807 155.113 283.977 155.528 283.006 156.075L282.873 154.142C283.827 153.348 284.798 152.738 285.786 152.315C286.775 151.891 287.746 151.679 288.7 151.679ZM282.767 151.997L283.085 154.539L283.35 154.91V165H280.146V151.997H282.767ZM299.128 151.997V165H295.95V151.997H299.128ZM298.254 146.356C298.889 146.356 299.207 146.674 299.207 147.31V148.793C299.207 149.428 298.889 149.746 298.254 149.746H296.824C296.188 149.746 295.87 149.428 295.87 148.793V147.31C295.87 146.674 296.188 146.356 296.824 146.356H298.254ZM308.653 151.679C309.094 151.679 309.58 151.697 310.109 151.732C310.639 151.767 311.178 151.838 311.725 151.944C312.272 152.05 312.767 152.2 313.208 152.394L312.837 154.407C312.184 154.372 311.531 154.345 310.877 154.327C310.242 154.31 309.686 154.301 309.209 154.301C308.309 154.301 307.594 154.425 307.064 154.672C306.552 154.901 306.181 155.325 305.952 155.943C305.722 156.543 305.607 157.391 305.607 158.485C305.607 159.58 305.722 160.436 305.952 161.054C306.181 161.654 306.552 162.078 307.064 162.325C307.594 162.572 308.309 162.696 309.209 162.696C309.474 162.696 309.818 162.687 310.242 162.67C310.683 162.652 311.151 162.625 311.645 162.59C312.157 162.555 312.652 162.511 313.128 162.458L313.446 164.523C312.758 164.806 311.99 165.009 311.142 165.132C310.295 165.256 309.456 165.318 308.626 165.318C307.073 165.318 305.828 165.097 304.892 164.656C303.957 164.214 303.277 163.499 302.853 162.511C302.447 161.504 302.244 160.162 302.244 158.485C302.244 156.808 302.456 155.475 302.88 154.486C303.303 153.48 303.983 152.765 304.919 152.341C305.855 151.9 307.099 151.679 308.653 151.679ZM321.766 151.679C323.355 151.679 324.618 151.9 325.553 152.341C326.507 152.783 327.186 153.506 327.592 154.513C328.016 155.519 328.228 156.852 328.228 158.512C328.228 160.171 328.016 161.504 327.592 162.511C327.186 163.499 326.507 164.223 325.553 164.682C324.618 165.124 323.355 165.344 321.766 165.344C320.213 165.344 318.959 165.124 318.006 164.682C317.07 164.223 316.39 163.499 315.966 162.511C315.543 161.504 315.331 160.171 315.331 158.512C315.331 156.852 315.543 155.519 315.966 154.513C316.39 153.506 317.07 152.783 318.006 152.341C318.959 151.9 320.213 151.679 321.766 151.679ZM321.766 154.116C320.989 154.116 320.371 154.248 319.912 154.513C319.471 154.76 319.153 155.201 318.959 155.837C318.765 156.473 318.668 157.364 318.668 158.512C318.668 159.659 318.765 160.551 318.959 161.186C319.153 161.822 319.471 162.263 319.912 162.511C320.371 162.758 320.989 162.881 321.766 162.881C322.561 162.881 323.187 162.758 323.646 162.511C324.106 162.263 324.423 161.822 324.6 161.186C324.794 160.551 324.891 159.659 324.891 158.512C324.891 157.364 324.794 156.473 324.6 155.837C324.423 155.201 324.106 154.76 323.646 154.513C323.187 154.248 322.561 154.116 321.766 154.116ZM339.803 151.679C342.222 151.679 343.431 152.871 343.431 155.254V165H340.227V156.234C340.227 155.528 340.103 155.042 339.856 154.778C339.609 154.513 339.194 154.38 338.611 154.38C337.958 154.38 337.287 154.53 336.599 154.831C335.91 155.113 335.08 155.528 334.109 156.075L333.977 154.142C334.93 153.348 335.901 152.738 336.89 152.315C337.879 151.891 338.85 151.679 339.803 151.679ZM333.871 151.997L334.189 154.539L334.454 154.91V165H331.249V151.997H333.871ZM351.635 151.679C352.235 151.679 352.88 151.697 353.568 151.732C354.274 151.767 354.963 151.82 355.634 151.891C356.305 151.944 356.905 152.023 357.435 152.129L357.223 154.222C356.375 154.204 355.528 154.186 354.68 154.169C353.851 154.133 353.03 154.116 352.217 154.116C351.494 154.116 350.92 154.133 350.496 154.169C350.09 154.204 349.799 154.31 349.622 154.486C349.463 154.663 349.384 154.963 349.384 155.387C349.384 155.899 349.525 156.243 349.808 156.42C350.09 156.578 350.549 156.737 351.185 156.896L354.733 157.717C355.793 157.982 356.578 158.388 357.09 158.935C357.602 159.465 357.858 160.286 357.858 161.398C357.858 162.475 357.655 163.296 357.249 163.861C356.861 164.409 356.234 164.788 355.369 165C354.521 165.194 353.436 165.291 352.112 165.291C351.6 165.291 350.84 165.265 349.834 165.212C348.828 165.177 347.724 165.062 346.524 164.868L346.736 162.775C347.089 162.775 347.504 162.784 347.98 162.802C348.475 162.82 348.995 162.828 349.543 162.828C350.108 162.828 350.681 162.828 351.264 162.828C352.2 162.828 352.915 162.802 353.409 162.749C353.921 162.678 354.274 162.546 354.468 162.352C354.663 162.14 354.76 161.84 354.76 161.451C354.76 160.957 354.592 160.63 354.257 160.471C353.939 160.295 353.462 160.127 352.827 159.968L349.357 159.121C348.563 158.909 347.945 158.644 347.504 158.326C347.062 157.991 346.744 157.585 346.55 157.108C346.356 156.614 346.259 156.014 346.259 155.307C346.259 154.354 346.435 153.612 346.788 153.083C347.159 152.553 347.733 152.182 348.51 151.97C349.304 151.759 350.346 151.662 351.635 151.679ZM372.466 146.727L362.058 166.854H359.489L369.897 146.727H372.466ZM376.54 151.997L376.964 154.539L377.255 154.91V165H374.051V151.997H376.54ZM382.896 151.679L382.578 154.645H381.651C380.963 154.645 380.265 154.76 379.559 154.99C378.853 155.219 377.97 155.563 376.911 156.022L376.699 154.142C377.617 153.365 378.553 152.765 379.506 152.341C380.46 151.9 381.378 151.679 382.26 151.679H382.896ZM390.609 151.679C392.71 151.679 394.22 152.05 395.138 152.791C396.056 153.515 396.524 154.592 396.541 156.022C396.559 157.205 396.276 158.106 395.694 158.724C395.129 159.324 394.184 159.624 392.86 159.624H385.445V157.638H391.986C392.587 157.638 392.966 157.479 393.125 157.161C393.302 156.843 393.39 156.455 393.39 155.996C393.372 155.272 393.16 154.769 392.754 154.486C392.366 154.204 391.695 154.063 390.742 154.063C389.912 154.063 389.267 154.177 388.808 154.407C388.349 154.636 388.023 155.051 387.828 155.652C387.652 156.252 387.564 157.117 387.564 158.247C387.564 159.447 387.678 160.374 387.908 161.028C388.137 161.681 388.517 162.131 389.047 162.378C389.576 162.608 390.283 162.722 391.165 162.722C391.819 162.722 392.569 162.696 393.416 162.643C394.281 162.59 395.111 162.519 395.906 162.431L396.224 164.47C395.747 164.665 395.2 164.823 394.582 164.947C393.964 165.071 393.319 165.159 392.648 165.212C391.995 165.282 391.377 165.318 390.795 165.318C389.206 165.318 387.926 165.088 386.955 164.629C386.001 164.153 385.304 163.411 384.862 162.405C384.439 161.398 384.227 160.101 384.227 158.512C384.227 156.799 384.439 155.449 384.862 154.46C385.304 153.454 385.992 152.738 386.928 152.315C387.881 151.891 389.108 151.679 390.609 151.679ZM405.963 151.679C407.004 151.679 407.878 151.82 408.585 152.103C409.308 152.368 409.856 152.827 410.226 153.48C410.597 154.133 410.783 155.034 410.783 156.181V165H408.24L407.79 162.193L407.552 161.822V156.155C407.552 155.466 407.393 154.972 407.075 154.672C406.757 154.354 406.148 154.195 405.248 154.195C404.577 154.195 403.729 154.222 402.705 154.274C401.699 154.327 400.684 154.398 399.66 154.486L399.369 152.288C399.986 152.165 400.684 152.059 401.461 151.97C402.237 151.882 403.023 151.812 403.818 151.759C404.612 151.706 405.327 151.679 405.963 151.679ZM409.405 157.002L409.379 158.988H403.42C402.891 159.006 402.511 159.147 402.282 159.412C402.052 159.677 401.937 160.039 401.937 160.498V161.213C401.937 161.743 402.079 162.149 402.361 162.431C402.644 162.696 403.085 162.828 403.685 162.828C404.162 162.828 404.692 162.731 405.274 162.537C405.857 162.343 406.431 162.06 406.996 161.69C407.578 161.319 408.099 160.878 408.558 160.366V162.034C408.381 162.299 408.125 162.617 407.79 162.987C407.455 163.34 407.04 163.694 406.545 164.047C406.069 164.4 405.513 164.691 404.877 164.921C404.259 165.15 403.57 165.265 402.811 165.265C402.034 165.265 401.337 165.132 400.719 164.868C400.101 164.585 399.616 164.179 399.263 163.649C398.909 163.102 398.733 162.431 398.733 161.637V160.26C398.733 159.236 399.068 158.441 399.739 157.876C400.428 157.294 401.364 157.002 402.546 157.002H409.405ZM420.093 151.679C420.534 151.679 421.019 151.697 421.549 151.732C422.079 151.767 422.617 151.838 423.165 151.944C423.712 152.05 424.206 152.2 424.648 152.394L424.277 154.407C423.624 154.372 422.97 154.345 422.317 154.327C421.682 154.31 421.125 154.301 420.649 154.301C419.748 154.301 419.033 154.425 418.504 154.672C417.992 154.901 417.621 155.325 417.391 155.943C417.162 156.543 417.047 157.391 417.047 158.485C417.047 159.58 417.162 160.436 417.391 161.054C417.621 161.654 417.992 162.078 418.504 162.325C419.033 162.572 419.748 162.696 420.649 162.696C420.914 162.696 421.258 162.687 421.682 162.67C422.123 162.652 422.591 162.625 423.085 162.59C423.597 162.555 424.091 162.511 424.568 162.458L424.886 164.523C424.197 164.806 423.429 165.009 422.582 165.132C421.734 165.256 420.896 165.318 420.066 165.318C418.512 165.318 417.268 165.097 416.332 164.656C415.396 164.214 414.717 163.499 414.293 162.511C413.887 161.504 413.684 160.162 413.684 158.485C413.684 156.808 413.896 155.475 414.319 154.486C414.743 153.48 415.423 152.765 416.358 152.341C417.294 151.9 418.539 151.679 420.093 151.679ZM431.798 148.289V161.081C431.798 161.628 431.913 162.016 432.142 162.246C432.389 162.475 432.804 162.59 433.387 162.59H435.188L435.532 164.841C435.232 164.929 434.87 165.009 434.446 165.079C434.022 165.15 433.608 165.194 433.201 165.212C432.795 165.247 432.451 165.265 432.169 165.265C431.039 165.265 430.156 164.965 429.52 164.364C428.902 163.746 428.593 162.864 428.593 161.716V148.289H431.798ZM435.664 151.997V154.222H426.289V152.129L428.832 151.997H435.664Z" fill="black"/>
</g>
<defs>
<filter id="filter0_f_4075_13" x="65.6411" y="-42.8359" width="426.09" height="375.354" filterUnits="userSpaceOnUse" color-interpolation-filters="sRGB">
<feFlood flood-opacity="0" result="BackgroundImageFix"/>
<feBlend mode="normal" in="SourceGraphic" in2="BackgroundImageFix" result="shape"/>
<feGaussianBlur stdDeviation="45" result="effect1_foregroundBlur_4075_13"/>
</filter>
<linearGradient id="paint0_linear_4075_13" x1="230.944" y1="85.6705" x2="220.999" y2="252.458" gradientUnits="userSpaceOnUse">
<stop stop-color="#FEFFFE"/>
<stop offset="0.496318" stop-color="#99FF89"/>
<stop offset="0.863551" stop-color="#FFD600"/>
</linearGradient>
<radialGradient id="paint1_radial_4075_13" cx="0" cy="0" r="1" gradientUnits="userSpaceOnUse" gradientTransform="translate(279 159) scale(208 133.931)">
<stop stop-color="#F0FBD7"/>
<stop offset="1" stop-color="white"/>
</radialGradient>
<clipPath id="clip0_4075_13">
<rect width="558" height="400" fill="white"/>
</clipPath>
</defs>
</svg>
