<svg width="830" height="125" viewBox="0 0 830 125" fill="none" xmlns="http://www.w3.org/2000/svg">
<mask id="path-1-inside-1_4065_89" fill="white">
<path d="M0 24C0 10.7452 10.7452 0 24 0H101C114.255 0 125 10.7452 125 24V101C125 114.255 114.255 125 101 125H24C10.7452 125 0 114.255 0 101V24Z"/>
</mask>
<path d="M0 24C0 10.7452 10.7452 0 24 0H101C114.255 0 125 10.7452 125 24V101C125 114.255 114.255 125 101 125H24C10.7452 125 0 114.255 0 101V24Z" fill="white"/>
<path d="M-1 24C-1 10.1929 10.1929 -1 24 -1H101C114.807 -1 126 10.1929 126 24H124C124 11.2975 113.703 1 101 1H24C11.2975 1 1 11.2975 1 24H-1ZM126 102C126 115.807 114.807 127 101 127H24C10.1929 127 -1 115.807 -1 102L1 101C1 113.15 11.2975 123 24 123H101C113.703 123 124 113.15 124 101L126 102ZM24 127C10.1929 127 -1 115.807 -1 102V24C-1 10.1929 10.1929 -1 24 -1V1C11.2975 1 1 11.2975 1 24V101C1 113.15 11.2975 123 24 123V127ZM101 -1C114.807 -1 126 10.1929 126 24V102C126 115.807 114.807 127 101 127V123C113.703 123 124 113.15 124 101V24C124 11.2975 113.703 1 101 1V-1Z" fill="#D6D6D6" mask="url(#path-1-inside-1_4065_89)"/>
<path fill-rule="evenodd" clip-rule="evenodd" d="M86.7241 97.5268L79.1573 85.5581L60.2069 55.5835C53.957 45.7174 48.7288 37.5235 48.5886 37.3563C48.0878 36.7919 47.7673 36.7083 45.8643 36.7083C44.2417 36.7083 44.0815 36.7292 43.7008 36.9173C43.4805 37.0636 43.16 37.3145 42.9997 37.5235V37.5235C42.8172 37.782 42.7189 38.0904 42.7183 38.4068L42.6792 57.5694L42.6597 76.7964C42.6593 77.1014 42.7276 77.4026 42.8595 77.6776V77.6776C43.0024 77.9678 43.2168 78.2133 43.4805 78.3885V78.3885C43.7672 78.5925 44.1102 78.7021 44.462 78.7021H45.5438C46.966 78.7021 47.2264 78.6601 47.5269 78.4928C47.8994 78.3154 48.1981 78.0037 48.3683 77.6149C48.5269 77.2841 48.5285 76.7072 48.5674 62.9974L48.5686 62.5649C48.5821 57.1239 48.6047 52.3483 48.6303 49.815C48.6424 48.6113 49.0681 48.4955 49.73 49.501C52.6316 53.9086 55.5097 58.3331 58.3642 62.7742L67.9994 77.636L75.6916 88.4846C79.6729 94.1026 83.0621 98.841 83.4648 99.3858C83.4918 99.4223 83.5398 99.4479 83.5377 99.4933V99.4933M77.8249 36.0123C77.66 35.815 77.4591 35.6537 77.2342 35.5377C76.9337 35.3496 76.6933 35.3496 75.2909 35.3496C73.8088 35.3496 73.6886 35.3496 73.2878 35.5586C73.0629 35.6894 72.8654 35.8659 72.7071 36.0777C72.5488 36.2896 72.4331 36.5324 72.3665 36.7919C72.3064 37.0218 72.2662 41.6832 72.2662 49.9607V61.7654C72.2662 62.4382 72.4556 63.0973 72.8127 63.6674L75.2511 67.5608V67.5608C76.1215 68.9414 78.2558 68.3247 78.2558 66.6926V54.6847C78.2757 42.3938 78.2558 36.9382 78.1957 36.6874C78.1161 36.4391 77.99 36.2096 77.8249 36.0123Z" fill="#64748B"/>
<mask id="path-4-inside-2_4065_89" fill="white">
<path d="M141 24C141 10.7452 151.745 0 165 0H242C255.255 0 266 10.7452 266 24V101C266 114.255 255.255 125 242 125H165C151.745 125 141 114.255 141 101V24Z"/>
</mask>
<path d="M141 24C141 10.7452 151.745 0 165 0H242C255.255 0 266 10.7452 266 24V101C266 114.255 255.255 125 242 125H165C151.745 125 141 114.255 141 101V24Z" fill="white"/>
<path d="M140 24C140 10.1929 151.193 -1 165 -1H242C255.807 -1 267 10.1929 267 24H265C265 11.2975 254.703 1 242 1H165C152.297 1 142 11.2975 142 24H140ZM267 102C267 115.807 255.807 127 242 127H165C151.193 127 140 115.807 140 102L142 101C142 113.15 152.297 123 165 123H242C254.703 123 265 113.15 265 101L267 102ZM165 127C151.193 127 140 115.807 140 102V24C140 10.1929 151.193 -1 165 -1V1C152.297 1 142 11.2975 142 24V101C142 113.15 152.297 123 165 123V127ZM242 -1C255.807 -1 267 10.1929 267 24V102C267 115.807 255.807 127 242 127V123C254.703 123 265 113.15 265 101V24C265 11.2975 254.703 1 242 1V-1Z" fill="#D6D6D6" mask="url(#path-4-inside-2_4065_89)"/>
<path d="M201.709 68.5102C204.89 68.5102 207.468 65.8193 207.468 62.5C207.468 59.1806 204.89 56.4897 201.709 56.4897C198.527 56.4897 195.949 59.1806 195.949 62.5C195.949 65.8193 198.527 68.5102 201.709 68.5102Z" fill="#38BDF8"/>
<path d="M201.708 74.8136C218.778 74.8136 232.615 69.3005 232.615 62.4999C232.615 55.6993 218.778 50.1863 201.708 50.1863C184.639 50.1863 170.802 55.6993 170.802 62.4999C170.802 69.3005 184.639 74.8136 201.708 74.8136Z" stroke="#38BDF8" stroke-width="3.58333"/>
<path d="M191.489 68.6568C200.024 84.0817 211.518 93.8296 217.162 90.4293C222.806 87.029 220.463 71.7681 211.928 56.3431C203.394 40.9182 191.9 31.1703 186.256 34.5706C180.611 37.971 182.955 53.2318 191.489 68.6568Z" stroke="#38BDF8" stroke-width="3.58333"/>
<path d="M191.489 56.3432C182.955 71.7682 180.611 87.029 186.256 90.4294C191.9 93.8297 203.394 84.0818 211.928 68.6569C220.463 53.2319 222.806 37.971 217.162 34.5707C211.518 31.1704 200.024 40.9183 191.489 56.3432Z" stroke="#38BDF8" stroke-width="3.58333"/>
<mask id="path-10-inside-3_4065_89" fill="white">
<path d="M282 24C282 10.7452 292.745 0 306 0H383C396.255 0 407 10.7452 407 24V101C407 114.255 396.255 125 383 125H306C292.745 125 282 114.255 282 101V24Z"/>
</mask>
<path d="M282 24C282 10.7452 292.745 0 306 0H383C396.255 0 407 10.7452 407 24V101C407 114.255 396.255 125 383 125H306C292.745 125 282 114.255 282 101V24Z" fill="white"/>
<path d="M281 24C281 10.1929 292.193 -1 306 -1H383C396.807 -1 408 10.1929 408 24H406C406 11.2975 395.703 1 383 1H306C293.297 1 283 11.2975 283 24H281ZM408 102C408 115.807 396.807 127 383 127H306C292.193 127 281 115.807 281 102L283 101C283 113.15 293.297 123 306 123H383C395.703 123 406 113.15 406 101L408 102ZM306 127C292.193 127 281 115.807 281 102V24C281 10.1929 292.193 -1 306 -1V1C293.297 1 283 11.2975 283 24V101C283 113.15 293.297 123 306 123V127ZM383 -1C396.807 -1 408 10.1929 408 24V102C408 115.807 396.807 127 383 127V123C395.703 123 406 113.15 406 101V24C406 11.2975 395.703 1 383 1V-1Z" fill="#D6D6D6" mask="url(#path-10-inside-3_4065_89)"/>
<path fill-rule="evenodd" clip-rule="evenodd" d="M319.415 30.25C315.457 30.25 312.249 33.4586 312.249 37.4167V87.5833C312.249 91.5414 315.457 94.75 319.415 94.75H369.582C373.54 94.75 376.749 91.5414 376.749 87.5833V37.4167C376.749 33.4586 373.54 30.25 369.582 30.25H319.415ZM320.649 49.9394V55.6402H328.488V76H335.461V55.6402H343.3V49.9394H320.649ZM359.056 56.0982C359.625 56.5733 359.943 57.235 360.011 58.0833H366.78C366.772 56.3782 366.348 54.8894 365.508 53.6169C364.676 52.3359 363.493 51.3434 361.958 50.6393C360.422 49.9352 358.602 49.5831 356.499 49.5831C354.437 49.5831 352.609 49.9309 351.014 50.6265C349.428 51.3222 348.185 52.2935 347.286 53.5405C346.395 54.7791 345.954 56.2255 345.962 57.8797C345.954 59.9157 346.611 61.5233 347.935 62.7025C349.267 63.8732 351.086 64.7088 353.394 65.2093L355.99 65.7692C356.957 65.9813 357.724 66.2103 358.293 66.4563C358.861 66.6939 359.268 66.9653 359.514 67.2707C359.769 67.5676 359.9 67.9154 359.909 68.3142C359.9 68.7383 359.765 69.1158 359.502 69.4467C359.239 69.7775 358.853 70.0363 358.344 70.2229C357.835 70.4095 357.203 70.5028 356.448 70.5028C355.548 70.5028 354.772 70.3629 354.119 70.0829C353.474 69.803 352.974 69.3915 352.617 68.8486C352.261 68.3057 352.062 67.6355 352.019 66.8381H345.301C345.309 69.0183 345.776 70.8082 346.7 72.208C347.634 73.5992 348.94 74.63 350.62 75.3001C352.308 75.9703 354.284 76.3054 356.549 76.3054C358.755 76.3054 360.643 75.9958 362.212 75.3765C363.79 74.7572 365.003 73.8537 365.851 72.6661C366.7 71.4784 367.128 70.0278 367.137 68.3142C367.128 67.3216 366.967 66.4054 366.653 65.5656C366.348 64.7257 365.868 63.9707 365.215 63.3005C364.562 62.6219 363.722 62.0323 362.696 61.5318C361.669 61.0313 360.435 60.6283 358.993 60.3229L356.855 59.8648C356.236 59.7376 355.701 59.5934 355.252 59.4322C354.802 59.271 354.433 59.0928 354.144 58.8977C353.856 58.6941 353.644 58.4693 353.508 58.2233C353.381 57.9688 353.326 57.6846 353.343 57.3707C353.351 56.989 353.466 56.6497 353.686 56.3527C353.907 56.0558 354.246 55.8225 354.704 55.6529C355.171 55.4747 355.769 55.3857 356.499 55.3857C357.644 55.3857 358.496 55.6232 359.056 56.0982Z" fill="#2563EB"/>
<mask id="path-13-inside-4_4065_89" fill="white">
<path d="M423 24C423 10.7452 433.745 0 447 0H524C537.255 0 548 10.7452 548 24V101C548 114.255 537.255 125 524 125H447C433.745 125 423 114.255 423 101V24Z"/>
</mask>
<path d="M423 24C423 10.7452 433.745 0 447 0H524C537.255 0 548 10.7452 548 24V101C548 114.255 537.255 125 524 125H447C433.745 125 423 114.255 423 101V24Z" fill="white"/>
<path d="M422 24C422 10.1929 433.193 -1 447 -1H524C537.807 -1 549 10.1929 549 24H547C547 11.2975 536.703 1 524 1H447C434.297 1 424 11.2975 424 24H422ZM549 102C549 115.807 537.807 127 524 127H447C433.193 127 422 115.807 422 102L424 101C424 113.15 434.297 123 447 123H524C536.703 123 547 113.15 547 101L549 102ZM447 127C433.193 127 422 115.807 422 102V24C422 10.1929 433.193 -1 447 -1V1C434.297 1 424 11.2975 424 24V101C424 113.15 434.297 123 447 123V127ZM524 -1C537.807 -1 549 10.1929 549 24V102C549 115.807 537.807 127 524 127V123C536.703 123 547 113.15 547 101V24C547 11.2975 536.703 1 524 1V-1Z" fill="#D6D6D6" mask="url(#path-13-inside-4_4065_89)"/>
<path fill-rule="evenodd" clip-rule="evenodd" d="M514.615 33.8331C514.615 31.8541 513.011 30.2498 511.032 30.2498H456.386C454.407 30.2498 452.803 31.8541 452.803 33.8331V91.5248C452.803 93.5038 454.407 95.1081 456.386 95.1081H511.032C513.011 95.1081 514.615 93.5038 514.615 91.5248V33.8331ZM483.709 80.4164C483.709 82.3954 482.105 83.9998 480.126 83.9998H466.688C464.709 83.9998 463.105 82.3954 463.105 80.4164V44.5831C463.105 42.6041 464.709 40.9998 466.688 40.9998H500.73C502.709 40.9998 504.313 42.6041 504.313 44.5831V80.4164C504.313 82.3954 502.709 83.9998 500.73 83.9998H497.594C495.615 83.9998 494.011 82.3954 494.011 80.4164V55.3331C494.011 53.3541 492.407 51.7498 490.428 51.7498H487.292C485.313 51.7498 483.709 53.3541 483.709 55.3331V80.4164Z" fill="#CB3837"/>
<mask id="path-16-inside-5_4065_89" fill="white">
<path d="M564 24C564 10.7452 574.745 0 588 0H665C678.255 0 689 10.7452 689 24V101C689 114.255 678.255 125 665 125H588C574.745 125 564 114.255 564 101V24Z"/>
</mask>
<path d="M564 24C564 10.7452 574.745 0 588 0H665C678.255 0 689 10.7452 689 24V101C689 114.255 678.255 125 665 125H588C574.745 125 564 114.255 564 101V24Z" fill="white"/>
<path d="M563 24C563 10.1929 574.193 -1 588 -1H665C678.807 -1 690 10.1929 690 24H688C688 11.2975 677.703 1 665 1H588C575.297 1 565 11.2975 565 24H563ZM690 102C690 115.807 678.807 127 665 127H588C574.193 127 563 115.807 563 102L565 101C565 113.15 575.297 123 588 123H665C677.703 123 688 113.15 688 101L690 102ZM588 127C574.193 127 563 115.807 563 102V24C563 10.1929 574.193 -1 588 -1V1C575.297 1 565 11.2975 565 24V101C565 113.15 575.297 123 588 123V127ZM665 -1C678.807 -1 690 10.1929 690 24V102C690 115.807 678.807 127 665 127V123C677.703 123 688 113.15 688 101V24C688 11.2975 677.703 1 665 1V-1Z" fill="#D6D6D6" mask="url(#path-16-inside-5_4065_89)"/>
<rect x="601.417" y="37.4167" width="50.1667" height="50.1667" stroke="#52525B" stroke-width="5.375"/>
<rect x="594.25" y="30.25" width="14.3333" height="14.3333" rx="3.58333" fill="#F472B6"/>
<rect x="644.417" y="30.25" width="14.3333" height="14.3333" rx="3.58333" fill="#F472B6"/>
<rect x="644.417" y="80.4167" width="14.3333" height="14.3333" rx="3.58333" fill="#F472B6"/>
<rect x="594.25" y="80.4167" width="14.3333" height="14.3333" rx="3.58333" fill="#F472B6"/>
<mask id="path-23-inside-6_4065_89" fill="white">
<path d="M705 24C705 10.7452 715.745 0 729 0H806C819.255 0 830 10.7452 830 24V101C830 114.255 819.255 125 806 125H729C715.745 125 705 114.255 705 101V24Z"/>
</mask>
<path d="M705 24C705 10.7452 715.745 0 729 0H806C819.255 0 830 10.7452 830 24V101C830 114.255 819.255 125 806 125H729C715.745 125 705 114.255 705 101V24Z" fill="white"/>
<path d="M704 24C704 10.1929 715.193 -1 729 -1H806C819.807 -1 831 10.1929 831 24H829C829 11.2975 818.703 1 806 1H729C716.297 1 706 11.2975 706 24H704ZM831 102C831 115.807 819.807 127 806 127H729C715.193 127 704 115.807 704 102L706 101C706 113.15 716.297 123 729 123H806C818.703 123 829 113.15 829 101L831 102ZM729 127C715.193 127 704 115.807 704 102V24C704 10.1929 715.193 -1 729 -1V1C716.297 1 706 11.2975 706 24V101C706 113.15 716.297 123 729 123V127ZM806 -1C819.807 -1 831 10.1929 831 24V102C831 115.807 819.807 127 806 127V123C818.703 123 829 113.15 829 101V24C829 11.2975 818.703 1 806 1V-1Z" fill="#D6D6D6" mask="url(#path-23-inside-6_4065_89)"/>
<path fill-rule="evenodd" clip-rule="evenodd" d="M742.417 30.25C738.459 30.25 735.25 33.4586 735.25 37.4167V87.5833C735.25 91.5414 738.459 94.75 742.417 94.75H792.583C796.541 94.75 799.75 91.5414 799.75 87.5833V37.4167C799.75 33.4586 796.541 30.25 792.583 30.25H742.417ZM765.427 49.9394H758.454V67.8052C758.445 68.4753 758.348 69.0395 758.161 69.4976C757.974 69.9472 757.699 70.2865 757.334 70.5156C756.978 70.7446 756.536 70.8591 756.011 70.8591C755.493 70.8591 755.052 70.7489 754.687 70.5283C754.331 70.2992 754.051 69.9599 753.847 69.5103C753.652 69.0607 753.542 68.5093 753.516 67.8561H746.441C746.433 69.8581 746.84 71.4869 747.663 72.7424C748.486 73.9895 749.589 74.9057 750.971 75.491C752.354 76.0679 753.881 76.3563 755.552 76.3563C757.478 76.3563 759.179 76 760.655 75.2874C762.14 74.5663 763.302 73.5653 764.142 72.2843C764.99 70.9949 765.418 69.5018 765.427 67.8052V49.9394ZM781.874 56.0982C782.442 56.5733 782.76 57.235 782.828 58.0833H789.598C789.589 56.3782 789.165 54.8894 788.325 53.6169C787.494 52.3359 786.311 51.3434 784.775 50.6393C783.24 49.9352 781.42 49.5831 779.316 49.5831C777.255 49.5831 775.427 49.9309 773.832 50.6265C772.245 51.3222 771.003 52.2935 770.103 53.5405C769.213 54.7791 768.771 56.2255 768.78 57.8797C768.771 59.9157 769.429 61.5233 770.752 62.7025C772.084 63.8732 773.904 64.7088 776.211 65.2093L778.807 65.7692C779.774 65.9813 780.542 66.2103 781.11 66.4563C781.679 66.6939 782.086 66.9653 782.332 67.2707C782.586 67.5676 782.718 67.9154 782.726 68.3142C782.718 68.7383 782.582 69.1158 782.319 69.4467C782.056 69.7775 781.67 70.0363 781.161 70.2229C780.652 70.4095 780.02 70.5028 779.265 70.5028C778.366 70.5028 777.59 70.3629 776.937 70.0829C776.292 69.803 775.791 69.3915 775.435 68.8486C775.079 68.3057 774.879 67.6355 774.837 66.8381H768.118C768.127 69.0183 768.593 70.8082 769.518 72.208C770.451 73.5992 771.758 74.63 773.437 75.3001C775.125 75.9703 777.102 76.3054 779.367 76.3054C781.573 76.3054 783.46 75.9958 785.03 75.3765C786.608 74.7572 787.821 73.8537 788.669 72.6661C789.517 71.4784 789.946 70.0278 789.954 68.3142C789.946 67.3216 789.785 66.4054 789.471 65.5656C789.165 64.7257 788.686 63.9707 788.033 63.3005C787.38 62.6219 786.54 62.0323 785.513 61.5318C784.487 61.0313 783.252 60.6283 781.81 60.3229L779.672 59.8648C779.053 59.7376 778.519 59.5934 778.069 59.4322C777.62 59.271 777.25 59.0928 776.962 58.8977C776.674 58.6941 776.462 58.4693 776.326 58.2233C776.199 57.9688 776.143 57.6846 776.16 57.3707C776.169 56.989 776.283 56.6497 776.504 56.3527C776.725 56.0558 777.064 55.8225 777.522 55.6529C777.989 55.4747 778.587 55.3857 779.316 55.3857C780.461 55.3857 781.314 55.6232 781.874 56.0982Z" fill="#EAB308"/>
</svg>
