<svg width="58" height="57" viewBox="0 0 58 57" fill="none" xmlns="http://www.w3.org/2000/svg">
<rect x="3.63928" y="3.3255" width="50.6745" height="50.6745" rx="8.88889" fill="#121212"/>
<path d="M3.63928 28.6627C3.63928 16.7187 3.63928 10.7466 7.34983 7.03605C11.0604 3.3255 17.0324 3.3255 28.9765 3.3255C40.9205 3.3255 46.8926 3.3255 50.6033 7.03605C54.3138 10.7466 54.3138 16.7187 54.3138 28.6627C54.3138 40.6067 54.3138 46.5788 50.6033 50.2896C46.8926 54 40.9205 54 28.9765 54C17.0324 54 11.0604 54 7.34983 50.2896C3.63928 46.5788 3.63928 40.6067 3.63928 28.6627Z" stroke="#121212" stroke-width="5.6305"/>
<path d="M50.6107 9.83526L48.0012 7.28245C49.9272 6.37073 51.1078 5.58058 51.7912 6.24917C52.3504 6.7962 51.7291 7.64714 50.6107 9.83526Z" fill="#D9D9D9" stroke="#D9D9D9" stroke-width="0.121562" stroke-linejoin="round"/>
<path d="M50.6106 9.83525L48.0011 7.28244L44.0247 11.294L46.5721 13.786L50.6106 9.83525Z" fill="white" stroke="white" stroke-width="0.121562" stroke-linejoin="round"/>
<path d="M45.5158 14.6978L43.0306 12.2665L38.992 16.2173L41.5394 18.6485L45.5158 14.6978Z" fill="white" stroke="white" stroke-width="0.121562" stroke-linejoin="round"/>
<path d="M40.359 19.6818L37.8737 17.2506L25.0124 29.8931L27.4355 32.2635L40.359 19.6818Z" fill="white" stroke="white" stroke-width="0.121562" stroke-linejoin="round"/>
<path d="M43.0305 12.2611L45.5213 14.6978L45.7643 14.044L43.7596 12.0234L43.0305 12.2611Z" fill="#D9D9D9" stroke="#D9D9D9" stroke-width="0.121562" stroke-linejoin="round"/>
<path d="M37.8736 17.2505L40.3589 19.6818L40.6696 19.0281L38.6648 17.0074L37.8736 17.2505Z" fill="#2C3333" stroke="#2C3333" stroke-width="0.121562" stroke-linejoin="round"/>
<path d="M46.5721 13.786L44.0247 11.294L43.7762 11.9626L45.8265 14.0292L46.5721 13.786Z" fill="#B63BF2" stroke="#B63BF2" stroke-width="0.121562" stroke-linejoin="round"/>
<path d="M41.5394 18.6485L38.992 16.2173L38.6813 16.9467L40.7317 19.0132L41.5394 18.6485Z" fill="#2C3333" stroke="#2C3333" stroke-width="0.121562" stroke-linejoin="round"/>
<path d="M36.8795 17.7368L34.9534 15.9134C36.8795 15.0017 37.6872 14.2115 38.1222 14.637C38.5509 15.0565 37.9979 15.5487 36.8795 17.7368Z" fill="#D9D9D9" stroke="#D9D9D9" stroke-width="0.121562" stroke-linejoin="round"/>
<path d="M41.9122 22.5354L39.9861 20.7119C41.9122 19.8002 42.7199 19.01 43.1549 19.4355C43.5837 19.855 43.0306 20.3472 41.9122 22.5354Z" fill="#D9D9D9" stroke="#D9D9D9" stroke-width="0.121562" stroke-linejoin="round"/>
<path d="M36.8795 17.7369L34.9534 15.9134L22.6513 27.8873L24.5153 29.65L36.8795 17.7369Z" fill="white" stroke="white" stroke-width="0.121562" stroke-linejoin="round"/>
<path d="M41.9122 22.5353L39.9861 20.7119L27.684 32.6858L29.548 34.4485L41.9122 22.5353Z" fill="white" stroke="white" stroke-width="0.121562" stroke-linejoin="round"/>
<path d="M21.7194 28.5559L23.8319 30.6832L24.5153 29.6499L22.6514 27.8873L21.7194 28.5559Z" fill="#C9C9C9" stroke="#C9C9C9" stroke-width="0.121562" stroke-linejoin="round"/>
<ellipse cx="6.49706" cy="34.3909" rx="0.497055" ry="0.486249" fill="#C9C9C9"/>
<ellipse cx="24.1425" cy="49.343" rx="0.497055" ry="0.486249" fill="#C9C9C9"/>
<ellipse cx="42.9064" cy="44.7236" rx="0.497055" ry="0.486249" fill="#C9C9C9"/>
<ellipse cx="50.6107" cy="24.058" rx="0.41007" ry="0.401156" fill="#C9C9C9"/>
<ellipse cx="9.47936" cy="34.9987" rx="0.310659" ry="0.303906" fill="#B63BF2"/>
<ellipse cx="27.6219" cy="50.0724" rx="0.465989" ry="0.455859" fill="#B63BF2"/>
<ellipse cx="37.4077" cy="39.7092" rx="0.349492" ry="0.341894" fill="#B63BF2"/>
<ellipse cx="50.7485" cy="34.161" rx="0.262119" ry="0.25642" fill="#B63BF2"/>
<ellipse cx="11.4055" cy="15.3663" rx="0.310659" ry="0.303906" fill="#B63BF2"/>
<ellipse cx="23.8629" cy="16.6124" rx="0.0931978" ry="0.0911717" fill="#B63BF2"/>
<ellipse cx="37.097" cy="9.86566" rx="0.217461" ry="0.212734" fill="#B63BF2"/>
<path d="M14.2408 26.0632C14.2487 26.0422 14.2784 26.0422 14.2863 26.0632L14.3771 26.3032C14.3796 26.3098 14.3848 26.315 14.3915 26.3174L14.6353 26.4057C14.6567 26.4134 14.6567 26.4436 14.6353 26.4514L14.3915 26.5396C14.3848 26.542 14.3796 26.5473 14.3771 26.5539L14.2863 26.7939C14.2784 26.8148 14.2487 26.8148 14.2408 26.7939L14.15 26.5539C14.1475 26.5473 14.1422 26.542 14.1356 26.5396L13.8918 26.4514C13.8704 26.4436 13.8704 26.4134 13.8918 26.4057L14.1356 26.3174C14.1422 26.315 14.1475 26.3098 14.15 26.3032L14.2408 26.0632Z" fill="#C9C9C9"/>
<path d="M23.312 8.55823C23.3199 8.53728 23.3496 8.53728 23.3575 8.55823L23.4483 8.79821C23.4508 8.80484 23.4561 8.81005 23.4627 8.81247L23.7065 8.90072C23.7279 8.90846 23.7279 8.9387 23.7065 8.94644L23.4627 9.03469C23.4561 9.0371 23.4508 9.04231 23.4483 9.04895L23.3575 9.28893C23.3496 9.30987 23.3199 9.30987 23.312 9.28893L23.2213 9.04895C23.2187 9.04231 23.2135 9.0371 23.2068 9.03469L22.963 8.94644C22.9416 8.9387 22.9416 8.90846 22.963 8.90072L23.2068 8.81247C23.2135 8.81005 23.2187 8.80484 23.2213 8.79821L23.312 8.55823Z" fill="#C9C9C9"/>
<path d="M38.4722 7.22104C38.4802 7.20009 38.5098 7.20009 38.5177 7.22104L38.6085 7.46102C38.611 7.46765 38.6163 7.47286 38.623 7.47528L38.8668 7.56353C38.8881 7.57127 38.8881 7.60151 38.8668 7.60925L38.623 7.6975C38.6163 7.69991 38.611 7.70512 38.6085 7.71176L38.5177 7.95174C38.5098 7.97269 38.4802 7.97269 38.4722 7.95174L38.3815 7.71176C38.379 7.70512 38.3737 7.69991 38.367 7.6975L38.1232 7.60925C38.1018 7.60151 38.1018 7.57127 38.1232 7.56353L38.367 7.47528C38.3737 7.47286 38.379 7.46765 38.3815 7.46102L38.4722 7.22104Z" fill="#C9C9C9"/>
<path d="M23.7697 31.8988L6.86987 48.5528L8.54743 50.1332L25.5094 33.5399L23.7697 31.8988Z" fill="url(#paint0_linear_4056_124)"/>
<path d="M26.0065 34.9379L13.1452 47.7019L14.3878 48.9176L27.3734 36.2751L26.0065 34.9379Z" fill="url(#paint1_linear_4056_124)"/>
<path d="M20.9116 30.1362L8.11243 42.8395L9.35506 44.0551L22.2785 31.4734L20.9116 30.1362Z" fill="url(#paint2_linear_4056_124)"/>
<path d="M20.7252 29.8931L22.4649 31.5949L22.8998 30.8048L21.5951 29.5284L20.7252 29.8931Z" fill="#2B2F37" stroke="#2B2F37" stroke-width="0.121562" stroke-linejoin="round"/>
<path d="M23.8318 30.6832L21.7194 28.5559L21.4087 29.2853L23.0863 30.9263L23.8318 30.6832Z" fill="#B63BF2" stroke="#B63BF2" stroke-width="0.121562" stroke-linejoin="round"/>
<path d="M23.6455 31.7165L25.6337 33.6615L26.0686 32.8105L24.5774 31.3518L23.6455 31.7165Z" fill="#2B2F37" stroke="#2B2F37" stroke-width="0.121562" stroke-linejoin="round"/>
<path d="M25.7579 34.6916L27.4976 36.3934L27.9326 35.6033L26.6278 34.3269L25.7579 34.6916Z" fill="#2B2F37" stroke="#2B2F37" stroke-width="0.121562" stroke-linejoin="round"/>
<path d="M28.8645 35.4817L26.7521 33.3544L26.4414 34.0837L28.119 35.7248L28.8645 35.4817Z" fill="#B63BF2" stroke="#B63BF2" stroke-width="0.121562" stroke-linejoin="round"/>
<path d="M26.752 33.3544L28.8645 35.4818L29.548 34.4485L27.684 32.6858L26.752 33.3544Z" fill="#C9C9C9" stroke="#C9C9C9" stroke-width="0.121562" stroke-linejoin="round"/>
<path d="M27.4355 32.2635L25.0124 29.893L24.3289 30.9871L26.3793 32.9929L27.4355 32.2635Z" fill="#B63BF2" stroke="#B63BF2" stroke-width="0.121562" stroke-linejoin="round"/>
<defs>
<linearGradient id="paint0_linear_4056_124" x1="24.4695" y1="32.8543" x2="8.07276" y2="49.7143" gradientUnits="userSpaceOnUse">
<stop stop-color="#AF3AEB"/>
<stop offset="1" stop-color="#EEE1FF" stop-opacity="0"/>
</linearGradient>
<linearGradient id="paint1_linear_4056_124" x1="26.5657" y1="35.7281" x2="14.0491" y2="48.5849" gradientUnits="userSpaceOnUse">
<stop stop-color="#AF3AEB"/>
<stop offset="1" stop-color="#EEE1FF" stop-opacity="0"/>
</linearGradient>
<linearGradient id="paint2_linear_4056_124" x1="21.5329" y1="30.8656" x2="9.01634" y2="43.7224" gradientUnits="userSpaceOnUse">
<stop stop-color="#AF3AEB"/>
<stop offset="1" stop-color="#EEE1FF" stop-opacity="0"/>
</linearGradient>
</defs>
</svg>
