<svg width="125" height="125" viewBox="0 0 125 125" fill="none" xmlns="http://www.w3.org/2000/svg">
<mask id="path-1-inside-1_4099_124" fill="white">
<path d="M0 24C0 10.7452 10.7452 0 24 0H101C114.255 0 125 10.7452 125 24V101C125 114.255 114.255 125 101 125H24C10.7452 125 0 114.255 0 101V24Z"/>
</mask>
<path d="M0 24C0 10.7452 10.7452 0 24 0H101C114.255 0 125 10.7452 125 24V101C125 114.255 114.255 125 101 125H24C10.7452 125 0 114.255 0 101V24Z" fill="white"/>
<path d="M-1 24C-1 10.1929 10.1929 -1 24 -1H101C114.807 -1 126 10.1929 126 24H124C124 11.2975 113.703 1 101 1H24C11.2975 1 1 11.2975 1 24H-1ZM126 102C126 115.807 114.807 127 101 127H24C10.1929 127 -1 115.807 -1 102L1 101C1 113.15 11.2975 123 24 123H101C113.703 123 124 113.15 124 101L126 102ZM24 127C10.1929 127 -1 115.807 -1 102V24C-1 10.1929 10.1929 -1 24 -1V1C11.2975 1 1 11.2975 1 24V101C1 113.15 11.2975 123 24 123V127ZM101 -1C114.807 -1 126 10.1929 126 24V102C126 115.807 114.807 127 101 127V123C113.703 123 124 113.15 124 101V24C124 11.2975 113.703 1 101 1V-1Z" fill="#D6D6D6" mask="url(#path-1-inside-1_4099_124)"/>
<mask id="mask0_4099_124" style="mask-type:luminance" maskUnits="userSpaceOnUse" x="30" y="30" width="62" height="65">
<path d="M30.4561 30.259H91.3861V94.741H30.4561V30.259Z" fill="white"/>
</mask>
<g mask="url(#mask0_4099_124)">
<path d="M91.1339 40.9674L88.9428 75.3732L67.9941 30.259L91.1339 40.9674ZM76.6241 85.4559L60.7951 94.4877L44.9659 85.4559L48.1853 77.6536H73.4046L76.6241 85.4559ZM60.7951 47.3836L69.0895 67.5487H52.5004L60.7951 47.3836ZM32.6247 75.3732L30.4561 40.9674L53.5958 30.259L32.6247 75.3732Z" fill="url(#paint0_linear_4099_124)"/>
<path d="M91.1339 40.9674L88.9428 75.3732L67.9941 30.259L91.1339 40.9674ZM76.6241 85.4559L60.7951 94.4877L44.9659 85.4559L48.1853 77.6536H73.4046L76.6241 85.4559ZM60.7951 47.3836L69.0895 67.5487H52.5004L60.7951 47.3836ZM32.6247 75.3732L30.4561 40.9674L53.5958 30.259L32.6247 75.3732Z" fill="url(#paint1_linear_4099_124)"/>
</g>
<defs>
<linearGradient id="paint0_linear_4099_124" x1="43.8467" y1="88.6617" x2="92.159" y2="65.7028" gradientUnits="userSpaceOnUse">
<stop stop-color="#E40035"/>
<stop offset="0.24" stop-color="#F60A48"/>
<stop offset="0.352" stop-color="#F20755"/>
<stop offset="0.494" stop-color="#DC087D"/>
<stop offset="0.745" stop-color="#9717E7"/>
<stop offset="1" stop-color="#6C00F5"/>
</linearGradient>
<linearGradient id="paint1_linear_4099_124" x1="41.6653" y1="38.0034" x2="73.2822" y2="74.0696" gradientUnits="userSpaceOnUse">
<stop stop-color="#FF31D9"/>
<stop offset="1" stop-color="#FF5BE1" stop-opacity="0"/>
</linearGradient>
</defs>
</svg>
