<svg width="125" height="125" viewBox="0 0 125 125" fill="none" xmlns="http://www.w3.org/2000/svg">
<mask id="path-1-inside-1_4099_122" fill="white">
<path d="M0 24C0 10.7452 10.7452 0 24 0H101C114.255 0 125 10.7452 125 24V101C125 114.255 114.255 125 101 125H24C10.7452 125 0 114.255 0 101V24Z"/>
</mask>
<path d="M0 24C0 10.7452 10.7452 0 24 0H101C114.255 0 125 10.7452 125 24V101C125 114.255 114.255 125 101 125H24C10.7452 125 0 114.255 0 101V24Z" fill="white"/>
<path d="M-1 24C-1 10.1929 10.1929 -1 24 -1H101C114.807 -1 126 10.1929 126 24H124C124 11.2975 113.703 1 101 1H24C11.2975 1 1 11.2975 1 24H-1ZM126 102C126 115.807 114.807 127 101 127H24C10.1929 127 -1 115.807 -1 102L1 101C1 113.15 11.2975 123 24 123H101C113.703 123 124 113.15 124 101L126 102ZM24 127C10.1929 127 -1 115.807 -1 102V24C-1 10.1929 10.1929 -1 24 -1V1C11.2975 1 1 11.2975 1 24V101C1 113.15 11.2975 123 24 123V127ZM101 -1C114.807 -1 126 10.1929 126 24V102C126 115.807 114.807 127 101 127V123C113.703 123 124 113.15 124 101V24C124 11.2975 113.703 1 101 1V-1Z" fill="#D6D6D6" mask="url(#path-1-inside-1_4099_122)"/>
<path fill-rule="evenodd" clip-rule="evenodd" d="M38.0103 69.363C37.0492 72.5677 36.5717 74.1685 36.6888 75.6889C36.7997 77.0293 37.2371 78.3183 37.961 79.4337C38.7804 80.6938 40.1174 81.6259 42.7974 83.4871L54.6233 91.716C57.0107 93.3746 58.2059 94.2072 59.4966 94.5318C60.6364 94.8211 61.8286 94.8211 62.9714 94.5414C64.2652 94.22 65.4666 93.3939 67.8632 91.7449L79.8186 83.5C82.5232 81.6324 83.8786 80.7034 84.7103 79.4305C85.4391 78.3107 85.8764 77.0125 85.9795 75.6632C86.0996 74.1299 85.6037 72.5195 84.6241 69.2922L74.1505 34.898C73.6422 33.2265 73.3896 32.394 72.9029 31.7736C72.4741 31.2286 71.9198 30.8062 71.2918 30.5457C70.5833 30.25 69.7454 30.25 68.0665 30.25H54.4169C52.7319 30.25 51.8848 30.25 51.1732 30.5522C50.543 30.8132 49.9874 31.2381 49.559 31.7865C49.0723 32.4101 48.8228 33.249 48.3237 34.927L38.0103 69.3662V69.363ZM68.5995 37.5499C68.9999 38.0707 69.2094 38.781 69.6191 40.1857L78.611 71.0055C75.2331 69.1781 71.6077 67.8991 67.8601 67.2125L62.0072 46.5664C61.9591 46.4035 61.8623 46.261 61.7309 46.1598C61.5995 46.0586 61.4405 46.004 61.2772 46.004C61.1138 46.004 60.9548 46.0586 60.8234 46.1598C60.692 46.261 60.5952 46.4035 60.5471 46.5664L54.7619 67.1964C50.9976 67.8814 47.3562 69.165 43.9649 71.0023L53.003 40.1825C53.4127 38.7714 53.6191 38.0674 54.0226 37.5467C54.38 37.0871 54.8451 36.7303 55.3688 36.5085C55.9664 36.2577 56.6718 36.2577 58.0827 36.2577H64.5363C65.9472 36.2577 66.6557 36.2577 67.2533 36.5085C67.777 36.7303 68.239 37.0871 68.5995 37.5499V37.5499ZM61.6283 74.6989C65.0353 74.6989 67.9957 73.7988 69.4774 72.4745C69.7407 73.3395 69.8341 74.2511 69.7521 75.1547C69.67 76.0582 69.4142 76.9353 68.9999 77.7333C68.0511 79.5655 66.6742 80.4752 65.4327 81.2949C63.874 82.3267 62.534 83.2171 62.534 85.6022C62.534 86.3897 62.7065 87.1419 63.0176 87.8073C61.9678 87.3519 61.0707 86.5822 60.4397 85.5954C59.8087 84.6085 59.4719 83.4488 59.472 82.2624V82.1145C59.472 80.4687 59.4751 78.4405 57.2479 78.4405C56.9384 78.44 56.6319 78.5032 56.3458 78.6264C56.0598 78.7496 55.7998 78.9304 55.5806 79.1584C55.3615 79.3865 55.1876 79.6573 55.0688 79.9555C54.95 80.2537 54.8886 80.5733 54.8882 80.8963C52.3869 78.283 52.6056 74.5221 52.6056 74.5221C52.6056 73.7538 52.6795 72.5581 53.0092 71.5134C53.9395 73.3392 57.445 74.6957 61.6283 74.6957V74.6989Z" fill="#EA580C"/>
</svg>
