<svg width="125" height="125" viewBox="0 0 125 125" fill="none" xmlns="http://www.w3.org/2000/svg">
<mask id="path-1-inside-1_4064_19" fill="white">
<path d="M0 24C0 10.7452 10.7452 0 24 0H101C114.255 0 125 10.7452 125 24V101C125 114.255 114.255 125 101 125H24C10.7452 125 0 114.255 0 101V24Z"/>
</mask>
<path d="M0 24C0 10.7452 10.7452 0 24 0H101C114.255 0 125 10.7452 125 24V101C125 114.255 114.255 125 101 125H24C10.7452 125 0 114.255 0 101V24Z" fill="white"/>
<path d="M-1 24C-1 10.1929 10.1929 -1 24 -1H101C114.807 -1 126 10.1929 126 24H124C124 11.2975 113.703 1 101 1H24C11.2975 1 1 11.2975 1 24H-1ZM126 102C126 115.807 114.807 127 101 127H24C10.1929 127 -1 115.807 -1 102L1 101C1 113.15 11.2975 123 24 123H101C113.703 123 124 113.15 124 101L126 102ZM24 127C10.1929 127 -1 115.807 -1 102V24C-1 10.1929 10.1929 -1 24 -1V1C11.2975 1 1 11.2975 1 24V101C1 113.15 11.2975 123 24 123V127ZM101 -1C114.807 -1 126 10.1929 126 24V102C126 115.807 114.807 127 101 127V123C113.703 123 124 113.15 124 101V24C124 11.2975 113.703 1 101 1V-1Z" fill="#D6D6D6" mask="url(#path-1-inside-1_4064_19)"/>
<g clip-path="url(#clip0_4064_19)">
<path d="M62.4995 62.5001C62.4995 56.2893 67.5345 51.2542 73.7455 51.2542C79.9564 51.2542 84.9915 56.2893 84.9915 62.5001C84.9915 68.7112 79.9564 73.7461 73.7455 73.7461C67.5345 73.7461 62.4995 68.7112 62.4995 62.5001Z" fill="#1ABCFE"/>
<path d="M40.0083 84.9921C40.0083 78.7812 45.0433 73.7461 51.2543 73.7461H62.5003V84.9921C62.5003 91.2031 57.4653 96.2381 51.2543 96.2381C45.0433 96.2381 40.0083 91.2031 40.0083 84.9921Z" fill="#0ACF83"/>
<path d="M62.4995 28.7622V51.2541H73.7455C79.9566 51.2541 84.9915 46.2192 84.9915 40.0082C84.9915 33.7972 79.9566 28.7622 73.7455 28.7622H62.4995Z" fill="#FF7262"/>
<path d="M40.0083 40.0082C40.0083 46.2192 45.0433 51.2541 51.2543 51.2541H62.5003V28.7622H51.2543C45.0433 28.7622 40.0083 33.7972 40.0083 40.0082Z" fill="#F24E1E"/>
<path d="M40.0083 62.5001C40.0083 68.7112 45.0433 73.7461 51.2543 73.7461H62.5003V51.2542H51.2543C45.0433 51.2542 40.0083 56.2893 40.0083 62.5001Z" fill="#A259FF"/>
</g>
<defs>
<clipPath id="clip0_4064_19">
<rect width="45.4467" height="68.17" fill="white" transform="translate(39.7764 28.415)"/>
</clipPath>
</defs>
</svg>
