<svg width="125" height="125" viewBox="0 0 125 125" fill="none" xmlns="http://www.w3.org/2000/svg">
<mask id="path-1-inside-1_4143_115" fill="white">
<path d="M0 24C0 10.7452 10.7452 0 24 0H101C114.255 0 125 10.7452 125 24V101C125 114.255 114.255 125 101 125H24C10.7452 125 0 114.255 0 101V24Z"/>
</mask>
<path d="M0 24C0 10.7452 10.7452 0 24 0H101C114.255 0 125 10.7452 125 24V101C125 114.255 114.255 125 101 125H24C10.7452 125 0 114.255 0 101V24Z" fill="white"/>
<path d="M-1 24C-1 10.1929 10.1929 -1 24 -1H101C114.807 -1 126 10.1929 126 24H124C124 11.2975 113.703 1 101 1H24C11.2975 1 1 11.2975 1 24H-1ZM126 102C126 115.807 114.807 127 101 127H24C10.1929 127 -1 115.807 -1 102L1 101C1 113.15 11.2975 123 24 123H101C113.703 123 124 113.15 124 101L126 102ZM24 127C10.1929 127 -1 115.807 -1 102V24C-1 10.1929 10.1929 -1 24 -1V1C11.2975 1 1 11.2975 1 24V101C1 113.15 11.2975 123 24 123V127ZM101 -1C114.807 -1 126 10.1929 126 24V102C126 115.807 114.807 127 101 127V123C113.703 123 124 113.15 124 101V24C124 11.2975 113.703 1 101 1V-1Z" fill="#D6D6D6" mask="url(#path-1-inside-1_4143_115)"/>
<path fill-rule="evenodd" clip-rule="evenodd" d="M62.4998 35.2667C47.4593 35.2667 35.2665 47.4595 35.2665 62.5001C35.2665 77.5407 47.4593 89.7334 62.4998 89.7334C77.5404 89.7334 89.7332 77.5407 89.7332 62.5001C89.7332 61.717 89.7002 60.942 89.6357 60.1764L89.6356 60.1764C89.5864 59.5931 89.5189 59.0153 89.4336 58.4434C89.4157 58.3232 89.397 58.2032 89.3775 58.0835C89.1955 56.9664 88.9457 55.8728 88.6324 54.8067L88.6694 54.8047C88.8541 54.7945 89.0376 54.7794 89.2195 54.7595C92.1313 54.4415 94.6762 52.9022 96.3313 50.6647C96.7063 51.7368 97.0318 52.832 97.305 53.9472C97.9771 56.6903 98.3332 59.5554 98.3332 62.5001C98.3332 82.2902 82.2899 98.3334 62.4998 98.3334C42.7096 98.3334 26.6665 82.2902 26.6665 62.5001C26.6665 42.7099 42.7096 26.6667 62.4998 26.6667C70.485 26.6667 77.8637 29.2821 83.82 33.6972C84.5166 33.4943 85.2533 33.3855 86.0155 33.3855C90.3446 33.3855 93.854 36.895 93.854 41.2241C93.854 45.5532 90.3446 49.0626 86.0155 49.0626C81.6863 49.0626 78.1769 45.5532 78.1769 41.2241C78.1769 40.9008 78.1965 40.582 78.2345 40.269C73.7899 37.1163 68.3627 35.2667 62.4998 35.2667ZM62.4998 78.1772C71.1377 78.1772 78.1769 71.1513 78.1769 62.5001C78.1769 53.8622 71.1511 46.8231 62.4998 46.8231C53.8486 46.8231 46.8228 53.8622 46.8228 62.5001C46.8228 71.138 53.8619 78.1772 62.4998 78.1772Z" fill="#2563EB"/>
</svg>
