<svg width="125" height="125" viewBox="0 0 125 125" fill="none" xmlns="http://www.w3.org/2000/svg">
<mask id="path-1-inside-1_4064_22" fill="white">
<path d="M0 24C0 10.7452 10.7452 0 24 0H101C114.255 0 125 10.7452 125 24V101C125 114.255 114.255 125 101 125H24C10.7452 125 0 114.255 0 101V24Z"/>
</mask>
<path d="M0 24C0 10.7452 10.7452 0 24 0H101C114.255 0 125 10.7452 125 24V101C125 114.255 114.255 125 101 125H24C10.7452 125 0 114.255 0 101V24Z" fill="white"/>
<path d="M-1 24C-1 10.1929 10.1929 -1 24 -1H101C114.807 -1 126 10.1929 126 24H124C124 11.2975 113.703 1 101 1H24C11.2975 1 1 11.2975 1 24H-1ZM126 102C126 115.807 114.807 127 101 127H24C10.1929 127 -1 115.807 -1 102L1 101C1 113.15 11.2975 123 24 123H101C113.703 123 124 113.15 124 101L126 102ZM24 127C10.1929 127 -1 115.807 -1 102V24C-1 10.1929 10.1929 -1 24 -1V1C11.2975 1 1 11.2975 1 24V101C1 113.15 11.2975 123 24 123V127ZM101 -1C114.807 -1 126 10.1929 126 24V102C126 115.807 114.807 127 101 127V123C113.703 123 124 113.15 124 101V24C124 11.2975 113.703 1 101 1V-1Z" fill="#D6D6D6" mask="url(#path-1-inside-1_4064_22)"/>
<path fill-rule="evenodd" clip-rule="evenodd" d="M37.4167 30.25C33.4586 30.25 30.25 33.4586 30.25 37.4167V87.5833C30.25 91.5414 33.4586 94.75 37.4167 94.75H87.5833C91.5414 94.75 94.75 91.5414 94.75 87.5833V37.4167C94.75 33.4586 91.5414 30.25 87.5833 30.25H37.4167ZM60.4269 49.9394H53.4537V67.8052C53.4452 68.4753 53.3476 69.0395 53.161 69.4976C52.9744 69.9472 52.6987 70.2865 52.3339 70.5156C51.9776 70.7446 51.5365 70.8591 51.0105 70.8591C50.493 70.8591 50.0519 70.7489 49.6871 70.5283C49.3308 70.2992 49.0509 69.9599 48.8473 69.5103C48.6522 69.0607 48.5419 68.5093 48.5164 67.8561H41.4414C41.4329 69.8581 41.8401 71.4869 42.663 72.7424C43.4858 73.9895 44.5887 74.9057 45.9714 75.491C47.3542 76.0679 48.8812 76.3563 50.5524 76.3563C52.4781 76.3563 54.179 76 55.6551 75.2874C57.1397 74.5663 58.3019 73.5653 59.1417 72.2843C59.99 70.9949 60.4185 69.5018 60.4269 67.8052V49.9394ZM76.8739 56.0982C77.4423 56.5733 77.7604 57.235 77.8282 58.0833H84.5979C84.5894 56.3782 84.1652 54.8894 83.3254 53.6169C82.494 52.3359 81.3106 51.3434 79.7752 50.6393C78.2397 49.9352 76.42 49.5831 74.3162 49.5831C72.2547 49.5831 70.4266 49.9309 68.8317 50.6265C67.2454 51.3222 66.0026 52.2935 65.1033 53.5405C64.2126 54.7791 63.7715 56.2255 63.7799 57.8797C63.7715 59.9157 64.4289 61.5233 65.7523 62.7025C67.0842 63.8732 68.9038 64.7088 71.2113 65.2093L73.8072 65.7692C74.7743 65.9813 75.542 66.2103 76.1104 66.4563C76.6788 66.6939 77.086 66.9653 77.332 67.2707C77.5865 67.5676 77.718 67.9154 77.7264 68.3142C77.718 68.7383 77.5822 69.1158 77.3192 69.4467C77.0563 69.7775 76.6703 70.0363 76.1613 70.2229C75.6523 70.4095 75.0203 70.5028 74.2653 70.5028C73.366 70.5028 72.5898 70.3629 71.9366 70.0829C71.2919 69.803 70.7914 69.3915 70.4351 68.8486C70.0788 68.3057 69.8794 67.6355 69.837 66.8381H63.1183C63.1267 69.0183 63.5933 70.8082 64.518 72.208C65.4512 73.5992 66.7576 74.63 68.4373 75.3001C70.1254 75.9703 72.102 76.3054 74.3671 76.3054C76.5727 76.3054 78.4602 75.9958 80.0297 75.3765C81.6075 74.7572 82.8206 73.8537 83.669 72.6661C84.5173 71.4784 84.9457 70.0278 84.9542 68.3142C84.9457 67.3216 84.7845 66.4054 84.4706 65.5656C84.1652 64.7257 83.6859 63.9707 83.0327 63.3005C82.3795 62.6219 81.5397 62.0323 80.5132 61.5318C79.4867 61.0313 78.2524 60.6283 76.8102 60.3229L74.6725 59.8648C74.0532 59.7376 73.5187 59.5934 73.0691 59.4322C72.6195 59.271 72.2505 59.0928 71.9621 58.8977C71.6736 58.6941 71.4615 58.4693 71.3258 58.2233C71.1986 57.9688 71.1434 57.6846 71.1604 57.3707C71.1689 56.989 71.2834 56.6497 71.504 56.3527C71.7245 56.0558 72.0639 55.8225 72.522 55.6529C72.9885 55.4747 73.5866 55.3857 74.3162 55.3857C75.4614 55.3857 76.314 55.6232 76.8739 56.0982Z" fill="#EAB308"/>
</svg>
