<svg width="125" height="125" viewBox="0 0 125 125" fill="none" xmlns="http://www.w3.org/2000/svg">
<mask id="path-1-inside-1_4133_108" fill="white">
<path d="M0 24C0 10.7452 10.7452 0 24 0H101C114.255 0 125 10.7452 125 24V101C125 114.255 114.255 125 101 125H24C10.7452 125 0 114.255 0 101V24Z"/>
</mask>
<path d="M0 24C0 10.7452 10.7452 0 24 0H101C114.255 0 125 10.7452 125 24V101C125 114.255 114.255 125 101 125H24C10.7452 125 0 114.255 0 101V24Z" fill="white"/>
<path d="M-1 24C-1 10.1929 10.1929 -1 24 -1H101C114.807 -1 126 10.1929 126 24H124C124 11.2975 113.703 1 101 1H24C11.2975 1 1 11.2975 1 24H-1ZM126 102C126 115.807 114.807 127 101 127H24C10.1929 127 -1 115.807 -1 102L1 101C1 113.15 11.2975 123 24 123H101C113.703 123 124 113.15 124 101L126 102ZM24 127C10.1929 127 -1 115.807 -1 102V24C-1 10.1929 10.1929 -1 24 -1V1C11.2975 1 1 11.2975 1 24V101C1 113.15 11.2975 123 24 123V127ZM101 -1C114.807 -1 126 10.1929 126 24V102C126 115.807 114.807 127 101 127V123C113.703 123 124 113.15 124 101V24C124 11.2975 113.703 1 101 1V-1Z" fill="#D6D6D6" mask="url(#path-1-inside-1_4133_108)"/>
<path opacity="0.4" fill-rule="evenodd" clip-rule="evenodd" d="M56.2129 62.4998C56.2129 59.0365 59.0204 56.229 62.4837 56.229H62.516C65.9793 56.229 68.7868 59.0365 68.7868 62.4998C68.7868 65.9631 65.9793 68.7707 62.516 68.7707H62.4837C59.0204 68.7707 56.2129 65.9631 56.2129 62.4998Z" fill="black"/>
<path fill-rule="evenodd" clip-rule="evenodd" d="M77.7285 62.5001C77.7285 59.0368 80.5361 56.2292 83.9993 56.2292H84.0316C87.4949 56.2292 90.3024 59.0368 90.3024 62.5001C90.3024 65.9634 87.4949 68.7709 84.0316 68.7709H83.9993C80.5361 68.7709 77.7285 65.9634 77.7285 62.5001Z" fill="black"/>
<path fill-rule="evenodd" clip-rule="evenodd" d="M34.7285 62.5001C34.7285 59.0368 37.5361 56.2292 40.9993 56.2292H41.0315C44.4948 56.2292 47.3024 59.0368 47.3024 62.5001C47.3024 65.9634 44.4948 68.7709 41.0315 68.7709H40.9993C37.5361 68.7709 34.7285 65.9634 34.7285 62.5001Z" fill="black"/>
</svg>
