<svg width="125" height="125" viewBox="0 0 125 125" fill="none" xmlns="http://www.w3.org/2000/svg">
<mask id="path-1-inside-1_4064_21" fill="white">
<path d="M0 24C0 10.7452 10.7452 0 24 0H101C114.255 0 125 10.7452 125 24V101C125 114.255 114.255 125 101 125H24C10.7452 125 0 114.255 0 101V24Z"/>
</mask>
<path d="M0 24C0 10.7452 10.7452 0 24 0H101C114.255 0 125 10.7452 125 24V101C125 114.255 114.255 125 101 125H24C10.7452 125 0 114.255 0 101V24Z" fill="white"/>
<path d="M-1 24C-1 10.1929 10.1929 -1 24 -1H101C114.807 -1 126 10.1929 126 24H124C124 11.2975 113.703 1 101 1H24C11.2975 1 1 11.2975 1 24H-1ZM126 102C126 115.807 114.807 127 101 127H24C10.1929 127 -1 115.807 -1 102L1 101C1 113.15 11.2975 123 24 123H101C113.703 123 124 113.15 124 101L126 102ZM24 127C10.1929 127 -1 115.807 -1 102V24C-1 10.1929 10.1929 -1 24 -1V1C11.2975 1 1 11.2975 1 24V101C1 113.15 11.2975 123 24 123V127ZM101 -1C114.807 -1 126 10.1929 126 24V102C126 115.807 114.807 127 101 127V123C113.703 123 124 113.15 124 101V24C124 11.2975 113.703 1 101 1V-1Z" fill="#D6D6D6" mask="url(#path-1-inside-1_4064_21)"/>
<path fill-rule="evenodd" clip-rule="evenodd" d="M86.7241 97.5268L79.1573 85.5581L60.2069 55.5835C53.957 45.7174 48.7288 37.5235 48.5886 37.3563C48.0878 36.7919 47.7673 36.7083 45.8643 36.7083C44.2417 36.7083 44.0815 36.7292 43.7008 36.9173C43.4805 37.0636 43.16 37.3145 42.9997 37.5235V37.5235C42.8172 37.782 42.7189 38.0904 42.7183 38.4068L42.6792 57.5694L42.6597 76.7964C42.6593 77.1014 42.7276 77.4026 42.8595 77.6776V77.6776C43.0024 77.9678 43.2168 78.2133 43.4805 78.3885V78.3885C43.7672 78.5925 44.1102 78.7021 44.462 78.7021H45.5438C46.966 78.7021 47.2264 78.6601 47.5269 78.4928C47.8994 78.3154 48.1981 78.0037 48.3683 77.6149C48.5269 77.2841 48.5285 76.7072 48.5674 62.9974L48.5686 62.5649C48.5821 57.1239 48.6047 52.3483 48.6303 49.815C48.6424 48.6113 49.0681 48.4955 49.73 49.501C52.6316 53.9086 55.5097 58.3331 58.3642 62.7742L67.9994 77.636L75.6916 88.4846C79.6729 94.1026 83.0621 98.841 83.4648 99.3858C83.4918 99.4223 83.5398 99.4479 83.5377 99.4933V99.4933M77.8249 36.0123C77.66 35.815 77.4591 35.6537 77.2342 35.5377C76.9337 35.3496 76.6933 35.3496 75.2909 35.3496C73.8088 35.3496 73.6886 35.3496 73.2878 35.5586C73.0629 35.6894 72.8654 35.8659 72.7071 36.0777C72.5488 36.2896 72.4331 36.5324 72.3665 36.7919C72.3064 37.0218 72.2662 41.6832 72.2662 49.9607V61.7654C72.2662 62.4382 72.4556 63.0973 72.8127 63.6674L75.2511 67.5608V67.5608C76.1215 68.9414 78.2558 68.3247 78.2558 66.6926V54.6847C78.2757 42.3938 78.2558 36.9382 78.1957 36.6874C78.1161 36.4391 77.99 36.2096 77.8249 36.0123Z" fill="#64748B"/>
</svg>
