<svg width="125" height="125" viewBox="0 0 125 125" fill="none" xmlns="http://www.w3.org/2000/svg">
<mask id="path-1-inside-1_4064_24" fill="white">
<path d="M0 24C0 10.7452 10.7452 0 24 0H101C114.255 0 125 10.7452 125 24V101C125 114.255 114.255 125 101 125H24C10.7452 125 0 114.255 0 101V24Z"/>
</mask>
<path d="M0 24C0 10.7452 10.7452 0 24 0H101C114.255 0 125 10.7452 125 24V101C125 114.255 114.255 125 101 125H24C10.7452 125 0 114.255 0 101V24Z" fill="white"/>
<path d="M-1 24C-1 10.1929 10.1929 -1 24 -1H101C114.807 -1 126 10.1929 126 24H124C124 11.2975 113.703 1 101 1H24C11.2975 1 1 11.2975 1 24H-1ZM126 102C126 115.807 114.807 127 101 127H24C10.1929 127 -1 115.807 -1 102L1 101C1 113.15 11.2975 123 24 123H101C113.703 123 124 113.15 124 101L126 102ZM24 127C10.1929 127 -1 115.807 -1 102V24C-1 10.1929 10.1929 -1 24 -1V1C11.2975 1 1 11.2975 1 24V101C1 113.15 11.2975 123 24 123V127ZM101 -1C114.807 -1 126 10.1929 126 24V102C126 115.807 114.807 127 101 127V123C113.703 123 124 113.15 124 101V24C124 11.2975 113.703 1 101 1V-1Z" fill="#D6D6D6" mask="url(#path-1-inside-1_4064_24)"/>
<path fill-rule="evenodd" clip-rule="evenodd" d="M91.6152 33.8331C91.6152 31.8541 90.0109 30.2498 88.0319 30.2498H33.3861C31.407 30.2498 29.8027 31.8541 29.8027 33.8331V91.5248C29.8027 93.5038 31.407 95.1081 33.3861 95.1081H88.0319C90.0109 95.1081 91.6152 93.5038 91.6152 91.5248V33.8331ZM60.709 80.4164C60.709 82.3954 59.1047 83.9998 57.1257 83.9998H43.6882C41.7091 83.9998 40.1048 82.3954 40.1048 80.4164V44.5831C40.1048 42.6041 41.7091 40.9998 43.6881 40.9998H77.7298C79.7088 40.9998 81.3131 42.6041 81.3131 44.5831V80.4164C81.3131 82.3954 79.7088 83.9998 77.7298 83.9998H74.5944C72.6154 83.9998 71.0111 82.3954 71.0111 80.4164V55.3331C71.0111 53.3541 69.4068 51.7498 67.4277 51.7498H64.2923C62.3133 51.7498 60.709 53.3541 60.709 55.3331V80.4164Z" fill="#CB3837"/>
</svg>
