<svg width="125" height="125" viewBox="0 0 125 125" fill="none" xmlns="http://www.w3.org/2000/svg">
<mask id="path-1-inside-1_4064_23" fill="white">
<path d="M0 24C0 10.7452 10.7452 0 24 0H101C114.255 0 125 10.7452 125 24V101C125 114.255 114.255 125 101 125H24C10.7452 125 0 114.255 0 101V24Z"/>
</mask>
<path d="M0 24C0 10.7452 10.7452 0 24 0H101C114.255 0 125 10.7452 125 24V101C125 114.255 114.255 125 101 125H24C10.7452 125 0 114.255 0 101V24Z" fill="white"/>
<path d="M-1 24C-1 10.1929 10.1929 -1 24 -1H101C114.807 -1 126 10.1929 126 24H124C124 11.2975 113.703 1 101 1H24C11.2975 1 1 11.2975 1 24H-1ZM126 102C126 115.807 114.807 127 101 127H24C10.1929 127 -1 115.807 -1 102L1 101C1 113.15 11.2975 123 24 123H101C113.703 123 124 113.15 124 101L126 102ZM24 127C10.1929 127 -1 115.807 -1 102V24C-1 10.1929 10.1929 -1 24 -1V1C11.2975 1 1 11.2975 1 24V101C1 113.15 11.2975 123 24 123V127ZM101 -1C114.807 -1 126 10.1929 126 24V102C126 115.807 114.807 127 101 127V123C113.703 123 124 113.15 124 101V24C124 11.2975 113.703 1 101 1V-1Z" fill="#D6D6D6" mask="url(#path-1-inside-1_4064_23)"/>
<path d="M60.7085 68.5102C63.8896 68.5102 66.4683 65.8193 66.4683 62.5C66.4683 59.1806 63.8896 56.4897 60.7085 56.4897C57.5275 56.4897 54.9487 59.1806 54.9487 62.5C54.9487 65.8193 57.5275 68.5102 60.7085 68.5102Z" fill="#2563EB"/>
<path d="M60.7085 74.8136C77.7775 74.8136 91.6147 69.3005 91.6147 62.4999C91.6147 55.6993 77.7775 50.1863 60.7085 50.1863C43.6394 50.1863 29.8022 55.6993 29.8022 62.4999C29.8022 69.3005 43.6394 74.8136 60.7085 74.8136Z" stroke="#2563EB" stroke-width="3.58333"/>
<path d="M50.489 68.6568C59.0236 84.0817 70.5176 93.8296 76.1618 90.4293C81.8059 87.029 79.4627 71.7681 70.9282 56.3431C62.3937 40.9182 50.8996 31.1703 45.2555 34.5706C39.6114 37.971 41.9545 53.2318 50.489 68.6568Z" stroke="#2563EB" stroke-width="3.58333"/>
<path d="M50.489 56.3432C41.9545 71.7682 39.6114 87.029 45.2555 90.4294C50.8996 93.8297 62.3937 84.0818 70.9282 68.6569C79.4627 53.2319 81.8059 37.971 76.1618 34.5707C70.5176 31.1704 59.0236 40.9183 50.489 56.3432Z" stroke="#2563EB" stroke-width="3.58333"/>
</svg>
