<svg width="125" height="125" viewBox="0 0 125 125" fill="none" xmlns="http://www.w3.org/2000/svg">
<mask id="path-1-inside-1_4099_124" fill="white">
<path d="M0 24C0 10.7452 10.7452 0 24 0H101C114.255 0 125 10.7452 125 24V101C125 114.255 114.255 125 101 125H24C10.7452 125 0 114.255 0 101V24Z"/>
</mask>
<path d="M0 24C0 10.7452 10.7452 0 24 0H101C114.255 0 125 10.7452 125 24V101C125 114.255 114.255 125 101 125H24C10.7452 125 0 114.255 0 101V24Z" fill="white"/>
<path d="M-1 24C-1 10.1929 10.1929 -1 24 -1H101C114.807 -1 126 10.1929 126 24H124C124 11.2975 113.703 1 101 1H24C11.2975 1 1 11.2975 1 24H-1ZM126 102C126 115.807 114.807 127 101 127H24C10.1929 127 -1 115.807 -1 102L1 101C1 113.15 11.2975 123 24 123H101C113.703 123 124 113.15 124 101L126 102ZM24 127C10.1929 127 -1 115.807 -1 102V24C-1 10.1929 10.1929 -1 24 -1V1C11.2975 1 1 11.2975 1 24V101C1 113.15 11.2975 123 24 123V127ZM101 -1C114.807 -1 126 10.1929 126 24V102C126 115.807 114.807 127 101 127V123C113.703 123 124 113.15 124 101V24C124 11.2975 113.703 1 101 1V-1Z" fill="#D6D6D6" mask="url(#path-1-inside-1_4099_124)"/>
<path d="M77.8034 86.5379C77.9589 86.4581 78.1068 86.3678 78.2466 86.2683C79.5111 85.7864 80.8674 85.4235 82.0795 85.4991C83.1701 85.5672 84.3511 85.9673 85.3825 88.0045L85.3975 88.0338C85.5778 88.3819 86.123 89.3405 87.3234 89.8543C88.9106 90.5335 90.3634 89.9559 91.1652 89.299C91.8198 88.7626 92.1495 88.1311 92.2927 87.8264C92.4663 87.4572 92.5805 87.0943 92.6589 86.7882C92.9591 85.6168 93.0329 84.0912 92.8833 82.4616C92.6059 79.4398 91.5039 75.4401 88.7401 71.456C91.7915 58.0303 83.3877 43.1526 70.4978 35.362C69.0099 34.4627 67.0912 34.7612 65.9468 36.07C64.8024 37.3787 64.7625 39.3202 65.8523 40.6748C68.1688 43.5544 69.8098 46.9169 70.6544 50.5148C71.2691 53.1331 71.4506 55.8275 71.1982 58.4917C63.5147 53.1565 56.3463 47.1103 49.7882 40.4317C48.5016 39.1214 46.4326 38.9959 44.997 40.141C44.0111 40.9274 43.5431 42.1382 43.6677 43.3202C43.4053 43.1271 43.1396 42.9323 42.8706 42.7357C41.4985 41.7332 39.6109 41.8322 38.3513 42.9729C37.0916 44.1136 36.8064 45.9822 37.6685 47.4467C38.6057 49.039 39.6858 50.5426 40.8955 51.9389C46.3807 59.2574 52.5984 65.9904 59.4489 72.0345C54.8428 73.1164 49.2084 72.5831 43.3176 69.8388L43.2861 69.8243C41.3449 68.9427 39.5172 67.8302 37.8426 66.5108C36.4721 65.4311 34.5232 65.4954 33.2269 66.663C31.9305 67.8306 31.6635 69.7622 32.5945 71.2377C36.972 78.1754 43.344 83.6272 50.8739 86.8789C55.0707 88.9006 59.6783 89.9254 64.3371 89.8728C69.0237 89.8199 73.6338 88.6782 77.8034 86.5379Z" stroke="#EA580C" stroke-width="7.16667" stroke-linejoin="round"/>
</svg>
