<svg width="125" height="125" viewBox="0 0 125 125" fill="none" xmlns="http://www.w3.org/2000/svg">
<mask id="path-1-inside-1_4096_108" fill="white">
<path d="M0 24C0 10.7452 10.7452 0 24 0H101C114.255 0 125 10.7452 125 24V101C125 114.255 114.255 125 101 125H24C10.7452 125 0 114.255 0 101V24Z"/>
</mask>
<path d="M0 24C0 10.7452 10.7452 0 24 0H101C114.255 0 125 10.7452 125 24V101C125 114.255 114.255 125 101 125H24C10.7452 125 0 114.255 0 101V24Z" fill="white"/>
<path d="M-1 24C-1 10.1929 10.1929 -1 24 -1H101C114.807 -1 126 10.1929 126 24H124C124 11.2975 113.703 1 101 1H24C11.2975 1 1 11.2975 1 24H-1ZM126 102C126 115.807 114.807 127 101 127H24C10.1929 127 -1 115.807 -1 102L1 101C1 113.15 11.2975 123 24 123H101C113.703 123 124 113.15 124 101L126 102ZM24 127C10.1929 127 -1 115.807 -1 102V24C-1 10.1929 10.1929 -1 24 -1V1C11.2975 1 1 11.2975 1 24V101C1 113.15 11.2975 123 24 123V127ZM101 -1C114.807 -1 126 10.1929 126 24V102C126 115.807 114.807 127 101 127V123C113.703 123 124 113.15 124 101V24C124 11.2975 113.703 1 101 1V-1Z" fill="#D6D6D6" mask="url(#path-1-inside-1_4096_108)"/>
<g clip-path="url(#clip0_4096_108)">
<path d="M67.5461 84.1681C67.5461 85.0571 66.8254 85.7778 65.9364 85.7778H46.7949C45.9059 85.7778 45.1852 85.0571 45.1852 84.1681V84.1681C45.1852 83.279 45.9066 82.5663 46.7944 82.5214C47.8788 82.4665 48.7188 82.3505 49.3145 82.1734C50.1776 81.8935 50.6092 81.2519 50.6092 80.2488C50.6092 79.5489 50.4692 78.8374 50.1893 78.1142L48.8507 74.7677C48.3065 73.4073 46.9889 72.5152 45.5237 72.5152H35.0358C33.5421 72.5152 32.2051 73.4418 31.6806 74.8404L31.3978 75.5946C30.7446 77.321 30.418 78.5691 30.418 79.339C30.418 80.7387 30.9545 81.6252 32.0277 81.9985C32.6981 82.2267 33.4339 82.3851 34.2352 82.4738C35.1188 82.5716 35.842 83.279 35.842 84.1681V84.1681C35.842 85.0571 35.1213 85.7778 34.2323 85.7778H21.1097C20.2207 85.7778 19.5 85.0571 19.5 84.1681V84.1681C19.5 83.279 20.2277 82.5829 21.1012 82.4176C21.7383 82.2971 22.3127 82.099 22.8244 81.8235C23.7342 81.3336 24.5974 80.4121 25.4139 79.059C26.2537 77.6826 27.1519 75.7463 28.1084 73.2501L41.1954 38.9763C41.554 38.0372 42.4549 37.4167 43.4602 37.4167V37.4167C44.4584 37.4167 45.3545 38.0285 45.718 38.9581L59.5675 74.3699C60.6174 76.9827 61.3872 78.7557 61.8771 79.6889C62.367 80.5987 63.0436 81.3103 63.9067 81.8235C64.4475 82.1304 65.1255 82.3412 65.9409 82.4558C66.8212 82.5796 67.5461 83.279 67.5461 84.1681V84.1681ZM41.4201 69.0859C43.949 69.0859 45.6822 66.5369 44.7524 64.1851L43.561 61.1714C42.3559 58.1232 38.0293 58.159 36.8749 61.2267L35.7407 64.2405C34.8589 66.5837 36.5908 69.0859 39.0945 69.0859H41.4201Z" fill="#64748B"/>
<path d="M105.759 78.394C106.474 78.394 107.064 78.9756 106.985 79.6863C106.849 80.9154 106.51 82.001 105.969 82.9431C105.246 84.1796 104.266 85.101 103.03 85.7076C101.817 86.2908 100.44 86.5824 98.9004 86.5824C96.9408 86.5824 95.3077 86.1275 94.0013 85.2177V85.2177C92.455 84.1132 89.8719 83.3093 88.2172 84.2437C85.4561 85.8028 82.6833 86.5824 79.8989 86.5824C77.3794 86.5824 75.3148 85.9759 73.7051 84.7628C72.0954 83.5263 71.2905 81.905 71.2905 79.8987C71.2905 78.2423 71.7221 76.7493 72.5853 75.4195C73.4485 74.0664 74.7082 72.865 76.3646 71.8152C78.0443 70.7654 80.0389 69.8439 82.3485 69.0507C84.2137 68.3913 86.4518 67.709 89.0627 67.0039C90.196 66.6979 90.9919 65.6754 90.9919 64.5015V64.5015C90.9919 62.8452 90.5953 61.5504 89.8021 60.6173C89.0322 59.6608 87.5975 59.1825 85.4979 59.1825C83.7016 59.1825 82.4068 59.5558 81.6136 60.3023C80.8204 61.0489 80.2955 62.1803 80.0389 63.6967C79.8523 64.7698 79.5023 65.6563 78.9891 66.3562C78.4992 67.0327 77.461 67.371 75.8747 67.371C74.8949 67.371 74.0317 67.0911 73.2852 66.5312C72.5386 65.9713 72.1654 65.1431 72.1654 64.0466C72.1654 61.877 73.3435 59.9874 75.6997 58.3777C78.0559 56.768 81.6719 55.9631 86.5477 55.9631C91.6801 55.9631 95.2027 56.8263 97.1157 58.5527C99.052 60.279 100.02 62.5886 100.02 65.4814V76.5393C100.02 77.939 100.055 78.9655 100.125 79.6187C100.195 80.2719 100.382 80.7735 100.685 81.1235C101.012 81.4501 101.513 81.6134 102.19 81.6134C102.796 81.6134 103.321 81.2984 103.764 80.6685C103.989 80.3653 104.16 80.0324 104.276 79.6697C104.495 78.9889 105.044 78.394 105.759 78.394V78.394ZM89.6286 79.7072C90.5129 79.0837 90.9919 78.0451 90.9919 76.9631V74.8849C90.9919 72.4629 88.6208 70.7046 86.4048 71.6819C84.5398 72.5045 83.2461 73.3188 82.5234 74.1248C81.3337 75.4545 80.7388 76.7609 80.7388 78.044C80.7388 79.1172 81.0654 79.9803 81.7186 80.6335C82.3718 81.2868 83.2933 81.6134 84.4831 81.6134C85.7662 81.6134 86.8976 81.3451 87.8774 80.8085C88.4418 80.4995 89.0255 80.1324 89.6286 79.7072Z" fill="#64748B"/>
</g>
<defs>
<clipPath id="clip0_4096_108">
<rect width="86" height="86" fill="white" transform="translate(19.5 19.5)"/>
</clipPath>
</defs>
</svg>
