<svg xmlns:xlink="http://www.w3.org/1999/xlink" xmlns="http://www.w3.org/2000/svg" width="487" height="487" viewBox="0 0 487 487" fill="none">
<g clip-path="url(#clip0_624_17239)">
<rect x="0.1875" y="0.583984" width="486" height="486" rx="16" fill="white"/>
<rect width="81" height="81" transform="translate(38.1875 39.584)" fill="#FAFAFA"/>
<path opacity="0.4" d="M76.95 66.6567C77.3571 66.1899 77.9068 65.7505 78.6879 65.7505C79.469 65.7505 80.0186 66.1899 80.4258 66.6567C80.8042 67.0907 81.1958 67.7089 81.6368 68.4052L81.6774 68.4692L82.3612 69.5486L82.4039 69.6158C82.8368 70.299 83.2246 70.911 83.4464 71.4241C83.6804 71.9655 83.8622 72.6995 83.4094 73.4034C82.9822 74.0672 82.2674 74.2601 81.6788 74.339C81.094 74.4173 80.3284 74.4172 79.4423 74.4172H77.9334C77.0474 74.4172 76.2816 74.4173 75.6969 74.339C75.1083 74.2601 74.3935 74.0672 73.9664 73.4034C73.5135 72.6995 73.6953 71.9655 73.9293 71.4241C74.1511 70.911 74.5389 70.2991 74.9719 69.6158L75.0145 69.5486L75.6983 68.4692L75.7389 68.4052C76.1799 67.7089 76.5715 67.0907 76.95 66.6567Z" fill="#141B34"/>
<path opacity="0.4" d="M91.2535 87.919L91.2893 87.9886L91.8865 89.1467L91.9203 89.2125C92.3069 89.9623 92.6471 90.6221 92.8358 91.1738C93.0363 91.7602 93.1487 92.455 92.7749 93.1331C92.3934 93.8253 91.7361 94.0851 91.1279 94.2007C90.5686 94.3071 89.8454 94.3286 89.0381 94.3526L88.9602 94.355L87.7039 94.3925L87.6234 94.3949C86.8302 94.4186 86.1146 94.4401 85.5637 94.3671C84.9707 94.2886 84.2646 94.0613 83.8898 93.3222C83.5383 92.6291 83.7075 91.9223 83.9255 91.3617C84.1399 90.8101 84.509 90.1406 84.9362 89.3657L84.9701 89.3043L85.6291 88.1086L85.6638 88.0458C86.0902 87.2719 86.4594 86.6021 86.8091 86.1305C87.1586 85.6594 87.6813 85.115 88.4847 85.0853C89.3254 85.0541 89.8646 85.6015 90.2065 86.0731C90.5377 86.5301 90.8743 87.1834 91.2535 87.919Z" fill="#141B34"/>
<path opacity="0.4" d="M67.1663 86.0731C67.5081 85.6015 68.0473 85.0541 68.8879 85.0853C69.6914 85.115 70.2141 85.6594 70.5635 86.1305C70.9133 86.6021 71.2825 87.2719 71.709 88.0458L71.7435 88.1086L72.4026 89.3043L72.4365 89.3657C72.8637 90.1406 73.2328 90.8101 73.4472 91.3617C73.6652 91.9223 73.8343 92.6291 73.4829 93.3222C73.1082 94.0613 72.4019 94.2886 71.809 94.3671C71.2581 94.4401 70.5425 94.4186 69.7494 94.3949L69.6688 94.3925L68.4125 94.355L68.3347 94.3526C67.5273 94.3286 66.8042 94.3071 66.2448 94.2007C65.6366 94.0851 64.9793 93.8253 64.5978 93.1331C64.224 92.455 64.3364 91.7602 64.5369 91.1738C64.7256 90.6221 65.0658 89.9623 65.4524 89.2125L65.4863 89.1467L66.0834 87.9886L66.1192 87.919C66.4984 87.1834 66.8351 86.5301 67.1663 86.0731Z" fill="#141B34"/>
<path d="M77.356 74.4175C77.5424 74.4184 77.7354 74.4183 77.9346 74.4183H79.4437C79.643 74.4183 79.8362 74.4184 80.0226 74.4175V82.1199L86.1672 87.1472C86.0078 87.4248 85.8413 87.7269 85.665 88.0468L84.9376 89.3667C84.9094 89.4176 84.8816 89.4681 84.854 89.5183L78.6893 84.4744L72.5241 89.5187C72.4965 89.4685 72.4686 89.4179 72.4404 89.3667L71.7129 88.0468C71.5367 87.7272 71.3703 87.4252 71.2109 87.1476L77.356 82.1199V74.4175Z" fill="#141B34"/>
<rect width="81" height="81" transform="translate(120.188 39.584)" fill="white"/>
<path opacity="0.4" d="M165.215 68.347C166.753 67.104 168.471 67.0662 169.988 67.0875C170.623 67.0954 171.335 67.1043 171.822 67.2931C172.581 67.5876 173.184 68.1909 173.479 68.9504C173.668 69.4373 173.677 70.1488 173.684 70.7843C173.706 72.3006 173.668 74.0187 172.425 75.5571C171.613 76.5615 170.192 77.0723 169.523 78.1782C169.243 78.6396 169.331 79.1076 169.583 80.1417L171.29 87.1354C171.681 88.7386 171.302 90.1713 170.132 91.3413C169.808 91.6652 169.28 92.0628 168.59 91.9845C167.901 91.9064 167.467 91.4011 167.208 90.9879L162.969 84.2341C162.821 83.9985 162.747 83.8806 162.629 83.8605C161.912 83.7378 160.041 85.6333 159.778 86.193C159.609 86.5536 159.549 87.0841 159.569 87.7976C159.589 88.5138 159.68 89.2265 159.691 89.9431C159.699 90.5197 159.477 91.2182 159.152 91.7712C158.852 92.2841 158.246 93.03 157.294 93.0818C156.317 93.1349 155.794 92.3569 155.472 91.5601C154.891 90.1234 154.217 88.7178 153.59 87.3005C153.578 87.2728 153.536 87.21 153.471 87.1814L149.212 85.2996C148.415 84.9774 147.637 84.4548 147.69 83.478C147.742 82.5258 148.488 81.9204 149.001 81.6196C149.554 81.2953 150.252 81.0733 150.829 81.0813C151.557 81.0916 152.29 81.1837 152.974 81.2028C153.688 81.2228 154.218 81.1629 154.579 80.9936C155.139 80.7306 157.034 78.8602 156.911 78.1426C156.891 78.025 156.773 77.951 156.538 77.8032L149.784 73.5644C149.371 73.3051 148.865 72.8707 148.787 72.1816C148.709 71.4916 149.107 70.9639 149.431 70.64C150.601 69.4701 152.033 69.0912 153.636 69.4823L160.63 71.1888C161.664 71.4411 162.132 71.5286 162.594 71.2493C163.7 70.5798 164.21 69.1586 165.215 68.347Z" fill="#141B34"/>
<path d="M165.215 68.347C166.753 67.104 168.471 67.0662 169.988 67.0875C170.623 67.0954 171.335 67.1043 171.822 67.2931C172.2 67.44 172.54 67.6637 172.822 67.9453L153.538 87.2285C153.52 87.2102 153.498 87.193 153.471 87.1814L149.212 85.2996C148.415 84.9774 147.637 84.4548 147.69 83.478C147.742 82.5258 148.488 81.9204 149.001 81.6196C149.554 81.2953 150.252 81.0733 150.829 81.0813C151.557 81.0916 152.29 81.1837 152.974 81.2028C153.688 81.2228 154.218 81.1629 154.579 80.9936C155.139 80.7306 157.034 78.8602 156.911 78.1426C156.891 78.025 156.773 77.951 156.538 77.8032L149.784 73.5644C149.371 73.3051 148.865 72.8707 148.787 72.1816C148.709 71.4916 149.107 70.9639 149.431 70.64C150.601 69.4701 152.033 69.0912 153.636 69.4823L160.63 71.1888C161.664 71.4411 162.132 71.5286 162.594 71.2493C163.7 70.5798 164.21 69.1586 165.215 68.347Z" fill="#141B34"/>
<rect width="81" height="81" transform="translate(202.188 39.584)" fill="#FAFAFA"/>
<path opacity="0.4" d="M242.436 68.1435C242.469 68.1435 242.501 68.1423 242.532 68.14C242.626 68.1331 242.673 68.1297 242.688 68.1297V65.7642C242.673 65.7642 242.626 65.7608 242.532 65.754C242.501 65.7517 242.469 65.7505 242.436 65.7505C241.055 65.7505 239.288 65.9288 237.725 66.5212C236.158 67.115 234.612 68.206 234.106 70.1116C233.759 71.5062 233.572 73.1552 233.765 74.4282C233.966 75.7487 234.524 76.9719 235.471 78.2381L245.777 92.0181C246.256 92.6586 246.68 93.2262 247.079 93.6218C247.506 94.0466 248.059 94.4329 248.805 94.4165C249.55 94.4002 250.086 93.9897 250.494 93.5462C250.874 93.1334 251.272 92.5476 251.721 91.8868L252.502 90.7376C253.077 89.8917 253.561 89.1801 253.878 88.5581C254.215 87.8984 254.424 87.2285 254.333 86.4752C254.243 85.7225 253.881 85.1201 253.399 84.5564C252.944 84.0242 252.306 83.4426 251.545 82.7506L237.959 70.1096C237.649 69.8208 237.493 69.6764 237.522 69.4705C237.55 69.2645 237.717 69.179 238.049 69.008C238.232 68.9142 238.429 68.8272 238.641 68.7468C239.808 68.3045 241.233 68.1435 242.436 68.1435Z" fill="#141B34"/>
<path d="M242.939 65.7505C242.906 65.7505 242.875 65.7517 242.843 65.754C242.749 65.7608 242.702 65.7642 242.688 65.7642V68.1297C242.702 68.1297 242.749 68.1332 242.843 68.14C242.875 68.1423 242.906 68.1435 242.939 68.1435C244.143 68.1435 245.567 68.3045 246.734 68.7468C246.946 68.8272 247.143 68.9142 247.326 69.008C247.659 69.179 247.825 69.2645 247.853 69.4705C247.882 69.6764 247.727 69.8208 247.416 70.1096L244.785 72.5575C244.49 72.8319 244.343 72.9691 244.343 73.1433C244.343 73.3175 244.49 73.4546 244.785 73.729L249.656 78.2604C249.729 78.3281 249.844 78.3178 249.904 78.2381C250.851 76.9719 251.409 75.7487 251.61 74.4282C251.803 73.1552 251.616 71.5062 251.27 70.1116C250.763 68.206 249.217 67.115 247.65 66.5212C246.088 65.9288 244.32 65.7505 242.939 65.7505Z" fill="#141B34"/>
<path d="M233.832 82.751L234.665 81.9761C234.97 81.6927 235.122 81.5511 235.3 81.5671C235.477 81.583 235.602 81.7495 235.851 82.0826L241.083 89.0786C241.255 89.3093 241.342 89.4246 241.342 89.5577C241.342 89.6907 241.255 89.8061 241.083 90.0367L239.601 92.0185C239.122 92.659 238.698 93.2266 238.299 93.6222C237.872 94.047 237.319 94.4333 236.573 94.4169C235.827 94.4006 235.292 93.9901 234.884 93.5466C234.504 93.1338 234.106 92.5479 233.657 91.8871L232.875 90.7379C232.3 89.8921 231.816 89.1805 231.499 88.5585C231.163 87.8987 230.954 87.2289 231.045 86.4755C231.135 85.7229 231.496 85.1205 231.978 84.5567C232.434 84.0246 233.072 83.443 233.832 82.751Z" fill="#141B34"/>
<rect width="81" height="81" transform="translate(284.188 39.584)" fill="white"/>
<path fill-rule="evenodd" clip-rule="evenodd" d="M316.727 67.084C317.625 67.084 318.359 67.084 318.956 67.1327C319.573 67.1832 320.131 67.2908 320.652 67.5563C321.468 67.9717 322.13 68.6347 322.546 69.45C322.811 69.971 322.919 70.5289 322.969 71.1466C323.018 71.7433 323.018 72.4776 323.018 73.3754V86.7925C323.018 87.6903 323.018 88.4247 322.969 89.0215C322.919 89.6391 322.811 90.1969 322.546 90.718C322.13 91.5333 321.468 92.1963 320.652 92.6117C320.131 92.8772 319.573 92.9848 318.956 93.0352C318.359 93.084 317.625 93.084 316.727 93.084H316.643C315.745 93.084 315.011 93.084 314.414 93.0352C313.796 92.9848 313.239 92.8772 312.718 92.6117C311.902 92.1963 311.239 91.5333 310.824 90.718C310.558 90.1969 310.451 89.6391 310.4 89.0215C310.352 88.4247 310.352 87.6904 310.352 86.7925V73.3754C310.352 72.4776 310.352 71.7433 310.4 71.1466C310.451 70.5289 310.558 69.971 310.824 69.45C311.239 68.6347 311.902 67.9717 312.718 67.5563C313.239 67.2908 313.796 67.1832 314.414 67.1327C315.011 67.084 315.745 67.084 316.643 67.084H316.727ZM315.352 86.7507C315.352 86.0143 315.946 85.4173 316.679 85.4173H316.691C317.424 85.4173 318.018 86.0143 318.018 86.7507C318.018 87.4871 317.424 88.084 316.691 88.084H316.679C315.946 88.084 315.352 87.4871 315.352 86.7507ZM314.018 72.084C313.282 72.084 312.685 72.6809 312.685 73.4173C312.685 74.1537 313.282 74.7507 314.018 74.7507H319.352C320.088 74.7507 320.685 74.1537 320.685 73.4173C320.685 72.6809 320.088 72.084 319.352 72.084H314.018Z" fill="#141B34"/>
<path opacity="0.4" d="M329.546 67.1869C330.144 67.0773 330.703 67.037 331.268 67.1575C332.149 67.3457 332.948 67.8093 333.551 68.4809C333.936 68.9106 334.18 69.4153 334.384 69.9899C334.582 70.5449 334.768 71.2429 334.996 72.0954L338.397 84.8419C338.624 85.6943 338.811 86.3924 338.916 86.9721C339.025 87.5725 339.065 88.1316 338.945 88.6964C338.758 89.5793 338.298 90.3808 337.629 90.9857C337.2 91.3729 336.697 91.6184 336.124 91.8241C335.571 92.0227 334.876 92.2097 334.027 92.438L333.946 92.4599C333.098 92.6883 332.402 92.8753 331.824 92.9811C331.225 93.0907 330.667 93.1309 330.102 93.0104C329.22 92.8223 328.421 92.3587 327.819 91.687C327.434 91.2573 327.19 90.7527 326.985 90.178C326.788 89.6231 326.601 88.9251 326.374 88.0725L322.973 75.3261C322.745 74.4736 322.559 73.7756 322.454 73.1958C322.345 72.5954 322.305 72.0363 322.424 71.4715C322.611 70.5887 323.072 69.7872 323.741 69.1823C324.169 68.795 324.673 68.5495 325.246 68.3439C325.799 68.1453 326.494 67.9582 327.343 67.7299L327.424 67.7081C328.272 67.4797 328.968 67.2926 329.546 67.1869Z" fill="#141B34"/>
<path fill-rule="evenodd" clip-rule="evenodd" d="M332.465 72.359C332.681 73.0628 332.286 73.809 331.583 74.0255L327.249 75.359C326.545 75.5756 325.799 75.1806 325.583 74.4768C325.366 73.773 325.761 73.0268 326.465 72.8103L330.798 71.4768C331.502 71.2602 332.248 71.6552 332.465 72.359Z" fill="#141B34"/>
<path fill-rule="evenodd" clip-rule="evenodd" d="M331.108 86.6911C330.918 85.9799 331.337 85.2495 332.046 85.0597L332.057 85.0566C332.765 84.8669 333.494 85.2897 333.684 86.001C333.875 86.7123 333.455 87.4427 332.747 87.6325L332.736 87.6355C332.028 87.8253 331.299 87.4025 331.108 86.6911Z" fill="#141B34"/>
<rect width="81" height="81" transform="translate(366.188 39.584)" fill="#FAFAFA"/>
<path opacity="0.4" fill-rule="evenodd" clip-rule="evenodd" d="M399.607 93.51C401.399 93.7508 403.693 93.7508 406.614 93.7508C407.117 93.7508 407.62 93.7509 408.123 93.7499C408.406 93.7492 408.589 93.4513 408.462 93.1983C407.915 92.1044 407.612 90.8336 407.376 89.6407C407.286 89.19 407.127 89.0844 406.69 89.0844C404.306 89.0844 401.969 88.3479 399.527 86.9525C399.048 86.6785 398.881 86.0677 399.155 85.5883C399.429 85.1087 400.04 84.9421 400.52 85.2161C402.745 86.4876 404.741 87.0844 406.69 87.0844C406.866 87.0844 407.001 86.9312 406.987 86.7556C406.887 85.4569 406.891 84.3096 406.919 83.4781C406.926 83.2624 406.754 83.0855 406.538 83.0845C406.04 83.0824 405.537 83.0956 405.042 83.0268C403.89 82.8667 403.069 82.0095 403.026 80.8293C403.011 80.4289 403.065 79.9584 403.121 79.47C403.419 76.8741 404.052 74.3179 404.909 71.8519C405.661 69.6919 406.501 67.888 407.144 66.9132C407.344 66.5169 406.893 66.4175 406.614 66.4175C403.693 66.4175 401.399 66.4175 399.607 66.6583C397.772 66.9051 396.316 67.4211 395.171 68.5654C394.027 69.7096 393.511 71.166 393.264 73.0015C393.023 74.7927 393.023 77.087 393.023 80.0079V80.1604C393.023 83.0813 393.023 85.3756 393.264 87.1668C393.511 89.0023 394.027 90.4587 395.171 91.6029C396.316 92.7472 397.772 93.2632 399.607 93.51ZM400.69 74.7508C400.69 74.1985 400.242 73.7508 399.69 73.7508C399.138 73.7508 398.69 74.1985 398.69 74.7508V77.4175C398.69 77.9697 399.138 78.4175 399.69 78.4175C400.242 78.4175 400.69 77.9697 400.69 77.4175V74.7508Z" fill="#141B34"/>
<path fill-rule="evenodd" clip-rule="evenodd" d="M418.209 68.5718C417.065 67.4242 415.608 66.9067 413.773 66.6592C412.818 66.5305 411.72 66.4704 410.461 66.4423C410.06 66.4334 409.86 66.4289 409.695 66.5283C409.53 66.6277 409.438 66.8093 409.255 67.1724C408.372 68.9256 407.444 70.667 406.799 72.5265C406.062 74.65 405.4 77.182 405.115 79.676C405.05 80.2482 405.016 80.5665 405.025 80.7981C405.022 80.8861 405.077 81.0672 405.317 81.0881C406.018 81.1858 406.729 81.0726 407.431 81.1554C408.268 81.2542 408.85 81.857 408.92 82.7045C408.944 83.0006 408.928 83.2993 408.918 83.5958C408.896 84.2329 408.892 85.0388 408.936 85.9392C408.958 86.3698 408.968 86.5852 409.131 86.6976C409.293 86.8101 409.493 86.7456 409.891 86.6165C410.844 86.3084 411.828 85.8622 412.861 85.2702C413.34 84.9954 413.951 85.1625 414.225 85.6434C414.499 86.1244 414.333 86.7369 413.853 87.0117C412.545 87.7612 411.268 88.321 409.996 88.6796C409.634 88.7817 409.453 88.8329 409.371 88.9689C409.289 89.1049 409.326 89.2766 409.4 89.6201C409.654 90.8082 410.034 91.9422 410.575 93.0272C410.761 93.4009 410.854 93.5878 411.026 93.6882C411.197 93.7885 411.401 93.7784 411.808 93.758C412.522 93.7222 413.175 93.6685 413.773 93.588C415.608 93.3405 417.065 92.8229 418.209 91.6754C419.353 90.5278 419.869 89.0673 420.116 87.2265C420.357 85.4301 420.357 83.1293 420.357 80.2001V80.0472C420.357 77.1178 420.357 74.817 420.116 73.0206C419.869 71.1798 419.353 69.7193 418.209 68.5718ZM414.69 74.7747C414.69 74.2209 414.242 73.7719 413.69 73.7719C413.138 73.7719 412.69 74.2209 412.69 74.7747V77.449C412.69 78.0029 413.138 78.452 413.69 78.452C414.242 78.452 414.69 78.0029 414.69 77.449V74.7747Z" fill="#141B34"/>
<rect width="81" height="81" transform="translate(38.1875 121.584)" fill="white"/>
<path fill-rule="evenodd" clip-rule="evenodd" d="M64.414 147.808C64.9347 147.287 65.7789 147.287 66.2996 147.808L92.9662 174.475C93.4869 174.995 93.4869 175.84 92.9662 176.36C92.4456 176.881 91.6013 176.881 91.0806 176.36L64.414 149.694C63.8933 149.173 63.8933 148.329 64.414 147.808Z" fill="#141B34"/>
<path d="M64.3516 161.508C64.3516 165.171 65.8445 168.494 68.2642 170.951C68.6213 171.314 68.7374 171.685 68.6861 171.959C68.4964 172.954 68.0675 173.878 67.4438 174.645C67.2212 174.919 67.1594 175.29 67.2811 175.621C67.4028 175.952 67.69 176.195 68.0368 176.259C70.1849 176.659 72.4121 176.299 74.3211 175.283C74.6325 175.118 74.8359 175.01 74.9886 174.937C75.0306 174.915 75.1427 174.873 75.2542 174.89C75.4037 174.911 75.6046 174.948 75.9209 175.007C76.832 175.179 77.757 175.264 78.6849 175.263C82.0628 175.263 85.1806 174.137 87.6398 172.248C87.9498 172.01 88.1049 171.891 88.1166 171.71C88.1284 171.529 87.9848 171.385 87.6974 171.098L69.0223 152.423C68.7559 152.156 68.6226 152.023 68.4519 152.027C68.2811 152.031 68.1587 152.164 67.9138 152.431C65.6993 154.848 64.3516 158.019 64.3516 161.508Z" fill="#141B34"/>
<path opacity="0.4" d="M93.0225 161.506C93.0225 153.868 86.5621 147.75 78.6892 147.75C76.2929 147.75 74.0275 148.317 72.0353 149.321C71.6246 149.528 71.4192 149.632 71.3867 149.833C71.3543 150.035 71.5233 150.204 71.8614 150.542L89.881 168.562C90.1956 168.876 90.3529 169.034 90.5458 169.01C90.7386 168.988 90.8498 168.805 91.0721 168.44C92.3109 166.408 93.0225 164.041 93.0225 161.506Z" fill="#141B34"/>
<rect width="81" height="81" transform="translate(120.188 121.584)" fill="#FAFAFA"/>
<g opacity="0.4">
<path d="M161.688 151.217C161.688 150.84 161.688 150.652 161.805 150.535C161.922 150.417 162.11 150.417 162.488 150.417H172.688C172.96 150.417 173.221 150.529 173.409 150.725C173.598 150.922 173.698 151.187 173.687 151.459L173.397 158.4C173.31 160.507 173.24 162.171 173.042 163.47C172.84 164.795 172.486 165.885 171.725 166.754C170.942 167.647 169.954 168.052 168.764 168.24C167.641 168.418 166.224 168.417 164.494 168.417H162.488C162.11 168.417 161.922 168.417 161.805 168.3C161.688 168.183 161.688 167.995 161.688 167.617V151.217Z" fill="#141B34"/>
<path d="M158.888 150.417C159.265 150.417 159.453 150.417 159.57 150.535C159.688 150.652 159.688 150.84 159.688 151.217V167.617C159.688 167.995 159.688 168.183 159.57 168.3C159.453 168.417 159.265 168.417 158.888 168.417H156.881C155.151 168.417 153.734 168.418 152.611 168.24C151.421 168.052 150.433 167.647 149.65 166.754C148.889 165.885 148.535 164.795 148.333 163.47C148.135 162.171 148.065 160.507 147.978 158.4L147.688 151.459C147.677 151.187 147.777 150.922 147.966 150.725C148.154 150.529 148.415 150.417 148.688 150.417H158.888Z" fill="#141B34"/>
</g>
<path fill-rule="evenodd" clip-rule="evenodd" d="M146.023 151.417C146.023 150.681 146.62 150.084 147.357 150.084H174.023C174.76 150.084 175.357 150.681 175.357 151.417C175.357 152.154 174.76 152.751 174.023 152.751H147.357C146.62 152.751 146.023 152.154 146.023 151.417Z" fill="#141B34"/>
<path fill-rule="evenodd" clip-rule="evenodd" d="M156.685 158.084C155.949 158.084 155.352 158.681 155.352 159.417C155.352 160.154 155.949 160.751 156.685 160.751H156.697C157.433 160.751 158.03 160.154 158.03 159.417C158.03 158.681 157.433 158.084 156.697 158.084H156.685ZM164.685 158.084C163.948 158.084 163.352 158.681 163.352 159.417C163.352 160.154 163.948 160.751 164.685 160.751H164.697C165.433 160.751 166.03 160.154 166.03 159.417C166.03 158.681 165.433 158.084 164.697 158.084H164.685Z" fill="#141B34"/>
<path d="M154.416 168.392L152.606 173.219C152.347 173.908 151.578 174.258 150.889 173.999C150.199 173.741 149.85 172.972 150.109 172.283L151.701 168.037C151.99 168.124 152.295 168.19 152.613 168.24C153.147 168.324 153.747 168.369 154.416 168.392Z" fill="#141B34"/>
<path d="M166.961 168.392C167.629 168.369 168.229 168.325 168.763 168.24C169.082 168.19 169.386 168.124 169.676 168.037L171.268 172.283C171.527 172.972 171.177 173.741 170.488 174C169.798 174.258 169.03 173.909 168.771 173.219L166.961 168.392Z" fill="#141B34"/>
<rect width="81" height="81" transform="translate(202.188 121.584)" fill="white"/>
<path fill-rule="evenodd" clip-rule="evenodd" d="M236.018 148.917C236.018 148.181 235.421 147.584 234.685 147.584C233.949 147.584 233.352 148.181 233.352 148.917V149.866C233.866 149.695 234.422 149.574 235.02 149.487C235.335 149.441 235.668 149.404 236.018 149.374V148.917ZM252.018 149.866C251.504 149.695 250.948 149.574 250.35 149.487C250.034 149.441 249.702 149.404 249.352 149.374V148.917C249.352 148.181 249.948 147.584 250.685 147.584C251.421 147.584 252.018 148.181 252.018 148.917V149.866Z" fill="#141B34"/>
<path opacity="0.4" d="M244.038 149.25C246.656 149.25 248.731 149.25 250.355 149.486C252.033 149.73 253.374 150.244 254.421 151.376C255.459 152.498 255.92 153.914 256.141 155.69C256.357 157.43 256.357 159.659 256.357 162.504V163.33C256.357 166.175 256.357 168.405 256.141 170.144C255.92 171.92 255.459 173.337 254.421 174.458C253.374 175.59 252.033 176.104 250.355 176.348C248.731 176.584 246.656 176.584 244.038 176.584H241.342C238.724 176.584 236.649 176.584 235.025 176.348C233.347 176.104 232.006 175.59 230.959 174.458C229.922 173.337 229.461 171.92 229.24 170.144C229.023 168.405 229.023 166.175 229.023 163.33V162.504C229.023 159.659 229.023 157.43 229.24 155.69C229.461 153.914 229.922 152.498 230.959 151.376C232.006 150.244 233.347 149.73 235.025 149.486C236.649 149.25 238.724 149.25 241.342 149.25H244.038Z" fill="#141B34"/>
<path fill-rule="evenodd" clip-rule="evenodd" d="M239.485 162.25C240.516 162.25 241.352 163.086 241.352 164.117V168.917C241.352 169.654 240.755 170.25 240.018 170.25C239.282 170.25 238.685 169.654 238.685 168.917L238.685 164.917C237.949 164.917 237.352 164.32 237.352 163.584C237.352 162.847 237.949 162.25 238.685 162.25H239.485Z" fill="#141B34"/>
<path d="M242.688 163.584C242.688 162.847 243.284 162.25 244.021 162.25H246.315C247.378 162.25 248.365 163.303 247.916 164.513L246.11 169.381C245.854 170.071 245.087 170.423 244.397 170.167C243.706 169.911 243.354 169.144 243.61 168.453L244.922 164.917H244.021C243.284 164.917 242.688 164.32 242.688 163.584Z" fill="#141B34"/>
<path fill-rule="evenodd" clip-rule="evenodd" d="M233.352 156.917C233.352 156.181 233.949 155.584 234.685 155.584H250.685C251.421 155.584 252.018 156.181 252.018 156.917C252.018 157.654 251.421 158.251 250.685 158.251H234.685C233.949 158.251 233.352 157.654 233.352 156.917Z" fill="#141B34"/>
<rect width="81" height="81" transform="translate(284.188 121.584)" fill="#FAFAFA"/>
<path opacity="0.4" d="M311.25 161.444C311.25 169.044 317.411 175.204 325.01 175.204C332.609 175.204 338.77 169.044 338.77 161.444C338.77 153.845 332.609 147.684 325.01 147.684C317.411 147.684 311.25 153.845 311.25 161.444Z" fill="#141B34"/>
<path fill-rule="evenodd" clip-rule="evenodd" d="M329.756 156.699C330.256 157.199 330.256 158.009 329.756 158.509L326.821 161.444L329.756 164.379C330.256 164.879 330.256 165.689 329.756 166.189C329.256 166.689 328.446 166.689 327.946 166.189L325.01 163.254L322.076 166.189C321.576 166.689 320.765 166.689 320.265 166.189C319.766 165.689 319.766 164.878 320.266 164.379L323.2 161.444L320.266 158.51C319.766 158.01 319.766 157.2 320.265 156.7C320.765 156.2 321.576 156.2 322.076 156.7L325.01 159.634L327.946 156.699C328.446 156.199 329.256 156.199 329.756 156.699Z" fill="#141B34"/>
<rect width="81" height="81" transform="translate(366.188 121.584)" fill="white"/>
<path opacity="0.4" d="M402.056 148.417C402.372 148.417 402.676 148.417 402.936 148.443C403.228 148.472 403.54 148.538 403.85 148.715C404.159 148.893 404.374 149.13 404.545 149.368C404.698 149.579 404.85 149.842 405.008 150.114L406.712 153.05C406.87 153.322 407.023 153.585 407.131 153.822C407.252 154.089 407.352 154.393 407.352 154.751C407.352 155.109 407.252 155.413 407.131 155.679C407.023 155.917 406.87 156.18 406.712 156.451L405.008 159.388C404.85 159.66 404.698 159.922 404.545 160.134C404.374 160.372 404.159 160.608 403.85 160.786C403.54 160.964 403.228 161.03 402.936 161.059C402.676 161.084 402.372 161.084 402.056 161.084H398.648C398.332 161.084 398.027 161.084 397.767 161.059C397.475 161.03 397.163 160.964 396.854 160.786C396.544 160.608 396.33 160.372 396.158 160.134C396.006 159.922 395.853 159.66 395.695 159.388L393.991 156.451C393.833 156.179 393.68 155.917 393.572 155.679C393.451 155.413 393.352 155.109 393.352 154.751C393.352 154.393 393.451 154.089 393.572 153.822C393.68 153.585 393.833 153.322 393.991 153.05L395.695 150.114C395.853 149.842 396.006 149.579 396.158 149.368C396.33 149.13 396.544 148.893 396.854 148.715C397.163 148.538 397.475 148.472 397.767 148.443C398.027 148.417 398.332 148.417 398.648 148.417H402.056Z" fill="#141B34"/>
<path d="M402.056 163.084C402.372 163.084 402.676 163.084 402.936 163.109C403.228 163.138 403.54 163.204 403.85 163.382C404.159 163.56 404.374 163.796 404.545 164.034C404.698 164.246 404.85 164.509 405.008 164.781L406.712 167.717C406.87 167.989 407.023 168.251 407.131 168.489C407.252 168.756 407.352 169.059 407.352 169.417C407.352 169.775 407.252 170.079 407.131 170.346C407.023 170.583 406.87 170.846 406.712 171.118L405.008 174.054C404.85 174.326 404.698 174.589 404.545 174.801C404.374 175.039 404.159 175.275 403.85 175.453C403.54 175.631 403.228 175.697 402.936 175.725C402.676 175.751 402.372 175.751 402.056 175.751H398.648C398.332 175.751 398.027 175.751 397.767 175.725C397.475 175.697 397.163 175.631 396.854 175.453C396.544 175.275 396.33 175.039 396.158 174.801C396.006 174.589 395.853 174.326 395.695 174.054L393.991 171.118C393.833 170.846 393.68 170.583 393.572 170.346C393.451 170.079 393.352 169.775 393.352 169.417C393.352 169.059 393.451 168.756 393.572 168.489C393.68 168.251 393.833 167.989 393.991 167.717L395.695 164.781C395.853 164.509 396.006 164.246 396.158 164.034C396.33 163.796 396.544 163.56 396.854 163.382C397.163 163.204 397.475 163.138 397.767 163.109C398.027 163.084 398.332 163.084 398.648 163.084H402.056Z" fill="#141B34"/>
<path opacity="0.4" d="M414.727 156.417C415.043 156.417 415.348 156.417 415.608 156.443C415.9 156.472 416.212 156.538 416.521 156.715C416.831 156.893 417.045 157.13 417.217 157.368C417.369 157.579 417.522 157.842 417.68 158.114L419.384 161.05C419.542 161.322 419.695 161.585 419.803 161.822C419.924 162.089 420.023 162.393 420.023 162.751C420.023 163.109 419.924 163.413 419.803 163.679C419.695 163.917 419.542 164.179 419.384 164.451L417.68 167.388C417.522 167.66 417.369 167.922 417.217 168.134C417.045 168.372 416.831 168.608 416.521 168.786C416.212 168.964 415.9 169.03 415.608 169.059C415.348 169.084 415.043 169.084 414.727 169.084H411.319C411.003 169.084 410.699 169.084 410.439 169.059C410.147 169.03 409.835 168.964 409.525 168.786C409.216 168.608 409.001 168.372 408.83 168.134C408.677 167.922 408.525 167.66 408.367 167.388L406.663 164.451C406.505 164.179 406.352 163.917 406.244 163.679C406.123 163.413 406.023 163.109 406.023 162.751C406.023 162.393 406.123 162.089 406.244 161.822C406.352 161.585 406.505 161.322 406.663 161.05L408.367 158.114C408.525 157.842 408.677 157.579 408.83 157.368C409.001 157.13 409.216 156.893 409.525 156.715C409.835 156.538 410.147 156.472 410.439 156.443C410.699 156.417 411.003 156.417 411.319 156.417H414.727Z" fill="#141B34"/>
<rect width="81" height="81" transform="translate(38.1875 203.584)" fill="#FAFAFA"/>
<path opacity="0.5" d="M70.7336 229.75C71.7192 229.75 72.5292 229.75 73.1845 229.813C73.8655 229.878 74.4819 230.017 75.0427 230.36C75.5994 230.701 76.0674 231.169 76.4086 231.726C76.7522 232.287 76.8912 232.903 76.956 233.584C77.0182 234.24 77.0182 235.05 77.0182 236.035V236.133C77.0182 237.118 77.0182 237.928 76.956 238.583C76.8912 239.264 76.7522 239.881 76.4086 240.442C76.0674 240.998 75.5994 241.466 75.0427 241.808C74.4819 242.151 73.8655 242.29 73.1845 242.355C72.5292 242.417 71.7192 242.417 70.7337 242.417H70.6361C69.6506 242.417 68.8406 242.417 68.1853 242.355C67.5043 242.29 66.8878 242.151 66.3271 241.808C65.7704 241.466 65.3024 240.998 64.9612 240.442C64.6176 239.881 64.4786 239.264 64.4138 238.583C64.3515 237.928 64.3515 237.118 64.3516 236.133V236.035C64.3515 235.05 64.3515 234.24 64.4138 233.584C64.4786 232.903 64.6176 232.287 64.9612 231.726C65.3024 231.169 65.7704 230.701 66.3271 230.36C66.8878 230.017 67.5043 229.878 68.1853 229.813C68.8406 229.75 69.6506 229.75 70.6361 229.75H70.7336Z" fill="#141B34"/>
<path d="M70.7336 245.75C71.7192 245.75 72.5292 245.75 73.1845 245.813C73.8655 245.878 74.4819 246.016 75.0427 246.36C75.5994 246.701 76.0674 247.169 76.4086 247.726C76.7522 248.287 76.8912 248.903 76.956 249.584C77.0182 250.24 77.0182 251.05 77.0182 252.035V252.133C77.0182 253.118 77.0182 253.928 76.956 254.583C76.8912 255.264 76.7522 255.881 76.4086 256.442C76.0674 256.998 75.5994 257.466 75.0427 257.808C74.4819 258.151 73.8655 258.29 73.1845 258.355C72.5292 258.417 71.7192 258.417 70.7337 258.417H70.6361C69.6506 258.417 68.8406 258.417 68.1853 258.355C67.5043 258.29 66.8878 258.151 66.3271 257.808C65.7704 257.466 65.3024 256.998 64.9612 256.442C64.6176 255.881 64.4786 255.264 64.4138 254.583C64.3515 253.928 64.3515 253.118 64.3516 252.133V252.035C64.3515 251.05 64.3515 250.24 64.4138 249.584C64.4786 248.903 64.6176 248.287 64.9612 247.726C65.3024 247.169 65.7704 246.701 66.3271 246.36C66.8878 246.016 67.5043 245.878 68.1853 245.813C68.8406 245.75 69.6506 245.75 70.6361 245.75H70.7336Z" fill="#141B34"/>
<path d="M86.7337 229.75C87.7192 229.75 88.5292 229.75 89.1845 229.813C89.8654 229.878 90.482 230.017 91.0426 230.36C91.5994 230.701 92.0674 231.169 92.4086 231.726C92.7522 232.287 92.8912 232.903 92.956 233.584C93.0182 234.24 93.0182 235.05 93.0182 236.035V236.133C93.0182 237.118 93.0182 237.928 92.956 238.583C92.8912 239.264 92.7522 239.881 92.4086 240.442C92.0674 240.998 91.5994 241.466 91.0426 241.808C90.482 242.151 89.8654 242.29 89.1845 242.355C88.5292 242.417 87.7192 242.417 86.7337 242.417H86.6361C85.6506 242.417 84.8406 242.417 84.1853 242.355C83.5044 242.29 82.8878 242.151 82.3272 241.808C81.7704 241.466 81.3024 240.998 80.9612 240.442C80.6176 239.881 80.4786 239.264 80.4138 238.583C80.3516 237.928 80.3516 237.118 80.3516 236.133V236.035C80.3516 235.05 80.3516 234.24 80.4138 233.584C80.4786 232.903 80.6176 232.287 80.9612 231.726C81.3024 231.169 81.7704 230.701 82.3272 230.36C82.8878 230.017 83.5044 229.878 84.1853 229.813C84.8406 229.75 85.6506 229.75 86.6361 229.75H86.7337Z" fill="#141B34"/>
<path opacity="0.5" d="M86.7337 245.75C87.7192 245.75 88.5292 245.75 89.1845 245.813C89.8654 245.878 90.482 246.016 91.0426 246.36C91.5994 246.701 92.0674 247.169 92.4086 247.726C92.7522 248.287 92.8912 248.903 92.956 249.584C93.0182 250.24 93.0182 251.05 93.0182 252.035V252.133C93.0182 253.118 93.0182 253.928 92.956 254.583C92.8912 255.264 92.7522 255.881 92.4086 256.442C92.0674 256.998 91.5994 257.466 91.0426 257.808C90.482 258.151 89.8654 258.29 89.1845 258.355C88.5292 258.417 87.7192 258.417 86.7337 258.417H86.6361C85.6506 258.417 84.8406 258.417 84.1853 258.355C83.5044 258.29 82.8878 258.151 82.3272 257.808C81.7704 257.466 81.3024 256.998 80.9612 256.442C80.6176 255.881 80.4786 255.264 80.4138 254.583C80.3516 253.928 80.3516 253.118 80.3516 252.133V252.035C80.3516 251.05 80.3516 250.24 80.4138 249.584C80.4786 248.903 80.6176 248.287 80.9612 247.726C81.3024 247.169 81.7704 246.701 82.3272 246.36C82.8878 246.016 83.5044 245.878 84.1853 245.813C84.8406 245.75 85.6506 245.75 86.6361 245.75H86.7337Z" fill="#141B34"/>
<rect width="81" height="81" transform="translate(120.188 203.584)" fill="white"/>
<path opacity="0.4" d="M146.352 238.75C146.352 238.198 146.799 237.75 147.352 237.75H174.018C174.57 237.75 175.018 238.198 175.018 238.75V246.067C175.018 248.694 175.018 250.772 174.792 252.397C174.558 254.071 174.068 255.411 172.977 256.463C171.891 257.51 170.515 257.977 168.797 258.2C167.119 258.417 164.971 258.417 162.24 258.417H159.13C156.399 258.417 154.25 258.417 152.572 258.2C150.854 257.977 149.479 257.51 148.393 256.463C147.302 255.411 146.811 254.071 146.578 252.397C146.352 250.772 146.352 248.694 146.352 246.067V238.75Z" fill="#141B34"/>
<path fill-rule="evenodd" clip-rule="evenodd" d="M156.688 244.084C156.688 243.347 157.284 242.75 158.021 242.75H163.354C164.091 242.75 164.688 243.347 164.688 244.084C164.688 244.82 164.091 245.417 163.354 245.417H158.021C157.284 245.417 156.688 244.82 156.688 244.084Z" fill="#141B34"/>
<path d="M156.055 229.75H165.315C166.519 229.75 167.526 229.75 168.352 229.837C169.224 229.928 170.014 230.124 170.742 230.59C171.471 231.056 171.964 231.68 172.387 232.418C172.788 233.115 173.175 234.007 173.638 235.073L174.918 238.019C175.004 238.22 175.033 238.429 175.011 238.63C174.952 238.135 174.53 237.75 174.018 237.75H171.978L171.259 236.096C170.762 234.953 170.428 234.188 170.104 233.623C169.796 233.085 169.553 232.834 169.297 232.67C169.041 232.507 168.706 232.388 168.07 232.322C167.402 232.252 166.537 232.25 165.245 232.25H162.018V237.75H159.352V232.25H156.124C154.833 232.25 153.968 232.252 153.3 232.322C152.664 232.388 152.329 232.507 152.073 232.67C151.817 232.834 151.574 233.085 151.266 233.623C150.942 234.188 150.607 234.953 150.111 236.096L149.392 237.75H147.352C146.84 237.75 146.418 238.135 146.359 238.63C146.337 238.429 146.365 238.22 146.452 238.019L147.732 235.073C148.195 234.007 148.582 233.115 148.982 232.418C149.406 231.68 149.899 231.056 150.627 230.59C151.356 230.124 152.145 229.928 153.018 229.837C153.844 229.75 154.851 229.75 156.055 229.75Z" fill="#141B34"/>
<rect width="81" height="81" transform="translate(202.188 203.584)" fill="#FAFAFA"/>
<path opacity="0.4" d="M228.352 242.408V250.692C228.352 251.253 228.351 251.757 228.39 252.176C228.431 252.625 228.523 253.1 228.788 253.556C229.074 254.049 229.485 254.458 229.98 254.742C230.439 255.006 231.343 255.124 231.794 255.165C232.351 257.045 234.099 258.417 236.17 258.417C238.236 258.417 239.981 257.051 240.541 255.176H244.828C245.389 257.051 247.134 258.417 249.2 258.417C251.266 258.417 253.011 257.051 253.572 255.177C255.051 254.993 256.809 253.809 256.993 252.337C257.018 252.134 257.018 251.912 257.018 251.686V248.047C257.018 242.881 252.968 238.656 247.854 238.343C247.763 237.67 247.512 236.599 246.943 236.033C246.374 235.467 245.68 235.257 245.003 235.167C244.757 235.134 244.489 235.114 244.201 235.102C244.3 235.637 244.352 236.188 244.352 236.751C244.352 241.721 240.322 245.751 235.352 245.751C232.524 245.751 230.002 244.447 228.352 242.408Z" fill="#141B34"/>
<path d="M247.898 249.53C248.311 249.408 248.749 249.343 249.202 249.343C251.268 249.343 253.013 250.709 253.573 252.583C254.163 252.583 254.414 252.336 254.414 251.935V248.046C254.414 244.327 251.551 241.273 247.898 240.946V249.53Z" fill="#141B34"/>
<path d="M236.173 251.936C235.094 251.936 234.219 252.806 234.219 253.88C234.219 254.954 235.094 255.824 236.173 255.824C237.253 255.824 238.128 254.954 238.128 253.88C238.128 252.806 237.253 251.936 236.173 251.936Z" fill="#141B34"/>
<path d="M249.205 251.936C248.125 251.936 247.25 252.806 247.25 253.88C247.25 254.954 248.125 255.824 249.205 255.824C250.284 255.824 251.159 254.954 251.159 253.88C251.159 252.806 250.284 251.936 249.205 251.936Z" fill="#141B34"/>
<path fill-rule="evenodd" clip-rule="evenodd" d="M235.352 229.75C231.486 229.75 228.352 232.884 228.352 236.75C228.352 240.616 231.486 243.75 235.352 243.75C239.218 243.75 242.352 240.616 242.352 236.75C242.352 232.884 239.218 229.75 235.352 229.75ZM236.352 234.349C236.352 233.797 235.904 233.349 235.352 233.349C234.799 233.349 234.352 233.797 234.352 234.349V237.349C234.352 237.684 234.519 237.996 234.797 238.182L236.597 239.382C237.056 239.688 237.677 239.564 237.984 239.104C238.29 238.645 238.166 238.024 237.706 237.717L236.352 236.814V234.349Z" fill="#141B34"/>
<rect width="81" height="81" transform="translate(284.188 203.584)" fill="white"/>
<path fill-rule="evenodd" clip-rule="evenodd" d="M322.016 240.084C322.016 239.347 322.613 238.75 323.349 238.75H323.369C324.105 238.75 324.702 239.347 324.702 240.084C324.702 240.82 324.105 241.417 323.369 241.417H323.349C322.613 241.417 322.016 240.82 322.016 240.084ZM322.021 250.75C322.021 250.014 322.618 249.417 323.354 249.417H323.374C324.11 249.417 324.707 250.014 324.707 250.75C324.707 251.487 324.11 252.084 323.374 252.084H323.354C322.618 252.084 322.021 251.487 322.021 250.75Z" fill="#141B34"/>
<path fill-rule="evenodd" clip-rule="evenodd" d="M316.688 245.417C316.688 244.681 317.284 244.084 318.021 244.084H328.687C329.424 244.084 330.021 244.681 330.021 245.417C330.021 246.154 329.424 246.751 328.687 246.751H318.021C317.284 246.751 316.688 246.154 316.688 245.417Z" fill="#141B34"/>
<path opacity="0.4" fill-rule="evenodd" clip-rule="evenodd" d="M337.312 231.456C336.64 230.784 335.629 230.409 334.631 230.18C333.6 229.943 332.419 229.827 331.259 229.779C328.936 229.682 326.562 229.855 325.348 229.966C324.591 230.036 323.892 230.346 323.329 230.83C319.126 234.442 315.3 238.187 311.639 242.275C309.964 244.146 309.946 246.939 311.454 248.888C313.942 252.1 316.668 254.827 319.881 257.314C321.829 258.823 324.622 258.805 326.493 257.13C330.582 253.469 334.327 249.643 337.939 245.44C338.423 244.877 338.733 244.177 338.802 243.42C338.914 242.207 339.086 239.833 338.99 237.509C338.942 236.349 338.826 235.169 338.589 234.138C338.359 233.14 337.984 232.129 337.312 231.456ZM332.018 234.75C333.123 234.75 334.018 235.646 334.018 236.75C334.018 237.855 333.123 238.75 332.018 238.75C330.914 238.75 330.018 237.855 330.018 236.75C330.018 235.646 330.914 234.75 332.018 234.75Z" fill="#141B34"/>
<rect width="81" height="81" transform="translate(366.188 203.584)" fill="#FAFAFA"/>
<path fill-rule="evenodd" clip-rule="evenodd" d="M413.354 229.75C409.12 229.75 405.688 233.183 405.688 237.417C405.688 241.651 409.12 245.084 413.354 245.084C417.588 245.084 421.021 241.651 421.021 237.417C421.021 233.183 417.588 229.75 413.354 229.75ZM416.355 236.36C416.875 236.176 417.148 235.604 416.964 235.084C416.779 234.563 416.208 234.29 415.687 234.475C415.044 234.702 414.447 235.129 413.942 235.572C413.427 236.024 412.949 236.545 412.547 237.027C412.352 237.26 412.172 237.488 412.011 237.7C411.894 237.59 411.776 237.497 411.659 237.419L411.652 237.414C411.441 237.273 411.157 237.084 410.687 237.084C410.135 237.084 409.687 237.532 409.687 238.084C409.687 238.584 410.054 238.998 410.533 239.072C410.537 239.075 410.543 239.079 410.549 239.083C410.624 239.132 410.852 239.317 411.126 239.865C411.288 240.187 411.61 240.398 411.97 240.416C412.33 240.435 412.672 240.257 412.865 239.953C413.082 239.646 413.722 238.74 414.083 238.308C414.445 237.873 414.85 237.436 415.261 237.076C415.683 236.706 416.056 236.466 416.355 236.36Z" fill="#141B34"/>
<path opacity="0.4" d="M407.461 229.752C405.165 231.519 403.685 234.295 403.685 237.417C403.685 242.756 408.013 247.084 413.352 247.084C415.182 247.084 416.893 246.575 418.352 245.692V246.83C418.352 249.277 418.352 251.221 418.135 252.744C417.911 254.318 417.438 255.587 416.384 256.582C415.339 257.569 414.018 258.006 412.38 258.214C410.779 258.417 408.73 258.417 406.129 258.417H404.574C401.973 258.417 399.924 258.417 398.323 258.214C396.685 258.006 395.364 257.569 394.319 256.582C393.265 255.587 392.792 254.318 392.568 252.744C392.352 251.221 392.352 249.277 392.352 246.83V241.338C392.352 238.891 392.352 236.947 392.568 235.424C392.792 233.85 393.265 232.581 394.319 231.586C395.364 230.598 396.685 230.162 398.323 229.954C399.924 229.75 401.973 229.75 404.574 229.75H406.129C406.59 229.75 407.034 229.75 407.461 229.752Z" fill="#141B34"/>
<path fill-rule="evenodd" clip-rule="evenodd" d="M397.352 245.417C397.352 244.681 397.949 244.084 398.685 244.084H402.829C403.566 244.084 404.163 244.681 404.163 245.417C404.163 246.154 403.566 246.751 402.829 246.751H398.685C397.949 246.751 397.352 246.154 397.352 245.417Z" fill="#141B34"/>
<path fill-rule="evenodd" clip-rule="evenodd" d="M397.352 250.751C397.352 250.014 397.949 249.417 398.685 249.417H409.352C410.088 249.417 410.685 250.014 410.685 250.751C410.685 251.487 410.088 252.084 409.352 252.084H398.685C397.949 252.084 397.352 251.487 397.352 250.751Z" fill="#141B34"/>
<rect width="81" height="81" transform="translate(38.1875 285.584)" fill="white"/>
<path opacity="0.4" d="M78.7614 311.75C81.8393 311.75 84.2513 311.75 86.1333 312.003C88.0596 312.262 89.5797 312.803 90.7728 313.996C91.9658 315.189 92.5062 316.709 92.7653 318.635C93.0182 320.517 93.0182 322.929 93.0182 326.007V326.16C93.0182 329.238 93.0182 331.65 92.7653 333.532C92.5062 335.458 91.9658 336.979 90.7728 338.172C89.5797 339.365 88.0596 339.905 86.1333 340.164C84.2513 340.417 81.8393 340.417 78.7614 340.417H78.6084C75.5305 340.417 73.1185 340.417 71.2365 340.164C69.3102 339.905 67.7902 339.365 66.5971 338.172C65.404 336.979 64.8635 335.458 64.6046 333.532C64.3515 331.65 64.3515 329.238 64.3516 326.16V326.007C64.3515 322.929 64.3515 320.517 64.6046 318.635C64.8635 316.709 65.404 315.189 66.5971 313.996C67.7902 312.803 69.3102 312.262 71.2365 312.003C73.1185 311.75 75.5305 311.75 78.6084 311.75H78.7614Z" fill="#141B34"/>
<path d="M81.3542 340.411C80.548 340.417 79.6859 340.417 78.764 340.417H78.6875V339.417C78.6875 334.999 82.2692 331.417 86.6875 331.417C87.4239 331.417 88.0208 332.014 88.0208 332.751C88.0208 333.487 87.4239 334.084 86.6875 334.084C83.742 334.084 81.3542 336.472 81.3542 339.417V340.411Z" fill="#141B34"/>
<path d="M64.3594 323.416C64.3675 322.449 64.3855 321.562 64.425 320.75H81.3526C82.089 320.75 82.6859 321.346 82.6859 322.083C82.6859 322.819 82.089 323.416 81.3526 323.416H76.0193V340.409C75.0517 340.401 74.1649 340.383 73.3526 340.344V323.416H64.3594Z" fill="#141B34"/>
<path d="M92.9458 320.75C92.9853 321.562 93.0033 322.449 93.0114 323.416H86.6849C85.9485 323.416 85.3516 322.819 85.3516 322.083C85.3516 321.346 85.9485 320.75 86.6849 320.75H92.9458Z" fill="#141B34"/>
<path d="M76.0182 311.756V316.749C76.0182 317.485 75.4213 318.082 74.6849 318.082C73.9485 318.082 73.3516 317.485 73.3516 316.749V311.821C74.1638 311.782 75.0506 311.764 76.0182 311.756Z" fill="#141B34"/>
<rect width="81" height="81" transform="translate(120.188 285.584)" fill="#FAFAFA"/>
<path opacity="0.4" d="M162.834 311.614C163.776 312.015 164.419 312.968 164.419 314.107L164.42 323.13C164.42 323.278 164.54 323.397 164.687 323.397H168.823C170.004 323.397 170.817 324.194 171.152 325.031C171.487 325.867 171.442 326.94 170.774 327.797L161.443 339.775C160.694 340.735 159.517 340.968 158.546 340.554C157.604 340.152 156.96 339.2 156.96 338.061L156.959 329.037C156.959 328.89 156.84 328.771 156.693 328.771H152.557C151.376 328.771 150.562 327.973 150.227 327.137C149.893 326.301 149.938 325.227 150.606 324.37L159.937 312.393C160.685 311.432 161.862 311.2 162.834 311.614Z" fill="#141B34"/>
<path d="M164.681 323.397H168.816C169.998 323.397 170.811 324.195 171.146 325.031C171.481 325.867 171.436 326.941 170.768 327.798L161.437 339.775C160.688 340.736 159.511 340.968 158.54 340.554C157.597 340.153 156.954 339.2 156.954 338.061L156.953 329.038L164.414 323.131C164.414 323.278 164.534 323.397 164.681 323.397Z" fill="#141B34"/>
<rect width="81" height="81" transform="translate(202.188 285.584)" fill="white"/>
<path opacity="0.4" d="M246.988 312.066C246.141 311.75 245.261 311.75 243.939 311.751L243.758 311.751C240.77 311.751 238.428 311.75 236.596 311.99C234.722 312.235 233.237 312.746 232.055 313.877C231.973 313.956 231.892 314.036 231.814 314.118C230.683 315.3 230.172 316.785 229.927 318.659C229.687 320.491 229.687 322.833 229.688 325.822V327.478C229.687 329.927 229.687 331.847 229.852 333.37C230.021 334.924 230.371 336.183 231.152 337.258C231.625 337.909 232.197 338.481 232.848 338.954C233.923 339.735 235.182 340.085 236.736 340.254C236.935 340.275 237.141 340.294 237.354 340.31C238.779 340.417 240.508 340.417 242.609 340.417H242.766C244.867 340.417 246.596 340.417 248.021 340.31C248.234 340.294 248.44 340.275 248.639 340.254C250.193 340.085 251.452 339.735 252.527 338.954C253.178 338.481 253.75 337.909 254.223 337.258C255.004 336.183 255.354 334.924 255.523 333.37C255.688 331.847 255.688 329.927 255.688 327.478L255.688 322.949C255.688 321.317 255.689 320.181 255.215 319.17C254.742 318.159 253.869 317.433 252.615 316.388L249.397 313.707C248.448 312.915 247.788 312.365 246.988 312.066Z" fill="#141B34"/>
<path fill-rule="evenodd" clip-rule="evenodd" d="M240.021 318.084C239.284 318.084 238.688 318.681 238.688 319.417C238.688 320.154 239.284 320.751 240.021 320.751H245.354C246.091 320.751 246.688 320.154 246.688 319.417C246.688 318.681 246.091 318.084 245.354 318.084H240.021Z" fill="#141B34"/>
<path fill-rule="evenodd" clip-rule="evenodd" d="M237.538 337.384C237.352 337.19 237.352 336.898 237.352 336.313V335.418C237.352 332.903 237.352 331.646 238.133 330.865C238.914 330.084 240.171 330.084 242.685 330.084C245.199 330.084 246.456 330.084 247.237 330.865C248.018 331.646 248.018 332.903 248.018 335.418V336.313C248.018 336.898 248.018 337.19 247.832 337.384C247.645 337.577 247.362 337.588 246.797 337.61C245.682 337.652 244.342 337.653 242.685 337.653C241.028 337.653 239.688 337.652 238.573 337.61C238.007 337.588 237.724 337.577 237.538 337.384Z" fill="#141B34"/>
<rect width="81" height="81" transform="translate(284.188 285.584)" fill="#FAFAFA"/>
<path opacity="0.4" d="M322.114 312.917H321.933C320.192 312.917 318.756 312.917 317.62 313.072C316.427 313.234 315.373 313.588 314.53 314.441C313.686 315.293 313.337 316.359 313.176 317.565C313.023 318.714 313.023 320.165 313.023 321.926V323.25V323.252V338.917H331.023V323.252V323.251V323.249V321.926C331.023 320.165 331.024 318.714 330.871 317.565C330.71 316.359 330.361 315.293 329.517 314.441C328.674 313.588 327.62 313.234 326.427 313.072C325.291 312.917 323.855 312.917 322.114 312.917Z" fill="#141B34"/>
<path fill-rule="evenodd" clip-rule="evenodd" d="M327.65 322.249C328.028 322.249 328.217 322.249 328.334 322.132C328.451 322.015 328.451 321.826 328.45 321.449C328.447 319.944 328.429 318.725 328.321 317.91C328.199 316.992 327.983 316.567 327.697 316.278C327.411 315.988 326.991 315.771 326.083 315.647C325.138 315.519 323.876 315.516 322.022 315.516C320.167 315.516 318.906 315.519 317.961 315.647C317.053 315.771 316.633 315.988 316.346 316.278C316.06 316.567 315.845 316.992 315.723 317.91C315.615 318.725 315.597 319.944 315.594 321.449C315.593 321.826 315.593 322.015 315.71 322.132C315.827 322.249 316.016 322.249 316.393 322.249H327.65Z" fill="#141B34"/>
<path fill-rule="evenodd" clip-rule="evenodd" d="M323.452 326.194C324.036 326.643 324.145 327.48 323.696 328.064L322.702 329.356L323.273 329.477C324.599 329.759 325.191 331.406 324.193 332.443L321.887 334.842C321.377 335.373 320.533 335.389 320.002 334.879C319.471 334.368 319.454 333.524 319.965 332.993L321.157 331.754L320.772 331.672C319.53 331.408 318.9 329.925 319.724 328.855L321.582 326.438C322.031 325.854 322.868 325.745 323.452 326.194Z" fill="#141B34"/>
<path fill-rule="evenodd" clip-rule="evenodd" d="M310.023 337.917C310.023 337.181 310.62 336.584 311.357 336.584H332.69C333.427 336.584 334.023 337.181 334.023 337.917C334.023 338.654 333.427 339.251 332.69 339.251H311.357C310.62 339.251 310.023 338.654 310.023 337.917Z" fill="#141B34"/>
<path fill-rule="evenodd" clip-rule="evenodd" d="M331.023 329.917V327.251H332.246L332.336 327.251C332.649 327.249 333.033 327.248 333.38 327.341C334.301 327.588 335.019 328.307 335.266 329.227C335.359 329.575 335.358 329.959 335.357 330.272L335.357 330.362V331.917C335.357 332.285 335.655 332.584 336.023 332.584C336.392 332.584 336.69 332.285 336.69 331.917V323.532C336.69 322.653 336.677 322.484 336.633 322.338C336.589 322.193 336.506 322.045 336.018 321.313L334.987 319.766C334.772 319.444 334.411 319.251 334.023 319.251C333.287 319.251 332.69 318.654 332.69 317.917C332.69 317.181 333.287 316.584 334.023 316.584C335.302 316.584 336.496 317.223 337.206 318.287L338.237 319.834L338.312 319.947C338.683 320.502 339.012 320.994 339.185 321.566C339.358 322.138 339.358 322.729 339.357 323.397L339.357 323.532V331.917C339.357 333.758 337.864 335.251 336.023 335.251C334.183 335.251 332.69 333.758 332.69 331.917V330.362C332.69 330.143 332.69 330.023 332.686 329.936L332.685 329.922L332.671 329.922C332.584 329.918 332.464 329.917 332.246 329.917H331.023Z" fill="#141B34"/>
<rect width="81" height="81" transform="translate(366.188 285.584)" fill="white"/>
<path opacity="0.4" fill-rule="evenodd" clip-rule="evenodd" d="M413.654 321.929C414.329 322.222 414.639 323.007 414.346 323.683L408.119 338.034C407.826 338.709 407.041 339.019 406.365 338.726C405.69 338.433 405.38 337.648 405.673 336.972L411.9 322.621C412.193 321.946 412.978 321.636 413.654 321.929Z" fill="#141B34"/>
<path d="M394.61 332.63C395.174 331.33 396.329 330.142 398.115 330.152C398.811 330.156 399.392 330.378 399.956 330.724C400.473 331.04 401.03 331.497 401.672 332.023L407.759 337.011C407.976 337.188 408.108 337.449 408.123 337.729C408.139 338.009 408.036 338.282 407.841 338.483C407.393 338.947 406.634 339.733 405.696 340.007C405.196 340.153 404.674 340.152 404.016 340.152H399.986C398.878 340.152 397.72 339.977 396.709 339.452C395.669 338.913 394.834 338.026 394.39 336.72C393.968 335.478 394.056 333.906 394.61 332.63Z" fill="#141B34"/>
<path d="M413.655 314.126C414.078 312.54 415.749 311.639 417.306 312.158C419.01 312.726 419.769 314.712 418.878 316.272L415.059 322.954C414.573 323.805 413.507 324.127 412.63 323.689C411.847 323.297 411.446 322.408 411.672 321.562L413.655 314.126Z" fill="#141B34"/>
<rect width="81" height="81" transform="translate(38.1875 367.584)" fill="#FAFAFA"/>
<path opacity="0.4" d="M66.6837 401.53C68.7209 396.768 73.588 393.75 78.6895 393.75C83.7911 393.75 88.6582 396.768 90.6954 401.53C92.589 405.956 91.5663 409.732 89.4318 412.965C87.6614 415.646 85.0702 418.034 82.7396 420.181C82.3258 420.563 81.9199 420.937 81.5286 421.303C80.7619 422.021 79.7434 422.417 78.6895 422.417C77.6358 422.417 76.6172 422.021 75.8506 421.303L75.8484 421.301C75.4343 420.911 75.0038 420.513 74.5643 420.106C72.2588 417.974 69.7032 415.611 67.9511 412.963C65.8141 409.734 64.7877 405.962 66.6837 401.53Z" fill="#141B34"/>
<path d="M73.3516 406.751C73.3516 403.805 75.7394 401.417 78.6849 401.417C81.6304 401.417 84.0182 403.805 84.0182 406.751C84.0182 409.696 81.6304 412.084 78.6849 412.084C75.7394 412.084 73.3516 409.696 73.3516 406.751Z" fill="#141B34"/>
<rect width="81" height="81" transform="translate(120.188 367.584)" fill="white"/>
<path opacity="0.4" d="M164.223 405.807C165.407 405.731 166.642 405.732 167.824 405.807C171.654 406.053 174.735 409.045 174.989 412.837C175.035 413.522 175.035 414.23 174.989 414.916C174.894 416.341 174.257 417.604 173.576 418.599C173.542 418.673 173.519 418.786 173.552 418.978C173.59 419.203 173.695 419.475 173.861 419.778L173.884 419.82C174.003 420.038 174.14 420.289 174.223 420.511C174.313 420.753 174.445 421.241 174.146 421.732C173.881 422.168 173.467 422.31 173.188 422.362C172.966 422.404 172.702 422.41 172.493 422.415L172.447 422.415C171.227 422.444 170.346 422.101 169.645 421.603L169.538 421.527C169.475 421.552 169.402 421.58 169.318 421.614C168.844 421.803 168.312 421.913 167.824 421.945C166.642 422.021 165.407 422.021 164.223 421.945C160.393 421.699 157.312 418.708 157.058 414.916C157.012 414.23 157.012 413.522 157.058 412.837C157.312 409.045 160.393 406.053 164.223 405.807Z" fill="#141B34"/>
<path d="M164.09 403.812C165.359 403.73 166.68 403.73 167.947 403.812C169.636 403.92 171.216 404.456 172.568 405.316C172.963 405.568 173.161 405.693 173.292 405.685C173.424 405.676 173.531 405.612 173.603 405.501C173.673 405.39 173.659 405.178 173.632 404.754C173.253 398.903 168.642 394.227 162.834 393.842C160.982 393.72 159.051 393.72 157.203 393.842C151.395 394.227 146.784 398.903 146.405 404.754C146.334 405.846 146.334 406.975 146.405 408.067C146.546 410.247 147.499 412.212 148.555 413.802C148.856 414.384 148.704 415.272 148.115 416.385L148.086 416.438C147.889 416.812 147.693 417.182 147.579 417.498C147.459 417.835 147.33 418.381 147.648 418.923C147.94 419.419 148.406 419.599 148.776 419.67C149.081 419.729 149.455 419.738 149.8 419.746L149.86 419.748C151.669 419.792 152.947 419.27 153.959 418.526L154.074 418.442C154.192 418.355 154.251 418.312 154.335 418.294C154.363 418.288 154.401 418.285 154.428 418.285C154.509 418.288 154.517 418.289 154.518 418.289C154.53 418.292 154.499 418.284 154.517 418.291C154.535 418.298 154.506 418.284 154.518 418.289C155.102 418.572 155.395 418.713 155.572 418.623C155.629 418.593 155.686 418.544 155.722 418.49C155.833 418.325 155.735 418.038 155.54 417.465C155.279 416.701 155.114 415.891 155.057 415.049C155.005 414.275 155.005 413.477 155.057 412.703C155.38 407.875 159.292 404.119 164.09 403.812Z" fill="#141B34"/>
<rect width="81" height="81" transform="translate(202.188 367.584)" fill="#FAFAFA"/>
<path fill-rule="evenodd" clip-rule="evenodd" d="M252.69 412.751C251.586 412.751 250.69 413.646 250.69 414.751C250.69 415.855 251.586 416.751 252.69 416.751C253.795 416.751 254.69 415.855 254.69 414.751C254.69 413.646 253.795 412.751 252.69 412.751ZM248.023 414.751C248.023 412.173 250.113 410.084 252.69 410.084C255.267 410.084 257.357 412.173 257.357 414.751C257.357 417.328 255.267 419.417 252.69 419.417C250.113 419.417 248.023 417.328 248.023 414.751Z" fill="#141B34"/>
<path fill-rule="evenodd" clip-rule="evenodd" d="M232.69 412.751C231.586 412.751 230.69 413.646 230.69 414.751C230.69 415.855 231.586 416.751 232.69 416.751C233.795 416.751 234.69 415.855 234.69 414.751C234.69 413.646 233.795 412.751 232.69 412.751ZM228.023 414.751C228.023 412.173 230.113 410.084 232.69 410.084C235.267 410.084 237.357 412.173 237.357 414.751C237.357 417.328 235.267 419.417 232.69 419.417C230.113 419.417 228.023 417.328 228.023 414.751Z" fill="#141B34"/>
<path opacity="0.4" fill-rule="evenodd" clip-rule="evenodd" d="M241.357 399.418C242.555 399.418 242.789 399.44 242.971 399.513C243.091 399.561 243.204 399.626 243.305 399.707C243.459 399.829 243.594 400.02 244.189 401.061L244.393 401.418H242.508C241.901 401.418 241.312 401.625 240.838 402.005L238.401 403.963C238.164 404.154 237.869 404.257 237.566 404.257H232.023C231.287 404.257 230.69 404.854 230.69 405.591C230.69 406.327 231.287 406.924 232.023 406.924H234.675L237.589 410.123L236.248 411.731C235.392 410.724 234.116 410.084 232.69 410.084C230.113 410.084 228.023 412.174 228.023 414.751C228.023 417.328 230.113 419.418 232.69 419.418C235.267 419.418 237.357 417.328 237.357 414.751C237.357 414.691 237.356 414.631 237.353 414.571L239.981 411.418H241.899C242.875 411.418 243.772 410.884 244.24 410.028L246.717 405.486L247.761 407.313C245.515 408.73 244.023 411.233 244.023 414.084C244.023 415.22 244.261 416.303 244.69 417.285C244.985 417.959 245.771 418.267 246.445 417.973C247.12 417.678 247.428 416.892 247.133 416.217C246.849 415.566 246.69 414.845 246.69 414.084C246.69 411.139 249.078 408.751 252.023 408.751C252.391 408.751 252.748 408.788 253.092 408.858C253.813 409.004 254.517 408.538 254.663 407.816C254.81 407.094 254.344 406.391 253.622 406.244C253.104 406.139 252.57 406.084 252.023 406.084C251.412 406.084 250.816 406.153 250.244 406.283L246.504 399.738L246.411 399.575C245.966 398.793 245.573 398.102 244.964 397.619C244.66 397.377 244.322 397.181 243.961 397.037C243.239 396.748 242.445 396.749 241.544 396.751L241.357 396.751C240.62 396.751 240.023 397.348 240.023 398.084C240.023 398.821 240.62 399.418 241.357 399.418ZM230.69 414.751C230.69 413.647 231.586 412.751 232.69 412.751C233.795 412.751 234.69 413.647 234.69 414.751C234.69 415.856 233.795 416.751 232.69 416.751C231.586 416.751 230.69 415.856 230.69 414.751Z" fill="#141B34"/>
<rect width="81" height="81" transform="translate(284.188 367.584)" fill="white"/>
<path fill-rule="evenodd" clip-rule="evenodd" d="M312.353 410.856C312.352 410.876 312.352 410.897 312.352 410.917V413.657C312.352 415.48 312.352 416.95 312.507 418.106C312.668 419.306 313.013 420.317 313.816 421.12C314.619 421.922 315.629 422.267 316.829 422.429C317.985 422.584 319.455 422.584 321.278 422.584H328.091C329.915 422.584 331.385 422.584 332.541 422.429C333.741 422.267 334.751 421.922 335.554 421.12C336.356 420.317 336.702 419.306 336.863 418.106C337.018 416.95 337.018 415.481 337.018 413.657V410.917C337.018 410.897 337.018 410.876 337.016 410.856C337.01 412.138 336.983 413.215 336.863 414.106C336.702 415.306 336.356 416.317 335.554 417.12C335.351 417.323 335.134 417.496 334.905 417.645C334.897 417.712 334.889 417.776 334.881 417.84C334.749 418.818 334.509 419.336 334.14 419.705C333.77 420.074 333.252 420.315 332.274 420.446C331.267 420.582 329.932 420.584 328.018 420.584H321.352C319.438 420.584 318.103 420.582 317.096 420.446C316.117 420.315 315.599 420.074 315.23 419.705C314.861 419.336 314.621 418.818 314.489 417.84C314.481 417.776 314.473 417.712 314.465 417.645C314.236 417.496 314.019 417.323 313.816 417.12C313.013 416.317 312.668 415.306 312.507 414.106C312.387 413.215 312.36 412.138 312.353 410.856Z" fill="#141B34"/>
<path opacity="0.4" d="M328.091 395.25C329.915 395.25 331.385 395.25 332.541 395.406C333.741 395.567 334.751 395.912 335.554 396.715C336.356 397.518 336.702 398.528 336.863 399.728C337.018 400.884 337.018 402.354 337.018 404.177V409.657C337.018 411.48 337.018 412.95 336.863 414.106C336.702 415.306 336.356 416.317 335.554 417.119C334.751 417.922 333.741 418.267 332.541 418.428C331.385 418.584 329.915 418.584 328.091 418.584H321.278C319.455 418.584 317.985 418.584 316.829 418.428C315.629 418.267 314.619 417.922 313.816 417.119C313.013 416.317 312.668 415.306 312.507 414.106C312.352 412.95 312.352 411.48 312.352 409.657V404.177C312.352 402.354 312.352 400.884 312.507 399.728C312.668 398.528 313.013 397.518 313.816 396.715C314.619 395.912 315.629 395.567 316.829 395.406C317.985 395.25 319.455 395.25 321.278 395.25H328.091Z" fill="#141B34"/>
<path fill-rule="evenodd" clip-rule="evenodd" d="M318.352 405.584C318.352 405.032 318.799 404.584 319.352 404.584H330.018C330.57 404.584 331.018 405.032 331.018 405.584C331.018 406.136 330.57 406.584 330.018 406.584H319.352C318.799 406.584 318.352 406.136 318.352 405.584ZM318.352 412.251C318.352 411.698 318.799 411.251 319.352 411.251H324.685C325.237 411.251 325.685 411.698 325.685 412.251C325.685 412.803 325.237 413.251 324.685 413.251H319.352C318.799 413.251 318.352 412.803 318.352 412.251Z" fill="#141B34"/>
<path fill-rule="evenodd" clip-rule="evenodd" d="M318.021 393.584C318.757 393.584 319.354 394.181 319.354 394.917V397.584C319.354 398.32 318.757 398.917 318.021 398.917C317.284 398.917 316.688 398.32 316.688 397.584V394.917C316.688 394.181 317.284 393.584 318.021 393.584ZM324.688 393.584C325.424 393.584 326.021 394.181 326.021 394.917V397.584C326.021 398.32 325.424 398.917 324.688 398.917C323.951 398.917 323.354 398.32 323.354 397.584V394.917C323.354 394.181 323.951 393.584 324.688 393.584ZM331.354 393.584C332.091 393.584 332.688 394.181 332.688 394.917V397.584C332.688 398.32 332.091 398.917 331.354 398.917C330.618 398.917 330.021 398.32 330.021 397.584V394.917C330.021 394.181 330.618 393.584 331.354 393.584Z" fill="#141B34"/>
<rect width="81" height="81" transform="translate(366.188 367.584)" fill="#FAFAFA"/>
<path d="M403.018 397.417C403.018 395.392 404.66 393.75 406.685 393.75H408.018C410.043 393.75 411.685 395.392 411.685 397.417V400.822C411.685 402.134 412.538 403.295 413.791 403.686L414.841 404.013C416.929 404.665 418.352 406.598 418.352 408.786C418.352 410.075 417.307 411.119 416.018 411.119H398.685C397.396 411.119 396.352 410.075 396.352 408.786C396.352 406.598 397.774 404.665 399.862 404.013L400.912 403.686C402.165 403.295 403.018 402.134 403.018 400.822V397.417Z" fill="#141B34"/>
<path opacity="0.4" d="M416.023 413.118H398.69C398.679 413.118 398.667 413.118 398.656 413.118C398.176 413.115 397.936 413.113 397.822 413.211C397.708 413.309 397.677 413.524 397.616 413.954C397.534 414.525 397.403 415.178 397.217 415.883C396.792 417.49 396.108 419.242 395.179 420.704C394.995 420.995 394.973 421.36 395.121 421.67C395.269 421.981 395.864 422.174 396.537 422.292C396.93 422.323 397.489 422.36 398.165 422.381C399.512 422.425 401.341 422.41 403.241 422.174C405.13 421.939 407.152 421.478 408.85 420.589C409.249 420.38 409.635 420.144 409.997 419.881C410.248 419.699 410.62 419.866 410.661 420.172C410.725 420.646 410.876 421.147 411.288 421.558C411.696 421.965 412.31 422.152 412.785 422.253C413.316 422.365 413.923 422.417 414.512 422.416C415.101 422.416 415.711 422.362 416.246 422.244C416.727 422.138 417.349 421.938 417.757 421.504C418.162 421.073 418.301 420.569 418.341 420.079C418.377 419.648 418.343 419.129 418.307 418.578L418.303 418.515C418.21 417.093 418.001 415.324 417.509 413.66C417.415 413.34 417.368 413.181 417.246 413.101C417.124 413.02 416.926 413.043 416.529 413.089C416.363 413.109 416.195 413.118 416.023 413.118Z" fill="#141B34"/>
<line x1="38.6875" y1="16.584" x2="38.6875" y2="470.584" stroke="#EFEFEF"/>
<line x1="16.1875" y1="39.084" x2="470.188" y2="39.084" stroke="#EFEFEF"/>
<line x1="16.1875" y1="121.084" x2="470.188" y2="121.084" stroke="#EFEFEF"/>
<line x1="16.1875" y1="203.084" x2="470.188" y2="203.084" stroke="#EFEFEF"/>
<line x1="16.1875" y1="285.084" x2="470.188" y2="285.084" stroke="#EFEFEF"/>
<line x1="16.1875" y1="367.084" x2="470.188" y2="367.084" stroke="#EFEFEF"/>
<line x1="16.1875" y1="449.084" x2="470.188" y2="449.084" stroke="#EFEFEF"/>
<line x1="119.688" y1="16.584" x2="119.688" y2="470.584" stroke="#EFEFEF"/>
<line x1="201.688" y1="16.584" x2="201.688" y2="470.584" stroke="#EFEFEF"/>
<line x1="283.688" y1="16.584" x2="283.688" y2="470.584" stroke="#EFEFEF"/>
<line x1="365.688" y1="16.584" x2="365.688" y2="470.584" stroke="#EFEFEF"/>
<line x1="447.688" y1="16.584" x2="447.688" y2="470.584" stroke="#EFEFEF"/>
<g filter="url(#filter0_f_624_17239)">
<ellipse cx="253.688" cy="499.584" rx="44" ry="273.5" transform="rotate(-90 253.688 499.584)" fill="white"/>
</g>
<g filter="url(#filter1_f_624_17239)">
<ellipse cx="253.688" cy="-10.416" rx="44" ry="273.5" transform="rotate(-90 253.688 -10.416)" fill="white"/>
</g>
<g filter="url(#filter2_f_624_17239)">
<ellipse cx="-6.8125" cy="243.084" rx="44" ry="273.5" fill="white"/>
</g>
<g filter="url(#filter3_f_624_17239)">
<ellipse cx="487.188" cy="243.084" rx="44" ry="273.5" fill="white"/>
</g>
</g>
<rect x="0.9375" y="1.33398" width="484.5" height="484.5" rx="15.25" stroke="#EFEFEF" stroke-width="1.5"/>
<defs>
<filter id="filter0_f_624_17239" x="-69.8125" y="405.584" width="647" height="188" filterUnits="userSpaceOnUse" color-interpolation-filters="sRGB">
<feFlood flood-opacity="0" result="BackgroundImageFix"/>
<feBlend mode="normal" in="SourceGraphic" in2="BackgroundImageFix" result="shape"/>
<feGaussianBlur stdDeviation="25" result="effect1_foregroundBlur_624_17239"/>
</filter>
<filter id="filter1_f_624_17239" x="-69.8125" y="-104.416" width="647" height="188" filterUnits="userSpaceOnUse" color-interpolation-filters="sRGB">
<feFlood flood-opacity="0" result="BackgroundImageFix"/>
<feBlend mode="normal" in="SourceGraphic" in2="BackgroundImageFix" result="shape"/>
<feGaussianBlur stdDeviation="25" result="effect1_foregroundBlur_624_17239"/>
</filter>
<filter id="filter2_f_624_17239" x="-100.812" y="-80.416" width="188" height="647" filterUnits="userSpaceOnUse" color-interpolation-filters="sRGB">
<feFlood flood-opacity="0" result="BackgroundImageFix"/>
<feBlend mode="normal" in="SourceGraphic" in2="BackgroundImageFix" result="shape"/>
<feGaussianBlur stdDeviation="25" result="effect1_foregroundBlur_624_17239"/>
</filter>
<filter id="filter3_f_624_17239" x="393.188" y="-80.416" width="188" height="647" filterUnits="userSpaceOnUse" color-interpolation-filters="sRGB">
<feFlood flood-opacity="0" result="BackgroundImageFix"/>
<feBlend mode="normal" in="SourceGraphic" in2="BackgroundImageFix" result="shape"/>
<feGaussianBlur stdDeviation="25" result="effect1_foregroundBlur_624_17239"/>
</filter>
<clipPath id="clip0_624_17239">
<rect x="0.1875" y="0.583984" width="486" height="486" rx="16" fill="white"/>
</clipPath>
</defs>
</svg>