<svg xmlns:xlink="http://www.w3.org/1999/xlink" xmlns="http://www.w3.org/2000/svg" width="487" height="487" viewBox="0 0 487 487" fill="none">
<g clip-path="url(#clip0_624_16416)">
<rect x="0.1875" y="0.583984" width="486" height="486" rx="16" fill="white"/>
<rect width="81" height="81" transform="translate(38.1875 39.584)" fill="#FAFAFA"/>
<path opacity="0.4" fill-rule="evenodd" clip-rule="evenodd" d="M92.0182 77.4615V82.7064C88.2094 82.7064 85.7348 86.8434 87.663 90.128L83.0442 92.7504C81.091 89.4235 76.2808 89.4236 74.3276 92.7506L69.7088 90.1282C71.6372 86.8435 69.1605 82.7064 65.3516 82.7064V77.4615C69.1605 77.4615 71.6394 73.3244 69.7109 70.0396L74.3297 67.4172C76.282 70.7425 81.09 70.7426 83.0421 67.4174L87.6609 70.0398C85.7325 73.3244 88.2093 77.4615 92.0182 77.4615ZM81.3516 77.4172C81.3516 78.89 80.1577 80.0839 78.6849 80.0839C77.2122 80.0839 76.0182 78.89 76.0182 77.4172C76.0182 75.9445 77.2122 74.7506 78.6849 74.7506C80.1577 74.7506 81.3516 75.9445 81.3516 77.4172ZM74.0182 86.0839C74.9497 84.4736 76.6908 83.3902 78.6849 83.3902C80.679 83.3902 82.4201 84.4736 83.3516 86.0839H74.0182Z" fill="#141B34"/>
<path d="M74.0234 86.0841C74.9549 84.4738 76.696 83.3903 78.6901 83.3903C80.6842 83.3903 82.4253 84.4738 83.3568 86.0841M81.3568 77.4174C81.3568 78.8902 80.1629 80.0841 78.6901 80.0841C77.2174 80.0841 76.0234 78.8902 76.0234 77.4174C76.0234 75.9446 77.2174 74.7507 78.6901 74.7507C80.1629 74.7507 81.3568 75.9446 81.3568 77.4174Z" stroke="#141B34" stroke-width="2" stroke-linecap="round"/>
<path d="M92.0182 82.7064V77.4615C88.2093 77.4615 85.7325 73.3244 87.6609 70.0398L83.0421 67.4174C81.09 70.7426 76.282 70.7425 74.3297 67.4172L69.7109 70.0397C71.6394 73.3244 69.1605 77.4615 65.3516 77.4615V82.7064C69.1605 82.7064 71.6372 86.8435 69.7088 90.1282L74.3276 92.7506C76.2808 89.4236 81.091 89.4235 83.0442 92.7504L87.663 90.128C85.7348 86.8434 88.2094 82.7064 92.0182 82.7064Z" stroke="#141B34" stroke-width="2" stroke-linecap="round" stroke-linejoin="round"/>
<rect width="81" height="81" transform="translate(120.188 39.584)" fill="white"/>
<path opacity="0.4" d="M153.475 80.0841C148.333 72.465 158.24 70.0841 160.683 66.7507C163.127 70.0841 173.033 72.465 167.888 80.0841H153.475Z" fill="#141B34"/>
<path d="M153.475 80.0841C148.333 72.465 158.24 70.0841 160.683 66.7507C163.127 70.0841 173.033 72.465 167.888 80.0841H153.475Z" stroke="#141B34" stroke-width="2" stroke-linecap="round" stroke-linejoin="round"/>
<path d="M160.688 85.4172V88.0839" stroke="#141B34" stroke-width="2" stroke-linecap="round" stroke-linejoin="round"/>
<path d="M153.352 80.084V85.7983C153.352 89.39 153.352 91.1857 154.426 92.3016C155.499 93.4173 157.228 93.4173 160.685 93.4173C164.142 93.4173 165.87 93.4173 166.944 92.3016C168.018 91.1857 168.018 89.39 168.018 85.7983V80.084" stroke="#141B34" stroke-width="2" stroke-linecap="round" stroke-linejoin="round"/>
<path d="M171.352 82.7507L172.685 82.084M171.352 88.084L172.685 88.7507" stroke="#141B34" stroke-width="2" stroke-linecap="round" stroke-linejoin="round"/>
<path d="M150.021 82.7507L148.688 82.084M150.021 88.084L148.688 88.7507" stroke="#141B34" stroke-width="2" stroke-linecap="round" stroke-linejoin="round"/>
<rect width="81" height="81" transform="translate(202.188 39.584)" fill="#FAFAFA"/>
<path opacity="0.4" d="M254.686 77.4172H230.688C230.688 77.8434 230.688 78.2875 230.688 78.7506V81.4172C230.688 87.074 230.687 89.9026 232.445 91.6599C234.202 93.4172 237.031 93.4172 242.688 93.4172C248.344 93.4172 251.173 93.4172 252.93 91.6599C254.688 89.9026 254.688 87.074 254.688 81.4172V78.7506C254.688 78.2875 254.687 77.8434 254.686 77.4172Z" fill="#141B34"/>
<path d="M230.688 77.4172H254.688" stroke="#141B34" stroke-width="2" stroke-linejoin="round"/>
<path d="M246.688 72.084H249.354" stroke="#141B34" stroke-width="2" stroke-linecap="round" stroke-linejoin="round"/>
<path d="M254.688 81.4174V78.7507C254.688 73.0939 254.687 70.2655 252.93 68.5081C251.173 66.7507 248.344 66.7507 242.688 66.7507C237.031 66.7507 234.202 66.7507 232.445 68.5081C230.687 70.2655 230.688 73.0939 230.688 78.7507V81.4174C230.688 87.0742 230.687 89.9027 232.445 91.6601C234.202 93.4174 237.031 93.4174 242.688 93.4174C248.344 93.4174 251.173 93.4174 252.93 91.6601C254.687 89.9027 254.688 87.0742 254.688 81.4174Z" stroke="#141B34" stroke-width="2"/>
<path d="M236.023 82.7507H236.725M242.339 82.7507H243.041M248.655 82.7507H249.357" stroke="#141B34" stroke-width="2" stroke-linecap="round" stroke-linejoin="round"/>
<path d="M236.023 88.084H236.725M242.339 88.084H243.041M248.655 88.084H249.357" stroke="#141B34" stroke-width="2" stroke-linecap="round" stroke-linejoin="round"/>
<rect width="81" height="81" transform="translate(284.188 39.584)" fill="white"/>
<g opacity="0.4">
<path d="M313.722 80.0073C312.458 77.8031 311.847 76.0034 311.479 74.179C310.935 71.4808 312.181 68.8451 314.244 67.1634C315.116 66.4526 316.116 66.6954 316.632 67.6206L317.796 69.7093C318.719 71.3648 319.18 72.1926 319.088 73.0702C318.997 73.9478 318.375 74.6625 317.13 76.0921L313.722 80.0073Z" fill="#141B34"/>
<path d="M324.758 91.0471C326.962 92.3111 328.762 92.9215 330.586 93.2895C333.284 93.8338 335.92 92.5882 337.602 90.5247C338.312 89.6527 338.07 88.653 337.144 88.1373L335.056 86.973C333.4 86.0502 332.572 85.5889 331.695 85.6803C330.817 85.7718 330.102 86.3941 328.673 87.6386L324.758 91.0471Z" fill="#141B34"/>
</g>
<path d="M313.722 80.0073C312.458 77.8031 311.847 76.0034 311.479 74.179C310.935 71.4808 312.181 68.8451 314.244 67.1634C315.116 66.4526 316.116 66.6954 316.632 67.6206L317.796 69.7093C318.719 71.3648 319.18 72.1926 319.088 73.0702C318.997 73.9478 318.375 74.6625 317.13 76.0921L313.722 80.0073ZM313.722 80.0073C316.28 84.4685 320.295 88.4858 324.762 91.0473M324.762 91.0473C326.966 92.3113 328.766 92.9217 330.59 93.2897C333.288 93.8339 335.924 92.5883 337.606 90.5249C338.316 89.6529 338.074 88.6531 337.148 88.1374L335.06 86.9731C333.404 86.0503 332.576 85.589 331.699 85.6805C330.821 85.7719 330.106 86.3942 328.677 87.6387L324.762 91.0473Z" stroke="#141B34" stroke-width="2" stroke-linejoin="round"/>
<rect width="81" height="81" transform="translate(366.188 39.584)" fill="#FAFAFA"/>
<path opacity="0.4" d="M393.352 85.4174V79.4174C393.352 76.29 393.352 74.7263 394.178 73.649C394.391 73.3717 394.639 73.1235 394.917 72.9107C395.994 72.0841 396.891 72.0841 400.018 72.0841H400.552L401.199 70.4646C401.709 69.1907 402.152 67.7455 403.463 67.0968C404.162 66.7507 405.003 66.7507 406.685 66.7507C408.367 66.7507 409.208 66.7507 409.907 67.0968C411.217 67.7455 411.661 69.1907 412.17 70.4646L412.818 72.0841H413.352C416.479 72.0841 417.376 72.0841 418.453 72.9107C418.731 73.1235 418.979 73.3717 419.192 73.649C420.018 74.7263 420.018 76.29 420.018 79.4174V85.4174C420.018 89.1886 420.018 91.0742 418.847 92.2458C417.675 93.4174 415.789 93.4174 412.018 93.4174H401.352C397.58 93.4174 395.695 93.4174 394.523 92.2458C393.352 91.0742 393.352 89.1886 393.352 85.4174Z" fill="#141B34"/>
<path d="M413.352 72.084C416.479 72.084 417.376 72.084 418.453 72.9106C418.731 73.1234 418.979 73.3716 419.192 73.6489C420.018 74.7262 420.018 76.2899 420.018 79.4173V85.4173C420.018 89.1885 420.018 91.0741 418.847 92.2457C417.675 93.4173 415.789 93.4173 412.018 93.4173H401.352C397.58 93.4173 395.695 93.4173 394.523 92.2457C393.352 91.0741 393.352 89.1885 393.352 85.4173V79.4173C393.352 76.2899 393.352 74.7262 394.178 73.6489C394.391 73.3716 394.639 73.1234 394.917 72.9106C395.994 72.084 396.891 72.084 400.018 72.084" stroke="#141B34" stroke-width="2" stroke-linecap="round"/>
<path d="M413.357 73.4174L412.176 70.4646C411.666 69.1907 411.223 67.7455 409.912 67.0968C409.213 66.7507 408.372 66.7507 406.69 66.7507C405.008 66.7507 404.167 66.7507 403.468 67.0968C402.158 67.7455 401.714 69.1907 401.205 70.4646L400.023 73.4174" stroke="#141B34" stroke-width="2" stroke-linecap="round" stroke-linejoin="round"/>
<path d="M406.688 72.084H406.699" stroke="#141B34" stroke-width="2.66667" stroke-linecap="round" stroke-linejoin="round"/>
<path d="M410.018 86.7507L406.685 78.7507L403.352 86.7507M404.304 84.465H409.066" stroke="#141B34" stroke-width="2" stroke-linecap="round" stroke-linejoin="round"/>
<rect width="81" height="81" transform="translate(38.1875 121.584)" fill="white"/>
<path d="M66.0234 162.084C66.0234 156.113 66.0234 153.127 67.8784 151.272C69.7334 149.417 72.719 149.417 78.6901 149.417C84.6612 149.417 87.6468 149.417 89.5018 151.272C91.3568 153.127 91.3568 156.113 91.3568 162.084C91.3568 168.055 91.3568 171.041 89.5018 172.896C87.6468 174.751 84.6612 174.751 78.6901 174.751C72.719 174.751 69.7334 174.751 67.8784 172.896C66.0234 171.041 66.0234 168.055 66.0234 162.084Z" stroke="#141B34" stroke-width="2"/>
<path d="M84.6875 158.084C85.7921 158.084 86.6875 157.189 86.6875 156.084C86.6875 154.979 85.7921 154.084 84.6875 154.084C83.5829 154.084 82.6875 154.979 82.6875 156.084C82.6875 157.189 83.5829 158.084 84.6875 158.084Z" stroke="#141B34" stroke-width="2"/>
<path opacity="0.4" fill-rule="evenodd" clip-rule="evenodd" d="M66.0234 162.084C66.0234 156.113 66.0234 153.127 67.8784 151.272C69.7334 149.417 72.719 149.417 78.6901 149.417C84.6612 149.417 87.6468 149.417 89.5018 151.272C91.3568 153.127 91.3568 156.113 91.3568 162.084C91.3568 164.753 91.3568 166.825 91.1912 168.467C89.7817 167.731 88.3273 167.358 86.8652 167.36C84.7658 167.351 82.686 168.106 80.7317 169.581L78.525 167.863C75.5665 165.781 71.8518 164.679 68.0439 164.754C67.5918 164.753 67.14 164.768 66.6897 164.797H66.0317C66.0234 163.968 66.0234 163.066 66.0234 162.084ZM84.6901 158.084C85.7946 158.084 86.6901 157.188 86.6901 156.084C86.6901 154.979 85.7946 154.084 84.6901 154.084C83.5856 154.084 82.6901 154.979 82.6901 156.084C82.6901 157.188 83.5856 158.084 84.6901 158.084Z" fill="#141B34"/>
<path d="M84.0208 175.417C83.1948 172.451 81.2668 169.794 78.5228 167.863C75.5643 165.781 71.8497 164.68 68.0418 164.754C67.5896 164.753 67.1378 164.768 66.6875 164.798" stroke="#141B34" stroke-width="2" stroke-linejoin="round"/>
<path d="M80.0234 170.084C82.2921 168.315 84.7361 167.408 87.205 167.417C88.605 167.416 89.9984 167.713 91.3568 168.299" stroke="#141B34" stroke-width="2" stroke-linejoin="round"/>
<rect width="81" height="81" transform="translate(120.188 121.584)" fill="#FAFAFA"/>
<path opacity="0.4" d="M171.491 172.901C173.346 171.046 173.346 168.06 173.346 162.089C173.346 156.118 173.346 153.133 171.491 151.278C169.636 149.423 166.651 149.423 160.68 149.423H156.68V174.726C157.841 174.756 159.164 174.756 160.68 174.756C166.651 174.756 169.636 174.756 171.491 172.901Z" fill="#141B34"/>
<path d="M171.502 172.896C169.647 174.751 166.661 174.751 160.69 174.751C154.719 174.751 151.733 174.751 149.878 172.896C148.023 171.041 148.023 168.055 148.023 162.084C148.023 156.113 148.023 153.127 149.878 151.272C151.733 149.417 154.719 149.417 160.69 149.417C166.661 149.417 169.647 149.417 171.502 151.272C173.357 153.127 173.357 156.113 173.357 162.084C173.357 168.055 173.357 171.041 171.502 172.896Z" stroke="#141B34" stroke-width="2" stroke-linecap="round" stroke-linejoin="round"/>
<path d="M156.688 174.751V149.417" stroke="#141B34" stroke-width="2"/>
<path d="M173.354 156.751H156.688" stroke="#141B34" stroke-width="2"/>
<path d="M173.354 167.417H156.688" stroke="#141B34" stroke-width="2"/>
<rect width="81" height="81" transform="translate(202.188 121.584)" fill="white"/>
<path opacity="0.4" d="M242.69 174.751C235.09 174.751 230.023 168.751 230.023 161.417C230.023 159.367 230.259 157.272 230.565 155.417H237.962C237.769 156.947 237.623 158.464 237.623 159.551C237.623 163.551 240.157 166.751 242.69 166.751C245.223 166.751 247.757 163.551 247.757 159.551C247.757 158.464 247.611 156.947 247.418 155.417H254.815C255.121 157.272 255.357 159.367 255.357 161.417C255.357 168.751 250.29 174.751 242.69 174.751Z" fill="#141B34"/>
<path d="M231.923 149.417H238.89C238.89 149.417 237.623 156.351 237.623 159.551C237.623 163.551 240.157 166.751 242.69 166.751C245.223 166.751 247.757 163.551 247.757 159.551C247.757 156.351 246.49 149.417 246.49 149.417H253.457C253.457 149.417 255.357 155.602 255.357 161.417C255.357 168.751 250.29 174.751 242.69 174.751C235.09 174.751 230.023 168.751 230.023 161.417C230.023 155.602 231.923 149.417 231.923 149.417Z" stroke="#141B34" stroke-width="2" stroke-linejoin="round"/>
<path d="M230.648 155.751H237.615M247.748 155.751H254.715" stroke="#141B34" stroke-width="2" stroke-linecap="round"/>
<rect width="81" height="81" transform="translate(284.188 121.584)" fill="#FAFAFA"/>
<path opacity="0.4" d="M311.373 164.052C311.46 168.139 311.503 170.183 313.012 171.697C314.52 173.21 316.619 173.263 320.817 173.369C323.404 173.434 325.966 173.434 328.553 173.369C332.751 173.263 334.85 173.21 336.358 171.697C337.866 170.183 337.91 168.139 337.997 164.052C338.025 162.737 338.025 161.431 337.997 160.117C337.91 156.029 337.866 153.986 336.358 152.472C334.85 150.958 332.751 150.905 328.553 150.799C325.966 150.734 323.404 150.734 320.817 150.799C316.619 150.905 314.52 150.958 313.011 152.472C311.503 153.986 311.46 156.029 311.373 160.117C311.345 161.431 311.345 162.737 311.373 164.052Z" fill="#141B34"/>
<path d="M318.023 157.417L321.946 159.736C324.233 161.089 325.147 161.089 327.434 159.736L331.357 157.417" stroke="#141B34" stroke-width="2" stroke-linecap="round" stroke-linejoin="round"/>
<path d="M311.373 164.052C311.46 168.139 311.503 170.183 313.012 171.697C314.52 173.21 316.619 173.263 320.817 173.369C323.404 173.434 325.966 173.434 328.553 173.369C332.751 173.263 334.85 173.21 336.358 171.697C337.866 170.183 337.91 168.139 337.997 164.052C338.025 162.737 338.025 161.431 337.997 160.117C337.91 156.029 337.866 153.986 336.358 152.472C334.85 150.958 332.751 150.905 328.553 150.799C325.966 150.734 323.404 150.734 320.817 150.799C316.619 150.905 314.52 150.958 313.011 152.472C311.503 153.986 311.46 156.029 311.373 160.117C311.345 161.431 311.345 162.737 311.373 164.052Z" stroke="#141B34" stroke-width="2" stroke-linejoin="round"/>
<rect width="81" height="81" transform="translate(366.188 121.584)" fill="white"/>
<g opacity="0.4">
<path d="M396.052 152.644L397.689 151.688C399.483 150.641 400.38 150.118 401.367 150.085V170.109C400.316 170.168 399.405 170.701 398.476 171.245L398.311 171.342C396.58 172.353 395.715 172.858 395.008 172.731C394.537 172.647 394.112 172.392 393.808 172.012C393.352 171.443 393.352 170.419 393.352 168.371V157.415C393.352 155.857 393.352 155.078 393.714 154.438C394.076 153.798 394.735 153.413 396.052 152.644Z" fill="#141B34"/>
<path d="M418.022 174.084L410.688 174.083L410.803 154.221H414.688C417.203 154.221 418.46 154.221 419.241 155.024C420.022 155.828 420.022 157.121 420.022 159.707V172.084C420.022 173.188 419.126 174.084 418.022 174.084Z" fill="#141B34"/>
</g>
<path d="M397.689 151.678L396.052 152.628C394.735 153.392 394.076 153.775 393.714 154.41C393.352 155.046 393.352 155.82 393.352 157.369V168.255C393.352 170.29 393.352 171.307 393.808 171.873C394.112 172.25 394.537 172.503 395.008 172.587C395.715 172.713 396.58 172.211 398.311 171.207C399.487 170.525 400.618 169.817 402.025 170.009C402.664 170.096 403.275 170.399 404.495 171.006L409.58 173.535C410.68 174.082 410.69 174.084 411.913 174.084H414.685C417.199 174.084 418.456 174.084 419.237 173.286C420.018 172.487 420.018 171.203 420.018 168.633V159.646C420.018 157.076 420.018 155.791 419.237 154.993C418.456 154.195 417.199 154.195 414.685 154.195H411.913C410.69 154.195 410.68 154.193 409.58 153.646L405.138 151.437C403.283 150.515 402.356 150.054 401.368 150.086C400.38 150.118 399.483 150.638 397.689 151.678Z" stroke="#141B34" stroke-width="2" stroke-linecap="round" stroke-linejoin="round"/>
<path d="M410.688 154.751V173.417" stroke="#141B34" stroke-width="2" stroke-linecap="round" stroke-linejoin="round" stroke-dasharray="1.33 4"/>
<path d="M401.352 150.751V169.417" stroke="#141B34" stroke-width="2" stroke-linecap="round" stroke-linejoin="round" stroke-dasharray="1.33 4"/>
<rect width="81" height="81" transform="translate(38.1875 203.584)" fill="#FAFAFA"/>
<path opacity="0.4" d="M66.0633 247.777C65.7798 249.636 67.0474 250.926 68.5995 251.569C74.5499 254.034 82.8304 254.034 88.7806 251.569C90.3328 250.926 91.6004 249.636 91.3169 247.777C91.1426 246.635 90.281 245.683 89.6426 244.755C88.8065 243.523 88.7234 242.18 88.7233 240.751C88.7233 235.228 84.2313 230.751 78.6901 230.751C73.1489 230.751 68.6569 235.228 68.6569 240.751C68.6568 242.18 68.5737 243.523 67.7376 244.755C67.0992 245.683 66.2376 246.635 66.0633 247.777Z" fill="#141B34"/>
<path d="M66.0633 247.777C65.7798 249.636 67.0474 250.926 68.5995 251.569C74.5499 254.034 82.8304 254.034 88.7806 251.569C90.3328 250.926 91.6004 249.636 91.3169 247.777C91.1426 246.635 90.281 245.683 89.6426 244.755C88.8065 243.523 88.7234 242.18 88.7233 240.751C88.7233 235.228 84.2313 230.751 78.6901 230.751C73.1489 230.751 68.6569 235.228 68.6569 240.751C68.6568 242.18 68.5737 243.523 67.7376 244.755C67.0992 245.683 66.2376 246.635 66.0633 247.777Z" stroke="#141B34" stroke-width="2" stroke-linecap="round" stroke-linejoin="round"/>
<path d="M73.3516 253.417C73.9629 255.718 76.1189 257.417 78.6849 257.417C81.2509 257.417 83.4069 255.718 84.0182 253.417" stroke="#141B34" stroke-width="2" stroke-linecap="round" stroke-linejoin="round"/>
<rect width="81" height="81" transform="translate(120.188 203.584)" fill="white"/>
<path opacity="0.4" d="M149.352 239.944C149.352 236.239 149.352 234.386 150.718 233.235C152.085 232.084 154.285 232.084 158.685 232.084H162.685C167.085 232.084 169.284 232.084 170.651 233.235C172.018 234.386 172.018 236.239 172.018 239.944V245.558C172.018 249.263 172.018 251.115 170.651 252.266C169.284 253.417 167.085 253.417 162.685 253.417H158.685C154.285 253.417 152.085 253.417 150.718 252.266C149.352 251.115 149.352 249.263 149.352 245.558V239.944Z" fill="#141B34"/>
<path d="M167.357 230.751V233.417M160.69 230.751V233.417M154.023 230.751V233.417" stroke="#141B34" stroke-width="2" stroke-linecap="round" stroke-linejoin="round"/>
<path d="M149.352 245.417V240.084C149.352 236.313 149.352 234.427 150.523 233.256C151.695 232.084 153.58 232.084 157.352 232.084H164.018C167.789 232.084 169.675 232.084 170.847 233.256C172.018 234.427 172.018 236.313 172.018 240.084V245.417C172.018 249.189 172.018 251.074 170.847 252.246C169.675 253.417 167.789 253.417 164.018 253.417H157.352C153.58 253.417 151.695 253.417 150.523 252.246C149.352 251.074 149.352 249.189 149.352 245.417Z" stroke="#141B34" stroke-width="2"/>
<path d="M149.352 249.417V240.084C149.352 236.313 149.352 234.427 150.523 233.256C151.695 232.084 153.58 232.084 157.352 232.084H164.018C167.789 232.084 169.675 232.084 170.847 233.256C172.018 234.427 172.018 236.313 172.018 240.084V249.417C172.018 253.189 172.018 255.074 170.847 256.246C169.675 257.417 167.789 257.417 164.018 257.417H157.352C153.58 257.417 151.695 257.417 150.523 256.246C149.352 255.074 149.352 253.189 149.352 249.417Z" stroke="#141B34" stroke-width="2"/>
<path d="M155.352 248.084H160.685M155.352 241.417H166.018" stroke="#141B34" stroke-width="2" stroke-linecap="round"/>
<rect width="81" height="81" transform="translate(202.188 203.584)" fill="#FAFAFA"/>
<path opacity="0.4" d="M237.936 233.327C240.227 231.61 241.372 230.751 242.685 230.751C243.998 230.751 245.143 231.61 247.434 233.327L252.024 236.768C254.314 238.485 255.46 239.344 255.866 240.632C256.271 241.921 255.834 243.31 254.959 246.089L253.206 251.656C252.33 254.436 251.893 255.825 250.831 256.621C249.769 257.417 248.353 257.417 245.521 257.417H239.848C237.017 257.417 235.601 257.417 234.539 256.621C233.477 255.825 233.039 254.436 232.164 251.656L230.411 246.089C229.536 243.31 229.098 241.921 229.504 240.632C229.91 239.344 231.055 238.485 233.346 236.768L237.936 233.327Z" fill="#141B34"/>
<path d="M237.936 233.327C240.227 231.61 241.372 230.751 242.685 230.751C243.998 230.751 245.143 231.61 247.434 233.327L252.024 236.768C254.314 238.485 255.46 239.344 255.866 240.632C256.271 241.921 255.834 243.31 254.959 246.089L253.206 251.656C252.33 254.436 251.893 255.825 250.831 256.621C249.769 257.417 248.353 257.417 245.521 257.417H239.848C237.017 257.417 235.601 257.417 234.539 256.621C233.477 255.825 233.039 254.436 232.164 251.656L230.411 246.089C229.536 243.31 229.098 241.921 229.504 240.632C229.91 239.344 231.055 238.485 233.346 236.768L237.936 233.327Z" stroke="#141B34" stroke-width="2"/>
<rect width="81" height="81" transform="translate(284.188 203.584)" fill="white"/>
<path opacity="0.4" d="M332.694 247.621L327.067 255.228C325.988 256.688 325.448 257.417 324.685 257.417C323.921 257.417 323.382 256.688 322.302 255.228L316.676 247.621C315.774 246.401 315.323 245.791 315.353 245.141C315.384 244.491 315.986 243.81 317.191 242.448C318.353 241.136 318.79 239.777 318.79 237.418L330.58 237.417C330.58 239.776 331.017 241.135 332.179 242.448C333.384 243.81 333.986 244.491 334.017 245.141C334.047 245.791 333.596 246.401 332.694 247.621Z" fill="#141B34"/>
<path d="M330.585 237.417C330.934 235.841 332.039 233.157 330.743 231.727C329.859 230.751 328.195 230.751 324.868 230.751H324.512C321.185 230.751 319.521 230.751 318.637 231.727C317.341 233.157 318.446 235.841 318.795 237.417" stroke="#141B34" stroke-width="2" stroke-linecap="round" stroke-linejoin="round"/>
<path d="M332.694 247.621L327.067 255.228C325.988 256.688 325.448 257.417 324.685 257.417C323.921 257.417 323.382 256.688 322.302 255.228L316.676 247.621C315.774 246.401 315.323 245.791 315.353 245.141C315.384 244.491 315.986 243.81 317.191 242.448C318.353 241.136 318.79 239.777 318.79 237.418L330.58 237.417C330.58 239.776 331.017 241.135 332.179 242.448C333.384 243.81 333.986 244.491 334.017 245.141C334.047 245.791 333.596 246.401 332.694 247.621Z" stroke="#141B34" stroke-width="2" stroke-linecap="round" stroke-linejoin="round"/>
<path d="M326.688 246.751C326.099 247.175 325.416 247.417 324.688 247.417M324.688 247.417C323.959 247.417 323.276 247.175 322.688 246.751M324.688 247.417V257.417" stroke="#141B34" stroke-width="2" stroke-linecap="round"/>
<rect width="81" height="81" transform="translate(366.188 203.584)" fill="#FAFAFA"/>
<path opacity="0.4" d="M413.771 256.832L416.885 254.458C418.181 253.47 418.829 252.975 418.665 252.529V231.196L412.977 236.008V257.342C413.201 257.266 413.391 257.122 413.771 256.832Z" fill="#141B34"/>
<path opacity="0.4" d="M400.942 231.335L397.829 233.71C396.532 234.698 395.884 235.192 396.048 235.638C396.213 236.084 397.043 236.084 398.702 236.084H412.023C412.509 236.084 412.752 236.084 412.977 236.009C413.202 235.934 413.392 235.789 413.771 235.5L416.885 233.125C418.181 232.137 418.829 231.643 418.665 231.197C418.501 230.751 417.671 230.751 416.011 230.751H402.69C402.204 230.751 401.961 230.751 401.736 230.826C401.512 230.901 401.322 231.046 400.942 231.335Z" fill="#141B34"/>
<path d="M400.942 231.335L397.829 233.71C396.532 234.698 395.884 235.192 396.048 235.638C396.213 236.084 397.043 236.084 398.702 236.084H412.023C412.509 236.084 412.752 236.084 412.977 236.009C413.202 235.934 413.392 235.789 413.771 235.5L416.885 233.125C418.181 232.137 418.829 231.643 418.665 231.197C418.501 230.751 417.671 230.751 416.011 230.751H402.69C402.204 230.751 401.961 230.751 401.736 230.826C401.512 230.901 401.322 231.046 400.942 231.335Z" stroke="#141B34" stroke-width="2"/>
<path d="M396.048 256.971C396.213 257.417 397.043 257.417 398.702 257.417H412.023C412.509 257.417 412.752 257.417 412.977 257.342M396.048 256.971C395.884 256.525 396.532 256.031 397.829 255.042L400.942 252.668C401.322 252.378 401.512 252.234 401.736 252.159M396.048 256.971V235.637M412.977 257.342C413.202 257.266 413.392 257.122 413.771 256.832L416.885 254.458C418.181 253.47 418.829 252.975 418.665 252.529V231.196M412.977 257.342V236.008M401.736 252.159C401.961 252.083 402.204 252.083 402.69 252.083H409.357M401.736 252.159V240.083" stroke="#141B34" stroke-width="2" stroke-linecap="round" stroke-linejoin="round"/>
<rect width="81" height="81" transform="translate(38.1875 285.584)" fill="white"/>
<path opacity="0.4" d="M92.0182 331.102V327.417C92.0182 322.631 88.1381 318.751 83.3516 318.751H82.6837C82.6757 317.301 82.6114 316.515 82.0992 316.003C81.5133 315.417 80.5705 315.417 78.6849 315.417H69.3516C67.4659 315.417 66.5231 315.417 65.9373 316.003C65.3516 316.589 65.3516 317.532 65.3516 319.417V330.084C65.3516 331.33 65.3516 331.953 65.6195 332.417C65.795 332.721 66.0475 332.974 66.3516 333.149C66.7912 333.403 67.3992 333.403 68.5214 333.402H68.6849C68.6932 331.568 70.1824 330.084 72.0182 330.084C73.8554 330.084 75.3454 331.57 75.3515 333.406C77.4578 333.407 79.8129 333.408 82.0182 333.408C82.023 331.572 83.5136 330.084 85.3516 330.084C87.1892 330.084 88.6794 331.571 88.6849 333.407C89.6564 333.406 90.2454 333.404 90.2656 333.402C91.1741 333.289 91.8897 332.573 92.0029 331.665C92.0182 331.541 92.0182 331.395 92.0182 331.102Z" fill="#141B34"/>
<path d="M88.6901 333.417C88.6901 335.258 87.1977 336.751 85.3568 336.751C83.5158 336.751 82.0234 335.258 82.0234 333.417C82.0234 331.576 83.5158 330.084 85.3568 330.084C87.1977 330.084 88.6901 331.576 88.6901 333.417Z" stroke="#141B34" stroke-width="2"/>
<path d="M75.3542 333.417C75.3542 335.258 73.8618 336.751 72.0208 336.751C70.1799 336.751 68.6875 335.258 68.6875 333.417C68.6875 331.576 70.1799 330.084 72.0208 330.084C73.8618 330.084 75.3542 331.576 75.3542 333.417Z" stroke="#141B34" stroke-width="2"/>
<path d="M82.0182 333.417H75.3516M88.6849 333.417H89.7025C89.9957 333.417 90.1424 333.417 90.2656 333.402C91.1741 333.289 91.8897 332.573 92.0029 331.665C92.0182 331.541 92.0182 331.395 92.0182 331.102V327.417C92.0182 322.631 88.1381 318.751 83.3516 318.751M82.6849 330.751V319.417C82.6849 317.532 82.6849 316.589 82.0992 316.003C81.5133 315.417 80.5705 315.417 78.6849 315.417H69.3516C67.4659 315.417 66.5231 315.417 65.9373 316.003C65.3516 316.589 65.3516 317.532 65.3516 319.417V330.084C65.3516 331.33 65.3516 331.953 65.6195 332.417C65.795 332.721 66.0475 332.974 66.3516 333.149C66.8157 333.417 67.4387 333.417 68.6849 333.417" stroke="#141B34" stroke-width="2" stroke-linecap="round" stroke-linejoin="round"/>
<rect width="81" height="81" transform="translate(120.188 285.584)" fill="#FAFAFA"/>
<path opacity="0.4" d="M152.718 314.118C151.352 315.485 151.352 317.684 151.352 322.084V330.084C151.352 334.484 151.352 336.684 152.718 338.051C154.085 339.418 156.285 339.418 160.685 339.418C165.085 339.418 167.284 339.418 168.651 338.051C170.018 336.684 170.018 334.484 170.018 330.084V322.084C170.018 317.684 170.018 315.485 168.651 314.118C167.781 313.247 166.573 312.931 164.674 312.816L164.566 313.463C164.309 315.006 164.18 315.777 163.651 316.247C163.099 316.737 162.317 316.751 160.685 316.751C159.053 316.751 158.27 316.737 157.718 316.247C157.189 315.777 157.061 315.006 156.804 313.463L156.696 312.816C154.797 312.931 153.589 313.247 152.718 314.118Z" fill="#141B34"/>
<path d="M151.352 322.084C151.352 317.684 151.352 315.484 152.718 314.118C154.085 312.751 156.285 312.751 160.685 312.751C165.085 312.751 167.284 312.751 168.651 314.118C170.018 315.484 170.018 317.684 170.018 322.084V330.084C170.018 334.484 170.018 336.684 168.651 338.051C167.284 339.417 165.085 339.417 160.685 339.417C156.285 339.417 154.085 339.417 152.718 338.051C151.352 336.684 151.352 334.484 151.352 330.084V322.084Z" stroke="#141B34" stroke-width="2" stroke-linecap="round"/>
<path d="M159.352 335.417H162.018" stroke="#141B34" stroke-width="2" stroke-linecap="round" stroke-linejoin="round"/>
<path d="M156.688 312.751L156.806 313.463C157.063 315.006 157.192 315.777 157.721 316.247C158.273 316.737 159.056 316.751 160.688 316.751C162.319 316.751 163.102 316.737 163.654 316.247C164.183 315.777 164.312 315.006 164.569 313.463L164.688 312.751" stroke="#141B34" stroke-width="2" stroke-linejoin="round"/>
<rect width="81" height="81" transform="translate(202.188 285.584)" fill="white"/>
<path opacity="0.4" d="M253.114 319.44L254.305 322.64L254.306 322.644C254.405 322.91 254.501 323.168 254.593 323.417H246.687L248.021 331.417H237.354L238.687 323.417H230.781C230.874 323.167 230.97 322.908 231.07 322.64L232.261 319.44C232.986 317.492 233.348 316.518 234.104 315.967C234.86 315.417 235.836 315.417 237.788 315.417H240.021L238.687 323.417H246.687L245.354 315.417H247.587C249.539 315.417 250.515 315.417 251.271 315.967C252.026 316.518 252.389 317.492 253.114 319.44Z" fill="#141B34"/>
<path d="M247.584 315.417H237.786C235.834 315.417 234.857 315.417 234.102 315.967C233.346 316.518 232.983 317.492 232.258 319.44L231.068 322.64C229.588 326.617 228.848 328.605 229.734 330.011C230.619 331.417 232.611 331.417 236.595 331.417H248.775C252.759 331.417 254.751 331.417 255.636 330.011C256.522 328.605 255.782 326.617 254.302 322.64L253.112 319.44C252.387 317.492 252.024 316.518 251.268 315.967C250.512 315.417 249.536 315.417 247.584 315.417Z" stroke="#141B34" stroke-width="2" stroke-linecap="round" stroke-linejoin="round"/>
<path d="M242.688 331.417V336.751M242.688 336.751H246.688M242.688 336.751H238.688" stroke="#141B34" stroke-width="2" stroke-linecap="round" stroke-linejoin="round"/>
<path d="M240.018 315.417L237.352 331.417" stroke="#141B34" stroke-width="2" stroke-linecap="round" stroke-linejoin="round"/>
<path d="M245.352 315.417L248.018 331.417" stroke="#141B34" stroke-width="2" stroke-linecap="round" stroke-linejoin="round"/>
<path d="M254.018 323.417H231.352" stroke="#141B34" stroke-width="2" stroke-linecap="round" stroke-linejoin="round"/>
<rect width="81" height="81" transform="translate(284.188 285.584)" fill="#FAFAFA"/>
<path opacity="0.4" d="M317.662 314.084H311.352V324.751L324.018 325.417L329.352 330.084L335.394 330.084C336.834 330.061 337.995 328.899 338.018 327.46C338.018 327.439 338.018 327.413 338.018 327.363C338.018 327.296 338.018 327.263 338.018 327.231C337.998 325.16 337.017 323.216 335.363 321.97C335.337 321.95 335.31 321.931 335.257 321.891L330.335 318.256C327.534 316.188 326.134 315.154 324.509 314.619C322.884 314.084 321.143 314.084 317.662 314.084Z" fill="#141B34"/>
<path d="M311.352 314.084H317.662C321.143 314.084 322.884 314.084 324.509 314.619C326.134 315.154 327.534 316.188 330.335 318.256L335.257 321.891C335.31 321.931 335.337 321.95 335.363 321.97C337.017 323.216 337.998 325.16 338.018 327.231C338.018 327.263 338.018 327.296 338.018 327.363C338.018 327.413 338.018 327.439 338.018 327.46C337.995 328.899 336.834 330.061 335.394 330.084C335.373 330.084 335.348 330.084 335.297 330.084H311.352" stroke="#141B34" stroke-width="2" stroke-linecap="round"/>
<path d="M311.352 324.751H316.812C320.27 324.751 321.999 324.751 323.599 325.352C325.199 325.953 326.549 327.111 329.25 329.426L330.018 330.084" stroke="#141B34" stroke-width="2" stroke-linecap="round"/>
<path d="M322.023 319.417H331.357" stroke="#141B34" stroke-width="2" stroke-linecap="round"/>
<path d="M311.352 335.417H338.018" stroke="#141B34" stroke-width="2" stroke-linecap="round"/>
<path d="M332.688 335.417V338.084" stroke="#141B34" stroke-width="2" stroke-linecap="round" stroke-linejoin="round"/>
<path d="M324.688 335.417V338.084" stroke="#141B34" stroke-width="2" stroke-linecap="round" stroke-linejoin="round"/>
<path d="M316.688 335.417V338.084" stroke="#141B34" stroke-width="2" stroke-linecap="round" stroke-linejoin="round"/>
<rect width="81" height="81" transform="translate(366.188 285.584)" fill="white"/>
<path opacity="0.4" d="M394.023 326.084C394.023 320.113 394.023 317.127 395.878 315.272C397.733 313.417 400.719 313.417 406.69 313.417C412.661 313.417 415.647 313.417 417.502 315.272C419.357 317.127 419.357 320.113 419.357 326.084C419.357 332.055 419.357 335.041 417.502 336.896C415.647 338.751 412.661 338.751 406.69 338.751C400.719 338.751 397.733 338.751 395.878 336.896C394.023 335.041 394.023 332.055 394.023 326.084Z" fill="#141B34"/>
<path d="M394.023 326.084C394.023 320.113 394.023 317.127 395.878 315.272C397.733 313.417 400.719 313.417 406.69 313.417C412.661 313.417 415.647 313.417 417.502 315.272C419.357 317.127 419.357 320.113 419.357 326.084C419.357 332.055 419.357 335.041 417.502 336.896C415.647 338.751 412.661 338.751 406.69 338.751C400.719 338.751 397.733 338.751 395.878 336.896C394.023 335.041 394.023 332.055 394.023 326.084Z" stroke="#141B34" stroke-width="2" stroke-linejoin="round"/>
<path d="M398.688 331.751C398.135 331.751 397.688 332.198 397.688 332.751C397.688 333.303 398.135 333.751 398.688 333.751V331.751ZM406.688 325.751C407.24 325.751 407.688 325.303 407.688 324.751C407.688 324.198 407.24 323.751 406.688 323.751V325.751ZM406.217 333.751C406.769 333.751 407.217 333.303 407.217 332.751C407.217 332.198 406.769 331.751 406.217 331.751V333.751ZM399.158 323.751C398.606 323.751 398.158 324.198 398.158 324.751C398.158 325.303 398.606 325.751 399.158 325.751V323.751ZM410.688 324.751L410.133 323.919C409.766 324.163 409.603 324.619 409.731 325.04C409.858 325.462 410.247 325.751 410.688 325.751V324.751ZM414.688 325.751C415.24 325.751 415.688 325.303 415.688 324.751C415.688 324.198 415.24 323.751 414.688 323.751V325.751ZM409.688 321.195C409.688 321.747 410.135 322.195 410.688 322.195C411.24 322.195 411.688 321.747 411.688 321.195H409.688ZM398.688 333.751C399.929 333.751 400.882 332.97 401.588 332.156C402.307 331.327 402.955 330.245 403.544 329.266L401.831 328.235C401.216 329.256 400.66 330.174 400.077 330.845C399.483 331.531 399.038 331.751 398.688 331.751V333.751ZM403.544 329.266C404.159 328.245 404.715 327.327 405.298 326.656C405.892 325.97 406.338 325.751 406.688 325.751V323.751C405.446 323.751 404.493 324.531 403.787 325.345C403.068 326.174 402.42 327.256 401.831 328.235L403.544 329.266ZM401.017 327.106L401.749 329.096L403.626 328.406L402.895 326.416L401.017 327.106ZM401.749 329.096L402.48 331.085L404.358 330.395L403.626 328.406L401.749 329.096ZM402.48 331.085C402.622 331.47 402.746 331.81 402.872 332.086C403.003 332.374 403.163 332.654 403.404 332.905L404.846 331.52C404.821 331.494 404.773 331.436 404.692 331.256C404.604 331.065 404.509 330.807 404.358 330.395L402.48 331.085ZM406.217 331.751C405.793 331.751 405.535 331.75 405.338 331.734C405.157 331.719 405.098 331.696 405.074 331.684L404.226 333.496C404.545 333.645 404.862 333.702 405.175 333.727C405.472 333.751 405.825 333.751 406.217 333.751V331.751ZM403.404 332.905C403.639 333.151 403.918 333.351 404.226 333.496L405.074 331.684C404.991 331.646 404.914 331.591 404.846 331.52L403.404 332.905ZM399.158 325.751C399.582 325.751 399.84 325.751 400.037 325.767C400.218 325.782 400.277 325.806 400.302 325.817L401.149 324.006C400.83 323.856 400.513 323.8 400.2 323.774C399.903 323.75 399.55 323.751 399.158 323.751V325.751ZM402.895 326.416C402.753 326.032 402.629 325.692 402.503 325.416C402.372 325.127 402.212 324.847 401.971 324.596L400.529 325.981C400.554 326.008 400.602 326.066 400.683 326.245C400.771 326.436 400.866 326.694 401.017 327.106L402.895 326.416ZM400.302 325.817C400.384 325.856 400.461 325.91 400.529 325.981L401.971 324.596C401.736 324.35 401.457 324.15 401.149 324.006L400.302 325.817ZM410.688 325.751H414.688V323.751H410.688V325.751ZM413.333 321.785L410.133 323.919L411.242 325.583L414.442 323.449L413.333 321.785ZM414.442 323.449C415.197 322.946 415.688 322.12 415.688 321.195H413.688C413.688 321.389 413.585 321.617 413.333 321.785L414.442 323.449ZM415.688 321.195C415.688 319.553 414.23 318.417 412.688 318.417V320.417C413.354 320.417 413.688 320.873 413.688 321.195H415.688ZM412.688 318.417C411.145 318.417 409.688 319.553 409.688 321.195H411.688C411.688 320.873 412.021 320.417 412.688 320.417V318.417Z" fill="#141B34"/>
<rect width="81" height="81" transform="translate(38.1875 367.584)" fill="#FAFAFA"/>
<path opacity="0.4" d="M72.7085 396.751C72.693 396.86 72.6849 396.971 72.6849 397.084C72.6849 398.373 73.7296 399.417 75.0182 399.417H82.3516C83.6402 399.417 84.6849 398.373 84.6849 397.084C84.6849 396.971 84.6769 396.86 84.6613 396.751H84.6797C86.7541 396.813 87.9909 397.044 88.8466 397.9C90.0182 399.073 90.0182 400.96 90.0182 404.735V413.41C90.0182 417.185 90.0182 419.072 88.8466 420.245C87.675 421.417 85.7894 421.417 82.0182 421.417H75.3516C71.5803 421.417 69.6947 421.417 68.5231 420.245C67.3516 419.072 67.3516 417.185 67.3516 413.41V404.735C67.3516 400.96 67.3516 399.073 68.5231 397.9C69.3789 397.044 70.6157 396.813 72.6901 396.751H72.7085Z" fill="#141B34"/>
<path d="M73.3516 413.417H78.6848M73.3516 406.751H84.0182" stroke="#141B34" stroke-width="2" stroke-linecap="round"/>
<path d="M72.6901 396.751C70.6157 396.813 69.3789 397.044 68.5231 397.9C67.3516 399.073 67.3516 400.96 67.3516 404.735V413.41C67.3516 417.185 67.3516 419.072 68.5231 420.245C69.6947 421.417 71.5803 421.417 75.3516 421.417H82.0182C85.7894 421.417 87.675 421.417 88.8466 420.245C90.0182 419.072 90.0182 417.185 90.0182 413.41V404.735C90.0182 400.96 90.0182 399.073 88.8466 397.9C87.9909 397.044 86.7541 396.813 84.6797 396.751" stroke="#141B34" stroke-width="2"/>
<path d="M72.6797 397.084C72.6797 395.795 73.7244 394.751 75.013 394.751H82.3464C83.635 394.751 84.6797 395.795 84.6797 397.084C84.6797 398.373 83.635 399.417 82.3464 399.417H75.013C73.7244 399.417 72.6797 398.373 72.6797 397.084Z" stroke="#141B34" stroke-width="2" stroke-linejoin="round"/>
<rect width="81" height="81" transform="translate(120.188 367.584)" fill="white"/>
<path opacity="0.4" d="M173.115 402.945L169.927 416.236C169.353 418.632 169.065 419.83 168.227 420.051C167.389 420.273 166.588 419.363 164.987 417.542L160.665 412.628L158.1 416.193C157.328 417.266 156.942 417.803 156.498 417.715C156.055 417.626 155.886 416.979 155.547 415.685L154.896 413.197C154.548 411.867 154.374 411.202 153.966 410.695C153.92 410.638 153.872 410.583 153.822 410.53C153.38 410.056 152.763 409.809 151.528 409.314C148.804 408.222 147.442 407.676 147.358 406.745C147.349 406.649 147.349 406.554 147.358 406.458C147.445 405.528 148.809 404.986 151.537 403.903L167.36 397.621C170.77 396.267 172.476 395.59 173.459 396.5C174.443 397.41 174.001 399.255 173.115 402.945Z" fill="#141B34"/>
<path d="M160.665 412.628L164.987 417.542C166.588 419.363 167.389 420.273 168.227 420.051C169.065 419.83 169.353 418.632 169.927 416.236L173.115 402.945C174.001 399.255 174.443 397.41 173.459 396.5C172.476 395.59 170.77 396.267 167.36 397.621L151.537 403.903C148.809 404.986 147.445 405.528 147.358 406.458C147.349 406.554 147.349 406.649 147.358 406.745C147.442 407.676 148.804 408.222 151.528 409.314C152.763 409.809 153.38 410.056 153.822 410.53C153.872 410.583 153.92 410.638 153.966 410.695C154.374 411.202 154.548 411.867 154.896 413.197L155.547 415.685C155.886 416.979 156.055 417.626 156.498 417.715C156.942 417.803 157.328 417.266 158.1 416.193L160.665 412.628ZM160.665 412.628L160.242 412.187C159.759 411.684 159.518 411.433 159.518 411.121C159.518 410.808 159.759 410.557 160.242 410.054L165.006 405.089" stroke="#141B34" stroke-width="2" stroke-linecap="round" stroke-linejoin="round"/>
<rect width="81" height="81" transform="translate(202.188 367.584)" fill="#FAFAFA"/>
<path opacity="0.4" d="M232.447 404.549L236.74 407.182C237.166 407.444 237.379 407.574 237.588 407.563C237.797 407.552 238.027 407.373 238.489 407.017C240.422 405.522 243.139 405.024 245.874 405.024C250.356 405.024 254.791 406.361 255.805 411.235C256.165 412.965 255.96 414.838 255.96 416.598C255.96 418.064 255.954 419.605 254.3 420.26C250.313 421.839 241.251 421.767 237.448 420.26C235.793 419.605 235.787 418.064 235.787 416.598C235.787 416.243 235.775 415.884 235.762 415.522C235.744 415.053 235.735 414.818 235.657 414.61C235.579 414.401 235.434 414.222 235.143 413.863L229.951 407.447C229.672 407.102 229.532 406.929 229.456 406.745C229.319 406.414 229.317 406.041 229.45 405.708C229.523 405.523 229.661 405.349 229.936 405C230.235 404.622 230.384 404.433 230.558 404.315C230.873 404.102 231.261 404.032 231.63 404.123C231.833 404.172 232.038 404.298 232.447 404.549Z" fill="#141B34"/>
<path d="M252.023 405.417V400.751C252.023 397.437 249.337 394.751 246.023 394.751C242.71 394.751 240.023 397.437 240.023 400.751V405.417" stroke="#141B34" stroke-width="2" stroke-linecap="round"/>
<path d="M237.263 406.33L232.97 403.696L231.924 405.401L236.217 408.035L237.263 406.33ZM229.174 408.076L234.366 414.492L235.92 413.233L230.729 406.818L229.174 408.076ZM234.787 416.598C234.787 417.295 234.78 418.212 235.045 419.038C235.335 419.945 235.947 420.741 237.079 421.19L237.816 419.33C237.294 419.123 237.075 418.821 236.949 418.428C236.797 417.954 236.787 417.367 236.787 416.598H234.787ZM237.079 421.19C239.158 422.013 242.526 422.408 245.802 422.417C249.079 422.426 252.495 422.051 254.668 421.19L253.932 419.33C252.118 420.049 249.009 420.426 245.808 420.417C242.605 420.408 239.541 420.013 237.816 419.33L237.079 421.19ZM245.874 406.024C248.035 406.024 250.081 406.35 251.675 407.187C253.224 408.001 254.384 409.313 254.826 411.438L256.784 411.031C256.212 408.283 254.648 406.49 252.605 405.417C250.607 404.367 248.194 404.024 245.874 404.024V406.024ZM254.96 416.598C254.96 417.367 254.95 417.954 254.798 418.428C254.672 418.821 254.454 419.123 253.932 419.33L254.668 421.19C255.8 420.741 256.412 419.945 256.703 419.038C256.967 418.212 256.96 417.295 256.96 416.598H254.96ZM254.826 411.438C254.985 412.201 255.024 413.021 255.018 413.898C255.015 414.336 255.001 414.777 254.987 415.23C254.973 415.679 254.96 416.141 254.96 416.598H256.96C256.96 416.175 256.972 415.742 256.986 415.291C257 414.844 257.014 414.378 257.018 413.912C257.024 412.981 256.985 411.998 256.784 411.031L254.826 411.438ZM245.874 404.024C243.057 404.024 240.071 404.53 237.877 406.225L239.1 407.808C240.774 406.514 243.222 406.024 245.874 406.024V404.024ZM236.787 416.598C236.787 416.223 236.775 415.847 236.761 415.484L234.762 415.559C234.776 415.92 234.787 416.263 234.787 416.598H236.787ZM234.366 414.492C234.518 414.68 234.605 414.788 234.665 414.872C234.692 414.91 234.706 414.933 234.713 414.946C234.717 414.952 234.719 414.956 234.719 414.958C234.72 414.96 234.72 414.96 234.721 414.961L236.593 414.259C236.445 413.863 236.169 413.541 235.92 413.233L234.366 414.492ZM236.761 415.484C236.746 415.083 236.742 414.655 236.593 414.259L234.721 414.961C234.729 414.982 234.742 415.023 234.762 415.559L236.761 415.484ZM229.151 404.38C228.917 404.677 228.662 404.985 228.521 405.337L230.378 406.079C230.375 406.088 230.379 406.07 230.434 405.993C230.493 405.909 230.577 405.802 230.721 405.619L229.151 404.38ZM230.729 406.818C230.583 406.637 230.497 406.531 230.437 406.448C230.381 406.372 230.376 406.354 230.38 406.363L228.532 407.127C228.677 407.478 228.936 407.782 229.174 408.076L230.729 406.818ZM228.521 405.337C228.291 405.912 228.295 406.555 228.532 407.127L230.38 406.363C230.343 406.272 230.342 406.17 230.378 406.079L228.521 405.337ZM232.97 403.696C232.624 403.484 232.261 403.248 231.868 403.151L231.392 405.094C231.378 405.09 231.395 405.091 231.486 405.14C231.584 405.193 231.71 405.27 231.924 405.401L232.97 403.696ZM230.721 405.619C230.877 405.422 230.97 405.305 231.044 405.221C231.112 405.143 231.129 405.136 231.118 405.143L229.998 403.487C229.663 403.713 229.404 404.06 229.151 404.38L230.721 405.619ZM231.868 403.151C231.224 402.994 230.546 403.116 229.998 403.487L231.118 405.143C231.2 405.088 231.299 405.071 231.392 405.094L231.868 403.151ZM236.217 408.035C236.412 408.154 236.622 408.285 236.811 408.376C237.013 408.473 237.296 408.58 237.642 408.562L237.534 406.565C237.671 406.557 237.744 406.605 237.68 406.574C237.649 406.559 237.603 406.534 237.529 406.491C237.456 406.448 237.372 406.397 237.263 406.33L236.217 408.035ZM237.877 406.225C237.76 406.316 237.666 406.389 237.584 406.45C237.502 406.511 237.445 406.551 237.404 406.577C237.305 406.641 237.375 406.573 237.534 406.565L237.642 408.562C238.01 408.542 238.299 408.379 238.483 408.261C238.671 408.141 238.885 407.975 239.1 407.808L237.877 406.225Z" fill="#141B34"/>
<path d="M246.023 404.084V402.084" stroke="#141B34" stroke-width="2" stroke-linecap="round"/>
<rect width="81" height="81" transform="translate(284.188 367.584)" fill="white"/>
<path opacity="0.4" fill-rule="evenodd" clip-rule="evenodd" d="M311.352 419.927V411.121C311.352 409.348 312.996 407.739 314.257 406.506C314.406 406.36 314.55 406.219 314.685 406.084H334.685C334.82 406.219 334.964 406.36 335.113 406.506C336.374 407.739 338.018 409.348 338.018 411.121V419.927C338.018 420.432 337.697 420.893 337.189 421.119L337.129 421.146C336.821 421.284 336.521 421.417 336.164 421.417H333.872C333.515 421.417 333.216 421.284 332.907 421.146L332.847 421.119C332.339 420.893 332.018 420.432 332.018 419.927V417.417H317.352V419.927C317.352 420.432 317.031 420.893 316.522 421.119L316.463 421.146C316.154 421.284 315.855 421.417 315.497 421.417H313.206C312.848 421.417 312.549 421.284 312.241 421.146L312.181 421.119C311.673 420.893 311.352 420.432 311.352 419.927ZM319.352 416.751L319.679 415.932C320.166 414.714 320.41 414.105 320.918 413.761C321.426 413.417 322.081 413.417 323.393 413.417H325.977C327.288 413.417 327.944 413.417 328.452 413.761C328.96 414.105 329.204 414.714 329.691 415.932L330.018 416.751H319.352Z" fill="#141B34"/>
<path d="M314.685 406.084H334.685C335.961 407.36 338.018 409.138 338.018 411.121V415.491C338.018 416.209 337.512 416.814 336.841 416.898L332.685 417.417H316.685L312.529 416.898C311.858 416.814 311.352 416.209 311.352 415.491V411.121C311.352 409.138 313.409 407.36 314.685 406.084Z" stroke="#141B34" stroke-width="2" stroke-linejoin="round"/>
<path d="M312.023 409.417L314.69 410.751" stroke="#141B34" stroke-width="2" stroke-linecap="round" stroke-linejoin="round"/>
<path d="M337.354 410.084L334.688 410.751" stroke="#141B34" stroke-width="2" stroke-linecap="round" stroke-linejoin="round"/>
<path d="M319.352 416.751L319.679 415.932C320.166 414.714 320.41 414.105 320.918 413.761C321.426 413.417 322.081 413.417 323.393 413.417H325.977C327.288 413.417 327.944 413.417 328.452 413.761C328.96 414.105 329.204 414.714 329.691 415.932L330.018 416.751" stroke="#141B34" stroke-width="2" stroke-linecap="round" stroke-linejoin="round"/>
<path d="M311.352 416.084V419.927C311.352 420.432 311.673 420.893 312.181 421.119C312.51 421.266 312.825 421.417 313.206 421.417H315.497C315.878 421.417 316.193 421.266 316.522 421.119C317.031 420.893 317.352 420.432 317.352 419.927V417.417" stroke="#141B34" stroke-width="2" stroke-linecap="round" stroke-linejoin="round"/>
<path d="M332.023 417.417V419.927C332.023 420.432 332.345 420.893 332.853 421.119C333.182 421.266 333.497 421.417 333.878 421.417H336.169C336.55 421.417 336.865 421.266 337.194 421.119C337.702 420.893 338.023 420.432 338.023 419.927V416.084" stroke="#141B34" stroke-width="2" stroke-linecap="round" stroke-linejoin="round"/>
<path d="M332.023 417.417V419.927C332.023 420.432 332.345 420.893 332.853 421.119C333.182 421.266 333.497 421.417 333.878 421.417H336.169C336.55 421.417 336.865 421.266 337.194 421.119C337.702 420.893 338.023 420.432 338.023 419.927V416.084" stroke="#141B34" stroke-width="2" stroke-linecap="round" stroke-linejoin="round"/>
<path d="M335.352 404.751L336.685 404.084" stroke="#141B34" stroke-width="2" stroke-linecap="round" stroke-linejoin="round"/>
<path d="M314.021 404.751L312.688 404.084" stroke="#141B34" stroke-width="2" stroke-linecap="round" stroke-linejoin="round"/>
<path opacity="0.4" d="M326.59 394.751H322.781C321.768 394.751 321.262 394.751 320.881 395.211C319.882 396.416 321.478 398.084 323.042 398.084H326.329C327.894 398.084 329.489 396.416 328.491 395.211C328.11 394.751 327.603 394.751 326.59 394.751Z" fill="#141B34"/>
<path d="M329.357 398.084C329.037 396.475 328.876 395.671 328.495 395.211C328.114 394.751 327.608 394.751 326.595 394.751H322.785C321.773 394.751 321.266 394.751 320.885 395.211C320.504 395.671 320.344 396.475 320.023 398.084" stroke="#141B34" stroke-width="2" stroke-linejoin="round"/>
<path d="M314.688 406.084L316.139 401.731C316.725 399.971 317.019 399.091 317.717 398.587C318.415 398.084 319.343 398.084 321.198 398.084H328.177C330.032 398.084 330.96 398.084 331.658 398.587C332.356 399.091 332.65 399.971 333.236 401.731L334.688 406.084" stroke="#141B34" stroke-width="2" stroke-linejoin="round"/>
<rect width="81" height="81" transform="translate(366.188 367.584)" fill="#FAFAFA"/>
<path opacity="0.4" d="M411.328 402.492L410.973 403.639C410.682 404.579 410.537 405.049 410.649 405.42C410.739 405.72 410.938 405.979 411.209 406.149C411.543 406.359 412.05 406.359 413.062 406.359H413.601C417.028 406.359 418.741 406.359 419.55 407.374C419.643 407.49 419.725 407.613 419.796 407.742C420.419 408.874 419.711 410.398 418.295 413.446C416.996 416.243 416.347 417.641 415.141 418.464C415.024 418.544 414.904 418.619 414.781 418.69C413.511 419.417 411.938 419.417 408.792 419.417H408.11C404.298 419.417 402.392 419.417 401.208 418.27C400.023 417.123 400.023 415.276 400.023 411.583V410.284C400.023 408.344 400.023 407.373 400.368 406.485C400.712 405.597 401.372 404.866 402.691 403.406L408.146 397.365C408.283 397.213 408.351 397.138 408.412 397.085C408.975 396.595 409.844 396.65 410.336 397.207C410.389 397.267 410.446 397.351 410.562 397.518C410.742 397.78 410.832 397.911 410.911 398.041C411.614 399.203 411.827 400.583 411.505 401.894C411.469 402.04 411.422 402.191 411.328 402.492Z" fill="#141B34"/>
<path d="M393.352 408.751C393.352 407.278 394.545 406.084 396.018 406.084C398.227 406.084 400.018 407.875 400.018 410.084V415.417C400.018 417.627 398.227 419.417 396.018 419.417C394.545 419.417 393.352 418.223 393.352 416.751V408.751Z" stroke="#141B34" stroke-width="2" stroke-linecap="round" stroke-linejoin="round"/>
<path d="M411.328 402.492L410.973 403.639C410.682 404.579 410.537 405.049 410.649 405.42C410.739 405.72 410.938 405.979 411.209 406.149C411.543 406.359 412.05 406.359 413.062 406.359H413.601C417.028 406.359 418.741 406.359 419.55 407.374C419.643 407.49 419.725 407.613 419.796 407.742C420.419 408.874 419.711 410.398 418.295 413.446C416.996 416.243 416.347 417.641 415.141 418.464C415.024 418.544 414.904 418.619 414.781 418.69C413.511 419.417 411.938 419.417 408.792 419.417H408.11C404.298 419.417 402.392 419.417 401.208 418.27C400.023 417.123 400.023 415.276 400.023 411.583V410.284C400.023 408.344 400.023 407.373 400.368 406.485C400.712 405.597 401.372 404.866 402.691 403.406L408.146 397.365C408.283 397.213 408.351 397.138 408.412 397.085C408.975 396.595 409.844 396.65 410.336 397.207C410.389 397.267 410.446 397.351 410.562 397.518C410.742 397.78 410.832 397.911 410.911 398.041C411.614 399.203 411.827 400.583 411.505 401.894C411.469 402.04 411.422 402.191 411.328 402.492Z" stroke="#141B34" stroke-width="2" stroke-linecap="round" stroke-linejoin="round"/>
<line x1="38.6875" y1="16.584" x2="38.6875" y2="470.584" stroke="#EFEFEF"/>
<line x1="16.1875" y1="39.084" x2="470.188" y2="39.084" stroke="#EFEFEF"/>
<line x1="16.1875" y1="121.084" x2="470.188" y2="121.084" stroke="#EFEFEF"/>
<line x1="16.1875" y1="203.084" x2="470.188" y2="203.084" stroke="#EFEFEF"/>
<line x1="16.1875" y1="285.084" x2="470.188" y2="285.084" stroke="#EFEFEF"/>
<line x1="16.1875" y1="367.084" x2="470.188" y2="367.084" stroke="#EFEFEF"/>
<line x1="16.1875" y1="449.084" x2="470.188" y2="449.084" stroke="#EFEFEF"/>
<line x1="119.688" y1="16.584" x2="119.688" y2="470.584" stroke="#EFEFEF"/>
<line x1="201.688" y1="16.584" x2="201.688" y2="470.584" stroke="#EFEFEF"/>
<line x1="283.688" y1="16.584" x2="283.688" y2="470.584" stroke="#EFEFEF"/>
<line x1="365.688" y1="16.584" x2="365.688" y2="470.584" stroke="#EFEFEF"/>
<line x1="447.688" y1="16.584" x2="447.688" y2="470.584" stroke="#EFEFEF"/>
<g filter="url(#filter0_f_624_16416)">
<ellipse cx="253.688" cy="499.584" rx="44" ry="273.5" transform="rotate(-90 253.688 499.584)" fill="white"/>
</g>
<g filter="url(#filter1_f_624_16416)">
<ellipse cx="253.688" cy="-10.416" rx="44" ry="273.5" transform="rotate(-90 253.688 -10.416)" fill="white"/>
</g>
<g filter="url(#filter2_f_624_16416)">
<ellipse cx="-6.8125" cy="243.084" rx="44" ry="273.5" fill="white"/>
</g>
<g filter="url(#filter3_f_624_16416)">
<ellipse cx="487.188" cy="243.084" rx="44" ry="273.5" fill="white"/>
</g>
</g>
<rect x="0.9375" y="1.33398" width="484.5" height="484.5" rx="15.25" stroke="#EFEFEF" stroke-width="1.5"/>
<defs>
<filter id="filter0_f_624_16416" x="-69.8125" y="405.584" width="647" height="188" filterUnits="userSpaceOnUse" color-interpolation-filters="sRGB">
<feFlood flood-opacity="0" result="BackgroundImageFix"/>
<feBlend mode="normal" in="SourceGraphic" in2="BackgroundImageFix" result="shape"/>
<feGaussianBlur stdDeviation="25" result="effect1_foregroundBlur_624_16416"/>
</filter>
<filter id="filter1_f_624_16416" x="-69.8125" y="-104.416" width="647" height="188" filterUnits="userSpaceOnUse" color-interpolation-filters="sRGB">
<feFlood flood-opacity="0" result="BackgroundImageFix"/>
<feBlend mode="normal" in="SourceGraphic" in2="BackgroundImageFix" result="shape"/>
<feGaussianBlur stdDeviation="25" result="effect1_foregroundBlur_624_16416"/>
</filter>
<filter id="filter2_f_624_16416" x="-100.812" y="-80.416" width="188" height="647" filterUnits="userSpaceOnUse" color-interpolation-filters="sRGB">
<feFlood flood-opacity="0" result="BackgroundImageFix"/>
<feBlend mode="normal" in="SourceGraphic" in2="BackgroundImageFix" result="shape"/>
<feGaussianBlur stdDeviation="25" result="effect1_foregroundBlur_624_16416"/>
</filter>
<filter id="filter3_f_624_16416" x="393.188" y="-80.416" width="188" height="647" filterUnits="userSpaceOnUse" color-interpolation-filters="sRGB">
<feFlood flood-opacity="0" result="BackgroundImageFix"/>
<feBlend mode="normal" in="SourceGraphic" in2="BackgroundImageFix" result="shape"/>
<feGaussianBlur stdDeviation="25" result="effect1_foregroundBlur_624_16416"/>
</filter>
<clipPath id="clip0_624_16416">
<rect x="0.1875" y="0.583984" width="486" height="486" rx="16" fill="white"/>
</clipPath>
</defs>
</svg>