<svg xmlns:xlink="http://www.w3.org/1999/xlink" xmlns="http://www.w3.org/2000/svg" width="487" height="487" viewBox="0 0 487 487" fill="none">
<g clip-path="url(#clip0_624_18828)">
<rect x="0.1875" y="0.583984" width="486" height="486" rx="16" fill="white"/>
<rect width="81" height="81" transform="translate(38.1875 39.584)" fill="#FAFAFA"/>
<path d="M68.0234 93.4172V66.7505H89.3568V93.4172L78.6901 88.0838L68.0234 93.4172Z" stroke="#141B34" stroke-width="2" stroke-linejoin="round"/>
<path d="M68.0234 66.7505V65.7505C67.7582 65.7505 67.5039 65.8558 67.3163 66.0434C67.1288 66.2309 67.0234 66.4853 67.0234 66.7505H68.0234ZM68.0234 93.4172H67.0234V95.0352L68.4707 94.3116L68.0234 93.4172ZM89.3568 66.7505H90.3568C90.3568 66.1982 89.909 65.7505 89.3568 65.7505V66.7505ZM89.3568 93.4172L88.9096 94.3116L90.3568 95.0352V93.4172H89.3568ZM78.6901 88.0838L79.1373 87.1894L78.6901 86.9658L78.2429 87.1894L78.6901 88.0838ZM67.0234 66.7505V93.4172H69.0234V66.7505H67.0234ZM88.3568 66.7505V93.4172H90.3568V66.7505H88.3568ZM89.804 92.5228L79.1373 87.1894L78.2429 88.9782L88.9096 94.3116L89.804 92.5228ZM68.0234 67.7505H89.3568V65.7505H68.0234V67.7505ZM68.4707 94.3116L79.1373 88.9782L78.2429 87.1894L67.5762 92.5228L68.4707 94.3116Z" fill="#141B34"/>
<rect width="81" height="81" transform="translate(120.188 39.584)" fill="white"/>
<path d="M164.622 66.7505H156.748V70.1925L154.225 71.6754L151.288 69.953L147.352 76.8813L150.287 78.6032L150.287 81.5646L147.352 83.2864L151.289 90.2146L154.225 88.4924L156.748 89.9752V93.4172H164.622V89.9752L167.145 88.4924L170.081 90.2146L174.018 83.2864L171.083 81.5646V78.603L174.018 76.8813L170.081 69.953L167.145 71.6753L164.622 70.1925V66.7505Z" stroke="#141B34" stroke-width="2" stroke-linejoin="round"/>
<path d="M156.023 85.4173C156.955 83.8071 158.696 82.7236 160.69 82.7236C162.684 82.7236 164.425 83.8071 165.357 85.4173M163.357 76.7507C163.357 78.2235 162.163 79.4173 160.69 79.4173C159.217 79.4173 158.023 78.2235 158.023 76.7507C158.023 75.2779 159.217 74.084 160.69 74.084C162.163 74.084 163.357 75.2779 163.357 76.7507Z" stroke="#141B34" stroke-width="2"/>
<rect width="81" height="81" transform="translate(202.188 39.584)" fill="#FAFAFA"/>
<path d="M229.352 73.4172H234.562L235.755 72.0839C236.733 70.8647 238.181 70.439 239.494 70.9842L242.018 72.0839M229.352 85.3729H234.685L237.325 87.0741C239.842 88.6966 241.101 89.508 242.472 89.4092C242.537 89.4045 242.602 89.3982 242.666 89.3906C244.031 89.2274 245.101 88.1933 247.24 86.1249L249.352 84.0838" stroke="#141B34" stroke-width="2" stroke-linejoin="round"/>
<path d="M252.021 73.7291L251.424 74.5312C251.596 74.6597 251.806 74.7291 252.021 74.7291V73.7291ZM239.278 75.0454L238.553 74.3571C238.545 74.365 238.538 74.3731 238.531 74.3814L239.278 75.0454ZM244.021 76.7506L244.784 76.1047L244.15 75.3554L243.389 75.9753L244.021 76.7506ZM251.354 85.4173L250.591 86.0632C250.781 86.2877 251.06 86.4173 251.354 86.4173V85.4173ZM241.823 78.5405L242.424 79.3404C242.434 79.3324 242.445 79.3243 242.455 79.3159L241.823 78.5405ZM256.021 72.7291H252.021V74.7291H256.021V72.7291ZM241.051 71.7242L238.553 74.3571L240.004 75.7338L242.502 73.1009L241.051 71.7242ZM243.257 77.3966L250.591 86.0632L252.117 84.7713L244.784 76.1047L243.257 77.3966ZM251.354 86.4173H256.021V84.4173H251.354V86.4173ZM238.531 78.9209C239.543 80.0608 241.192 80.2647 242.424 79.3404L241.223 77.7408C240.855 78.0173 240.373 77.9836 240.026 77.5928L238.531 78.9209ZM238.531 74.3814C237.406 75.647 237.406 77.6553 238.531 78.9209L240.026 77.5928C239.575 77.0849 239.575 76.2176 240.026 75.7096L238.531 74.3814ZM242.455 79.3159L244.652 77.526L243.389 75.9753L241.192 77.7652L242.455 79.3159ZM252.618 72.927L250.036 71.0041L248.841 72.6082L251.424 74.5312L252.618 72.927ZM245.645 71.7505H246.253V69.7505H245.645V71.7505ZM250.036 71.0041C248.943 70.1901 247.616 69.7505 246.253 69.7505V71.7505C247.186 71.7505 248.093 72.0513 248.841 72.6082L250.036 71.0041ZM242.502 73.1009C243.32 72.2387 244.457 71.7505 245.645 71.7505V69.7505C243.908 69.7505 242.247 70.4641 241.051 71.7242L242.502 73.1009Z" fill="#141B34"/>
<rect width="81" height="81" transform="translate(284.188 39.584)" fill="white"/>
<path d="M311.352 74.7504L310.837 73.8929C310.427 74.1393 310.248 74.6421 310.412 75.0922L311.352 74.7504ZM314.018 82.0838L313.078 82.4255C313.251 82.9003 313.751 83.1718 314.243 83.0582L314.018 82.0838ZM328.685 78.7504L328.4 77.7919L327.936 77.9299L327.756 78.3791L328.685 78.7504ZM337.018 76.271L336.756 75.306C336.748 75.3081 336.74 75.3103 336.732 75.3126L337.018 76.271ZM322.685 80.0838L323.634 80.4L324.198 78.7084L322.46 79.1094L322.685 80.0838ZM314.685 72.7504L315.466 72.1257C315.153 71.7349 314.6 71.6354 314.171 71.8929L314.685 72.7504ZM327.352 82.0838L327.668 83.0324C327.947 82.9394 328.171 82.7283 328.28 82.4551L327.352 82.0838ZM321.352 84.0838L320.403 83.7675C320.283 84.1268 320.377 84.5231 320.645 84.7908C320.912 85.0587 321.309 85.1522 321.668 85.0324L321.352 84.0838ZM327.114 71.5787L327.528 72.4893L327.542 72.4823L327.114 71.5787ZM317.352 76.0838L316.571 76.7084L317.069 77.3307L317.786 76.9844L317.352 76.0838ZM337.781 74.2525L338.592 73.6677L338.587 73.6614L337.781 74.2525ZM310.412 75.0922L313.078 82.4255L314.958 81.742L312.291 74.4087L310.412 75.0922ZM328.97 79.709L337.303 77.2295L336.732 75.3126L328.4 77.7919L328.97 79.709ZM314.243 83.0582L322.91 81.0582L322.46 79.1094L313.793 81.1094L314.243 83.0582ZM327.756 78.3791L326.423 81.7124L328.28 82.4551L329.614 79.1218L327.756 78.3791ZM327.035 81.1351L321.035 83.1351L321.668 85.0324L327.668 83.0324L327.035 81.1351ZM322.3 84.4L323.634 80.4L321.736 79.7675L320.403 83.7675L322.3 84.4ZM327.114 71.5787C326.7 70.6682 326.7 70.6682 326.7 70.6683C326.699 70.6687 326.697 70.6698 326.695 70.6706C326.692 70.6722 326.686 70.6746 326.679 70.6778C326.666 70.684 326.645 70.6934 326.618 70.7056C326.564 70.7301 326.485 70.7661 326.383 70.8124C326.18 70.9049 325.887 71.0384 325.527 71.2023C324.807 71.5303 323.822 71.9802 322.757 72.468C320.633 73.4418 318.183 74.5724 316.917 75.1831L317.786 76.9844C319.031 76.3839 321.462 75.262 323.591 74.2861C324.653 73.799 325.638 73.3498 326.356 73.0223C326.716 72.8585 327.008 72.7252 327.212 72.6329C327.313 72.5867 327.392 72.5508 327.446 72.5264C327.472 72.5142 327.493 72.5049 327.507 72.4986C327.514 72.4955 327.519 72.4932 327.522 72.4916C327.524 72.4908 327.525 72.4902 327.526 72.4898C327.527 72.4896 327.527 72.4894 327.528 72.4893C327.528 72.4894 327.528 72.4893 327.528 72.4893C327.528 72.4893 327.528 72.4892 327.114 71.5787ZM318.133 75.4591L315.466 72.1257L313.904 73.3751L316.571 76.7084L318.133 75.4591ZM338.587 73.6614C335.865 69.947 330.821 68.7144 326.686 70.6751L327.542 72.4823C330.822 70.927 334.827 71.9133 336.974 74.8436L338.587 73.6614ZM337.28 77.2361C338.73 76.8423 339.594 75.0572 338.592 73.6677L336.97 74.8372C337.023 74.9115 337.034 74.9934 336.996 75.0882C336.954 75.1935 336.865 75.2764 336.756 75.306L337.28 77.2361ZM314.171 71.8929L310.837 73.8929L311.866 75.6079L315.2 73.6079L314.171 71.8929Z" fill="#141B34"/>
<path d="M311.352 89.4175H332.685" stroke="#141B34" stroke-width="2" stroke-linejoin="round"/>
<rect width="81" height="81" transform="translate(366.188 39.584)" fill="#FAFAFA"/>
<path d="M414.685 88.0838V66.7505H393.352V88.0838H414.685Z" stroke="#141B34" stroke-width="2" stroke-linejoin="round"/>
<path d="M414.688 72.084H420.021V93.4173H398.688V88.084" stroke="#141B34" stroke-width="2" stroke-linejoin="round"/>
<path d="M393.352 78.9085C394.177 78.8036 395.011 78.7519 395.847 78.7536C399.383 78.6883 402.832 79.6523 405.58 81.4737C408.128 83.1631 409.918 85.4879 410.685 88.0839" stroke="#141B34" stroke-width="2" stroke-linejoin="round"/>
<path d="M408.023 73.4175H408.035" stroke="#141B34" stroke-width="2.66667" stroke-linecap="square" stroke-linejoin="round"/>
<rect width="81" height="81" transform="translate(38.1875 121.584)" fill="white"/>
<path d="M84.0234 163.417C84.0234 164.522 84.9189 165.417 86.0234 165.417C87.128 165.417 88.0234 164.522 88.0234 163.417C88.0234 162.313 87.128 161.417 86.0234 161.417C84.9189 161.417 84.0234 162.313 84.0234 163.417Z" stroke="#141B34" stroke-width="2"/>
<path d="M76.0182 154.084H86.6849M86.6849 154.084H92.0182V171.417H76.0182M86.6849 154.084V150.084H65.3516L65.3516 160.751" stroke="#141B34" stroke-width="2" stroke-linejoin="round"/>
<path d="M66.8516 172.084V164.084M69.3516 164.084V162.084M69.3516 174.084V172.084M66.8516 168.084H71.8516M71.8516 168.084C72.68 168.084 73.3516 168.756 73.3516 169.584V170.584C73.3516 171.412 72.68 172.084 71.8516 172.084H65.3516M71.8516 168.084C72.68 168.084 73.3516 167.412 73.3516 166.584V165.584C73.3516 164.756 72.68 164.084 71.8516 164.084H65.3516" stroke="#141B34" stroke-width="2" stroke-linecap="square"/>
<rect width="81" height="81" transform="translate(120.188 121.584)" fill="#FAFAFA"/>
<path d="M159.901 148.863L159.632 149.826L159.642 149.829L159.652 149.832L159.901 148.863ZM164.652 150.084L165.509 149.57L165.298 149.218L164.901 149.115L164.652 150.084ZM172.101 162.512L172.987 162.049L172.973 162.023L172.958 161.998L172.101 162.512ZM159.17 155.068L159.026 154.079L159.017 154.08L159.007 154.082L159.17 155.068ZM161.353 154.751L162.153 154.15L161.797 153.675L161.209 153.761L161.353 154.751ZM164.269 161.596L165.263 161.486L165.261 161.47L164.269 161.596ZM165.269 164.175L164.706 165.003L166.005 163.499L165.269 164.175ZM163.819 158.032L164.811 157.907L164.777 157.644L164.618 157.432L163.819 158.032ZM158.271 173.283L158.635 172.352L158.015 172.109L157.552 172.587L158.271 173.283ZM159.652 149.832L164.403 151.052L164.901 149.115L160.15 147.894L159.652 149.832ZM163.794 150.598L171.243 163.026L172.958 161.998L165.509 149.57L163.794 150.598ZM163.275 161.706C163.389 162.739 163.723 163.972 164.532 164.852L166.005 163.499C165.614 163.074 165.358 162.34 165.263 161.486L163.275 161.706ZM160.554 155.351L163.019 158.633L164.618 157.432L162.153 154.15L160.554 155.351ZM165.261 161.47L164.811 157.907L162.826 158.158L163.277 161.721L165.261 161.47ZM155.457 150.137C154.977 150.659 154.524 151.146 154.229 151.611C153.899 152.134 153.708 152.715 153.829 153.411L155.8 153.068C155.785 152.984 155.779 152.902 155.919 152.681C156.095 152.403 156.399 152.067 156.929 151.491L155.457 150.137ZM171.214 162.975C172.148 164.762 172.675 165.946 172.898 166.887C173.105 167.764 173.046 168.422 172.742 169.186L174.6 169.926C175.057 168.778 175.145 167.701 174.844 166.426C174.557 165.216 173.919 163.833 172.987 162.049L171.214 162.975ZM168.027 173.078C168.34 174.028 168.34 174.028 168.34 174.028C168.34 174.028 168.341 174.027 168.342 174.027C168.343 174.027 168.344 174.026 168.346 174.026C168.349 174.025 168.353 174.023 168.359 174.021C168.369 174.018 168.385 174.013 168.405 174.006C168.444 173.993 168.5 173.973 168.572 173.948C168.714 173.897 168.916 173.824 169.161 173.73C169.648 173.542 170.31 173.27 171.002 172.933C171.688 172.598 172.43 172.186 173.064 171.715C173.673 171.263 174.305 170.667 174.6 169.926L172.742 169.186C172.656 169.401 172.393 169.723 171.871 170.11C171.376 170.478 170.755 170.828 170.125 171.135C169.5 171.439 168.894 171.689 168.442 171.863C168.217 171.95 168.032 172.017 167.904 172.062C167.841 172.085 167.791 172.102 167.759 172.113C167.742 172.119 167.73 172.123 167.723 172.125C167.719 172.127 167.716 172.127 167.715 172.128C167.714 172.128 167.713 172.129 167.713 172.129C167.713 172.129 167.713 172.128 168.027 173.078ZM159.315 156.058L161.497 155.74L161.209 153.761L159.026 154.079L159.315 156.058ZM157.552 172.587C156.382 173.797 154.615 174.434 152.795 174.417C150.976 174.4 149.228 173.731 148.09 172.492L146.617 173.846C148.199 175.566 150.515 176.396 152.777 176.417C155.038 176.438 157.37 175.652 158.989 173.978L157.552 172.587ZM167.713 172.129C164.533 173.178 161.692 173.549 158.635 172.352L157.906 174.214C161.579 175.653 164.948 175.147 168.34 174.028L167.713 172.129ZM165.831 163.349C164.425 162.393 161.622 161.307 158.731 162.236L159.343 164.14C161.453 163.462 163.613 164.259 164.706 165.003L165.831 163.349ZM158.731 162.236C157.354 162.679 156.01 163.566 154.836 165.055L156.407 166.293C157.35 165.097 158.367 164.454 159.343 164.14L158.731 162.236ZM159.724 162.462C157.995 160.827 155.53 160.071 153.15 160.096C150.77 160.122 148.325 160.932 146.644 162.625L148.063 164.034C149.292 162.796 151.188 162.117 153.172 162.096C155.155 162.075 157.078 162.713 158.35 163.915L159.724 162.462ZM160.17 147.9C158.96 147.562 157.998 147.829 157.207 148.389C156.526 148.872 155.92 149.633 155.457 150.137L156.929 151.491C157.558 150.806 157.912 150.341 158.364 150.021C158.707 149.778 159.052 149.664 159.632 149.826L160.17 147.9ZM153.829 153.411C154.074 154.817 155.331 155.502 156.315 155.809C157.351 156.132 158.526 156.189 159.334 156.055L159.007 154.082C158.515 154.163 157.656 154.132 156.91 153.9C156.113 153.651 155.843 153.315 155.8 153.068L153.829 153.411Z" fill="#141B34"/>
<rect width="81" height="81" transform="translate(202.188 121.584)" fill="white"/>
<path d="M242.688 154.084V172.751" stroke="#141B34" stroke-width="2" stroke-linecap="round"/>
<path d="M242.685 154.106L242.396 155.063C242.584 155.12 242.785 155.12 242.974 155.063L242.685 154.106ZM229.352 150.084L229.64 149.127C229.337 149.035 229.009 149.093 228.755 149.281C228.501 149.47 228.352 149.768 228.352 150.084H229.352ZM229.352 170.084H228.352V170.828L229.064 171.042L229.352 170.084ZM256.018 150.084H257.018C257.018 149.768 256.868 149.47 256.614 149.281C256.361 149.093 256.032 149.035 255.729 149.127L256.018 150.084ZM256.018 170.084L256.306 171.042L257.018 170.828V170.084H256.018ZM242.685 174.084L242.398 175.042L242.685 175.128L242.972 175.042L242.685 174.084ZM242.974 153.148L229.64 149.127L229.063 151.041L242.396 155.063L242.974 153.148ZM228.352 150.084V170.084H230.352V150.084H228.352ZM242.974 155.063L256.307 151.041L255.729 149.127L242.396 153.148L242.974 155.063ZM255.018 150.084V170.084H257.018V150.084H255.018ZM229.064 171.042L242.398 175.042L242.972 173.126L229.639 169.126L229.064 171.042ZM255.731 169.126L242.398 173.126L242.972 175.042L256.306 171.042L255.731 169.126Z" fill="#141B34"/>
<rect width="81" height="81" transform="translate(284.188 121.584)" fill="#FAFAFA"/>
<path d="M319.352 173.03L319.735 172.106L319.337 171.941L318.943 172.117L319.352 173.03ZM314.018 175.417L313.053 175.157C312.952 175.53 313.075 175.927 313.369 176.178C313.663 176.428 314.074 176.488 314.427 176.33L314.018 175.417ZM315.352 170.462L316.317 170.722L316.474 170.141L316.033 169.731L315.352 170.462ZM324.685 147.75C316.819 147.75 310.352 153.822 310.352 161.417H312.352C312.352 155.022 317.825 149.75 324.685 149.75V147.75ZM337.018 161.417C337.018 167.812 331.544 173.084 324.685 173.084V175.084C332.551 175.084 339.018 169.012 339.018 161.417H337.018ZM318.968 173.953C320.722 174.681 322.656 175.084 324.685 175.084V173.084C322.922 173.084 321.248 172.734 319.735 172.106L318.968 173.953ZM318.943 172.117L313.61 174.504L314.427 176.33L319.76 173.942L318.943 172.117ZM310.352 161.417C310.352 165.257 312.013 168.72 314.67 171.194L316.033 169.731C313.753 167.607 312.352 164.663 312.352 161.417H310.352ZM314.984 175.677L316.317 170.722L314.386 170.203L313.053 175.157L314.984 175.677Z" fill="#141B34"/>
<path d="M330.023 148.75L334.023 152.75M334.023 152.75L338.023 156.75M334.023 152.75L338.023 148.75M334.023 152.75L330.023 156.75" stroke="#141B34" stroke-width="2" stroke-linejoin="round"/>
<path d="M324.679 162.084H324.691M330.006 162.084H330.018M319.352 162.084H319.364" stroke="#141B34" stroke-width="2.66667" stroke-linecap="square" stroke-linejoin="round"/>
<rect width="81" height="81" transform="translate(366.188 121.584)" fill="white"/>
<path d="M406.688 175.417H394.688V148.75H417.342V158.751" stroke="#141B34" stroke-width="2" stroke-linejoin="round"/>
<path d="M400.023 156.751H412.023M400.023 163.418H406.69" stroke="#141B34" stroke-width="2" stroke-linejoin="round"/>
<path d="M417.352 175.418L416.98 176.346L418.352 176.895V175.418H417.352ZM414.018 174.084L414.39 173.156L414.018 173.007L413.647 173.156L414.018 174.084ZM410.685 175.418H409.685V176.895L411.056 176.346L410.685 175.418ZM416.352 169.418V175.418H418.352V169.418H416.352ZM417.723 174.49L414.39 173.156L413.647 175.013L416.98 176.346L417.723 174.49ZM413.647 173.156L410.314 174.489L411.056 176.346L414.39 175.013L413.647 173.156ZM411.685 175.418V169.418H409.685V175.418H411.685ZM408.352 166.085C408.352 169.214 410.889 171.751 414.018 171.751V169.751C411.993 169.751 410.352 168.11 410.352 166.085H408.352ZM414.018 171.751C417.148 171.751 419.685 169.214 419.685 166.085H417.685C417.685 168.11 416.043 169.751 414.018 169.751V171.751ZM419.685 166.085C419.685 162.955 417.148 160.418 414.018 160.418V162.418C416.043 162.418 417.685 164.06 417.685 166.085H419.685ZM414.018 160.418C410.889 160.418 408.352 162.955 408.352 166.085H410.352C410.352 164.06 411.993 162.418 414.018 162.418V160.418Z" fill="#141B34"/>
<rect width="81" height="81" transform="translate(38.1875 203.584)" fill="#FAFAFA"/>
<path d="M66.6875 230.75L67.2422 229.918C66.9353 229.714 66.5408 229.695 66.2156 229.869C65.8905 230.043 65.6875 230.382 65.6875 230.75H66.6875ZM70.6875 233.417L70.1328 234.249L70.6875 234.619L71.2422 234.249L70.6875 233.417ZM74.6875 230.75L75.2422 229.918C74.9063 229.695 74.4687 229.695 74.1328 229.918L74.6875 230.75ZM78.6875 233.417L78.1328 234.249L78.6875 234.619L79.2422 234.249L78.6875 233.417ZM82.6875 230.75L83.2422 229.918C82.9063 229.695 82.4687 229.695 82.1328 229.918L82.6875 230.75ZM86.6875 233.417L86.1328 234.249L86.6875 234.619L87.2422 234.249L86.6875 233.417ZM90.6875 230.75H91.6875C91.6875 230.382 91.4846 230.043 91.1594 229.869C90.8342 229.695 90.4396 229.714 90.1328 229.918L90.6875 230.75ZM66.6875 257.417H65.6875C65.6875 257.786 65.8905 258.125 66.2156 258.299C66.5408 258.473 66.9353 258.454 67.2422 258.249L66.6875 257.417ZM70.6875 254.75L71.2422 253.918L70.6875 253.549L70.1328 253.918L70.6875 254.75ZM74.6875 257.417L74.1328 258.249C74.4687 258.473 74.9063 258.473 75.2422 258.249L74.6875 257.417ZM78.6875 254.75L79.2422 253.918L78.6875 253.549L78.1328 253.918L78.6875 254.75ZM82.6875 257.417L82.1328 258.249C82.4687 258.473 82.9063 258.473 83.2422 258.249L82.6875 257.417ZM86.6875 254.75L87.2422 253.918L86.6875 253.549L86.1328 253.918L86.6875 254.75ZM90.6875 257.417L90.1328 258.249C90.4396 258.454 90.8342 258.473 91.1594 258.299C91.4846 258.125 91.6875 257.786 91.6875 257.417H90.6875ZM66.1328 231.583L70.1328 234.249L71.2422 232.585L67.2422 229.918L66.1328 231.583ZM71.2422 234.249L75.2422 231.583L74.1328 229.918L70.1328 232.585L71.2422 234.249ZM74.1328 231.583L78.1328 234.249L79.2422 232.585L75.2422 229.918L74.1328 231.583ZM79.2422 234.249L83.2422 231.583L82.1328 229.918L78.1328 232.585L79.2422 234.249ZM82.1328 231.583L86.1328 234.249L87.2422 232.585L83.2422 229.918L82.1328 231.583ZM87.2422 234.249L91.2422 231.583L90.1328 229.918L86.1328 232.585L87.2422 234.249ZM67.2422 258.249L71.2422 255.582L70.1328 253.918L66.1328 256.585L67.2422 258.249ZM70.1328 255.582L74.1328 258.249L75.2422 256.585L71.2422 253.918L70.1328 255.582ZM75.2422 258.249L79.2422 255.582L78.1328 253.918L74.1328 256.585L75.2422 258.249ZM78.1328 255.582L82.1328 258.249L83.2422 256.585L79.2422 253.918L78.1328 255.582ZM83.2422 258.249L87.2422 255.582L86.1328 253.918L82.1328 256.585L83.2422 258.249ZM86.1328 255.582L90.1328 258.249L91.2422 256.585L87.2422 253.918L86.1328 255.582ZM89.6875 230.75V257.417H91.6875V230.75H89.6875ZM65.6875 230.75V257.417H67.6875V230.75H65.6875Z" fill="#141B34"/>
<path d="M82.6875 240.084L74.6875 248.084" stroke="#141B34" stroke-width="2" stroke-linecap="square" stroke-linejoin="round"/>
<path d="M82.6875 248.084H82.6755M74.6995 240.084H74.6875" stroke="#141B34" stroke-width="2.66667" stroke-linecap="square" stroke-linejoin="round"/>
<rect width="81" height="81" transform="translate(120.188 203.584)" fill="white"/>
<path d="M174.018 241.417V231.417H147.352V252.751H159.352" stroke="#141B34" stroke-width="2" stroke-linejoin="round"/>
<path d="M147.352 238.084H174.018" stroke="#141B34" stroke-width="2" stroke-linejoin="round"/>
<path d="M163.352 246.748V245.748C162.799 245.748 162.352 246.195 162.352 246.748H163.352ZM172.685 246.748V247.748H173.685V246.748H172.685ZM172.685 253.417V254.417C173.237 254.417 173.685 253.969 173.685 253.417H172.685ZM163.352 253.417V252.417H162.352V253.417H163.352ZM172.685 246.079H173.685V245.745L173.484 245.478L172.685 246.079ZM163.352 254.084H162.352V254.417L162.552 254.684L163.352 254.084ZM163.352 247.748H172.685V245.748H163.352V247.748ZM164.352 250.084V246.748H162.352V250.084H164.352ZM172.685 252.417H163.352V254.417H172.685V252.417ZM173.685 246.748V246.079H171.685V246.748H173.685ZM173.484 245.478L171.484 242.816L169.885 244.018L171.885 246.679L173.484 245.478ZM162.352 253.417V254.084H164.352V253.417H162.352ZM162.552 254.684L164.552 257.351L166.152 256.151L164.152 253.484L162.552 254.684ZM173.685 253.417V250.084H171.685V253.417H173.685Z" fill="#141B34"/>
<rect width="81" height="81" transform="translate(202.188 203.584)" fill="#FAFAFA"/>
<path d="M248.354 239.417L247.647 240.124L248.354 240.831L249.061 240.124L248.354 239.417ZM245.647 238.124L247.647 240.124L249.061 238.71L247.061 236.71L245.647 238.124ZM249.061 240.124L253.061 236.124L251.647 234.71L247.647 238.71L249.061 240.124ZM255.021 237.417C255.021 240.547 252.484 243.084 249.354 243.084V245.084C253.588 245.084 257.021 241.651 257.021 237.417H255.021ZM249.354 243.084C246.225 243.084 243.687 240.547 243.687 237.417H241.688C241.688 241.651 245.12 245.084 249.354 245.084V243.084ZM243.687 237.417C243.687 234.288 246.225 231.75 249.354 231.75V229.75C245.12 229.75 241.688 233.183 241.688 237.417H243.687ZM249.354 231.75C252.484 231.75 255.021 234.288 255.021 237.417H257.021C257.021 233.183 253.588 229.75 249.354 229.75V231.75Z" fill="#141B34"/>
<path d="M240.023 252.084H242.69M245.357 252.084H250.69" stroke="#141B34" stroke-width="2" stroke-miterlimit="10" stroke-linejoin="round"/>
<path d="M230.023 242.75H239.357" stroke="#141B34" stroke-width="2" stroke-linejoin="round"/>
<path d="M239.352 236.084H229.352V257.417H256.018V244.751" stroke="#141B34" stroke-width="2" stroke-linejoin="round"/>
<rect width="81" height="81" transform="translate(284.188 203.584)" fill="white"/>
<path d="M336.688 240.084L312.688 232.084L320.688 256.084L324.688 244.084L336.688 240.084Z" stroke="#141B34" stroke-width="2" stroke-linejoin="round"/>
<rect width="81" height="81" transform="translate(366.188 203.584)" fill="#FAFAFA"/>
<path d="M404.018 230.75H393.352V241.417H404.018V230.75Z" stroke="#141B34" stroke-width="2" stroke-linejoin="round"/>
<path d="M420.018 230.75H409.352V241.417H420.018V230.75Z" stroke="#141B34" stroke-width="2" stroke-linejoin="round"/>
<path d="M404.018 246.75H393.352V257.417H404.018V246.75Z" stroke="#141B34" stroke-width="2" stroke-linejoin="round"/>
<path d="M420.018 246.75H409.352V257.417H420.018V246.75Z" stroke="#141B34" stroke-width="2" stroke-linejoin="round"/>
<rect width="81" height="81" transform="translate(38.1875 285.584)" fill="white"/>
<path d="M74.6849 320.75V312.75H65.3516V320.75H74.6849Z" stroke="#141B34" stroke-width="2" stroke-linejoin="round"/>
<path d="M74.6849 339.417V331.417H65.3516V339.417H74.6849Z" stroke="#141B34" stroke-width="2" stroke-linejoin="round"/>
<path d="M92.0208 330.084V322.084H82.6875V330.084H92.0208Z" stroke="#141B34" stroke-width="2" stroke-linejoin="round"/>
<path d="M78.6875 326.085V316.75L74.6875 316.751M78.6875 326.085V335.417H74.6875M78.6875 326.085H82.6875" stroke="#141B34" stroke-width="2" stroke-linejoin="round"/>
<rect width="81" height="81" transform="translate(120.188 285.584)" fill="#FAFAFA"/>
<path d="M160.688 334.084V328.75" stroke="#141B34" stroke-width="2"/>
<path d="M170.687 339.417L174.02 322.084L160.687 312.75L147.352 322.084L150.687 339.417H170.687Z" stroke="#141B34" stroke-width="2" stroke-linejoin="round"/>
<rect width="81" height="81" transform="translate(202.188 285.584)" fill="white"/>
<path d="M250.688 316.75H234.688V312.75H250.688V316.75Z" stroke="#141B34" stroke-width="2" stroke-linecap="round"/>
<path d="M248.685 316.75L252.018 322.084V339.417H233.352V322.084L236.685 316.75" stroke="#141B34" stroke-width="2" stroke-linejoin="round"/>
<path d="M240.018 327.81V325.3L242.685 323.417L245.352 325.3V327.81M240.018 327.81L242.685 329.692M240.018 327.81L237.352 329.692V332.202L240.018 334.084L242.685 332.202M245.352 327.81L242.685 329.692M245.352 327.81L248.018 329.692V332.202L245.352 334.084L242.685 332.202M242.685 329.692V332.202" stroke="#141B34" stroke-width="2" stroke-linecap="round"/>
<rect width="81" height="81" transform="translate(284.188 285.584)" fill="#FAFAFA"/>
<path d="M338.018 339.417V340.417C338.57 340.417 339.018 339.969 339.018 339.417H338.018ZM311.352 339.417H310.352C310.352 339.969 310.799 340.417 311.352 340.417V339.417ZM311.352 312.75V311.75C310.799 311.75 310.352 312.198 310.352 312.75H311.352ZM338.018 327.417H339.018C339.018 326.865 338.57 326.417 338.018 326.417V327.417ZM323.352 327.417H322.352V328.417H323.352V327.417ZM323.352 312.75H324.352C324.352 312.198 323.904 311.75 323.352 311.75V312.75ZM338.018 338.417H311.352V340.417H338.018V338.417ZM312.352 339.417V312.75H310.352V339.417H312.352ZM338.018 326.417H323.352V328.417H338.018V326.417ZM324.352 327.417V312.75H322.352V327.417H324.352ZM337.018 327.417V339.417H339.018V327.417H337.018ZM323.352 311.75H311.352V313.75H323.352V311.75Z" fill="#141B34"/>
<rect width="81" height="81" transform="translate(366.188 285.584)" fill="white"/>
<path d="M394.754 334.56L394.064 333.836L394.053 333.847L394.754 334.56ZM416.924 313.417L417.682 312.765C417.503 312.557 417.247 312.432 416.973 312.419C416.7 312.405 416.432 312.505 416.234 312.694L416.924 313.417ZM417.07 324.195L417.8 324.877C417.81 324.867 417.819 324.857 417.828 324.847L417.07 324.195ZM408.182 333.704L407.492 334.428C407.685 334.612 407.944 334.711 408.211 334.704C408.477 334.696 408.73 334.582 408.912 334.387L408.182 333.704ZM404.838 330.517L405.528 329.793L404.795 329.095L404.106 329.836L404.838 330.517ZM395.444 335.284L417.614 314.141L416.234 312.694L394.064 333.836L395.444 335.284ZM416.339 323.512L407.451 333.021L408.912 334.387L417.8 324.877L416.339 323.512ZM395.455 337.319C394.879 336.752 394.879 335.84 395.455 335.273L394.053 333.847C392.68 335.198 392.68 337.394 394.053 338.744L395.455 337.319ZM397.755 337.111C397.229 337.868 396.121 337.973 395.455 337.319L394.053 338.744C395.596 340.264 398.16 340.033 399.397 338.253L397.755 337.111ZM404.838 330.517C404.106 329.836 404.106 329.836 404.106 329.836C404.106 329.836 404.105 329.837 404.105 329.837C404.104 329.838 404.103 329.839 404.102 329.84C404.099 329.843 404.096 329.847 404.091 329.852C404.081 329.863 404.067 329.878 404.048 329.898C404.01 329.939 403.955 329.999 403.884 330.075C403.743 330.228 403.54 330.447 403.292 330.717C402.798 331.255 402.125 331.991 401.415 332.782C400.016 334.339 398.401 336.182 397.755 337.111L399.397 338.253C399.956 337.449 401.472 335.71 402.902 334.118C403.607 333.335 404.274 332.604 404.765 332.07C405.011 331.803 405.212 331.585 405.352 331.433C405.422 331.358 405.476 331.299 405.513 331.259C405.532 331.239 405.546 331.224 405.555 331.214C405.56 331.209 405.564 331.205 405.566 331.203C405.567 331.201 405.568 331.2 405.569 331.2C405.569 331.2 405.569 331.199 405.569 331.2C405.569 331.2 405.57 331.199 404.838 330.517ZM417.828 324.847C419.11 323.355 420.176 321.573 420.336 319.486C420.499 317.367 419.715 315.127 417.682 312.765L416.166 314.07C417.95 316.142 418.454 317.877 418.342 319.333C418.228 320.819 417.458 322.209 416.311 323.543L417.828 324.847ZM408.871 332.98L405.528 329.793L404.148 331.241L407.492 334.428L408.871 332.98Z" fill="#141B34"/>
<rect width="81" height="81" transform="translate(38.1875 367.584)" fill="#FAFAFA"/>
<path d="M73.3528 402.75L74.0346 403.482L74.5822 402.972L74.2467 402.302L73.3528 402.75ZM69.3425 394.751L70.2365 394.302C70.1005 394.031 69.8488 393.836 69.5522 393.773C69.2556 393.709 68.9461 393.784 68.7109 393.975L69.3425 394.751ZM84.019 413.417L84.4672 412.523L83.798 412.188L83.2876 412.735L84.019 413.417ZM92.019 417.428L92.7944 418.059C92.986 417.824 93.0605 417.514 92.9969 417.218C92.9333 416.921 92.7384 416.67 92.4672 416.534L92.019 417.428ZM64.4897 402.376C64.8786 404.303 65.5265 406.205 66.8459 408.505L68.5807 407.509C67.3709 405.401 66.7977 403.703 66.4502 401.981L64.4897 402.376ZM68.3951 408.739L74.0346 403.482L72.6709 402.019L67.0314 407.276L68.3951 408.739ZM74.2467 402.302L70.2365 394.302L68.4486 395.199L72.4588 403.199L74.2467 402.302ZM68.7109 393.975C66.6947 395.618 63.6682 398.299 64.4897 402.376L66.4502 401.981C65.8905 399.202 67.8619 397.247 69.9742 395.526L68.7109 393.975ZM66.8459 408.505C68.1738 410.819 69.8751 413.01 71.8183 414.952L73.2325 413.538C71.4059 411.713 69.8147 409.66 68.5807 407.509L66.8459 408.505ZM84.7885 420.32C83.0669 419.972 81.3688 419.399 79.2602 418.189L78.2649 419.924C80.5645 421.244 82.4658 421.891 84.3929 422.28L84.7885 420.32ZM79.4941 419.739L84.7506 414.099L83.2876 412.735L78.031 418.375L79.4941 419.739ZM83.5709 414.311L91.5709 418.322L92.4672 416.534L84.4672 412.523L83.5709 414.311ZM91.2438 416.796C89.5229 418.908 87.5672 420.88 84.7885 420.32L84.3929 422.28C88.4706 423.102 91.1517 420.075 92.7944 418.059L91.2438 416.796ZM79.2602 418.189C77.1093 416.955 75.0579 415.365 73.2325 413.538L71.8183 414.952C73.76 416.895 75.9503 418.596 78.2649 419.924L79.2602 418.189Z" fill="#141B34"/>
<path d="M81.3516 396.084V399.817M87.9518 398.818L85.312 401.458M90.6849 405.417H86.9516" stroke="#141B34" stroke-width="2"/>
<rect width="81" height="81" transform="translate(120.188 367.584)" fill="white"/>
<path d="M147.352 396.084V395.084C146.799 395.084 146.352 395.532 146.352 396.084H147.352ZM174.018 396.084H175.018C175.018 395.532 174.57 395.084 174.018 395.084V396.084ZM147.352 402.751H146.352V403.751H147.352V402.751ZM174.018 402.751V403.751H175.018V402.751H174.018ZM147.352 397.084H174.018V395.084H147.352V397.084ZM147.352 403.751H174.018V401.751H147.352V403.751ZM148.352 402.751V396.084H146.352V402.751H148.352ZM173.018 396.084V402.751H175.018V396.084H173.018Z" fill="#141B34"/>
<path d="M148.688 420.084H147.688C147.688 420.636 148.135 421.084 148.688 421.084V420.084ZM164.021 413.417L163.314 412.71L162.607 413.417L163.314 414.124L164.021 413.417ZM147.688 402.75V420.084H149.688V402.75H147.688ZM173.688 409.417V402.75H171.688V409.417H173.688ZM164.021 414.417H168.688V412.417H164.021V414.417ZM171.021 416.75C171.021 418.039 169.977 419.084 168.688 419.084V421.084C171.081 421.084 173.021 419.144 173.021 416.75H171.021ZM168.688 414.417C169.977 414.417 171.021 415.462 171.021 416.75H173.021C173.021 414.357 171.081 412.417 168.688 412.417V414.417ZM166.647 409.377L163.314 412.71L164.729 414.124L168.061 410.791L166.647 409.377ZM168.061 416.043L164.729 412.71L163.314 414.124L166.647 417.458L168.061 416.043ZM148.688 421.084H168.688V419.084H148.688V421.084Z" fill="#141B34"/>
<path d="M157.352 406.75H164.018" stroke="#141B34" stroke-width="2"/>
<rect width="81" height="81" transform="translate(202.188 367.584)" fill="#FAFAFA"/>
<path d="M230.689 401.417L229.689 401.418L229.689 401.886L230.048 402.185L230.689 401.417ZM238.688 408.084L239.681 407.974L239.637 407.573L239.328 407.316L238.688 408.084ZM240.021 420.084L239.027 420.194C239.063 420.519 239.256 420.806 239.543 420.962C239.83 421.119 240.176 421.125 240.468 420.978L240.021 420.084ZM245.354 417.417L245.801 418.312L246.27 418.077L246.344 417.559L245.354 417.417ZM230.688 396.084V395.084C230.422 395.084 230.168 395.189 229.98 395.377C229.793 395.565 229.687 395.819 229.688 396.084L230.688 396.084ZM254.688 396.084H255.688C255.688 395.532 255.24 395.084 254.688 395.084V396.084ZM230.048 402.185L238.047 408.852L239.328 407.316L231.329 400.649L230.048 402.185ZM237.694 408.194L239.027 420.194L241.015 419.974L239.681 407.974L237.694 408.194ZM230.688 397.084H254.688V395.084H230.688V397.084ZM240.468 420.978L245.801 418.312L244.907 416.523L239.574 419.19L240.468 420.978ZM229.688 396.084L229.689 401.418L231.689 401.417L231.688 396.084L229.688 396.084ZM253.688 396.084V400.084H255.688V396.084H253.688ZM246.344 417.559L246.725 414.892L244.745 414.609L244.364 417.276L246.344 417.559Z" fill="#141B34"/>
<path d="M254.685 402.75L245.352 412.084M254.685 412.084L245.352 402.75" stroke="#141B34" stroke-width="2" stroke-linejoin="round"/>
<rect width="81" height="81" transform="translate(284.188 367.584)" fill="white"/>
<path d="M311.352 419.417H310.352C310.352 419.97 310.799 420.417 311.352 420.417V419.417ZM338.018 400.751H339.018C339.018 400.199 338.57 399.751 338.018 399.751V400.751ZM320.685 395.417L321.485 394.817L321.185 394.417H320.685V395.417ZM311.352 395.417V394.417C311.086 394.417 310.832 394.523 310.644 394.71C310.457 394.898 310.352 395.152 310.352 395.417H311.352ZM318.018 401.751H338.018V399.751H318.018V401.751ZM319.885 396.017L323.885 401.351L325.485 400.151L321.485 394.817L319.885 396.017ZM312.352 419.417V395.417H310.352V419.417H312.352ZM320.685 394.417L311.352 394.417V396.417L320.685 396.417V394.417ZM337.018 400.751V406.084H339.018V400.751H337.018ZM311.352 420.417H324.685V418.417H311.352V420.417Z" fill="#141B34"/>
<path d="M330.687 413.417V411.417C330.687 409.944 331.881 408.75 333.354 408.75C334.151 408.75 334.865 409.1 335.354 409.653M328.688 413.417H338.021V420.75H328.688V413.417Z" stroke="#141B34" stroke-width="2"/>
<rect width="81" height="81" transform="translate(366.188 367.584)" fill="#FAFAFA"/>
<path d="M417.352 405.417V421.417H393.352V397.417H405.352" stroke="#141B34" stroke-width="2" stroke-linejoin="round"/>
<path d="M396.023 421.417L409.357 409.417L417.357 414.751" stroke="#141B34" stroke-width="2"/>
<path d="M409.352 400.084L412.018 402.75L420.018 394.75" stroke="#141B34" stroke-width="2"/>
<line x1="38.6875" y1="16.584" x2="38.6875" y2="470.584" stroke="#EFEFEF"/>
<line x1="16.1875" y1="39.084" x2="470.188" y2="39.084" stroke="#EFEFEF"/>
<line x1="16.1875" y1="121.084" x2="470.188" y2="121.084" stroke="#EFEFEF"/>
<line x1="16.1875" y1="203.084" x2="470.188" y2="203.084" stroke="#EFEFEF"/>
<line x1="16.1875" y1="285.084" x2="470.188" y2="285.084" stroke="#EFEFEF"/>
<line x1="16.1875" y1="367.084" x2="470.188" y2="367.084" stroke="#EFEFEF"/>
<line x1="16.1875" y1="449.084" x2="470.188" y2="449.084" stroke="#EFEFEF"/>
<line x1="119.688" y1="16.584" x2="119.688" y2="470.584" stroke="#EFEFEF"/>
<line x1="201.688" y1="16.584" x2="201.688" y2="470.584" stroke="#EFEFEF"/>
<line x1="283.688" y1="16.584" x2="283.688" y2="470.584" stroke="#EFEFEF"/>
<line x1="365.688" y1="16.584" x2="365.688" y2="470.584" stroke="#EFEFEF"/>
<line x1="447.688" y1="16.584" x2="447.688" y2="470.584" stroke="#EFEFEF"/>
<g filter="url(#filter0_f_624_18828)">
<ellipse cx="253.688" cy="499.584" rx="44" ry="273.5" transform="rotate(-90 253.688 499.584)" fill="white"/>
</g>
<g filter="url(#filter1_f_624_18828)">
<ellipse cx="253.688" cy="-10.416" rx="44" ry="273.5" transform="rotate(-90 253.688 -10.416)" fill="white"/>
</g>
<g filter="url(#filter2_f_624_18828)">
<ellipse cx="-6.8125" cy="243.084" rx="44" ry="273.5" fill="white"/>
</g>
<g filter="url(#filter3_f_624_18828)">
<ellipse cx="487.188" cy="243.084" rx="44" ry="273.5" fill="white"/>
</g>
</g>
<rect x="0.9375" y="1.33398" width="484.5" height="484.5" rx="15.25" stroke="#EFEFEF" stroke-width="1.5"/>
<defs>
<filter id="filter0_f_624_18828" x="-69.8125" y="405.584" width="647" height="188" filterUnits="userSpaceOnUse" color-interpolation-filters="sRGB">
<feFlood flood-opacity="0" result="BackgroundImageFix"/>
<feBlend mode="normal" in="SourceGraphic" in2="BackgroundImageFix" result="shape"/>
<feGaussianBlur stdDeviation="25" result="effect1_foregroundBlur_624_18828"/>
</filter>
<filter id="filter1_f_624_18828" x="-69.8125" y="-104.416" width="647" height="188" filterUnits="userSpaceOnUse" color-interpolation-filters="sRGB">
<feFlood flood-opacity="0" result="BackgroundImageFix"/>
<feBlend mode="normal" in="SourceGraphic" in2="BackgroundImageFix" result="shape"/>
<feGaussianBlur stdDeviation="25" result="effect1_foregroundBlur_624_18828"/>
</filter>
<filter id="filter2_f_624_18828" x="-100.812" y="-80.416" width="188" height="647" filterUnits="userSpaceOnUse" color-interpolation-filters="sRGB">
<feFlood flood-opacity="0" result="BackgroundImageFix"/>
<feBlend mode="normal" in="SourceGraphic" in2="BackgroundImageFix" result="shape"/>
<feGaussianBlur stdDeviation="25" result="effect1_foregroundBlur_624_18828"/>
</filter>
<filter id="filter3_f_624_18828" x="393.188" y="-80.416" width="188" height="647" filterUnits="userSpaceOnUse" color-interpolation-filters="sRGB">
<feFlood flood-opacity="0" result="BackgroundImageFix"/>
<feBlend mode="normal" in="SourceGraphic" in2="BackgroundImageFix" result="shape"/>
<feGaussianBlur stdDeviation="25" result="effect1_foregroundBlur_624_18828"/>
</filter>
<clipPath id="clip0_624_18828">
<rect x="0.1875" y="0.583984" width="486" height="486" rx="16" fill="white"/>
</clipPath>
</defs>
</svg>