<svg xmlns:xlink="http://www.w3.org/1999/xlink" xmlns="http://www.w3.org/2000/svg" width="487" height="487" viewBox="0 0 487 487" fill="none">
<g clip-path="url(#clip0_624_14866)">
<rect x="0.1875" y="0.583984" width="486" height="486" rx="16" fill="white"/>
<rect width="81" height="81" transform="translate(38.1875 39.584)" fill="#FAFAFA"/>
<path fill-rule="evenodd" clip-rule="evenodd" d="M64.3516 79.5062C64.3516 71.8684 70.8119 65.7506 78.6849 65.7506C86.558 65.7506 93.0182 71.8684 93.0182 79.5062C93.0182 87.1439 86.558 93.2618 78.6849 93.2618C77.757 93.263 76.832 93.1771 75.9209 93.0061C75.6046 92.9466 75.4037 92.9091 75.2542 92.8887C75.1427 92.8715 75.0306 92.9131 74.9886 92.9361C74.8359 93.0086 74.6325 93.1165 74.3211 93.2821C72.4121 94.2973 70.1849 94.6573 68.0368 94.2577C67.69 94.1931 67.4028 93.9506 67.2811 93.6195C67.1594 93.2883 67.2212 92.9175 67.4438 92.6438C68.0675 91.8766 68.4964 90.9523 68.6861 89.9575C68.7374 89.6839 68.6213 89.3123 68.2642 88.9498C65.8445 86.4926 64.3516 83.1698 64.3516 79.5062ZM73.3516 78.7506C72.6152 78.7506 72.0182 79.3475 72.0182 80.0839C72.0182 80.8203 72.6152 81.4173 73.3516 81.4173H73.3635C74.0999 81.4173 74.6969 80.8203 74.6969 80.0839C74.6969 79.3475 74.0999 78.7506 73.3635 78.7506H73.3516ZM78.6789 78.7506C77.9425 78.7506 77.3456 79.3475 77.3456 80.0839C77.3456 80.8203 77.9425 81.4173 78.6789 81.4173H78.6909C79.4273 81.4173 80.0242 80.8203 80.0242 80.0839C80.0242 79.3475 79.4273 78.7506 78.6909 78.7506H78.6789ZM82.6729 80.0839C82.6729 79.3475 83.2698 78.7506 84.0062 78.7506H84.0182C84.7546 78.7506 85.3516 79.3475 85.3516 80.0839C85.3516 80.8203 84.7546 81.4173 84.0182 81.4173H84.0062C83.2698 81.4173 82.6729 80.8203 82.6729 80.0839Z" fill="#141B34"/>
<rect width="81" height="81" transform="translate(120.188 39.584)" fill="white"/>
<path d="M167.207 69.5355C169.006 68.7476 170.666 69.148 172.12 69.5541C172.729 69.7233 173.412 69.9127 173.831 70.2159C174.487 70.6896 174.917 71.4203 175.006 72.2257C175.073 72.8349 174.879 73.4469 174.73 74.0302C174.359 75.4778 173.877 77.1055 172.281 78.2525C171.681 78.6834 170.757 79.1577 170.018 79.5129C169.258 79.878 168.612 80.1556 168.527 80.1922L158.917 84.3196C157.785 84.8049 157.535 84.9388 157.368 85.134C156.59 86.0427 156.604 87.5593 156.32 88.6645C156.178 89.2201 155.781 89.83 155.326 90.2731C154.901 90.6863 154.128 91.2373 153.203 91.0453C152.251 90.8476 151.943 89.9708 151.837 89.1213L151.186 85.0361C151.145 84.7841 151.125 84.6583 151.063 84.5505C151 84.4429 150.9 84.3635 150.7 84.2043L147.433 81.5984C146.745 81.0867 146.125 80.3829 146.433 79.4545C146.731 78.5532 147.611 78.1689 148.178 78.0149C148.793 77.848 149.52 77.815 150.071 77.9689C151.191 78.2816 152.51 79.0518 153.707 78.8401C153.966 78.7944 154.21 78.6457 155.2 77.922L163.627 71.7741C163.703 71.719 164.269 71.3059 164.969 70.8392C165.651 70.385 166.529 69.8324 167.207 69.5355Z" fill="#141B34"/>
<path d="M162.301 84.6834C161.776 84.9086 161.514 85.0213 161.407 85.2535C161.3 85.4859 161.384 85.7583 161.553 86.3034L163.218 91.673C163.361 92.1339 163.649 92.7283 164.291 92.9791C164.932 93.2294 165.539 92.9858 165.932 92.7606C166.613 92.3697 167.18 91.8977 167.567 91.2463C167.952 90.5957 168.1 89.8634 168.119 89.0542L168.257 82.9466C168.266 82.573 168.27 82.3862 168.149 82.3047C168.028 82.2233 167.857 82.297 167.513 82.4445L162.301 84.6834Z" fill="#141B34"/>
<path d="M155.9 67.7341C155.156 67.3258 154.419 67.0773 153.634 67.0841C152.847 67.091 152.127 67.3531 151.416 67.7645C151.007 68.0008 150.481 68.4152 150.377 69.1098C150.273 69.8032 150.652 70.3627 150.994 70.7314L154.762 74.7385C155.146 75.1468 155.338 75.3509 155.589 75.3743C155.84 75.3977 156.066 75.2326 156.519 74.9023L161.183 71.4998C161.487 71.2774 161.64 71.1662 161.631 71.02C161.621 70.8738 161.456 70.783 161.125 70.6014L155.9 67.7341Z" fill="#141B34"/>
<rect width="81" height="81" transform="translate(202.188 39.584)" fill="#FAFAFA"/>
<path fill-rule="evenodd" clip-rule="evenodd" d="M240.501 66.7707C241.92 66.2996 243.45 66.2996 244.869 66.7707C246.282 67.2398 247.392 68.3526 248.507 69.916C249.618 71.4742 250.846 73.6468 252.429 76.4474L252.491 76.5573C254.074 79.3583 255.302 81.5308 256.067 83.2927C256.836 85.0631 257.218 86.5916 256.913 88.0602C256.605 89.5388 255.847 90.8834 254.742 91.8996C253.64 92.9134 252.139 93.3411 250.25 93.5464C248.371 93.7507 245.913 93.7507 242.75 93.7507H242.62C239.457 93.7507 236.999 93.7507 235.12 93.5464C233.231 93.3411 231.73 92.9134 230.628 91.8996C229.523 90.8834 228.764 89.5388 228.457 88.0602C228.151 86.5916 228.534 85.0631 229.303 83.2927C230.068 81.5308 231.296 79.3583 232.879 76.5573L232.941 76.4474C234.524 73.6468 235.752 71.4742 236.863 69.916C237.978 68.3526 239.087 67.2398 240.501 66.7707ZM241.352 86.7507C241.352 86.0143 241.946 85.4174 242.679 85.4174H242.691C243.424 85.4174 244.018 86.0143 244.018 86.7507C244.018 87.4871 243.424 88.084 242.691 88.084H242.679C241.946 88.084 241.352 87.4871 241.352 86.7507ZM241.352 81.4174C241.352 82.1538 241.948 82.7507 242.685 82.7507C243.421 82.7507 244.018 82.1538 244.018 81.4174V76.084C244.018 75.3476 243.421 74.7507 242.685 74.7507C241.948 74.7507 241.352 75.3476 241.352 76.084V81.4174Z" fill="#141B34"/>
<rect width="81" height="81" transform="translate(284.188 39.584)" fill="white"/>
<path d="M316.754 65.7506C317.952 65.7506 318.951 65.7505 319.744 65.8572C320.581 65.9697 321.337 66.2173 321.944 66.8246C322.552 67.4319 322.799 68.1876 322.912 69.0246C323.018 69.8177 323.018 70.8166 323.018 72.0146V74.8199C323.018 76.0179 323.018 77.0169 322.912 77.8099C322.799 78.647 322.552 79.4027 321.944 80.0099C321.337 80.6173 320.581 80.8649 319.744 80.9774C318.951 81.0841 317.952 81.0839 316.754 81.0839H316.616C315.418 81.0839 314.419 81.0841 313.626 80.9774C312.789 80.8649 312.033 80.6173 311.426 80.0099C310.818 79.4027 310.571 78.647 310.458 77.8099C310.351 77.0169 310.352 76.0179 310.352 74.82V72.0146C310.352 70.8167 310.351 69.8177 310.458 69.0246C310.571 68.1876 310.818 67.4319 311.426 66.8246C312.033 66.2173 312.789 65.9697 313.626 65.8572C314.419 65.7505 315.418 65.7506 316.616 65.7506H316.754Z" fill="#141B34"/>
<path d="M318.052 84.4174C318.645 84.4174 319.139 84.4174 319.545 84.4451C319.968 84.4739 320.368 84.536 320.755 84.6964C321.653 85.0686 322.367 85.7824 322.739 86.6808C322.9 87.068 322.962 87.4674 322.99 87.8902C323.018 88.2963 323.018 88.7911 323.018 89.3836V89.4511C323.018 90.0436 323.018 90.5384 322.99 90.9446C322.962 91.3674 322.9 91.7667 322.739 92.1539C322.367 93.0523 321.653 93.7662 320.755 94.1383C320.368 94.2987 319.968 94.3608 319.545 94.3896C319.139 94.4174 318.645 94.4174 318.052 94.4174H315.318C314.725 94.4174 314.231 94.4174 313.824 94.3896C313.402 94.3608 313.002 94.2987 312.615 94.1383C311.717 93.7662 311.003 93.0523 310.631 92.1539C310.47 91.7667 310.408 91.3674 310.379 90.9446C310.352 90.5384 310.352 90.0436 310.352 89.4511V89.3836C310.352 88.7911 310.352 88.2963 310.379 87.8902C310.408 87.4674 310.47 87.068 310.631 86.6808C311.003 85.7824 311.717 85.0686 312.615 84.6964C313.002 84.536 313.402 84.4739 313.824 84.4451C314.231 84.4174 314.725 84.4174 315.318 84.4174H318.052Z" fill="#141B34"/>
<path d="M332.754 79.084C333.952 79.084 334.951 79.0839 335.744 79.1905C336.581 79.3031 337.337 79.5507 337.944 80.158C338.552 80.7652 338.799 81.5209 338.912 82.358C339.018 83.1511 339.018 84.15 339.018 85.348V88.1533C339.018 89.3513 339.018 90.3503 338.912 91.1433C338.799 91.9804 338.552 92.7361 337.944 93.3433C337.337 93.9507 336.581 94.1982 335.744 94.3108C334.951 94.4174 333.952 94.4173 332.754 94.4173H332.616C331.418 94.4173 330.419 94.4174 329.626 94.3108C328.788 94.1982 328.033 93.9507 327.426 93.3433C326.818 92.7361 326.571 91.9804 326.458 91.1433C326.351 90.3503 326.352 89.3513 326.352 88.1533V85.348C326.352 84.15 326.351 83.1511 326.458 82.358C326.571 81.5209 326.818 80.7652 327.426 80.158C328.033 79.5507 328.788 79.3031 329.626 79.1905C330.419 79.0839 331.418 79.084 332.616 79.084H332.754Z" fill="#141B34"/>
<path d="M334.052 65.7506C334.644 65.7506 335.139 65.7506 335.545 65.7783C335.968 65.8072 336.368 65.8693 336.755 66.0297C337.653 66.4019 338.367 67.1157 338.739 68.0141C338.9 68.4013 338.962 68.8007 338.99 69.2235C339.018 69.6296 339.018 70.1243 339.018 70.7169V70.7843C339.018 71.3769 339.018 71.8716 338.99 72.2778C338.962 72.7006 338.9 73.0999 338.739 73.4871C338.367 74.3856 337.653 75.0994 336.755 75.4715C336.368 75.6319 335.968 75.6941 335.545 75.7229C335.139 75.7506 334.644 75.7506 334.052 75.7506H331.318C330.725 75.7506 330.23 75.7506 329.824 75.7229C329.402 75.6941 329.002 75.6319 328.615 75.4715C327.717 75.0994 327.003 74.3856 326.631 73.4871C326.47 73.0999 326.408 72.7006 326.379 72.2778C326.352 71.8716 326.352 71.3769 326.352 70.7843V70.7169C326.352 70.1243 326.352 69.6296 326.379 69.2235C326.408 68.8007 326.47 68.4013 326.631 68.0141C327.003 67.1157 327.717 66.4019 328.615 66.0297C329.002 65.8693 329.402 65.8072 329.824 65.7783C330.23 65.7506 330.725 65.7506 331.318 65.7506H334.052Z" fill="#141B34"/>
<rect width="81" height="81" transform="translate(366.188 39.584)" fill="#FAFAFA"/>
<path d="M400.021 84.2506C398.18 84.2506 396.688 85.743 396.688 87.5839C396.688 89.4249 398.18 90.9173 400.021 90.9173C401.862 90.9173 403.354 89.4249 403.354 87.5839C403.354 85.743 401.862 84.2506 400.021 84.2506Z" fill="#141B34"/>
<path d="M413.357 84.2506C411.516 84.2506 410.023 85.743 410.023 87.5839C410.023 89.4249 411.516 90.9173 413.357 90.9173C415.198 90.9173 416.69 89.4249 416.69 87.5839C416.69 85.743 415.198 84.2506 413.357 84.2506Z" fill="#141B34"/>
<path fill-rule="evenodd" clip-rule="evenodd" d="M410.416 69.3235C411.155 69.4014 411.829 69.5696 412.476 69.9603C413.116 70.3463 413.6 70.8705 414.053 71.4965C414.487 72.0951 414.978 72.9144 415.536 73.8461C416.278 75.0864 417.161 76.0391 418.208 76.8039C419.268 77.5774 420.122 78.201 420.593 79.2223C420.833 79.7442 420.931 80.2739 420.976 80.8365C421.004 81.1927 421.014 81.5969 421.017 82.0503C421.018 82.3011 421.019 82.4265 420.941 82.5051C420.863 82.5839 420.737 82.5839 420.485 82.5839H419.685C419.133 82.5839 418.685 83.0317 418.685 83.5839C418.685 84.1362 419.133 84.5839 419.685 84.5839H420.442C420.705 84.5839 420.837 84.5839 420.916 84.6699C420.996 84.7561 420.985 84.8833 420.964 85.1378C420.957 85.2189 420.95 85.2969 420.941 85.3714C420.86 86.0861 420.677 86.8022 420.171 87.4111C419.872 87.7367 419.504 87.9998 419.117 88.1879C418.924 88.2821 418.827 88.3293 418.716 88.3194C418.594 88.3086 418.472 88.2318 418.409 88.127C418.352 88.0319 418.352 87.8826 418.352 87.5839C418.352 84.8225 416.113 82.5839 413.352 82.5839C410.59 82.5839 408.352 84.8225 408.352 87.5839L408.352 87.6119C408.354 88.1027 408.356 88.3481 408.238 88.4661C408.121 88.5839 407.905 88.5839 407.473 88.5839H405.897C405.465 88.5839 405.249 88.5839 405.131 88.4661C405.014 88.3481 405.015 88.1027 405.018 87.6119L405.018 87.5839C405.018 84.8225 402.78 82.5839 400.018 82.5839C397.257 82.5839 395.018 84.8225 395.018 87.5839C395.018 87.7619 395.018 87.8509 394.998 87.9117C394.937 88.0993 394.73 88.2189 394.536 88.1783C394.474 88.1653 394.423 88.1359 394.321 88.0771C394.074 87.9346 393.82 87.7647 393.536 87.5757L393.453 87.5202C393.191 87.3455 392.855 87.1073 392.63 86.7297C392.391 86.3295 392.352 85.9083 392.352 85.537V79.5839C392.352 79.0317 392.799 78.5839 393.352 78.5839H405.152C405.403 78.5839 405.529 78.5839 405.607 78.5058C405.685 78.4277 405.685 78.3021 405.685 78.0506V70.5395C405.685 70.1977 405.82 69.8699 406.059 69.6281C406.299 69.3864 406.624 69.2506 406.963 69.2506L407.919 69.2506C408.895 69.2506 409.725 69.2506 410.416 69.3235ZM408.369 71.9848C408.414 71.8897 408.44 71.8793 408.492 71.8583C408.539 71.8398 408.589 71.8298 408.642 71.8301C409.28 71.8336 409.756 71.8458 410.152 71.8875C410.662 71.9413 410.94 72.0367 411.166 72.1729C411.4 72.3139 411.644 72.5397 411.992 73.0184C412.351 73.5142 412.755 74.1865 413.349 75.1789C413.891 76.0848 414.462 76.857 415.134 77.5475C415.594 78.0214 415.825 78.2582 415.756 78.4211C415.687 78.5841 415.371 78.5841 414.737 78.5841H413.748C412.737 78.5841 412.079 78.5819 411.575 78.513C411.11 78.4495 410.872 78.3399 410.679 78.1774C410.469 78.0006 410.264 77.7182 410.014 77.1342C409.758 76.539 409.5 75.7395 409.129 74.5844L408.38 72.2533C408.343 72.1377 408.324 72.0799 408.369 71.9848Z" fill="#141B34"/>
<g filter="url(#filter0_d_624_14866)">
<rect width="81" height="81" transform="translate(38.1875 121.584)" fill="white"/>
<path d="M83.8934 147.903C84.8852 147.666 85.9244 147.629 86.7656 148.36C87.5928 149.079 87.7326 150.114 87.6804 151.148C87.6289 152.167 87.3702 153.494 87.0537 155.117L84.0992 170.275C84.0076 170.744 83.5961 171.083 83.1176 171.083H74.2488C73.7711 171.083 73.3601 170.746 73.2677 170.277L71.9364 163.528C71.5054 161.343 71.1645 159.615 71.0586 158.207C70.9497 156.76 71.0771 155.534 71.6753 154.394C72.2753 153.25 73.2061 152.465 74.4477 151.766C75.6498 151.09 77.2393 150.444 79.2394 149.632L80.2217 149.233C81.7045 148.63 82.9261 148.134 83.8934 147.903Z" fill="#141B34"/>
<path fill-rule="evenodd" clip-rule="evenodd" d="M74.6028 168.751C73.7306 168.75 72.947 168.75 72.3127 168.836C71.6202 168.929 70.9098 169.145 70.3279 169.727C69.746 170.309 69.5298 171.019 69.4367 171.712C69.3597 172.284 69.3523 172.979 69.3516 173.751H68.6108C67.9153 173.751 67.3516 174.348 67.3516 175.084C67.3516 175.82 67.9153 176.417 68.6108 176.417H88.759C89.4545 176.417 90.0182 175.82 90.0182 175.084C90.0182 174.348 89.4545 173.751 88.759 173.751H88.0182C88.0176 172.979 88.0101 172.284 87.9332 171.712C87.84 171.019 87.6238 170.309 87.042 169.727C86.46 169.145 85.7496 168.929 85.0572 168.836C84.4229 168.75 83.6392 168.75 82.767 168.751H74.6028ZM85.3514 173.751C85.3501 172.963 85.3418 172.451 85.2902 172.067C85.2388 171.685 85.1657 171.621 85.157 171.613L85.1557 171.612C85.1481 171.603 85.0842 171.53 84.7018 171.479C84.2666 171.42 83.6654 171.417 82.6849 171.417H74.6849C73.7044 171.417 73.1032 171.42 72.668 171.479C72.2856 171.53 72.2217 171.603 72.2141 171.612L72.2128 171.613C72.2041 171.621 72.131 171.685 72.0796 172.067C72.028 172.451 72.0197 172.963 72.0184 173.751H85.3514Z" fill="#141B34"/>
</g>
<rect width="81" height="81" transform="translate(120.188 121.584)" fill="#FAFAFA"/>
<path d="M150.737 155.084L150.804 155.084L170.643 155.084C171.299 155.084 171.897 155.084 172.376 155.154C172.902 155.231 173.462 155.415 173.88 155.925C174.293 156.429 174.37 157.014 174.355 157.545C174.341 158.036 174.24 158.636 174.128 159.305L172.502 169.005C172.245 170.538 172.037 171.777 171.751 172.747C171.454 173.754 171.041 174.588 170.297 175.232C169.551 175.879 168.672 176.16 167.646 176.292C166.664 176.417 165.436 176.417 163.928 176.417H157.452C155.944 176.417 154.717 176.417 153.735 176.292C152.708 176.16 151.83 175.879 151.083 175.232C150.339 174.588 149.926 173.754 149.629 172.747C149.343 171.777 149.135 170.538 148.878 169.005L147.263 159.369L147.252 159.305C147.14 158.637 147.039 158.036 147.025 157.545C147.01 157.014 147.087 156.429 147.5 155.925C147.918 155.415 148.478 155.231 149.005 155.154C149.483 155.084 150.081 155.084 150.737 155.084Z" fill="#141B34"/>
<path fill-rule="evenodd" clip-rule="evenodd" d="M160.688 150.417C157.742 150.417 155.354 152.805 155.354 155.751V156.417C155.354 157.154 154.757 157.751 154.021 157.751C153.284 157.751 152.688 157.154 152.688 156.417V155.751C152.688 151.332 156.269 147.751 160.688 147.751C165.106 147.751 168.688 151.332 168.688 155.751V156.417C168.688 157.154 168.091 157.751 167.354 157.751C166.618 157.751 166.021 157.154 166.021 156.417V155.751C166.021 152.805 163.633 150.417 160.688 150.417Z" fill="#141B34"/>
<rect width="81" height="81" transform="translate(202.188 121.584)" fill="white"/>
<path d="M252.943 153.229C253.543 153.825 254.032 154.617 253.94 155.561L253.94 155.564C253.857 156.39 253.468 157.093 253.009 157.676C252.551 158.256 251.973 158.78 251.419 159.247C251.177 159.451 250.949 159.637 250.73 159.816C250.413 160.075 250.115 160.318 249.817 160.581C249.329 161.013 248.979 161.382 248.774 161.717C248.722 161.763 248.722 161.934 249.137 162.254L254.946 166.716C255.46 167.111 256.016 167.601 256.246 168.294C256.498 169.049 256.289 169.78 255.94 170.462C254.923 172.448 253.058 174.315 251.069 175.334C250.386 175.683 249.655 175.892 248.9 175.64C248.207 175.41 247.718 174.854 247.322 174.34L242.86 168.531C242.553 168.131 242.374 168.122 242.323 168.168C241.988 168.373 241.619 168.722 241.188 169.211C240.924 169.509 240.681 169.807 240.422 170.124C240.243 170.343 240.057 170.571 239.853 170.813C239.386 171.367 238.863 171.945 238.282 172.403C237.699 172.862 236.996 173.25 236.171 173.334L236.167 173.334C235.223 173.426 234.431 172.937 233.835 172.337C233.233 171.731 232.7 170.887 232.231 169.937C231.289 168.027 230.497 165.46 229.938 162.834C229.377 160.202 229.036 157.447 229.024 155.143C229.018 153.993 229.093 152.924 229.278 152.025C229.456 151.159 229.764 150.302 230.336 149.73C230.908 149.158 231.765 148.85 232.631 148.672C233.53 148.487 234.599 148.412 235.749 148.418C238.053 148.43 240.808 148.771 243.44 149.331C246.067 149.891 248.633 150.683 250.543 151.625C251.493 152.094 252.337 152.627 252.943 153.229Z" fill="#141B34"/>
<rect width="81" height="81" transform="translate(284.188 121.584)" fill="#FAFAFA"/>
<path d="M312.914 159.85C313.368 159.291 314.163 158.313 315.57 158.426C316.047 158.465 316.502 158.673 316.986 158.895C317.349 159.06 317.905 159.312 318.189 159.559C319.02 160.281 319.019 161.235 319.018 161.786V167.716C319.019 168.267 319.02 169.221 318.189 169.943C317.905 170.19 317.549 170.351 317.185 170.516C316.701 170.738 316.047 171.037 315.57 171.075C314.176 171.188 313.396 170.238 312.937 169.679C312.821 169.538 312.641 169.327 312.486 169.148C312.203 168.82 311.883 168.449 311.618 168.103C311.181 167.531 310.744 166.846 310.526 166.05C310.293 165.197 310.293 164.305 310.526 163.452C310.684 162.875 310.969 162.365 311.346 161.83C311.711 161.312 312.306 160.588 312.914 159.85Z" fill="#141B34"/>
<path d="M336.456 159.85C336.002 159.291 335.207 158.313 333.8 158.426C333.323 158.465 332.868 158.673 332.384 158.895C332.02 159.06 331.465 159.312 331.181 159.559C330.35 160.281 330.351 161.235 330.352 161.786V167.716C330.351 168.267 330.35 169.221 331.181 169.943C331.465 170.19 331.821 170.351 332.185 170.516C332.669 170.738 333.323 171.037 333.8 171.075C335.194 171.188 335.974 170.238 336.433 169.679C336.549 169.538 336.729 169.327 336.884 169.148C337.166 168.82 337.487 168.449 337.752 168.103C338.188 167.531 338.626 166.846 338.844 166.05C339.077 165.197 339.077 164.305 338.844 163.452C338.686 162.875 338.4 162.365 338.023 161.83C337.659 161.312 337.064 160.588 336.456 159.85Z" fill="#141B34"/>
<path fill-rule="evenodd" clip-rule="evenodd" d="M324.69 150.29C319.511 150.29 315.616 153.855 315.616 157.909V159.814C315.616 160.515 315.036 161.084 314.32 161.084C313.604 161.084 313.023 160.515 313.023 159.814V157.909C313.023 152.145 318.415 147.751 324.69 147.751C330.965 147.751 336.357 152.145 336.357 157.909V159.814C336.357 160.515 335.776 161.084 335.061 161.084C334.345 161.084 333.764 160.515 333.764 159.814V157.909C333.764 153.855 329.87 150.29 324.69 150.29Z" fill="#141B34"/>
<path fill-rule="evenodd" clip-rule="evenodd" d="M331.476 173.342C329.838 173.939 327.566 173.956 324.954 173.956C324.255 173.956 323.688 174.507 323.688 175.187C323.688 175.866 324.255 176.417 324.954 176.417C325.005 176.417 325.055 176.417 325.106 176.417C327.523 176.418 330.248 176.418 332.366 175.647C333.492 175.236 334.522 174.585 335.259 173.55C335.994 172.516 336.354 171.216 336.354 169.648C336.354 168.968 335.787 168.417 335.087 168.417C334.388 168.417 333.821 168.968 333.821 169.648C333.821 170.85 333.548 171.626 333.175 172.15C332.803 172.673 332.25 173.06 331.476 173.342Z" fill="#141B34"/>
<rect width="81" height="81" transform="translate(366.188 121.584)" fill="white"/>
<path fill-rule="evenodd" clip-rule="evenodd" d="M406.129 147.751H404.574C401.973 147.751 399.924 147.751 398.323 147.954C396.685 148.162 395.364 148.598 394.319 149.586C393.265 150.581 392.792 151.85 392.568 153.424C392.352 154.947 392.352 156.891 392.352 159.338V164.83C392.352 167.277 392.352 169.221 392.568 170.744C392.792 172.318 393.265 173.587 394.319 174.582C395.364 175.57 396.685 176.006 398.323 176.214C399.924 176.417 401.973 176.417 404.574 176.417H405.438C405.965 176.417 406.228 176.417 406.348 176.286C406.467 176.154 406.435 175.837 406.372 175.202C406.344 174.92 406.349 174.677 406.361 174.497C406.381 174.186 406.455 173.778 406.498 173.551C406.573 173.15 406.922 171.32 406.985 171.074C407.199 170.234 407.611 169.092 408.591 168.112L413.14 163.562C413.454 163.246 413.935 162.762 414.52 162.424C415.384 161.926 416.358 161.704 417.321 161.759C417.841 161.788 418.101 161.803 418.226 161.685C418.352 161.566 418.352 161.338 418.352 160.88V159.338C418.352 156.891 418.352 154.947 418.135 153.424C417.911 151.85 417.438 150.581 416.384 149.586C415.339 148.598 414.018 148.162 412.38 147.954C410.779 147.751 408.73 147.751 406.129 147.751ZM398.685 155.417C398.685 154.681 399.282 154.084 400.018 154.084H410.685C411.421 154.084 412.018 154.681 412.018 155.417C412.018 156.154 411.421 156.751 410.685 156.751H400.018C399.282 156.751 398.685 156.154 398.685 155.417ZM400.018 160.751C399.282 160.751 398.685 161.348 398.685 162.084C398.685 162.82 399.282 163.417 400.018 163.417H410.685C411.421 163.417 412.018 162.82 412.018 162.084C412.018 161.348 411.421 160.751 410.685 160.751H400.018Z" fill="#141B34"/>
<path d="M415.521 164.156C416.457 163.615 417.612 163.615 418.548 164.156C418.897 164.358 419.289 164.75 419.653 165.115C420.018 165.48 420.411 165.872 420.612 166.22C421.153 167.157 421.153 168.311 420.612 169.248C420.411 169.597 420.098 169.909 419.733 170.273L415.243 174.764C414.622 175.384 413.873 175.674 413.2 175.846C412.864 175.931 411.298 176.215 411.298 176.215C411.298 176.215 410.482 176.39 410.144 176.412C409.772 176.435 409.233 176.399 408.802 175.967C408.37 175.536 408.333 174.996 408.357 174.624C408.378 174.287 408.553 173.47 408.553 173.47C408.553 173.47 408.837 171.904 408.923 171.568C409.095 170.895 409.385 170.146 410.005 169.526L414.495 165.036C414.86 164.671 415.172 164.358 415.521 164.156Z" fill="#141B34"/>
<rect width="81" height="81" transform="translate(38.1875 203.584)" fill="#FAFAFA"/>
<path fill-rule="evenodd" clip-rule="evenodd" d="M70.7268 231.084C71.6246 231.084 72.3589 231.084 72.9557 231.133C73.5733 231.183 74.1312 231.291 74.6522 231.556C75.4676 231.972 76.1305 232.635 76.546 233.45C76.8114 233.971 76.919 234.529 76.9694 235.147C77.0182 235.743 77.0182 236.478 77.0182 237.375V250.793C77.0182 251.69 77.0182 252.425 76.9694 253.021C76.919 253.639 76.8114 254.197 76.546 254.718C76.1305 255.533 75.4676 256.196 74.6522 256.612C74.1312 256.877 73.5733 256.985 72.9557 257.035C72.3589 257.084 71.6246 257.084 70.7268 257.084H70.643C69.7452 257.084 69.0109 257.084 68.4141 257.035C67.7965 256.985 67.2386 256.877 66.7176 256.612C65.9022 256.196 65.2393 255.533 64.8239 254.718C64.5584 254.197 64.4508 253.639 64.4003 253.021C64.3515 252.425 64.3515 251.69 64.3516 250.793V237.375C64.3515 236.478 64.3515 235.743 64.4003 235.147C64.4508 234.529 64.5584 233.971 64.8239 233.45C65.2393 232.635 65.9022 231.972 66.7176 231.556C67.2386 231.291 67.7965 231.183 68.4141 231.133C69.0109 231.084 69.7452 231.084 70.643 231.084H70.7268ZM69.3516 250.751C69.3516 250.014 69.9485 249.417 70.6849 249.417H70.6969C71.4333 249.417 72.0302 250.014 72.0302 250.751C72.0302 251.487 71.4333 252.084 70.6969 252.084H70.6849C69.9485 252.084 69.3516 251.487 69.3516 250.751ZM74.3549 236.417C74.7207 236.417 75.0178 236.712 75.0181 237.078L75.0182 237.751C75.0182 238.119 74.7198 238.417 74.3516 238.417H67.0182C66.65 238.417 66.3516 238.119 66.3516 237.751L66.3517 237.078C66.352 236.712 66.6491 236.417 67.0149 236.417H74.3549Z" fill="#141B34"/>
<path fill-rule="evenodd" clip-rule="evenodd" d="M83.5457 231.187C84.1443 231.077 84.7029 231.037 85.2675 231.158C86.1493 231.346 86.9483 231.809 87.5506 232.481C87.9359 232.911 88.1799 233.415 88.3845 233.99C88.5821 234.545 88.7683 235.243 88.9957 236.095L92.3969 248.842C92.6243 249.694 92.8107 250.392 92.9159 250.972C93.0249 251.573 93.0647 252.132 92.9451 252.696C92.7583 253.579 92.2978 254.381 91.6287 254.986C91.2005 255.373 90.697 255.618 90.1241 255.824C89.571 256.023 88.8758 256.21 88.0273 256.438L87.9458 256.46C87.0973 256.688 86.4018 256.875 85.8241 256.981C85.2254 257.091 84.6667 257.131 84.1022 257.01C83.2205 256.822 82.4214 256.359 81.8191 255.687C81.4338 255.257 81.1898 254.753 80.9853 254.178C80.7877 253.623 80.6014 252.925 80.3741 252.073L76.9727 239.326C76.7453 238.474 76.559 237.776 76.4538 237.196C76.3449 236.595 76.305 236.036 76.4245 235.472C76.6114 234.589 77.0719 233.787 77.741 233.182C78.1693 232.795 78.6726 232.55 79.2457 232.344C79.7987 232.145 80.4942 231.958 81.3429 231.73L81.4238 231.708C82.2723 231.48 82.9678 231.293 83.5457 231.187ZM85.1057 250.688C84.915 249.976 85.3371 249.245 86.0485 249.055L86.0601 249.052C86.7713 248.861 87.5025 249.283 87.693 249.994C87.8835 250.706 87.4615 251.437 86.7502 251.627L86.7386 251.631C86.0274 251.821 85.2962 251.399 85.1057 250.688ZM86.8703 235.892C86.9327 236.121 87.0001 236.373 87.0746 236.653C87.1523 236.944 86.9859 237.244 86.6979 237.333L79.7939 239.457C79.4326 239.568 79.0513 239.357 78.9538 238.992L78.9165 238.852C78.8678 238.67 78.8222 238.499 78.7798 238.338C78.6891 237.995 78.8869 237.644 79.2258 237.54L86.0431 235.442C86.3978 235.333 86.7727 235.534 86.8703 235.892Z" fill="#141B34"/>
<rect width="81" height="81" transform="translate(120.188 203.584)" fill="white"/>
<path fill-rule="evenodd" clip-rule="evenodd" d="M160.129 229.751H158.574C155.973 229.751 153.924 229.751 152.323 229.954C150.685 230.162 149.364 230.598 148.319 231.586C147.265 232.581 146.792 233.85 146.568 235.424C146.352 236.947 146.352 238.891 146.352 241.338V246.83C146.352 249.277 146.352 251.221 146.568 252.744C146.792 254.318 147.265 255.587 148.319 256.582C149.364 257.57 150.685 258.006 152.323 258.214C153.924 258.417 155.973 258.417 158.574 258.417H159.438C159.965 258.417 160.228 258.417 160.348 258.286C160.467 258.154 160.435 257.837 160.372 257.202C160.344 256.92 160.349 256.677 160.361 256.497C160.381 256.186 160.455 255.778 160.498 255.551C160.573 255.15 160.922 253.32 160.985 253.074C161.199 252.234 161.611 251.092 162.591 250.112L167.14 245.562C167.454 245.246 167.935 244.762 168.52 244.424C169.384 243.926 170.358 243.704 171.321 243.759C171.841 243.788 172.101 243.803 172.226 243.685C172.352 243.566 172.352 243.338 172.352 242.88V241.338C172.352 238.891 172.352 236.947 172.135 235.424C171.911 233.85 171.438 232.581 170.384 231.586C169.339 230.598 168.018 230.162 166.38 229.954C164.779 229.751 162.73 229.751 160.129 229.751ZM152.685 237.417C152.685 236.681 153.282 236.084 154.018 236.084H164.685C165.421 236.084 166.018 236.681 166.018 237.417C166.018 238.154 165.421 238.751 164.685 238.751H154.018C153.282 238.751 152.685 238.154 152.685 237.417ZM154.018 242.751C153.282 242.751 152.685 243.348 152.685 244.084C152.685 244.82 153.282 245.417 154.018 245.417H164.685C165.421 245.417 166.018 244.82 166.018 244.084C166.018 243.348 165.421 242.751 164.685 242.751H154.018Z" fill="#141B34"/>
<path d="M169.521 246.156C170.457 245.615 171.612 245.615 172.548 246.156C172.897 246.358 173.289 246.75 173.653 247.115C174.018 247.48 174.411 247.872 174.612 248.22C175.153 249.157 175.153 250.311 174.612 251.248C174.411 251.597 174.098 251.909 173.733 252.273L169.243 256.764C168.622 257.384 167.873 257.674 167.2 257.846C166.864 257.931 165.298 258.215 165.298 258.215C165.298 258.215 164.482 258.39 164.144 258.412C163.772 258.435 163.233 258.399 162.802 257.967C162.37 257.536 162.333 256.996 162.357 256.624C162.378 256.287 162.553 255.47 162.553 255.47C162.553 255.47 162.837 253.904 162.923 253.568C163.095 252.895 163.385 252.146 164.005 251.526L168.495 247.036C168.86 246.671 169.172 246.358 169.521 246.156Z" fill="#141B34"/>
<rect width="81" height="81" transform="translate(202.188 203.584)" fill="#FAFAFA"/>
<path fill-rule="evenodd" clip-rule="evenodd" d="M246.578 231.8C243.974 231.734 241.396 231.734 238.792 231.8L238.714 231.802C236.681 231.853 235.045 231.894 233.734 232.122C232.361 232.361 231.246 232.82 230.303 233.766C229.365 234.708 228.908 235.807 228.674 237.158C228.451 238.444 228.417 240.04 228.374 242.017L228.373 242.095C228.344 243.424 228.344 244.744 228.373 246.073L228.374 246.151C228.417 248.128 228.451 249.724 228.674 251.01C228.908 252.36 229.365 253.46 230.303 254.402C231.246 255.348 232.361 255.807 233.734 256.046C235.045 256.274 236.681 256.315 238.714 256.366L238.792 256.368C241.396 256.434 243.974 256.434 246.578 256.368L246.656 256.366C248.689 256.315 250.325 256.274 251.636 256.046C253.009 255.807 254.124 255.348 255.067 254.402C256.005 253.46 256.461 252.36 256.696 251.01C256.919 249.724 256.953 248.128 256.995 246.151L256.997 246.073C257.025 244.744 257.025 243.424 256.997 242.095L256.995 242.017C256.953 240.04 256.919 238.444 256.696 237.158C256.461 235.807 256.005 234.708 255.067 233.766C254.124 232.82 253.009 232.361 251.636 232.122C250.325 231.894 248.689 231.853 246.656 231.802L246.578 231.8ZM236.527 238.557C236.052 238.276 235.439 238.433 235.158 238.908C234.877 239.384 235.034 239.997 235.509 240.278L239.432 242.597C240.593 243.284 241.595 243.751 242.685 243.751C243.775 243.751 244.777 243.284 245.938 242.597L249.861 240.278C250.336 239.997 250.494 239.384 250.212 238.908C249.931 238.433 249.318 238.276 248.843 238.557L244.92 240.876C243.794 241.542 243.196 241.751 242.685 241.751C242.174 241.751 241.576 241.542 240.45 240.876L236.527 238.557Z" fill="#141B34"/>
<rect width="81" height="81" transform="translate(284.188 203.584)" fill="white"/>
<path fill-rule="evenodd" clip-rule="evenodd" d="M332.754 231.084C333.952 231.084 334.951 231.084 335.744 231.191C336.581 231.303 337.337 231.551 337.944 232.158C338.552 232.765 338.799 233.521 338.912 234.358C339.018 235.151 339.018 236.15 339.018 237.348V248.153C339.018 249.351 339.018 250.35 338.912 251.143C338.799 251.98 338.552 252.736 337.944 253.343C337.337 253.951 336.581 254.198 335.744 254.311C334.951 254.417 333.952 254.417 332.754 254.417H316.616C315.418 254.417 314.419 254.417 313.626 254.311C312.789 254.198 312.033 253.951 311.426 253.343C310.818 252.736 310.571 251.98 310.458 251.143C310.351 250.35 310.352 249.351 310.352 248.153V237.348C310.352 236.15 310.351 235.151 310.458 234.358C310.571 233.521 310.818 232.765 311.426 232.158C312.033 231.551 312.789 231.303 313.626 231.191C314.419 231.084 315.418 231.084 316.616 231.084H332.754ZM334.018 236.084C334.755 236.084 335.352 236.681 335.352 237.417V237.429C335.352 238.166 334.755 238.763 334.018 238.763C333.282 238.763 332.685 238.166 332.685 237.429V237.417C332.685 236.681 333.282 236.084 334.018 236.084ZM334.018 240.078C334.755 240.078 335.352 240.675 335.352 241.411V241.423C335.352 242.16 334.755 242.757 334.018 242.757C333.282 242.757 332.685 242.16 332.685 241.423V241.411C332.685 240.675 333.282 240.078 334.018 240.078ZM334.018 244.072C334.755 244.072 335.352 244.669 335.352 245.405V245.417C335.352 246.154 334.755 246.751 334.018 246.751C333.282 246.751 332.685 246.154 332.685 245.417V245.405C332.685 244.669 333.282 244.072 334.018 244.072ZM314.018 238.751V246.751C314.018 248.008 314.018 248.636 314.409 249.027C314.799 249.417 315.428 249.417 316.685 249.417H326.018C327.275 249.417 327.904 249.417 328.294 249.027C328.685 248.636 328.685 248.008 328.685 246.751V238.751C328.685 237.494 328.685 236.865 328.294 236.475C327.904 236.084 327.275 236.084 326.018 236.084H316.685C315.428 236.084 314.799 236.084 314.409 236.475C314.018 236.865 314.018 237.494 314.018 238.751Z" fill="#141B34"/>
<path fill-rule="evenodd" clip-rule="evenodd" d="M315.357 251.751C316.093 251.751 316.69 252.348 316.69 253.084V255.751C316.69 256.487 316.093 257.084 315.357 257.084C314.62 257.084 314.023 256.487 314.023 255.751V253.084C314.023 252.348 314.62 251.751 315.357 251.751ZM334.023 251.751C334.76 251.751 335.357 252.348 335.357 253.084V255.751C335.357 256.487 334.76 257.084 334.023 257.084C333.287 257.084 332.69 256.487 332.69 255.751V253.084C332.69 252.348 333.287 251.751 334.023 251.751Z" fill="#141B34"/>
<rect width="81" height="81" transform="translate(366.188 203.584)" fill="#FAFAFA"/>
<path d="M409.427 229.751C411.877 229.751 413.818 229.751 415.337 229.955C416.9 230.165 418.165 230.608 419.163 231.606C420.161 232.603 420.604 233.869 420.814 235.432C421.018 236.951 421.018 238.892 421.018 241.342V241.492C421.018 243.943 421.018 245.884 420.814 247.403C420.604 248.966 420.161 250.231 419.163 251.229C418.165 252.227 416.9 252.67 415.337 252.88C413.818 253.084 411.877 253.084 409.427 253.084H403.943C401.493 253.084 399.552 253.084 398.033 252.88C396.47 252.67 395.204 252.227 394.207 251.229C393.209 250.231 392.766 248.966 392.556 247.403C392.352 245.884 392.352 243.943 392.352 241.492V241.342C392.352 238.892 392.352 236.951 392.556 235.432C392.766 233.869 393.209 232.603 394.207 231.606C395.204 230.608 396.47 230.165 398.033 229.955C399.552 229.751 401.493 229.751 403.943 229.751H409.427Z" fill="#141B34"/>
<path fill-rule="evenodd" clip-rule="evenodd" d="M406.69 257.084C404.971 257.084 403.367 257.513 401.991 258.257C401.343 258.607 400.534 258.366 400.184 257.718C399.834 257.07 400.075 256.261 400.723 255.911C402.485 254.959 404.524 254.417 406.69 254.417C408.857 254.417 410.896 254.959 412.658 255.911C413.305 256.261 413.547 257.07 413.197 257.718C412.847 258.366 412.038 258.607 411.39 258.257C410.014 257.513 408.41 257.084 406.69 257.084Z" fill="#141B34"/>
<rect width="81" height="81" transform="translate(38.1875 285.584)" fill="white"/>
<path fill-rule="evenodd" clip-rule="evenodd" d="M68.0234 333.917C67.2871 333.917 66.6901 334.514 66.6901 335.25C66.6901 335.987 67.2871 336.584 68.0234 336.584C68.7598 336.584 69.3568 335.987 69.3568 335.25C69.3568 334.514 68.7598 333.917 68.0234 333.917ZM64.0234 335.25C64.0234 333.041 65.8143 331.25 68.0234 331.25C70.2326 331.25 72.0234 333.041 72.0234 335.25C72.0234 337.46 70.2326 339.25 68.0234 339.25C65.8143 339.25 64.0234 337.46 64.0234 335.25Z" fill="#141B34"/>
<path fill-rule="evenodd" clip-rule="evenodd" d="M78.6875 333.917C77.9511 333.917 77.3542 334.514 77.3542 335.25C77.3542 335.987 77.9511 336.584 78.6875 336.584C79.4239 336.584 80.0208 335.987 80.0208 335.25C80.0208 334.514 79.4239 333.917 78.6875 333.917ZM74.6875 335.25C74.6875 333.041 76.4783 331.25 78.6875 331.25C80.8967 331.25 82.6875 333.041 82.6875 335.25C82.6875 337.46 80.8967 339.25 78.6875 339.25C76.4783 339.25 74.6875 337.46 74.6875 335.25Z" fill="#141B34"/>
<path fill-rule="evenodd" clip-rule="evenodd" d="M89.3516 333.917C88.6152 333.917 88.0182 334.514 88.0182 335.25C88.0182 335.987 88.6152 336.584 89.3516 336.584C90.088 336.584 90.6849 335.987 90.6849 335.25C90.6849 334.514 90.088 333.917 89.3516 333.917ZM85.3516 335.25C85.3516 333.041 87.1424 331.25 89.3516 331.25C91.5608 331.25 93.3516 333.041 93.3516 335.25C93.3516 337.46 91.5608 339.25 89.3516 339.25C87.1424 339.25 85.3516 337.46 85.3516 335.25Z" fill="#141B34"/>
<path fill-rule="evenodd" clip-rule="evenodd" d="M69.3516 335.25C69.3516 334.514 69.9485 333.917 70.6849 333.917H76.0182C76.7546 333.917 77.3516 334.514 77.3516 335.25C77.3516 335.987 76.7546 336.584 76.0182 336.584H70.6849C69.9485 336.584 69.3516 335.987 69.3516 335.25ZM80.0182 335.25C80.0182 334.514 80.6152 333.917 81.3516 333.917H86.6849C87.4213 333.917 88.0182 334.514 88.0182 335.25C88.0182 335.987 87.4213 336.584 86.6849 336.584H81.3516C80.6152 336.584 80.0182 335.987 80.0182 335.25Z" fill="#141B34"/>
<path fill-rule="evenodd" clip-rule="evenodd" d="M72.1531 313.699C74.1727 313.048 76.2373 312.776 77.5082 312.989C78.0817 313.085 78.5214 313.546 78.5856 314.117C78.6229 314.45 78.6946 314.895 78.804 315.41C78.8696 315.719 78.9025 315.873 78.8421 315.997C78.7818 316.121 78.6441 316.188 78.3684 316.323L75.5793 317.686C75.0832 317.928 74.8775 318.527 75.12 319.023C75.3625 319.52 75.9614 319.725 76.4576 319.483L79.3608 318.064C79.4529 318.019 79.5634 318.064 79.5992 318.16C79.682 318.383 79.7689 318.602 79.8596 318.817C79.999 319.148 80.0688 319.314 80.0218 319.456C79.9748 319.599 79.8261 319.687 79.529 319.862L77.5094 321.057C77.034 321.338 76.8766 321.951 77.1577 322.427C77.4389 322.902 78.0522 323.06 78.5276 322.778L80.5857 321.561C80.8652 321.396 81.0049 321.313 81.142 321.331C81.279 321.349 81.405 321.478 81.657 321.736C81.7802 321.862 81.9064 321.979 82.0354 322.084C82.467 322.437 83.2013 322.767 84.2344 323.095C84.9317 323.316 86.768 323.801 87.5344 324.002C88.6502 324.306 89.8276 324.663 90.7736 325.159C91.6962 325.643 92.6998 326.418 92.943 327.697C93.1686 328.882 92.8872 330.057 92.0926 330.935C91.3044 331.806 90.1358 332.25 88.8341 332.25L69.2989 332.251C67.9856 332.253 66.7427 332.256 65.61 331.201C65.1301 330.754 64.787 330.294 64.591 329.723C64.4257 329.241 64.3907 328.674 64.3662 328.276C64.2321 326.139 65.0475 324.33 65.5982 323.361C66.3161 322.099 66.3115 320.182 65.9351 318.362C65.8521 317.961 65.9667 317.544 66.2437 317.24C67.8317 315.498 70.1014 314.361 72.1531 313.699ZM68.724 325.193C68.4297 324.802 68.2826 324.607 68.0549 324.634C67.8271 324.66 67.727 324.888 67.5267 325.343C67.1527 326.194 66.9027 327.09 66.9671 328.116C66.9987 328.619 67.0175 328.774 67.0587 328.894C67.0791 328.954 67.1256 329.072 67.3965 329.324C67.5811 329.496 67.7256 329.563 67.962 329.608C68.282 329.668 68.7017 329.673 69.4924 329.673H69.6404C70.0783 329.673 70.2972 329.673 70.4173 329.52C70.5374 329.367 70.4886 329.166 70.391 328.762C70.0679 327.425 69.491 326.211 68.724 325.193Z" fill="#141B34"/>
<rect width="81" height="81" transform="translate(120.188 285.584)" fill="#FAFAFA"/>
<path d="M170.358 311.751C168.517 311.751 167.025 313.243 167.025 315.084C167.025 315.542 167.117 315.979 167.284 316.376C165.167 317.028 163.004 317.601 160.914 318.337L163.047 320.47L166.13 319.521L165.047 322.47L167.125 324.547L169.425 318.285C169.721 318.371 170.034 318.417 170.358 318.417C172.199 318.417 173.691 316.925 173.691 315.084C173.691 313.243 172.199 311.751 170.358 311.751Z" fill="#141B34"/>
<path d="M169.774 327.2L158.243 315.669C157.433 314.859 156.727 314.153 156.049 313.693C155.29 313.178 154.489 312.914 153.518 313.063C152.589 313.206 151.76 313.687 151.208 314.454C149.685 316.566 149.023 319.603 149.023 322.142C149.023 325.902 150.546 329.579 153.205 332.238C155.864 334.897 159.541 336.42 163.301 336.42C165.836 336.42 168.879 335.756 170.989 334.235C171.756 333.683 172.237 332.854 172.38 331.925C172.529 330.954 172.265 330.153 171.75 329.394C171.29 328.716 170.584 328.01 169.774 327.2Z" fill="#141B34"/>
<path d="M157.607 339.026C157.739 339.335 157.707 339.689 157.522 339.97C157.337 340.251 157.024 340.42 156.688 340.42H148.688C148.351 340.42 148.038 340.251 147.853 339.97C147.668 339.689 147.636 339.335 147.768 339.026L150.102 333.58C150.333 333.041 150.448 332.772 150.66 332.734C150.873 332.696 151.082 332.917 151.502 333.358C151.596 333.457 151.692 333.555 151.789 333.652C153.146 335.009 154.731 336.115 156.471 336.918C156.616 336.986 156.689 337.019 156.741 337.072C156.792 337.125 156.823 337.196 156.884 337.339L157.607 339.026Z" fill="#141B34"/>
<rect width="81" height="81" transform="translate(202.188 285.584)" fill="white"/>
<path d="M249.06 330.568C250.092 330.226 251.276 330.466 252.097 331.288L256.153 335.343C257.314 336.504 257.314 338.386 256.153 339.547C254.992 340.707 253.11 340.707 251.949 339.547L247.894 335.491C247.072 334.67 246.832 333.486 247.174 332.453L244.414 329.694L246.3 327.808L249.06 330.568Z" fill="#141B34"/>
<path fill-rule="evenodd" clip-rule="evenodd" d="M228.023 322.084C228.023 316.193 232.799 311.417 238.69 311.417C244.581 311.417 249.357 316.193 249.357 322.084C249.357 327.975 244.581 332.751 238.69 332.751C232.799 332.751 228.023 327.975 228.023 322.084ZM238.69 314.084C234.272 314.084 230.69 317.666 230.69 322.084C230.69 326.502 234.272 330.084 238.69 330.084C243.108 330.084 246.69 326.502 246.69 322.084C246.69 317.666 243.108 314.084 238.69 314.084Z" fill="#141B34"/>
<rect width="81" height="81" transform="translate(284.188 285.584)" fill="#FAFAFA"/>
<path d="M314.737 319.084L314.804 319.084L334.643 319.084C335.299 319.084 335.897 319.084 336.376 319.154C336.902 319.231 337.462 319.415 337.88 319.925C338.293 320.429 338.37 321.014 338.355 321.545C338.341 322.036 338.24 322.636 338.128 323.305L336.502 333.005C336.245 334.538 336.037 335.777 335.751 336.747C335.454 337.754 335.041 338.588 334.297 339.232C333.551 339.879 332.672 340.16 331.646 340.292C330.664 340.417 329.436 340.417 327.928 340.417H321.452C319.944 340.417 318.717 340.417 317.735 340.292C316.708 340.16 315.83 339.879 315.083 339.232C314.339 338.588 313.926 337.754 313.629 336.747C313.343 335.777 313.135 334.538 312.878 333.005L311.263 323.369L311.252 323.305C311.14 322.637 311.039 322.036 311.025 321.545C311.01 321.014 311.087 320.429 311.5 319.925C311.918 319.415 312.478 319.231 313.005 319.154C313.483 319.084 314.081 319.084 314.737 319.084Z" fill="#141B34"/>
<path fill-rule="evenodd" clip-rule="evenodd" d="M324.688 314.417C321.742 314.417 319.354 316.805 319.354 319.751V320.417C319.354 321.154 318.757 321.751 318.021 321.751C317.284 321.751 316.688 321.154 316.688 320.417V319.751C316.688 315.332 320.269 311.751 324.688 311.751C329.106 311.751 332.688 315.332 332.688 319.751V320.417C332.688 321.154 332.091 321.751 331.354 321.751C330.618 321.751 330.021 321.154 330.021 320.417V319.751C330.021 316.805 327.633 314.417 324.688 314.417Z" fill="#141B34"/>
<rect width="81" height="81" transform="translate(366.188 285.584)" fill="white"/>
<path fill-rule="evenodd" clip-rule="evenodd" d="M404.472 336.808C404.576 337.238 404.679 337.666 404.81 338.017C404.959 338.418 405.191 338.852 405.631 339.194C406.069 339.536 406.546 339.656 406.97 339.706C407.344 339.751 407.788 339.75 408.237 339.75H408.297H416.824H416.904C417.587 339.75 418.231 339.751 418.749 339.677C419.32 339.597 419.988 339.397 420.484 338.794C420.984 338.188 421.047 337.493 421.009 336.916C420.975 336.398 420.841 335.774 420.701 335.117L420.684 335.038L416.718 316.479C416.572 315.795 416.438 315.171 416.264 314.668C416.072 314.114 415.786 313.567 415.25 313.139C414.716 312.712 414.12 312.551 413.536 312.481C413.004 312.417 412.359 312.417 411.648 312.417L400.261 312.417C399.671 312.417 399.155 312.814 399.002 313.383L392.396 338.113C392.21 338.808 392.624 339.521 393.319 339.706C394.014 339.892 394.728 339.479 394.914 338.784L396.526 332.751H403.497L404.472 336.808ZM402.856 330.084L400.195 319.016L397.238 330.084H402.856Z" fill="#141B34"/>
<rect width="81" height="81" transform="translate(38.1875 367.584)" fill="#FAFAFA"/>
<path fill-rule="evenodd" clip-rule="evenodd" d="M87.6285 398.938C87.7424 399.362 87.7834 399.827 87.7982 400.377C87.9929 400.394 88.1801 400.414 88.36 400.438C89.569 400.601 90.6368 400.954 91.4917 401.807C92.3466 402.66 92.7009 403.725 92.8634 404.931C93.0184 406.08 93.0182 407.532 93.0182 409.292V412.076C93.0182 413.836 93.0184 415.288 92.8634 416.437C92.7009 417.643 92.3466 418.708 91.4917 419.561C90.6368 420.414 89.569 420.767 88.36 420.93C87.2085 421.084 85.7534 421.084 83.9889 421.084H75.9835C73.6075 421.084 71.6923 421.084 70.1861 420.882C68.6223 420.672 67.3056 420.223 66.2598 419.18C65.2141 418.137 64.7643 416.823 64.554 415.263C64.3515 413.76 64.3515 411.85 64.3516 409.479V398.984C64.3516 396.83 66.1017 395.084 68.2607 395.084L81.4702 395.084C82.5066 395.083 83.2762 395.083 83.943 395.261C85.7417 395.742 87.1465 397.144 87.6285 398.938ZM83.2678 397.773C82.9782 397.695 82.5861 397.684 81.2904 397.684H68.2601C67.5404 397.684 66.957 398.266 66.957 398.984C66.957 399.702 67.5404 400.284 68.2601 400.284H83.9884C84.405 400.284 84.8045 400.284 85.1866 400.286C85.1748 399.95 85.1522 399.766 85.1106 399.611C84.8697 398.714 84.1672 398.013 83.2678 397.773ZM86.0182 408.084C87.491 408.084 88.6849 409.278 88.6849 410.751C88.6849 412.223 87.491 413.417 86.0182 413.417C84.5454 413.417 83.3516 412.223 83.3516 410.751C83.3516 409.278 84.5454 408.084 86.0182 408.084Z" fill="#141B34"/>
<rect width="81" height="81" transform="translate(120.188 367.584)" fill="white"/>
<path d="M168.679 404.595C168.664 403.387 168.623 402.343 168.503 401.454C168.497 401.409 168.491 401.364 168.484 401.319C169.095 400.838 169.648 400.433 170.147 400.132C171.08 399.568 172.264 399.096 173.478 399.698C174.673 400.29 175.044 401.505 175.198 402.594C175.353 403.69 175.353 405.164 175.353 406.935V409.237C175.353 411.007 175.353 412.482 175.198 413.577C175.044 414.667 174.673 415.881 173.478 416.474C172.264 417.076 171.08 416.603 170.147 416.039C169.648 415.738 169.095 415.333 168.484 414.853C168.491 414.808 168.497 414.763 168.503 414.718C168.623 413.829 168.664 412.785 168.679 411.576C169.955 412.629 170.837 413.341 171.525 413.757C171.887 413.975 172.106 414.054 172.225 414.078C172.251 414.083 172.269 414.085 172.28 414.086L172.287 414.086H172.291L172.294 414.085C172.299 414.082 172.302 414.079 172.302 414.079C172.306 414.075 172.326 414.054 172.354 413.998C172.418 413.874 172.496 413.636 172.558 413.204C172.683 412.318 172.686 411.035 172.686 409.128V407.043C172.686 405.136 172.683 403.854 172.558 402.968C172.496 402.535 172.418 402.298 172.354 402.173C172.326 402.118 172.306 402.097 172.302 402.093C172.302 402.093 172.299 402.09 172.294 402.087L172.292 402.086C172.292 402.086 172.285 402.086 172.28 402.086C172.269 402.087 172.251 402.088 172.225 402.094C172.106 402.117 171.887 402.196 171.525 402.415C170.837 402.83 169.955 403.543 168.679 404.595Z" fill="#141B34"/>
<path fill-rule="evenodd" clip-rule="evenodd" d="M156.594 396.084H158.119C160.238 396.084 161.962 396.084 163.322 396.267C164.74 396.457 165.96 396.869 166.933 397.841C167.905 398.814 168.317 400.034 168.507 401.452C168.69 402.812 168.69 404.536 168.69 406.655V409.513C168.69 411.632 168.69 413.356 168.507 414.716C168.317 416.134 167.905 417.354 166.933 418.327C165.96 419.299 164.74 419.711 163.322 419.901C161.962 420.084 160.238 420.084 158.119 420.084H156.594C154.476 420.084 152.752 420.084 151.392 419.901C149.973 419.711 148.753 419.299 147.781 418.327C146.808 417.354 146.397 416.134 146.206 414.716C146.023 413.356 146.023 411.632 146.023 409.513V406.655C146.023 404.536 146.023 402.812 146.206 401.452C146.397 400.034 146.808 398.814 147.781 397.841C148.753 396.869 149.973 396.457 151.392 396.267C152.752 396.084 154.476 396.084 156.594 396.084ZM160.023 406.751C161.128 406.751 162.023 405.855 162.023 404.751C162.023 403.646 161.128 402.751 160.023 402.751C158.919 402.751 158.023 403.646 158.023 404.751C158.023 405.855 158.919 406.751 160.023 406.751Z" fill="#141B34"/>
<rect width="81" height="81" transform="translate(202.188 367.584)" fill="#FAFAFA"/>
<path fill-rule="evenodd" clip-rule="evenodd" d="M235.614 396.446C237.826 395.995 240.207 395.751 242.685 395.751C245.163 395.751 247.544 395.995 249.756 396.446L249.926 396.481C252.452 396.995 254.135 397.338 255.586 399.203C257.021 401.047 257.02 403.187 257.018 406.5V409.667C257.02 412.981 257.021 415.12 255.586 416.965C254.135 418.83 252.452 419.173 249.926 419.687L249.756 419.722C247.544 420.172 245.163 420.417 242.685 420.417C240.207 420.417 237.826 420.172 235.614 419.722L235.444 419.687C232.918 419.173 231.235 418.83 229.785 416.965C228.35 415.12 228.35 412.981 228.352 409.667V406.5C228.35 403.187 228.35 401.047 229.785 399.203C231.235 397.338 232.918 396.995 235.444 396.481L235.614 396.446ZM241.744 403.087C242.436 403.377 243.276 403.846 244.302 404.42C244.438 404.495 244.573 404.57 244.709 404.645C245.381 405.016 246.056 405.388 246.678 405.836C247.238 406.238 247.769 406.737 247.944 407.464C248.043 407.872 248.043 408.296 247.944 408.704C247.769 409.431 247.238 409.93 246.678 410.332C246.056 410.78 245.381 411.152 244.709 411.523C244.573 411.598 244.438 411.673 244.302 411.748C243.276 412.322 242.436 412.791 241.744 413.081C240.62 413.553 239.429 413.591 238.449 412.788C237.836 412.286 237.619 411.566 237.524 410.842C237.294 409.09 237.294 407.079 237.524 405.326C237.619 404.601 237.836 403.882 238.449 403.38C239.429 402.577 240.62 402.615 241.744 403.087Z" fill="#141B34"/>
<rect width="81" height="81" transform="translate(284.188 367.584)" fill="white"/>
<path d="M336.708 410.099C334.99 411.817 331.757 411.75 326.8 411.75C323.611 411.75 321.025 409.161 321.024 405.972C321.024 401.018 320.957 397.784 322.675 396.066C324.393 394.348 325.152 394.418 332.763 394.418C333.499 394.415 333.869 395.304 333.349 395.824L329.43 399.743C328.435 400.738 328.433 402.351 329.427 403.345C330.422 404.34 332.035 404.34 333.03 403.346L336.95 399.427C337.47 398.908 338.36 399.278 338.356 400.013C338.356 407.623 338.426 408.381 336.708 410.099Z" fill="#141B34"/>
<path fill-rule="evenodd" clip-rule="evenodd" d="M325.352 413.902C325.401 414.118 325.159 414.36 324.674 414.845L319.168 420.35C317.305 422.214 314.284 422.214 312.421 420.35C310.558 418.487 310.558 415.466 312.421 413.603L317.928 408.096C318.412 407.611 318.655 407.369 318.87 407.418C319.086 407.468 319.209 407.822 319.456 408.529C320.236 410.764 322.005 412.536 324.24 413.316C324.949 413.563 325.303 413.686 325.352 413.902ZM316.016 415.084C315.1 415.084 314.357 415.83 314.357 416.751C314.357 417.671 315.1 418.417 316.016 418.417H316.031C316.947 418.417 317.69 417.671 317.69 416.751C317.69 415.83 316.947 415.084 316.031 415.084H316.016Z" fill="#141B34"/>
<rect width="81" height="81" transform="translate(366.188 367.584)" fill="#FAFAFA"/>
<path fill-rule="evenodd" clip-rule="evenodd" d="M398.685 417.251C399.421 417.251 400.018 417.848 400.018 418.584V421.251C400.018 421.987 399.421 422.584 398.685 422.584C397.949 422.584 397.352 421.987 397.352 421.251V418.584C397.352 417.848 397.949 417.251 398.685 417.251ZM414.685 417.251C415.421 417.251 416.018 417.848 416.018 418.584V421.251C416.018 421.987 415.421 422.584 414.685 422.584C413.948 422.584 413.352 421.987 413.352 421.251V418.584C413.352 417.848 413.948 417.251 414.685 417.251Z" fill="#141B34"/>
<path fill-rule="evenodd" clip-rule="evenodd" d="M405.688 394.384C405.688 394.007 405.688 393.818 405.57 393.701C405.453 393.584 405.265 393.584 404.888 393.584H403.158C401.287 393.584 399.758 393.584 398.551 393.737C397.296 393.897 396.193 394.242 395.304 395.081C394.405 395.93 394.025 397.001 393.852 398.221C393.687 399.375 393.687 400.831 393.688 402.588V410.58C393.687 412.337 393.687 413.793 393.852 414.947C394.025 416.167 394.405 417.237 395.304 418.087C396.193 418.926 397.296 419.271 398.551 419.431C399.758 419.584 401.287 419.584 403.158 419.584H410.217C412.088 419.584 413.617 419.584 414.823 419.431C416.079 419.271 417.182 418.926 418.071 418.087C418.97 417.237 419.35 416.167 419.523 414.947C419.688 413.793 419.688 412.337 419.688 410.58V402.588C419.688 400.831 419.688 399.375 419.523 398.221C419.35 397.001 418.97 395.93 418.071 395.081C417.182 394.242 416.079 393.897 414.823 393.737C413.617 393.584 412.088 393.584 410.217 393.584H408.488C408.11 393.584 407.922 393.584 407.805 393.701C407.688 393.818 407.688 394.007 407.688 394.384V413.451C407.688 413.828 407.688 414.016 407.805 414.133C407.922 414.251 408.11 414.251 408.488 414.251H416.658C416.835 414.251 416.974 414.404 416.949 414.58C416.821 415.484 416.596 415.904 416.286 416.197C415.965 416.499 415.49 416.725 414.496 416.852C413.473 416.982 412.11 416.984 410.129 416.984H403.246C401.265 416.984 399.903 416.982 398.879 416.852C397.886 416.725 397.41 416.499 397.09 416.197C396.78 415.904 396.555 415.484 396.426 414.58C396.401 414.404 396.54 414.251 396.717 414.251H404.888C405.265 414.251 405.453 414.251 405.57 414.133C405.688 414.016 405.688 413.828 405.688 413.451V394.384ZM402.688 402.917C403.24 402.917 403.688 403.365 403.688 403.917V405.251C403.688 405.803 403.24 406.251 402.688 406.251C402.135 406.251 401.688 405.803 401.688 405.251V403.917C401.688 403.365 402.135 402.917 402.688 402.917ZM411.688 403.917C411.688 403.365 411.24 402.917 410.688 402.917C410.135 402.917 409.688 403.365 409.688 403.917V405.251C409.688 405.803 410.135 406.251 410.688 406.251C411.24 406.251 411.688 405.803 411.688 405.251V403.917Z" fill="#141B34"/>
<line x1="38.6875" y1="16.584" x2="38.6875" y2="470.584" stroke="#EFEFEF"/>
<line x1="16.1875" y1="39.084" x2="470.188" y2="39.084" stroke="#EFEFEF"/>
<line x1="16.1875" y1="121.084" x2="470.188" y2="121.084" stroke="#EFEFEF"/>
<line x1="16.1875" y1="203.084" x2="470.188" y2="203.084" stroke="#EFEFEF"/>
<line x1="16.1875" y1="285.084" x2="470.188" y2="285.084" stroke="#EFEFEF"/>
<line x1="16.1875" y1="367.084" x2="470.188" y2="367.084" stroke="#EFEFEF"/>
<line x1="16.1875" y1="449.084" x2="470.188" y2="449.084" stroke="#EFEFEF"/>
<line x1="119.688" y1="16.584" x2="119.688" y2="470.584" stroke="#EFEFEF"/>
<line x1="201.688" y1="16.584" x2="201.688" y2="470.584" stroke="#EFEFEF"/>
<line x1="283.688" y1="16.584" x2="283.688" y2="470.584" stroke="#EFEFEF"/>
<line x1="365.688" y1="16.584" x2="365.688" y2="470.584" stroke="#EFEFEF"/>
<line x1="447.688" y1="16.584" x2="447.688" y2="470.584" stroke="#EFEFEF"/>
<g filter="url(#filter1_f_624_14866)">
<ellipse cx="253.688" cy="499.584" rx="44" ry="273.5" transform="rotate(-90 253.688 499.584)" fill="white"/>
</g>
<g filter="url(#filter2_f_624_14866)">
<ellipse cx="253.688" cy="-10.416" rx="44" ry="273.5" transform="rotate(-90 253.688 -10.416)" fill="white"/>
</g>
<g filter="url(#filter3_f_624_14866)">
<ellipse cx="-6.8125" cy="243.084" rx="44" ry="273.5" fill="white"/>
</g>
<g filter="url(#filter4_f_624_14866)">
<ellipse cx="487.188" cy="243.084" rx="44" ry="273.5" fill="white"/>
</g>
</g>
<rect x="0.9375" y="1.33398" width="484.5" height="484.5" rx="15.25" stroke="#EFEFEF" stroke-width="1.5"/>
<defs>
<filter id="filter0_d_624_14866" x="18.1875" y="117.584" width="121" height="121" filterUnits="userSpaceOnUse" color-interpolation-filters="sRGB">
<feFlood flood-opacity="0" result="BackgroundImageFix"/>
<feColorMatrix in="SourceAlpha" type="matrix" values="0 0 0 0 0 0 0 0 0 0 0 0 0 0 0 0 0 0 127 0" result="hardAlpha"/>
<feMorphology radius="4" operator="erode" in="SourceAlpha" result="effect1_dropShadow_624_14866"/>
<feOffset dy="16"/>
<feGaussianBlur stdDeviation="12"/>
<feComposite in2="hardAlpha" operator="out"/>
<feColorMatrix type="matrix" values="0 0 0 0 0 0 0 0 0 0 0 0 0 0 0 0 0 0 0.06 0"/>
<feBlend mode="normal" in2="BackgroundImageFix" result="effect1_dropShadow_624_14866"/>
<feBlend mode="normal" in="SourceGraphic" in2="effect1_dropShadow_624_14866" result="shape"/>
</filter>
<filter id="filter1_f_624_14866" x="-69.8125" y="405.584" width="647" height="188" filterUnits="userSpaceOnUse" color-interpolation-filters="sRGB">
<feFlood flood-opacity="0" result="BackgroundImageFix"/>
<feBlend mode="normal" in="SourceGraphic" in2="BackgroundImageFix" result="shape"/>
<feGaussianBlur stdDeviation="25" result="effect1_foregroundBlur_624_14866"/>
</filter>
<filter id="filter2_f_624_14866" x="-69.8125" y="-104.416" width="647" height="188" filterUnits="userSpaceOnUse" color-interpolation-filters="sRGB">
<feFlood flood-opacity="0" result="BackgroundImageFix"/>
<feBlend mode="normal" in="SourceGraphic" in2="BackgroundImageFix" result="shape"/>
<feGaussianBlur stdDeviation="25" result="effect1_foregroundBlur_624_14866"/>
</filter>
<filter id="filter3_f_624_14866" x="-100.812" y="-80.416" width="188" height="647" filterUnits="userSpaceOnUse" color-interpolation-filters="sRGB">
<feFlood flood-opacity="0" result="BackgroundImageFix"/>
<feBlend mode="normal" in="SourceGraphic" in2="BackgroundImageFix" result="shape"/>
<feGaussianBlur stdDeviation="25" result="effect1_foregroundBlur_624_14866"/>
</filter>
<filter id="filter4_f_624_14866" x="393.188" y="-80.416" width="188" height="647" filterUnits="userSpaceOnUse" color-interpolation-filters="sRGB">
<feFlood flood-opacity="0" result="BackgroundImageFix"/>
<feBlend mode="normal" in="SourceGraphic" in2="BackgroundImageFix" result="shape"/>
<feGaussianBlur stdDeviation="25" result="effect1_foregroundBlur_624_14866"/>
</filter>
<clipPath id="clip0_624_14866">
<rect x="0.1875" y="0.583984" width="486" height="486" rx="16" fill="white"/>
</clipPath>
</defs>
</svg>