<svg xmlns:xlink="http://www.w3.org/1999/xlink" xmlns="http://www.w3.org/2000/svg" width="487" height="487" viewBox="0 0 487 487" fill="none">
<g clip-path="url(#clip0_624_14073)">
<rect x="0.1875" y="0.583984" width="486" height="486" rx="16" fill="white"/>
<rect width="81" height="81" transform="translate(38.1875 39.584)" fill="#FAFAFA"/>
<path d="M66.6875 78.7507C66.6875 73.751 66.6875 71.2512 67.9607 69.4988C68.3719 68.9328 68.8696 68.4351 69.4356 68.0239C71.188 66.7507 73.6879 66.7507 78.6875 66.7507C83.6871 66.7507 86.187 66.7507 87.9394 68.0239C88.5054 68.4351 89.0031 68.9328 89.4143 69.4988C90.6875 71.2512 90.6875 73.751 90.6875 78.7507V81.4173C90.6875 86.4169 90.6875 88.9168 89.4143 90.6692C89.0031 91.2352 88.5054 91.7329 87.9394 92.1441C86.187 93.4173 83.6871 93.4173 78.6875 93.4173C73.6879 93.4173 71.188 93.4173 69.4356 92.1441C68.8696 91.7329 68.3719 91.2352 67.9607 90.6692C66.6875 88.9168 66.6875 86.4169 66.6875 81.4173V78.7507Z" stroke="#141B34" stroke-width="2" stroke-linecap="round" stroke-linejoin="round"/>
<path d="M82.6901 80.084H72.0234M76.0234 86.7507H72.0234" stroke="#141B34" stroke-width="2" stroke-linecap="round" stroke-linejoin="round"/>
<rect width="81" height="81" transform="translate(120.188 39.584)" fill="white"/>
<path d="M147.352 73.4173C147.352 71.5505 147.352 70.6171 147.715 69.904C148.034 69.2768 148.544 68.7669 149.172 68.4473C149.885 68.084 150.818 68.084 152.685 68.084C154.552 68.084 155.485 68.084 156.198 68.4473C156.825 68.7669 157.335 69.2768 157.655 69.904C158.018 70.6171 158.018 71.5505 158.018 73.4173V86.7507C158.018 88.6175 158.018 89.5509 157.655 90.264C157.335 90.8912 156.825 91.4011 156.198 91.7207C155.485 92.084 154.552 92.084 152.685 92.084C150.818 92.084 149.885 92.084 149.172 91.7207C148.544 91.4011 148.034 90.8912 147.715 90.264C147.352 89.5509 147.352 88.6175 147.352 86.7507V73.4173Z" stroke="#141B34" stroke-width="2" stroke-linecap="round" stroke-linejoin="round"/>
<path d="M152.688 86.7507H152.699" stroke="#141B34" stroke-width="2.66667" stroke-linecap="round" stroke-linejoin="round"/>
<path d="M147.352 73.4173H158.018" stroke="#141B34" stroke-width="2" stroke-linecap="round" stroke-linejoin="round"/>
<path d="M159.95 75.1086C159.476 73.3352 159.24 72.4485 159.403 71.6786C159.546 71.0015 159.899 70.3873 160.412 69.924C160.994 69.3974 161.877 69.1598 163.643 68.6846C165.409 68.2095 166.292 67.9719 167.059 68.1355C167.733 68.2794 168.345 68.6341 168.806 69.1485C169.33 69.7334 169.567 70.6201 170.04 72.3935L173.42 85.0594C173.893 86.8328 174.13 87.7195 173.967 88.4893C173.824 89.1665 173.47 89.7807 172.958 90.244C172.376 90.7705 171.493 91.0081 169.727 91.4833C167.961 91.9585 167.078 92.1961 166.311 92.0325C165.637 91.8885 165.025 91.5338 164.564 91.0194C164.039 90.4345 163.803 89.5478 163.329 87.7745L159.95 75.1086Z" stroke="#141B34" stroke-width="2" stroke-linecap="round" stroke-linejoin="round"/>
<path d="M168.398 86.3444L168.41 86.3413" stroke="#141B34" stroke-width="2.66667" stroke-linecap="round" stroke-linejoin="round"/>
<path d="M160.688 74.7509L169.354 72.084" stroke="#141B34" stroke-width="2" stroke-linecap="round" stroke-linejoin="round"/>
<rect width="81" height="81" transform="translate(202.188 39.584)" fill="#FAFAFA"/>
<path d="M229.352 85.4173C229.352 82.2988 229.352 80.7396 230.067 79.6012C230.44 79.0076 230.942 78.5056 231.535 78.1326C232.674 77.4173 234.233 77.4173 237.352 77.4173H248.018C251.137 77.4173 252.696 77.4173 253.834 78.1326C254.428 78.5056 254.93 79.0076 255.303 79.6012C256.018 80.7396 256.018 82.2988 256.018 85.4173C256.018 88.5358 256.018 90.095 255.303 91.2334C254.93 91.827 254.428 92.329 253.834 92.702C252.696 93.4173 251.137 93.4173 248.018 93.4173H237.352C234.233 93.4173 232.674 93.4173 231.535 92.702C230.942 92.329 230.44 91.827 230.067 91.2334C229.352 90.095 229.352 88.5358 229.352 85.4173Z" stroke="#141B34" stroke-width="2" stroke-linecap="round" stroke-linejoin="round"/>
<path d="M253.357 77.4173C253.357 75.5505 253.357 74.6171 252.993 73.904C252.674 73.2768 252.164 72.7669 251.537 72.4473C250.824 72.084 249.89 72.084 248.023 72.084H237.357C235.49 72.084 234.557 72.084 233.843 72.4473C233.216 72.7669 232.706 73.2768 232.387 73.904C232.023 74.6171 232.023 75.5505 232.023 77.4173" stroke="#141B34" stroke-width="2" stroke-linecap="round" stroke-linejoin="round"/>
<path d="M250.688 72.084C250.688 69.5698 250.688 68.3128 249.906 67.5317C249.125 66.7507 247.868 66.7507 245.354 66.7507H240.021C237.507 66.7507 236.25 66.7507 235.469 67.5317C234.688 68.3128 234.688 69.5698 234.688 72.084" stroke="#141B34" stroke-width="2" stroke-linecap="round" stroke-linejoin="round"/>
<path d="M246.688 82.7507C246.688 84.2235 245.494 85.4173 244.021 85.4173H241.354C239.881 85.4173 238.688 84.2235 238.688 82.7507" stroke="#141B34" stroke-width="2" stroke-linecap="round"/>
<rect width="81" height="81" transform="translate(284.188 39.584)" fill="white"/>
<path d="M336.018 86.6555V77.4173C336.018 72.389 336.018 69.8749 334.456 68.3128C332.894 66.7507 330.38 66.7507 325.352 66.7507H324.018C318.99 66.7507 316.476 66.7507 314.914 68.3128C313.352 69.8749 313.352 72.389 313.352 77.4173V90.084" stroke="#141B34" stroke-width="2" stroke-linecap="round"/>
<path d="M336.018 86.7507H316.685C314.844 86.7507 313.352 88.2431 313.352 90.084C313.352 91.9249 314.844 93.4173 316.685 93.4173H336.018" stroke="#141B34" stroke-width="2" stroke-linecap="round"/>
<path d="M336.021 86.7507C334.18 86.7507 332.688 88.2431 332.688 90.084C332.688 91.9249 334.18 93.4173 336.021 93.4173" stroke="#141B34" stroke-width="2" stroke-linecap="round"/>
<path d="M328.638 77.2019C328.47 77.9181 327.674 78.4243 326.083 79.4365C324.545 80.4152 323.776 80.9044 323.157 80.7077C322.901 80.6264 322.667 80.472 322.479 80.2593C322.023 79.7448 322.023 78.7467 322.023 76.7507C322.023 74.7546 322.023 73.7566 322.479 73.242C322.667 73.0293 322.901 72.8749 323.157 72.7936C323.776 72.5969 324.545 73.0862 326.083 74.0648C327.674 75.0771 328.47 75.5832 328.638 76.2995C328.707 76.5951 328.707 76.9062 328.638 77.2019Z" stroke="#141B34" stroke-width="2" stroke-linejoin="round"/>
<rect width="81" height="81" transform="translate(366.188 39.584)" fill="#FAFAFA"/>
<path d="M401.352 92.084C401.352 90.1984 401.352 89.2556 401.937 88.6697C402.523 88.084 403.466 88.084 405.352 88.084H408.018C409.904 88.084 410.847 88.084 411.432 88.6697C412.018 89.2556 412.018 90.1984 412.018 92.084V93.4173H401.352V92.084Z" stroke="#141B34" stroke-width="2" stroke-linecap="round" stroke-linejoin="round"/>
<path d="M406.688 81.4173V88.084" stroke="#141B34" stroke-width="2" stroke-linecap="round" stroke-linejoin="round"/>
<path d="M398.688 93.4173H414.688" stroke="#141B34" stroke-width="2" stroke-linecap="round" stroke-linejoin="round"/>
<path d="M408.07 67.906L409.478 70.745C409.669 71.1402 410.181 71.5192 410.613 71.5918L413.165 72.0193C414.797 72.2935 415.181 73.4872 414.005 74.6647L412.021 76.6648C411.685 77.0036 411.501 77.6568 411.605 78.1247L412.173 80.6007C412.621 82.5605 411.589 83.3187 409.869 82.2944L407.478 80.8668C407.046 80.6087 406.334 80.6087 405.894 80.8668L403.502 82.2944C401.79 83.3187 400.75 82.5524 401.198 80.6007L401.766 78.1247C401.87 77.6568 401.686 77.0036 401.35 76.6648L399.367 74.6647C398.199 73.4872 398.575 72.2935 400.206 72.0193L402.758 71.5918C403.182 71.5192 403.694 71.1402 403.886 70.745L405.294 67.906C406.062 66.3656 407.31 66.3656 408.07 67.906Z" stroke="#141B34" stroke-width="2" stroke-linecap="round" stroke-linejoin="round"/>
<rect width="81" height="81" transform="translate(38.1875 121.584)" fill="white"/>
<path d="M92.0182 169.417H65.3516" stroke="#141B34" stroke-width="2" stroke-linecap="round" stroke-linejoin="round"/>
<path d="M92.0182 174.084V167.417C92.0182 164.903 92.0182 163.646 91.2372 162.865C90.4561 162.084 89.199 162.084 86.6849 162.084H70.6849C68.1707 162.084 66.9137 162.084 66.1326 162.865C65.3516 163.646 65.3516 164.903 65.3516 167.417V174.084" stroke="#141B34" stroke-width="2" stroke-linecap="round" stroke-linejoin="round"/>
<path d="M77.3542 162.084V159.702C77.3542 159.194 77.2779 159.025 76.8871 158.824C76.0735 158.408 75.0857 158.084 74.0208 158.084C72.956 158.084 71.9682 158.408 71.1545 158.824C70.7638 159.025 70.6875 159.194 70.6875 159.702V162.084" stroke="#141B34" stroke-width="2" stroke-linecap="round"/>
<path d="M86.6901 162.084V159.702C86.6901 159.194 86.6138 159.025 86.223 158.824C85.4094 158.408 84.4217 158.084 83.3568 158.084C82.2918 158.084 81.3041 158.408 80.4905 158.824C80.0997 159.025 80.0234 159.194 80.0234 159.702V162.084" stroke="#141B34" stroke-width="2" stroke-linecap="round"/>
<path d="M90.6875 162.084V155.898C90.6875 154.976 90.6875 154.515 90.4314 154.079C90.1751 153.644 89.8102 153.419 89.08 152.968C86.1367 151.15 82.5532 150.084 78.6875 150.084C74.8217 150.084 71.2384 151.15 68.2949 152.968C67.5649 153.419 67.1999 153.644 66.9437 154.079C66.6875 154.515 66.6875 154.976 66.6875 155.898V162.084" stroke="#141B34" stroke-width="2" stroke-linecap="round"/>
<rect width="81" height="81" transform="translate(120.188 121.584)" fill="#FAFAFA"/>
<path d="M160.689 162.084V154.972C160.689 152.489 160.689 151.248 161.47 150.855C162.25 150.462 163.236 151.206 165.207 152.696L166.148 153.407C167.529 154.45 168.219 154.972 168.219 155.683C168.219 156.394 167.529 156.916 166.148 157.959L160.689 162.084ZM160.689 162.084V169.196C160.689 171.679 160.689 172.92 161.47 173.313C162.25 173.707 163.236 172.962 165.207 171.472L166.148 170.761C167.529 169.718 168.219 169.196 168.219 168.485C168.219 167.774 167.529 167.252 166.148 166.209L160.689 162.084ZM160.689 162.084L152.219 155.683M160.689 162.084L152.219 168.485" stroke="#141B34" stroke-width="2" stroke-linecap="round" stroke-linejoin="round"/>
<path d="M170.023 162.084H170.035" stroke="#141B34" stroke-width="2.66667" stroke-linecap="round" stroke-linejoin="round"/>
<path d="M151.352 162.084H151.364" stroke="#141B34" stroke-width="2.66667" stroke-linecap="round" stroke-linejoin="round"/>
<rect width="81" height="81" transform="translate(202.188 121.584)" fill="white"/>
<path d="M232.023 170.058V159.027C232.023 154.183 232.023 151.761 233.586 150.256C235.148 148.751 237.662 148.751 242.69 148.751C247.718 148.751 250.233 148.751 251.795 150.256C253.357 151.761 253.357 154.183 253.357 159.027V170.058C253.357 173.133 253.357 174.67 252.326 175.22C250.331 176.286 246.588 172.731 244.81 171.661C243.779 171.04 243.264 170.729 242.69 170.729C242.117 170.729 241.601 171.04 240.57 171.661C238.793 172.731 235.049 176.286 233.054 175.22C232.023 174.67 232.023 173.133 232.023 170.058Z" stroke="#141B34" stroke-width="2" stroke-linecap="round" stroke-linejoin="round"/>
<rect width="81" height="81" transform="translate(284.188 121.584)" fill="#FAFAFA"/>
<path d="M322.023 162.528C322.023 162.115 322.023 161.908 322.069 161.739C322.192 161.279 322.552 160.919 323.012 160.796C323.181 160.751 323.388 160.751 323.801 160.751H325.579C325.992 160.751 326.199 160.751 326.369 160.796C326.829 160.919 327.188 161.279 327.311 161.739C327.357 161.908 327.357 162.115 327.357 162.528V163.417C327.357 164.89 326.163 166.084 324.69 166.084C323.217 166.084 322.023 164.89 322.023 163.417V162.528Z" stroke="#141B34" stroke-width="2" stroke-linecap="round" stroke-linejoin="round"/>
<path d="M327.092 163.417C327.508 163.297 327.979 163.151 328.53 162.981L334.092 161.266C336.071 160.656 337.04 159.592 337.251 157.75C337.345 156.927 337.392 156.515 337.326 156.178C337.137 155.216 336.329 154.435 335.252 154.175C334.875 154.084 334.401 154.084 333.453 154.084H315.927C314.979 154.084 314.506 154.084 314.128 154.175C313.052 154.435 312.244 155.216 312.054 156.178C311.988 156.515 312.035 156.927 312.13 157.75C312.34 159.592 313.309 160.656 315.289 161.266L320.85 162.981C321.401 163.151 321.873 163.297 322.288 163.417" stroke="#141B34" stroke-width="2"/>
<path d="M313.305 160.751L313.043 163.647C312.574 168.839 312.339 171.435 313.844 173.093C315.349 174.751 317.939 174.751 323.12 174.751H326.255C331.436 174.751 334.026 174.751 335.531 173.093C337.036 171.435 336.801 168.839 336.332 163.647L336.07 160.751" stroke="#141B34" stroke-width="2" stroke-linecap="round" stroke-linejoin="round"/>
<path d="M329.357 153.417L329.254 153.064C328.74 151.304 328.484 150.424 327.873 149.921C327.262 149.417 326.45 149.417 324.827 149.417H324.554C322.93 149.417 322.119 149.417 321.508 149.921C320.896 150.424 320.64 151.304 320.126 153.064L320.023 153.417" stroke="#141B34" stroke-width="2"/>
<rect width="81" height="81" transform="translate(366.188 121.584)" fill="white"/>
<path d="M398.023 170.084V174.084M415.357 170.084V174.084" stroke="#141B34" stroke-width="2" stroke-linecap="round" stroke-linejoin="round"/>
<path d="M418.688 150.084H394.688V163.417C394.688 166.56 394.688 168.131 395.786 169.108C396.884 170.084 398.652 170.084 402.188 170.084H411.188C414.723 170.084 416.491 170.084 417.589 169.108C418.688 168.131 418.688 166.56 418.688 163.417V150.084Z" stroke="#141B34" stroke-width="2" stroke-linecap="round" stroke-linejoin="round"/>
<path d="M393.352 150.084H420.018" stroke="#141B34" stroke-width="2" stroke-linecap="round" stroke-linejoin="round"/>
<path d="M394.688 160.084H418.688" stroke="#141B34" stroke-width="2" stroke-linecap="round" stroke-linejoin="round"/>
<path d="M404.023 164.084L404.231 164.188C404.791 164.468 405.071 164.608 405.374 164.679C405.676 164.751 405.989 164.751 406.616 164.751H406.764C407.391 164.751 407.704 164.751 408.007 164.679C408.309 164.608 408.589 164.468 409.15 164.188L409.357 164.084" stroke="#141B34" stroke-width="2" stroke-linecap="round" stroke-linejoin="round"/>
<path d="M404.023 154.751L404.231 154.854C404.791 155.135 405.071 155.275 405.374 155.346C405.676 155.417 405.989 155.417 406.616 155.417H406.764C407.391 155.417 407.704 155.417 408.007 155.346C408.309 155.275 408.589 155.135 409.15 154.854L409.357 154.751" stroke="#141B34" stroke-width="2" stroke-linecap="round" stroke-linejoin="round"/>
<rect width="81" height="81" transform="translate(38.1875 203.584)" fill="#FAFAFA"/>
<path d="M86.6875 230.751V233.417M70.6875 230.751V233.417" stroke="#141B34" stroke-width="2" stroke-linecap="round" stroke-linejoin="round"/>
<path d="M76.0208 250.751L76.0208 245.88C76.0208 245.625 75.8385 245.417 75.6136 245.417H74.6875M80.8604 250.751L82.6664 245.883C82.7508 245.655 82.5712 245.417 82.3151 245.417H80.0208" stroke="#141B34" stroke-width="2" stroke-linecap="round"/>
<path d="M66.0234 244.408C66.0234 238.599 66.0234 235.694 67.6929 233.889C69.3624 232.084 72.0494 232.084 77.4234 232.084H79.9568C85.3308 232.084 88.0178 232.084 89.6873 233.889C91.3568 235.694 91.3568 238.599 91.3568 244.408V245.093C91.3568 250.903 91.3568 253.808 89.6873 255.613C88.0178 257.417 85.3308 257.417 79.9568 257.417H77.4234C72.0494 257.417 69.3624 257.417 67.6929 255.613C66.0234 253.808 66.0234 250.903 66.0234 245.093V244.408Z" stroke="#141B34" stroke-width="2" stroke-linecap="round" stroke-linejoin="round"/>
<path d="M70.6875 238.751H86.6875" stroke="#141B34" stroke-width="2" stroke-linecap="round" stroke-linejoin="round"/>
<rect width="81" height="81" transform="translate(120.188 203.584)" fill="white"/>
<path d="M149.722 244.007C148.458 241.803 147.847 240.003 147.479 238.179C146.935 235.481 148.181 232.845 150.244 231.163C151.116 230.453 152.116 230.695 152.632 231.621L153.796 233.709C154.719 235.365 155.18 236.193 155.088 237.07C154.997 237.948 154.375 238.662 153.13 240.092L149.722 244.007ZM149.722 244.007C152.28 248.468 156.295 252.486 160.762 255.047M160.762 255.047C162.966 256.311 164.766 256.922 166.59 257.29C169.288 257.834 171.924 256.588 173.606 254.525C174.316 253.653 174.074 252.653 173.148 252.137L171.06 250.973C169.404 250.05 168.576 249.589 167.699 249.68C166.821 249.772 166.106 250.394 164.677 251.639L160.762 255.047Z" stroke="#141B34" stroke-width="2" stroke-linejoin="round"/>
<rect width="81" height="81" transform="translate(202.188 203.584)" fill="#FAFAFA"/>
<path d="M249.354 256.084C250.827 256.084 252.021 254.89 252.021 253.417C252.021 251.945 250.827 250.751 249.354 250.751C247.881 250.751 246.688 251.945 246.688 253.417C246.688 254.89 247.881 256.084 249.354 256.084Z" stroke="#141B34" stroke-width="2"/>
<path d="M236.018 256.084C237.491 256.084 238.685 254.89 238.685 253.417C238.685 251.945 237.491 250.751 236.018 250.751C234.545 250.751 233.352 251.945 233.352 253.417C233.352 254.89 234.545 256.084 236.018 256.084Z" stroke="#141B34" stroke-width="2"/>
<path d="M248.018 237.417H254.603C255.261 237.417 255.591 237.417 255.779 237.264C255.893 237.171 255.973 237.043 256.007 236.901C256.062 236.667 255.914 236.377 255.62 235.797C254.881 234.342 254.511 233.614 253.936 233.106C253.577 232.789 253.163 232.538 252.715 232.363C251.995 232.084 251.169 232.084 249.516 232.084H237.479C233.648 232.084 231.732 232.084 230.542 233.256C229.352 234.427 229.352 236.313 229.352 240.084V246.751" stroke="#141B34" stroke-width="2" stroke-linecap="round" stroke-linejoin="round"/>
<path d="M238.685 253.417H246.685M252.018 253.417C254.227 253.417 256.018 251.626 256.018 249.417V245.417H232.018C230.761 245.417 230.133 245.417 229.742 245.808C229.352 246.198 229.352 246.827 229.352 248.084V249.417C229.352 251.303 229.352 252.246 229.937 252.832C230.523 253.417 231.466 253.417 233.352 253.417" stroke="#141B34" stroke-width="2" stroke-linecap="round" stroke-linejoin="round"/>
<path d="M234.688 237.417H237.354" stroke="#141B34" stroke-width="2" stroke-linecap="round" stroke-linejoin="round"/>
<path d="M245.352 245.417V240.038C245.352 239.085 245.352 238.608 245.516 238.249C245.638 237.981 245.821 237.761 246.044 237.614C246.344 237.417 246.741 237.417 247.536 237.417C248.737 237.417 249.338 237.417 249.89 237.612C250.306 237.759 250.699 237.985 251.054 238.283C251.526 238.679 251.902 239.242 252.652 240.368L256.018 245.417" stroke="#141B34" stroke-width="2" stroke-linecap="round" stroke-linejoin="round"/>
<rect width="81" height="81" transform="translate(284.188 203.584)" fill="white"/>
<path d="M328.843 247.284L321.164 239.604M321.165 247.284L328.844 239.604" stroke="#141B34" stroke-width="1.92" stroke-linecap="round" stroke-linejoin="round"/>
<path d="M337.811 243.444C337.811 236.375 332.08 230.644 325.011 230.644C317.942 230.644 312.211 236.375 312.211 243.444C312.211 250.513 317.942 256.244 325.011 256.244C332.08 256.244 337.811 250.513 337.811 243.444Z" stroke="#141B34" stroke-width="1.92"/>
<rect width="81" height="81" transform="translate(366.188 203.584)" fill="#FAFAFA"/>
<path d="M406.021 257.417C400.678 257.417 398.007 257.417 396.347 255.465C394.688 253.512 394.688 250.369 394.688 244.084C394.688 237.799 394.688 234.656 396.347 232.703C398.007 230.751 400.678 230.751 406.021 230.751C411.363 230.751 414.035 230.751 415.694 232.703C417.03 234.275 417.291 236.618 417.342 240.751" stroke="#141B34" stroke-width="2" stroke-linecap="round" stroke-linejoin="round"/>
<path d="M401.352 238.751H410.685M401.352 245.417H405.352" stroke="#141B34" stroke-width="2" stroke-linecap="round" stroke-linejoin="round"/>
<path d="M416.83 252.225C417.954 251.406 418.685 250.081 418.685 248.584C418.685 246.099 416.67 244.084 414.185 244.084H413.852C411.366 244.084 409.352 246.099 409.352 248.584C409.352 250.081 410.082 251.406 411.206 252.225M416.83 252.225C416.088 252.765 415.174 253.084 414.185 253.084H413.852C412.863 253.084 411.948 252.765 411.206 252.225M416.83 252.225L417.608 254.671C417.904 255.604 418.052 256.071 418.012 256.362C417.927 256.966 417.434 257.415 416.852 257.417C416.572 257.418 416.153 257.198 415.315 256.759C414.955 256.57 414.775 256.475 414.592 256.42C414.217 256.307 413.82 256.307 413.445 256.42C413.261 256.475 413.081 256.57 412.722 256.759C411.884 257.198 411.464 257.418 411.185 257.417C410.602 257.415 410.109 256.966 410.025 256.362C409.984 256.071 410.132 255.604 410.429 254.671L411.206 252.225" stroke="#141B34" stroke-width="2"/>
<rect width="81" height="81" transform="translate(38.1875 285.584)" fill="white"/>
<path d="M74.0234 326.084C75.128 326.084 76.0234 325.189 76.0234 324.084C76.0234 322.979 75.128 322.084 74.0234 322.084C72.9189 322.084 72.0234 322.979 72.0234 324.084C72.0234 325.189 72.9189 326.084 74.0234 326.084Z" stroke="#141B34" stroke-width="2"/>
<path d="M82.0234 332.751C83.128 332.751 84.0234 331.855 84.0234 330.751C84.0234 329.646 83.128 328.751 82.0234 328.751C80.9189 328.751 80.0234 329.646 80.0234 330.751C80.0234 331.855 80.9189 332.751 82.0234 332.751Z" stroke="#141B34" stroke-width="2"/>
<path d="M87.3516 322.084C88.4561 322.084 89.3516 321.189 89.3516 320.084C89.3516 318.979 88.4561 318.084 87.3516 318.084C86.247 318.084 85.3516 318.979 85.3516 320.084C85.3516 321.189 86.247 322.084 87.3516 322.084Z" stroke="#141B34" stroke-width="2"/>
<path d="M83.2663 329.146L86.6875 322.084M75.4642 325.509L80.2926 329.146M66.6875 335.417L72.8069 325.923" stroke="#141B34" stroke-width="2" stroke-linecap="round" stroke-linejoin="round"/>
<path d="M89.3516 338.084H74.6849C70.2851 338.084 68.0852 338.084 66.7184 336.717C65.3516 335.35 65.3516 333.15 65.3516 328.751V314.084" stroke="#141B34" stroke-width="2" stroke-linecap="round"/>
<rect width="81" height="81" transform="translate(120.188 285.584)" fill="#FAFAFA"/>
<path d="M170.006 335.417H170.018M170.006 335.417C169.175 336.241 167.671 336.036 166.615 336.036C165.32 336.036 164.696 336.289 163.772 337.213C162.985 338.001 161.93 339.417 160.685 339.417C159.44 339.417 158.385 338.001 157.598 337.213C156.673 336.289 156.05 336.036 154.754 336.036C153.699 336.036 152.194 336.241 151.364 335.417C150.527 334.587 150.733 333.077 150.733 332.015C150.733 330.673 150.44 330.055 149.484 329.1C148.062 327.678 147.352 326.967 147.352 326.084C147.352 325.201 148.062 324.49 149.484 323.068C150.337 322.215 150.733 321.37 150.733 320.153C150.733 319.098 150.528 317.594 151.352 316.763C152.181 315.926 153.692 316.132 154.754 316.132C155.971 316.132 156.816 315.736 157.669 314.883C159.091 313.461 159.802 312.751 160.685 312.751C161.568 312.751 162.279 313.461 163.701 314.883C164.554 315.736 165.399 316.132 166.615 316.132C167.671 316.132 169.175 315.927 170.006 316.751C170.842 317.581 170.636 319.091 170.636 320.153C170.636 321.495 170.93 322.112 171.886 323.068C173.307 324.49 174.018 325.201 174.018 326.084C174.018 326.967 173.307 327.678 171.886 329.1C170.93 330.055 170.636 330.673 170.636 332.015C170.636 333.077 170.842 334.587 170.006 335.417Z" stroke="#141B34" stroke-width="2"/>
<path d="M156.688 327.275L159.088 329.417L164.688 322.751" stroke="#141B34" stroke-width="2" stroke-linecap="round" stroke-linejoin="round"/>
<rect width="81" height="81" transform="translate(202.188 285.584)" fill="white"/>
<path d="M233.352 330.084C233.352 324.929 237.53 320.751 242.685 320.751C247.84 320.751 252.018 324.929 252.018 330.084C252.018 335.239 247.84 339.417 242.685 339.417C237.53 339.417 233.352 335.239 233.352 330.084Z" stroke="#141B34" stroke-width="2"/>
<path d="M248.688 322.751V318.751C248.688 315.437 246.001 312.751 242.688 312.751C239.374 312.751 236.688 315.437 236.688 318.751V322.751" stroke="#141B34" stroke-width="2" stroke-linecap="round"/>
<path d="M242.688 330.084H242.699" stroke="#141B34" stroke-width="2.66667" stroke-linecap="round" stroke-linejoin="round"/>
<rect width="81" height="81" transform="translate(284.188 285.584)" fill="#FAFAFA"/>
<path d="M311.82 327.702C311.349 324.639 311.114 323.108 311.693 321.75C312.272 320.392 313.557 319.463 316.126 317.605L318.046 316.217C321.243 313.906 322.841 312.751 324.685 312.751C326.529 312.751 328.127 313.906 331.324 316.217L333.243 317.605C335.813 319.463 337.098 320.392 337.677 321.75C338.256 323.108 338.02 324.639 337.55 327.702L337.148 330.314C336.481 334.656 336.147 336.827 334.59 338.122C333.033 339.417 330.756 339.417 326.203 339.417H323.166C318.613 339.417 316.337 339.417 314.78 338.122C313.222 336.827 312.889 334.656 312.221 330.314L311.82 327.702Z" stroke="#141B34" stroke-width="2" stroke-linejoin="round"/>
<path d="M324.688 323.417V331.417M320.688 327.417H328.688" stroke="#141B34" stroke-width="2" stroke-linecap="round"/>
<rect width="81" height="81" transform="translate(366.188 285.584)" fill="white"/>
<path d="M401.352 328.084H412.018M401.352 321.417H406.685" stroke="#141B34" stroke-width="2" stroke-linecap="round" stroke-linejoin="round"/>
<path d="M398.817 335.417C397.083 335.247 395.785 334.726 394.914 333.855C393.352 332.293 393.352 329.779 393.352 324.751V324.084C393.352 319.056 393.352 316.541 394.914 314.979C396.476 313.417 398.99 313.417 404.018 313.417H409.352C414.38 313.417 416.894 313.417 418.456 314.979C420.018 316.541 420.018 319.056 420.018 324.084V324.751C420.018 329.779 420.018 332.293 418.456 333.855C416.894 335.417 414.38 335.417 409.352 335.417C408.604 335.434 408.009 335.491 407.424 335.624C405.826 335.992 404.347 336.809 402.885 337.522C400.801 338.538 399.76 339.046 399.106 338.571C397.855 337.639 399.078 334.753 399.352 333.417" stroke="#141B34" stroke-width="2" stroke-linecap="round"/>
<rect width="81" height="81" transform="translate(38.1875 367.584)" fill="#FAFAFA"/>
<path d="M72.0701 418.339C74.3451 418.109 75.9331 414.456 77.8024 413.314C78.5388 412.865 79.1916 413.321 79.6528 413.922L84.1154 419.73C84.8929 420.742 85.4405 421.044 86.6129 420.443C88.4153 419.521 90.1281 417.805 91.0496 416.006C91.6498 414.834 91.3486 414.287 90.3368 413.509L84.528 409.047C83.9276 408.585 83.471 407.933 83.9206 407.196C85.0617 405.327 88.7154 403.739 88.945 401.464C89.3489 397.317 69.9394 393.541 67.0431 396.437C64.1473 399.333 67.9233 418.743 72.0701 418.339Z" stroke="#141B34" stroke-width="2" stroke-linecap="round" stroke-linejoin="round"/>
<rect width="81" height="81" transform="translate(120.188 367.584)" fill="white"/>
<path d="M147.352 409.989V402.751H174.018V409.989C174.018 415.376 174.018 418.07 172.283 419.744C170.547 421.417 167.753 421.417 162.166 421.417H159.203C153.616 421.417 150.823 421.417 149.087 419.744C147.352 418.07 147.352 415.376 147.352 409.989Z" stroke="#141B34" stroke-width="2" stroke-linecap="round" stroke-linejoin="round"/>
<path d="M147.352 402.751L148.634 399.674C149.628 397.287 150.125 396.094 151.133 395.422C152.14 394.751 153.433 394.751 156.018 394.751H165.352C167.937 394.751 169.229 394.751 170.237 395.422C171.245 396.094 171.742 397.287 172.736 399.674L174.018 402.751" stroke="#141B34" stroke-width="2" stroke-linecap="round"/>
<path d="M160.688 402.751V394.751" stroke="#141B34" stroke-width="2" stroke-linecap="round"/>
<path d="M158.023 408.084H163.357" stroke="#141B34" stroke-width="2" stroke-linecap="round"/>
<rect width="81" height="81" transform="translate(202.188 367.584)" fill="#FAFAFA"/>
<path d="M230.023 408.084C230.023 402.113 230.023 399.127 231.878 397.272C233.733 395.417 236.719 395.417 242.69 395.417C248.661 395.417 251.647 395.417 253.502 397.272C255.357 399.127 255.357 402.113 255.357 408.084C255.357 414.055 255.357 417.041 253.502 418.896C251.647 420.751 248.661 420.751 242.69 420.751C236.719 420.751 233.733 420.751 231.878 418.896C230.023 417.041 230.023 414.055 230.023 408.084Z" stroke="#141B34" stroke-width="2"/>
<path d="M230.023 401.417H255.357" stroke="#141B34" stroke-width="2" stroke-linejoin="round"/>
<path d="M230.023 414.751H255.357" stroke="#141B34" stroke-width="2" stroke-linejoin="round"/>
<path d="M242.688 414.751V401.417" stroke="#141B34" stroke-width="2" stroke-linecap="round" stroke-linejoin="round"/>
<path d="M237.352 401.417V396.084M248.018 401.417V396.084" stroke="#141B34" stroke-width="2" stroke-linecap="round" stroke-linejoin="round"/>
<path d="M237.352 420.084V414.751M248.018 420.084V414.751" stroke="#141B34" stroke-width="2" stroke-linecap="round" stroke-linejoin="round"/>
<rect width="81" height="81" transform="translate(284.188 367.584)" fill="white"/>
<path d="M318.018 401.417H331.018C333.827 401.417 335.232 401.417 336.24 402.091C336.677 402.383 337.052 402.758 337.344 403.195C338.018 404.204 338.018 405.608 338.018 408.417C338.018 413.099 338.018 415.44 336.895 417.121C336.408 417.849 335.783 418.474 335.055 418.96C333.374 420.084 331.033 420.084 326.352 420.084H324.685C318.399 420.084 315.257 420.084 313.304 418.131C311.352 416.179 311.352 413.036 311.352 406.751V402.676C311.352 400.254 311.352 399.043 311.859 398.135C312.22 397.487 312.755 396.953 313.402 396.591C314.311 396.084 315.522 396.084 317.944 396.084C319.496 396.084 320.271 396.084 320.951 396.339C322.501 396.92 323.141 398.329 323.84 399.728L324.685 401.417" stroke="#141B34" stroke-width="2" stroke-linecap="round"/>
<rect width="81" height="81" transform="translate(366.188 367.584)" fill="#FAFAFA"/>
<path d="M410.023 400.084C411.059 400.084 411.577 400.084 411.985 400.253C412.529 400.479 412.962 400.911 413.188 401.456C413.357 401.864 413.357 402.382 413.357 403.417C413.357 404.453 413.357 404.97 413.188 405.379C412.962 405.923 412.529 406.356 411.985 406.581C411.577 406.751 411.059 406.751 410.023 406.751H403.357C402.321 406.751 401.804 406.751 401.395 406.581C400.851 406.356 400.418 405.923 400.193 405.379C400.023 404.97 400.023 404.453 400.023 403.417C400.023 402.382 400.023 401.864 400.193 401.456C400.418 400.911 400.851 400.479 401.395 400.253C401.804 400.084 402.321 400.084 403.357 400.084H410.023Z" stroke="#141B34" stroke-width="2" stroke-linecap="round"/>
<path d="M405.357 414.751H402.69M402.69 414.751H400.023M402.69 414.751V417.417M402.69 414.751V412.084" stroke="#141B34" stroke-width="2" stroke-linecap="round"/>
<path d="M413.352 416.084V413.417" stroke="#141B34" stroke-width="2" stroke-linecap="round" stroke-linejoin="round"/>
<path d="M418.688 409.417V406.751C418.688 401.751 418.687 399.251 417.414 397.499C417.003 396.933 416.505 396.435 415.939 396.024C414.187 394.751 411.687 394.751 406.688 394.751C401.688 394.751 399.188 394.751 397.436 396.024C396.87 396.435 396.372 396.933 395.961 397.499C394.688 399.251 394.688 401.751 394.688 406.751V409.417C394.688 414.417 394.688 416.917 395.961 418.669C396.372 419.235 396.87 419.733 397.436 420.144C399.188 421.417 401.688 421.417 406.688 421.417C411.687 421.417 414.187 421.417 415.939 420.144C416.505 419.733 417.003 419.235 417.414 418.669C418.687 416.917 418.688 414.417 418.688 409.417Z" stroke="#141B34" stroke-width="2" stroke-linecap="round"/>
<line x1="38.6875" y1="16.584" x2="38.6875" y2="470.584" stroke="#EFEFEF"/>
<line x1="16.1875" y1="39.084" x2="470.188" y2="39.084" stroke="#EFEFEF"/>
<line x1="16.1875" y1="121.084" x2="470.188" y2="121.084" stroke="#EFEFEF"/>
<line x1="16.1875" y1="203.084" x2="470.188" y2="203.084" stroke="#EFEFEF"/>
<line x1="16.1875" y1="285.084" x2="470.188" y2="285.084" stroke="#EFEFEF"/>
<line x1="16.1875" y1="367.084" x2="470.188" y2="367.084" stroke="#EFEFEF"/>
<line x1="16.1875" y1="449.084" x2="470.188" y2="449.084" stroke="#EFEFEF"/>
<line x1="119.688" y1="16.584" x2="119.688" y2="470.584" stroke="#EFEFEF"/>
<line x1="201.688" y1="16.584" x2="201.688" y2="470.584" stroke="#EFEFEF"/>
<line x1="283.688" y1="16.584" x2="283.688" y2="470.584" stroke="#EFEFEF"/>
<line x1="365.688" y1="16.584" x2="365.688" y2="470.584" stroke="#EFEFEF"/>
<line x1="447.688" y1="16.584" x2="447.688" y2="470.584" stroke="#EFEFEF"/>
<g filter="url(#filter0_f_624_14073)">
<ellipse cx="253.688" cy="499.584" rx="44" ry="273.5" transform="rotate(-90 253.688 499.584)" fill="white"/>
</g>
<g filter="url(#filter1_f_624_14073)">
<ellipse cx="253.688" cy="-10.416" rx="44" ry="273.5" transform="rotate(-90 253.688 -10.416)" fill="white"/>
</g>
<g filter="url(#filter2_f_624_14073)">
<ellipse cx="-6.8125" cy="243.084" rx="44" ry="273.5" fill="white"/>
</g>
<g filter="url(#filter3_f_624_14073)">
<ellipse cx="487.188" cy="243.084" rx="44" ry="273.5" fill="white"/>
</g>
</g>
<rect x="0.9375" y="1.33398" width="484.5" height="484.5" rx="15.25" stroke="#EFEFEF" stroke-width="1.5"/>
<defs>
<filter id="filter0_f_624_14073" x="-69.8125" y="405.584" width="647" height="188" filterUnits="userSpaceOnUse" color-interpolation-filters="sRGB">
<feFlood flood-opacity="0" result="BackgroundImageFix"/>
<feBlend mode="normal" in="SourceGraphic" in2="BackgroundImageFix" result="shape"/>
<feGaussianBlur stdDeviation="25" result="effect1_foregroundBlur_624_14073"/>
</filter>
<filter id="filter1_f_624_14073" x="-69.8125" y="-104.416" width="647" height="188" filterUnits="userSpaceOnUse" color-interpolation-filters="sRGB">
<feFlood flood-opacity="0" result="BackgroundImageFix"/>
<feBlend mode="normal" in="SourceGraphic" in2="BackgroundImageFix" result="shape"/>
<feGaussianBlur stdDeviation="25" result="effect1_foregroundBlur_624_14073"/>
</filter>
<filter id="filter2_f_624_14073" x="-100.812" y="-80.416" width="188" height="647" filterUnits="userSpaceOnUse" color-interpolation-filters="sRGB">
<feFlood flood-opacity="0" result="BackgroundImageFix"/>
<feBlend mode="normal" in="SourceGraphic" in2="BackgroundImageFix" result="shape"/>
<feGaussianBlur stdDeviation="25" result="effect1_foregroundBlur_624_14073"/>
</filter>
<filter id="filter3_f_624_14073" x="393.188" y="-80.416" width="188" height="647" filterUnits="userSpaceOnUse" color-interpolation-filters="sRGB">
<feFlood flood-opacity="0" result="BackgroundImageFix"/>
<feBlend mode="normal" in="SourceGraphic" in2="BackgroundImageFix" result="shape"/>
<feGaussianBlur stdDeviation="25" result="effect1_foregroundBlur_624_14073"/>
</filter>
<clipPath id="clip0_624_14073">
<rect x="0.1875" y="0.583984" width="486" height="486" rx="16" fill="white"/>
</clipPath>
</defs>
</svg>