<svg xmlns:xlink="http://www.w3.org/1999/xlink" xmlns="http://www.w3.org/2000/svg" width="487" height="487" viewBox="0 0 487 487" fill="none">
<g clip-path="url(#clip0_624_15627)">
<rect x="0.1875" y="0.583984" width="486" height="486" rx="16" fill="white"/>
<rect width="81" height="81" transform="translate(38.1875 39.584)" fill="#FAFAFA"/>
<path d="M66.0234 80.0839C66.0234 74.1128 66.0234 71.1272 67.8784 69.2722C69.7334 67.4172 72.719 67.4172 78.6901 67.4172C84.6612 67.4172 87.6468 67.4172 89.5018 69.2722C91.3568 71.1272 91.3568 74.1128 91.3568 80.0839C91.3568 86.055 91.3568 89.0406 89.5018 90.8956C87.6468 92.7506 84.6612 92.7506 78.6901 92.7506C72.719 92.7506 69.7334 92.7506 67.8784 90.8956C66.0234 89.0406 66.0234 86.055 66.0234 80.0839Z" stroke="#141B34" stroke-width="2" stroke-linejoin="round"/>
<path opacity="0.4" d="M69.7324 85.1219C69.5692 85.6495 69.8646 86.2095 70.3922 86.3727C70.9199 86.5359 71.4799 86.2406 71.6431 85.7129L69.7324 85.1219ZM77.7324 85.7129C77.8956 86.2406 78.4556 86.5359 78.9832 86.3727C79.511 86.2095 79.8063 85.6495 79.6431 85.1219L77.7324 85.7129ZM87.2034 84.573C87.4782 84.0939 87.3126 83.4829 86.8335 83.2081C86.3544 82.9333 85.7432 83.099 85.4684 83.5781L87.2034 84.573ZM77.5227 78.2671C77.1384 77.0248 76.8232 75.9999 76.5083 75.2955C76.351 74.9437 76.1582 74.5872 75.8989 74.3082C75.6179 74.0059 75.2134 73.7507 74.6878 73.7507V75.7507C74.5124 75.7507 74.4197 75.6544 74.4339 75.6698C74.4699 75.7084 74.5558 75.8284 74.6825 76.1119C74.9358 76.6782 75.2102 77.5591 75.612 78.8582L77.5227 78.2671ZM73.7635 78.8582C74.1653 77.5591 74.4398 76.6782 74.693 76.1119C74.8198 75.8284 74.9057 75.7084 74.9416 75.6698C74.9559 75.6544 74.8632 75.7507 74.6878 75.7507V73.7507C74.1622 73.7507 73.7576 74.0059 73.4767 74.3082C73.2173 74.5872 73.0245 74.9437 72.8672 75.2955C72.5523 75.9999 72.2371 77.0248 71.8528 78.2671L73.7635 78.8582ZM71.6431 85.7129L72.798 81.9795L70.8873 81.3886L69.7324 85.1219L71.6431 85.7129ZM72.798 81.9795L73.7635 78.8582L71.8528 78.2671L70.8873 81.3886L72.798 81.9795ZM75.612 78.8582L76.5776 81.9795L78.4883 81.3886L77.5227 78.2671L75.612 78.8582ZM76.5776 81.9795L77.7324 85.7129L79.6431 85.1219L78.4883 81.3886L76.5776 81.9795ZM71.8426 82.6841H77.533V80.6841H71.8426V82.6841ZM82.3544 80.0841C82.3544 79.1635 83.1006 78.4174 84.0211 78.4174V76.4174C81.996 76.4174 80.3544 78.059 80.3544 80.0841H82.3544ZM84.0211 84.4174C83.1006 84.4174 82.3544 83.6713 82.3544 82.7507H80.3544C80.3544 84.7758 81.996 86.4174 84.0211 86.4174V84.4174ZM87.6878 80.0841C87.6878 78.059 86.0462 76.4174 84.0211 76.4174V78.4174C84.9416 78.4174 85.6878 79.1635 85.6878 80.0841H87.6878ZM82.3544 82.7507V81.2435H80.3544V82.7507H82.3544ZM82.3544 81.2435V80.0841H80.3544V81.2435H82.3544ZM85.5283 80.2435H81.3544V82.2435H85.5283V80.2435ZM85.4684 83.5781C85.1796 84.0817 84.639 84.4174 84.0211 84.4174V86.4174C85.3844 86.4174 86.5726 85.6729 87.2034 84.573L85.4684 83.5781ZM85.6878 80.0841C85.6878 80.1722 85.6163 80.2435 85.5283 80.2435V82.2435C86.721 82.2435 87.6878 81.2767 87.6878 80.0841H85.6878Z" fill="#141B34"/>
<rect width="81" height="81" transform="translate(120.188 39.584)" fill="white"/>
<path d="M154.018 70.0841C151.809 70.0841 150.018 71.8749 150.018 74.0841C150.018 74.8423 150.229 75.5512 150.596 76.1554C148.748 76.5088 147.352 78.1334 147.352 80.0841C147.352 82.0347 148.748 83.6593 150.596 84.0127M154.018 70.0841C154.018 68.2431 155.511 66.7507 157.352 66.7507C159.192 66.7507 160.685 68.2431 160.685 70.0841V90.0841C160.685 91.925 159.192 93.4174 157.352 93.4174C155.511 93.4174 154.018 91.925 154.018 90.0841C151.809 90.0841 150.018 88.2933 150.018 86.0841C150.018 85.3258 150.229 84.6169 150.596 84.0127M154.018 70.0841C154.018 71.1746 154.542 72.1428 155.352 72.751M150.596 84.0127C151.071 83.2291 151.808 82.6217 152.685 82.3117" stroke="#141B34" stroke-width="2" stroke-linecap="round" stroke-linejoin="round"/>
<path opacity="0.4" d="M170.354 70.4172L167.354 73.4172H164.688M169.354 70.4172C169.354 70.9695 169.802 71.4172 170.354 71.4172C170.906 71.4172 171.354 70.9695 171.354 70.4172C171.354 69.865 170.906 69.4172 170.354 69.4172C169.802 69.4172 169.354 69.865 169.354 70.4172Z" stroke="#141B34" stroke-width="2" stroke-linecap="round" stroke-linejoin="round"/>
<path opacity="0.4" d="M170.354 89.7507L167.354 86.7507H164.688M169.354 89.7507C169.354 89.1985 169.802 88.7507 170.354 88.7507C170.906 88.7507 171.354 89.1985 171.354 89.7507C171.354 90.303 170.906 90.7507 170.354 90.7507C169.802 90.7507 169.354 90.303 169.354 89.7507Z" stroke="#141B34" stroke-width="2" stroke-linecap="round" stroke-linejoin="round"/>
<path opacity="0.4" d="M170.354 80.084H164.688M169.354 80.084C169.354 80.6363 169.802 81.084 170.354 81.084C170.906 81.084 171.354 80.6363 171.354 80.084C171.354 79.5317 170.906 79.084 170.354 79.084C169.802 79.084 169.354 79.5317 169.354 80.084Z" stroke="#141B34" stroke-width="2" stroke-linecap="round" stroke-linejoin="round"/>
<rect width="81" height="81" transform="translate(202.188 39.584)" fill="#FAFAFA"/>
<path d="M242.685 70.0841C242.685 68.2431 241.192 66.7507 239.352 66.7507C237.511 66.7507 236.018 68.2431 236.018 70.0841C233.809 70.0841 232.018 71.8749 232.018 74.0841C232.018 74.8423 232.229 75.5512 232.596 76.1554C230.748 76.5088 229.352 78.1334 229.352 80.0841C229.352 82.0347 230.748 83.6593 232.596 84.0127C232.229 84.6169 232.018 85.3258 232.018 86.0841C232.018 88.2933 233.809 90.0841 236.018 90.0841C236.018 91.925 237.511 93.4174 239.352 93.4174C241.192 93.4174 242.685 91.925 242.685 90.0841" stroke="#141B34" stroke-width="2" stroke-linecap="round" stroke-linejoin="round"/>
<path d="M242.688 90.0841C242.688 91.925 244.18 93.4174 246.021 93.4174C247.862 93.4174 249.354 91.925 249.354 90.0841C251.563 90.0841 253.354 88.2933 253.354 86.0841C253.354 85.3258 253.143 84.6169 252.777 84.0127C254.624 83.6593 256.021 82.0347 256.021 80.0841C256.021 78.1334 254.624 76.5088 252.777 76.1554C253.143 75.5512 253.354 74.8423 253.354 74.0841C253.354 71.8749 251.563 70.0841 249.354 70.0841C249.354 68.2431 247.862 66.7507 246.021 66.7507C244.18 66.7507 242.688 68.2431 242.688 70.0841" stroke="#141B34" stroke-width="2" stroke-linecap="round" stroke-linejoin="round"/>
<path opacity="0.4" d="M241.69 84.0839C241.69 83.5316 241.242 83.0839 240.69 83.0839C240.138 83.0839 239.69 83.5316 239.69 84.0839H241.69ZM239.69 86.7506C239.69 87.3028 240.138 87.7506 240.69 87.7506C241.242 87.7506 241.69 87.3028 241.69 86.7506H239.69ZM245.69 84.0839C245.69 83.5316 245.242 83.0839 244.69 83.0839C244.138 83.0839 243.69 83.5316 243.69 84.0839H245.69ZM243.69 86.7506C243.69 87.3028 244.138 87.7506 244.69 87.7506C245.242 87.7506 245.69 87.3028 245.69 86.7506H243.69ZM241.69 73.4172C241.69 72.865 241.242 72.4172 240.69 72.4172C240.138 72.4172 239.69 72.865 239.69 73.4172H241.69ZM239.69 76.0839C239.69 76.6362 240.138 77.0839 240.69 77.0839C241.242 77.0839 241.69 76.6362 241.69 76.0839H239.69ZM245.69 73.4172C245.69 72.865 245.242 72.4172 244.69 72.4172C244.138 72.4172 243.69 72.865 243.69 73.4172H245.69ZM243.69 76.0839C243.69 76.6362 244.138 77.0839 244.69 77.0839C245.242 77.0839 245.69 76.6362 245.69 76.0839H243.69ZM238.69 79.0839C239.242 79.0839 239.69 78.6362 239.69 78.0839C239.69 77.5316 239.242 77.0839 238.69 77.0839V79.0839ZM236.023 77.0839C235.471 77.0839 235.023 77.5316 235.023 78.0839C235.023 78.6362 235.471 79.0839 236.023 79.0839V77.0839ZM238.69 83.0839C239.242 83.0839 239.69 82.6362 239.69 82.0839C239.69 81.5316 239.242 81.0839 238.69 81.0839V83.0839ZM236.023 81.0839C235.471 81.0839 235.023 81.5316 235.023 82.0839C235.023 82.6362 235.471 83.0839 236.023 83.0839V81.0839ZM249.357 79.0839C249.909 79.0839 250.357 78.6362 250.357 78.0839C250.357 77.5316 249.909 77.0839 249.357 77.0839V79.0839ZM246.69 77.0839C246.138 77.0839 245.69 77.5316 245.69 78.0839C245.69 78.6362 246.138 79.0839 246.69 79.0839V77.0839ZM249.357 83.0839C249.909 83.0839 250.357 82.6362 250.357 82.0839C250.357 81.5316 249.909 81.0839 249.357 81.0839V83.0839ZM246.69 81.0839C246.138 81.0839 245.69 81.5316 245.69 82.0839C245.69 82.6362 246.138 83.0839 246.69 83.0839V81.0839ZM241.357 77.0839H244.023V75.0839H241.357V77.0839ZM245.69 78.7506V81.4172H247.69V78.7506H245.69ZM244.023 83.0839H241.357V85.0839H244.023V83.0839ZM239.69 81.4172V78.7506H237.69V81.4172H239.69ZM241.357 83.0839C240.7 83.0839 240.308 83.0818 240.027 83.044C239.898 83.0267 239.834 83.0063 239.805 82.9943C239.798 82.9916 239.794 82.9894 239.791 82.988C239.788 82.9867 239.788 82.9864 239.788 82.9863L238.374 84.4004C238.786 84.8126 239.287 84.9624 239.76 85.0262C240.206 85.086 240.757 85.0839 241.357 85.0839V83.0839ZM237.69 81.4172C237.69 82.0175 237.688 82.5683 237.748 83.0135C237.812 83.4875 237.961 83.9884 238.374 84.4004L239.788 82.9863C239.788 82.9862 239.787 82.9855 239.786 82.983C239.785 82.9804 239.782 82.976 239.78 82.9692C239.768 82.9403 239.747 82.8758 239.73 82.747C239.692 82.466 239.69 82.074 239.69 81.4172H237.69ZM245.69 81.4172C245.69 82.074 245.688 82.466 245.65 82.747C245.633 82.8758 245.613 82.9403 245.601 82.9692C245.598 82.976 245.596 82.9804 245.594 82.983C245.593 82.9855 245.593 82.9862 245.593 82.9863C245.593 82.9859 245.593 82.9856 245.593 82.9863L247.007 84.4004C247.419 83.9884 247.569 83.4875 247.632 83.0135C247.692 82.5683 247.69 82.0175 247.69 81.4172H245.69ZM244.023 85.0839C244.624 85.0839 245.175 85.086 245.62 85.0262C246.094 84.9624 246.595 84.8126 247.007 84.4004L245.593 82.9863C245.592 82.9868 245.592 82.9867 245.593 82.9863C245.592 82.9864 245.592 82.9867 245.589 82.988C245.587 82.9894 245.582 82.9916 245.575 82.9943C245.547 83.0063 245.482 83.0267 245.353 83.044C245.072 83.0818 244.68 83.0839 244.023 83.0839V85.0839ZM244.023 77.0839C244.68 77.0839 245.072 77.086 245.353 77.1238C245.482 77.1411 245.547 77.1615 245.575 77.1734C245.582 77.1762 245.587 77.1784 245.589 77.1797C245.592 77.181 245.592 77.1814 245.593 77.1815L247.007 75.7673C246.595 75.3553 246.094 75.2054 245.62 75.1416C245.175 75.0818 244.624 75.0839 244.023 75.0839V77.0839ZM247.69 78.7506C247.69 78.1503 247.692 77.5995 247.632 77.1543C247.569 76.6803 247.419 76.1794 247.007 75.7673L245.593 77.1815C245.593 77.1816 245.593 77.1822 245.594 77.1848C245.596 77.1874 245.598 77.1918 245.601 77.1985C245.613 77.2276 245.633 77.292 245.65 77.4208C245.688 77.7018 245.69 78.0938 245.69 78.7506H247.69ZM241.357 75.0839C240.757 75.0839 240.206 75.0818 239.76 75.1416C239.287 75.2054 238.786 75.3553 238.374 75.7673L239.788 77.1815C239.788 77.1814 239.788 77.181 239.791 77.1797C239.794 77.1784 239.798 77.1762 239.805 77.1734C239.834 77.1615 239.898 77.1411 240.027 77.1238C240.308 77.086 240.7 77.0839 241.357 77.0839V75.0839ZM239.69 78.7506C239.69 78.0938 239.692 77.7018 239.73 77.4208C239.747 77.292 239.768 77.2276 239.78 77.1985C239.782 77.1918 239.785 77.1874 239.786 77.1848C239.787 77.1822 239.788 77.1816 239.788 77.1815C239.788 77.1812 239.788 77.1809 239.788 77.1815C239.787 77.1821 239.787 77.182 239.788 77.1815L238.374 75.7673C237.961 76.1794 237.812 76.6803 237.748 77.1543C237.688 77.5995 237.69 78.1503 237.69 78.7506H239.69ZM239.69 84.0839V86.7506H241.69V84.0839H239.69ZM243.69 84.0839V86.7506H245.69V84.0839H243.69ZM239.69 73.4172V76.0839H241.69V73.4172H239.69ZM243.69 73.4172V76.0839H245.69V73.4172H243.69ZM238.69 77.0839H236.023V79.0839H238.69V77.0839ZM238.69 81.0839H236.023V83.0839H238.69V81.0839ZM249.357 77.0839H246.69V79.0839H249.357V77.0839ZM249.357 81.0839H246.69V83.0839H249.357V81.0839Z" fill="#141B34"/>
<rect width="81" height="81" transform="translate(284.188 39.584)" fill="white"/>
<path d="M324.688 84.7507V91.4174" stroke="#141B34" stroke-width="2" stroke-linecap="round"/>
<path d="M316.659 68.4646C314.402 68.0349 313.274 67.82 312.313 68.6435C311.352 69.467 311.352 70.8043 311.352 73.4788V83.0907C311.352 85.5361 311.352 86.7588 311.968 87.5223C312.585 88.2856 313.943 88.5441 316.659 89.0613C319.08 89.5223 320.969 90.2567 322.337 90.9948C323.683 91.7209 324.356 92.084 324.685 92.084C325.014 92.084 325.687 91.7209 327.033 90.9948C328.4 90.2567 330.29 89.5223 332.711 89.0613C335.427 88.5441 336.785 88.2856 337.401 87.5223C338.018 86.7588 338.018 85.5361 338.018 83.0907V73.4788C338.018 70.8043 338.018 69.467 337.057 68.6435C336.096 67.82 334.968 68.0349 332.711 68.4646" stroke="#141B34" stroke-width="2" stroke-linecap="round" stroke-linejoin="round"/>
<path opacity="0.4" d="M323.69 78.7507C323.69 78.1984 323.242 77.7507 322.69 77.7507C322.138 77.7507 321.69 78.1984 321.69 78.7507H323.69ZM321.69 81.4173C321.69 81.9696 322.138 82.4173 322.69 82.4173C323.242 82.4173 323.69 81.9696 323.69 81.4173H321.69ZM327.69 78.7507C327.69 78.1984 327.242 77.7507 326.69 77.7507C326.138 77.7507 325.69 78.1984 325.69 78.7507H327.69ZM325.69 81.4173C325.69 81.9696 326.138 82.4173 326.69 82.4173C327.242 82.4173 327.69 81.9696 327.69 81.4173H325.69ZM323.69 68.084C323.69 67.5317 323.242 67.084 322.69 67.084C322.138 67.084 321.69 67.5317 321.69 68.084H323.69ZM321.69 70.7507C321.69 71.3029 322.138 71.7507 322.69 71.7507C323.242 71.7507 323.69 71.3029 323.69 70.7507H321.69ZM327.69 68.084C327.69 67.5317 327.242 67.084 326.69 67.084C326.138 67.084 325.69 67.5317 325.69 68.084H327.69ZM325.69 70.7507C325.69 71.3029 326.138 71.7507 326.69 71.7507C327.242 71.7507 327.69 71.3029 327.69 70.7507H325.69ZM320.69 73.7507C321.242 73.7507 321.69 73.3029 321.69 72.7507C321.69 72.1984 321.242 71.7507 320.69 71.7507V73.7507ZM318.023 71.7507C317.471 71.7507 317.023 72.1984 317.023 72.7507C317.023 73.3029 317.471 73.7507 318.023 73.7507V71.7507ZM320.69 77.7507C321.242 77.7507 321.69 77.3029 321.69 76.7507C321.69 76.1984 321.242 75.7507 320.69 75.7507V77.7507ZM318.023 75.7507C317.471 75.7507 317.023 76.1984 317.023 76.7507C317.023 77.3029 317.471 77.7507 318.023 77.7507V75.7507ZM331.357 73.7507C331.909 73.7507 332.357 73.3029 332.357 72.7507C332.357 72.1984 331.909 71.7507 331.357 71.7507V73.7507ZM328.69 71.7507C328.138 71.7507 327.69 72.1984 327.69 72.7507C327.69 73.3029 328.138 73.7507 328.69 73.7507V71.7507ZM331.357 77.7507C331.909 77.7507 332.357 77.3029 332.357 76.7507C332.357 76.1984 331.909 75.7507 331.357 75.7507V77.7507ZM328.69 75.7507C328.138 75.7507 327.69 76.1984 327.69 76.7507C327.69 77.3029 328.138 77.7507 328.69 77.7507V75.7507ZM323.357 71.7507H326.023V69.7507H323.357V71.7507ZM327.69 73.4173V76.084H329.69V73.4173H327.69ZM326.023 77.7507H323.357V79.7507H326.023V77.7507ZM321.69 76.084V73.4173H319.69V76.084H321.69ZM323.357 77.7507C322.7 77.7507 322.308 77.7485 322.027 77.7108C321.898 77.6935 321.834 77.6731 321.805 77.6611C321.798 77.6584 321.794 77.6561 321.791 77.6548C321.788 77.6535 321.788 77.6532 321.788 77.6531L320.374 79.0672C320.786 79.4793 321.287 79.6292 321.76 79.6929C322.206 79.7528 322.757 79.7507 323.357 79.7507V77.7507ZM319.69 76.084C319.69 76.6843 319.688 77.2351 319.748 77.6803C319.812 78.1543 319.961 78.6552 320.374 79.0672L321.788 77.6531C321.788 77.6529 321.787 77.6523 321.786 77.6497C321.785 77.6472 321.782 77.6428 321.78 77.636C321.768 77.607 321.747 77.5425 321.73 77.4138C321.692 77.1328 321.69 76.7408 321.69 76.084H319.69ZM327.69 76.084C327.69 76.7408 327.688 77.1328 327.65 77.4138C327.633 77.5425 327.613 77.607 327.601 77.636C327.598 77.6428 327.596 77.6472 327.594 77.6497C327.593 77.6523 327.593 77.6529 327.593 77.6531C327.593 77.6526 327.593 77.6524 327.593 77.6531L329.007 79.0672C329.419 78.6552 329.569 78.1543 329.632 77.6803C329.692 77.2351 329.69 76.6843 329.69 76.084H327.69ZM326.023 79.7507C326.624 79.7507 327.175 79.7528 327.62 79.6929C328.094 79.6292 328.595 79.4793 329.007 79.0672L327.593 77.6531C327.592 77.6536 327.592 77.6535 327.593 77.6531C327.592 77.6532 327.592 77.6535 327.589 77.6548C327.587 77.6561 327.582 77.6584 327.575 77.6611C327.547 77.6731 327.482 77.6935 327.353 77.7108C327.072 77.7485 326.68 77.7507 326.023 77.7507V79.7507ZM326.023 71.7507C326.68 71.7507 327.072 71.7528 327.353 71.7905C327.482 71.8079 327.547 71.8283 327.575 71.8402C327.582 71.843 327.587 71.8451 327.589 71.8465C327.592 71.8478 327.592 71.8482 327.593 71.8483L329.007 70.4341C328.595 70.022 328.094 69.8721 327.62 69.8084C327.175 69.7485 326.624 69.7507 326.023 69.7507V71.7507ZM329.69 73.4173C329.69 72.8171 329.692 72.2663 329.632 71.821C329.569 71.3471 329.419 70.8461 329.007 70.4341L327.593 71.8483C327.593 71.8484 327.593 71.849 327.594 71.8515C327.596 71.8541 327.598 71.8585 327.601 71.8653C327.613 71.8943 327.633 71.9588 327.65 72.0875C327.688 72.3685 327.69 72.7605 327.69 73.4173H329.69ZM323.357 69.7507C322.757 69.7507 322.206 69.7485 321.76 69.8084C321.287 69.8721 320.786 70.022 320.374 70.4341L321.788 71.8483C321.788 71.8482 321.788 71.8478 321.791 71.8465C321.794 71.8451 321.798 71.843 321.805 71.8402C321.834 71.8283 321.898 71.8079 322.027 71.7905C322.308 71.7528 322.7 71.7507 323.357 71.7507V69.7507ZM321.69 73.4173C321.69 72.7605 321.692 72.3685 321.73 72.0875C321.747 71.9588 321.768 71.8943 321.78 71.8653C321.782 71.8585 321.785 71.8541 321.786 71.8515C321.787 71.849 321.788 71.8484 321.788 71.8483C321.788 71.8479 321.788 71.8477 321.788 71.8483C321.787 71.8489 321.787 71.8487 321.788 71.8483L320.374 70.4341C319.961 70.8461 319.812 71.3471 319.748 71.821C319.688 72.2663 319.69 72.8171 319.69 73.4173H321.69ZM321.69 78.7507V81.4173H323.69V78.7507H321.69ZM325.69 78.7507V81.4173H327.69V78.7507H325.69ZM321.69 68.084V70.7507H323.69V68.084H321.69ZM325.69 68.084V70.7507H327.69V68.084H325.69ZM320.69 71.7507H318.023V73.7507H320.69V71.7507ZM320.69 75.7507H318.023V77.7507H320.69V75.7507ZM331.357 71.7507H328.69V73.7507H331.357V71.7507ZM331.357 75.7507H328.69V77.7507H331.357V75.7507Z" fill="#141B34"/>
<rect width="81" height="81" transform="translate(366.188 39.584)" fill="#FAFAFA"/>
<path opacity="0.4" d="M418.449 91.8452C416.877 93.4173 414.346 93.4173 409.286 93.4173C404.226 93.4173 401.695 93.4173 400.123 91.8452C399.247 90.9688 398.859 89.7945 398.688 88.05M414.654 72.084C416.398 72.2556 417.572 72.6434 418.449 73.5199C420.021 75.0919 420.021 77.6221 420.021 82.6825C420.021 84.5933 420.021 86.1435 419.936 87.4173" stroke="#141B34" stroke-width="2" stroke-linecap="round"/>
<path d="M413.123 86.5219C411.561 88.0841 409.046 88.0841 404.018 88.0841C398.99 88.0841 396.476 88.0841 394.914 86.5219C393.352 84.9599 393.352 82.4457 393.352 77.4174C393.352 72.3891 393.352 69.8749 394.914 68.3128M399.352 66.8323C400.61 66.7507 402.139 66.7507 404.018 66.7507C409.046 66.7507 411.561 66.7507 413.123 68.3128C414.685 69.8749 414.685 72.3891 414.685 77.4174C414.685 79.2971 414.685 80.8254 414.603 82.0841" stroke="#141B34" stroke-width="2" stroke-linecap="round"/>
<path d="M397.352 86.7506C399.775 83.5987 402.316 80.6394 405.352 78.7506M414.685 79.4763C413.016 78.1887 411.467 77.5567 410.018 77.4172" stroke="#141B34" stroke-width="2" stroke-linecap="round"/>
<path d="M393.352 66.7507L420.018 93.4174" stroke="#141B34" stroke-width="2" stroke-linecap="round" stroke-linejoin="round"/>
<rect width="81" height="81" transform="translate(38.1875 121.584)" fill="white"/>
<path opacity="0.4" d="M72.0234 155.417L86.6901 170.084" stroke="#141B34" stroke-width="2" stroke-linecap="round"/>
<path d="M80.0208 154.259C80.0208 154.259 72.5094 153.626 71.3695 154.766C70.2296 155.906 70.8629 163.417 70.8629 163.417" stroke="#141B34" stroke-width="2" stroke-linecap="round" stroke-linejoin="round"/>
<rect width="81" height="81" transform="translate(120.188 121.584)" fill="#FAFAFA"/>
<path d="M172.018 168.656V159.417C172.018 154.389 172.018 151.875 170.456 150.313C168.894 148.751 166.38 148.751 161.352 148.751H160.018C154.99 148.751 152.476 148.751 150.914 150.313C149.352 151.875 149.352 154.389 149.352 159.417V172.084" stroke="#141B34" stroke-width="2" stroke-linecap="round"/>
<path d="M172.018 168.751H152.685C150.844 168.751 149.352 170.243 149.352 172.084C149.352 173.925 150.844 175.417 152.685 175.417H172.018" stroke="#141B34" stroke-width="2" stroke-linecap="round"/>
<path opacity="0.4" d="M172.021 175.417C170.18 175.417 168.688 173.925 168.688 172.084C168.688 170.243 170.18 168.751 172.021 168.751" stroke="#141B34" stroke-width="2" stroke-linecap="round"/>
<path opacity="0.4" d="M164.688 155.417H156.688" stroke="#141B34" stroke-width="2" stroke-linecap="round" stroke-linejoin="round"/>
<path opacity="0.4" d="M160.688 160.751H156.688" stroke="#141B34" stroke-width="2" stroke-linecap="round" stroke-linejoin="round"/>
<rect width="81" height="81" transform="translate(202.188 121.584)" fill="white"/>
<path opacity="0.4" d="M232.023 170.058V159.027C232.023 154.183 232.023 151.761 233.586 150.256C235.148 148.751 237.662 148.751 242.69 148.751C247.718 148.751 250.233 148.751 251.795 150.256C253.357 151.761 253.357 154.183 253.357 159.027V170.058C253.357 173.133 253.357 174.67 252.326 175.22C250.331 176.286 246.588 172.731 244.81 171.661C243.779 171.04 243.264 170.729 242.69 170.729C242.117 170.729 241.601 171.04 240.57 171.661C238.793 172.731 235.049 176.286 233.054 175.22C232.023 174.67 232.023 173.133 232.023 170.058Z" stroke="#141B34" stroke-width="2" stroke-linecap="round" stroke-linejoin="round"/>
<path d="M242.69 148.751C237.662 148.751 235.148 148.751 233.586 150.256C232.023 151.761 232.023 154.183 232.023 159.027V170.058C232.023 173.133 232.023 174.67 233.054 175.22C235.049 176.286 238.793 172.731 240.57 171.661C241.601 171.04 242.117 170.729 242.69 170.729" stroke="#141B34" stroke-width="2" stroke-linecap="round" stroke-linejoin="round"/>
<rect width="81" height="81" transform="translate(284.188 121.584)" fill="#FAFAFA"/>
<path d="M336.018 168.656V159.417C336.018 154.389 336.018 151.875 334.456 150.313C332.894 148.751 330.38 148.751 325.352 148.751H324.018C318.99 148.751 316.476 148.751 314.914 150.313C313.352 151.875 313.352 154.389 313.352 159.417V172.084" stroke="#141B34" stroke-width="2" stroke-linecap="round"/>
<path d="M336.018 168.751H316.685C314.844 168.751 313.352 170.243 313.352 172.084C313.352 173.925 314.844 175.417 316.685 175.417H336.018" stroke="#141B34" stroke-width="2" stroke-linecap="round"/>
<path opacity="0.4" d="M336.021 168.751C334.18 168.751 332.688 170.243 332.688 172.084C332.688 173.925 334.18 175.417 336.021 175.417" stroke="#141B34" stroke-width="2" stroke-linecap="round"/>
<path opacity="0.4" d="M328.638 159.202C328.47 159.918 327.674 160.424 326.083 161.437C324.545 162.415 323.776 162.904 323.157 162.708C322.901 162.626 322.667 162.472 322.479 162.259C322.023 161.745 322.023 160.747 322.023 158.751C322.023 156.755 322.023 155.757 322.479 155.242C322.667 155.029 322.901 154.875 323.157 154.794C323.776 154.597 324.545 155.086 326.083 156.065C327.674 157.077 328.47 157.583 328.638 158.3C328.707 158.595 328.707 158.906 328.638 159.202Z" stroke="#141B34" stroke-width="2" stroke-linejoin="round"/>
<rect width="81" height="81" transform="translate(366.188 121.584)" fill="white"/>
<path opacity="0.4" d="M418.238 157.884C419.024 155.164 418.803 152.803 417.386 151.386C414.387 148.387 407.166 150.745 401.257 156.654C400.626 157.285 400.035 157.931 399.488 158.586M413.888 165.582C413.34 166.237 412.749 166.883 412.118 167.514C406.209 173.423 398.988 175.781 395.989 172.782C394.468 171.261 394.325 168.655 395.324 165.684" stroke="#141B34" stroke-width="2" stroke-linecap="round" stroke-linejoin="round"/>
<path d="M407.591 158.484L405.256 161.245C404.971 161.614 404.828 161.799 404.917 161.942C405.005 162.084 405.262 162.084 405.776 162.084H407.606C408.119 162.084 408.376 162.084 408.465 162.227C408.553 162.369 408.41 162.554 408.125 162.924L405.776 165.684" stroke="#141B34" stroke-width="2" stroke-linecap="round" stroke-linejoin="round"/>
<path d="M403.687 169.692C402.863 169.033 402.048 168.305 401.257 167.514C395.349 161.606 392.99 154.385 395.989 151.386C397.51 149.865 400.117 149.722 403.087 150.721M409.687 173.232C412.905 174.459 415.763 174.405 417.386 172.782C420.385 169.783 418.026 162.562 412.118 156.654C411.327 155.863 410.512 155.135 409.687 154.476" stroke="#141B34" stroke-width="2" stroke-linecap="round" stroke-linejoin="round"/>
<rect width="81" height="81" transform="translate(38.1875 203.584)" fill="#FAFAFA"/>
<path d="M86.6875 230.751V233.417M70.6875 230.751V233.417" stroke="#141B34" stroke-width="2" stroke-linecap="round" stroke-linejoin="round"/>
<path d="M91.3564 243.417C91.351 238.262 91.259 235.588 89.6873 233.889C88.0178 232.084 85.3308 232.084 79.9568 232.084H77.4234C72.0494 232.084 69.3624 232.084 67.6929 233.889C66.0234 235.694 66.0234 238.599 66.0234 244.408V245.093C66.0234 250.903 66.0234 253.808 67.6929 255.613C69.2919 257.341 71.763 257.414 76.6901 257.417L78.6901 257.417" stroke="#141B34" stroke-width="2" stroke-linecap="round" stroke-linejoin="round"/>
<path d="M66.6875 238.751H90.6875" stroke="#141B34" stroke-width="2" stroke-linecap="round" stroke-linejoin="round"/>
<path opacity="0.4" d="M83.3568 249.917C83.3568 250.47 83.8045 250.917 84.3568 250.917C84.909 250.917 85.3568 250.47 85.3568 249.917H83.3568ZM88.0234 249.917C88.0234 250.47 88.4712 250.917 89.0234 250.917C89.5757 250.917 90.0234 250.47 90.0234 249.917H88.0234ZM85.5234 250.917H87.8568V248.917H85.5234V250.917ZM87.8568 256.417H85.5234V258.417H87.8568V256.417ZM85.5234 256.417C84.9652 256.417 84.6001 256.417 84.3197 256.396C84.0496 256.376 83.9352 256.342 83.8694 256.313L83.0582 258.141C83.4213 258.302 83.793 258.363 84.1738 258.391C84.5441 258.418 84.9945 258.417 85.5234 258.417V256.417ZM81.0234 253.667C81.0234 254.237 81.0229 254.711 81.0477 255.099C81.0729 255.494 81.1272 255.869 81.2684 256.235L83.1338 255.513C83.0973 255.419 83.0628 255.273 83.0436 254.972C83.024 254.662 83.0234 254.262 83.0234 253.667H81.0234ZM83.8694 256.313C83.5529 256.172 83.2804 255.893 83.1338 255.513L81.2684 256.235C81.5953 257.08 82.2313 257.774 83.0582 258.141L83.8694 256.313ZM90.3568 253.667C90.3568 254.262 90.3562 254.662 90.3366 254.972C90.3174 255.273 90.2829 255.419 90.2464 255.513L92.1118 256.235C92.253 255.869 92.3073 255.494 92.3325 255.099C92.3573 254.711 92.3568 254.237 92.3568 253.667H90.3568ZM87.8568 258.417C88.3857 258.417 88.8361 258.418 89.2064 258.391C89.5872 258.363 89.9589 258.302 90.322 258.141L89.5108 256.313C89.445 256.342 89.3306 256.376 89.0605 256.396C88.7801 256.417 88.415 256.417 87.8568 256.417V258.417ZM90.2464 255.513C90.0998 255.893 89.8273 256.172 89.5108 256.313L90.322 258.141C91.1489 257.774 91.7849 257.08 92.1118 256.235L90.2464 255.513ZM87.8568 250.917C88.415 250.917 88.7801 250.918 89.0605 250.938C89.3306 250.958 89.445 250.992 89.5108 251.022L90.322 249.194C89.9589 249.032 89.5872 248.972 89.2064 248.944C88.8361 248.917 88.3857 248.917 87.8568 248.917V250.917ZM92.3568 253.667C92.3568 253.098 92.3573 252.624 92.3325 252.236C92.3073 251.84 92.253 251.465 92.1118 251.1L90.2464 251.821C90.2829 251.915 90.3174 252.061 90.3366 252.363C90.3562 252.672 90.3568 253.072 90.3568 253.667H92.3568ZM89.5108 251.022C89.8273 251.162 90.0998 251.442 90.2464 251.821L92.1118 251.1C91.7849 250.254 91.1489 249.56 90.322 249.194L89.5108 251.022ZM85.5234 248.917C84.9945 248.917 84.5441 248.917 84.1738 248.944C83.793 248.972 83.4213 249.032 83.0582 249.194L83.8694 251.022C83.9352 250.992 84.0496 250.958 84.3197 250.938C84.6001 250.918 84.9652 250.917 85.5234 250.917V248.917ZM83.0234 253.667C83.0234 253.072 83.024 252.672 83.0436 252.363C83.0628 252.061 83.0973 251.915 83.1338 251.821L81.2684 251.1C81.1272 251.465 81.0729 251.84 81.0477 252.236C81.0229 252.624 81.0234 253.098 81.0234 253.667H83.0234ZM83.0582 249.194C82.2313 249.56 81.5953 250.254 81.2684 251.1L83.1338 251.821C83.2804 251.442 83.5529 251.162 83.8694 251.022L83.0582 249.194ZM85.3568 249.917V247.667H83.3568V249.917H85.3568ZM88.0234 247.667V249.917H90.0234V247.667H88.0234ZM86.6901 246.417C87.461 246.417 88.0234 247.011 88.0234 247.667H90.0234C90.0234 245.838 88.4965 244.417 86.6901 244.417V246.417ZM85.3568 247.667C85.3568 247.011 85.9192 246.417 86.6901 246.417V244.417C84.8837 244.417 83.3568 245.838 83.3568 247.667H85.3568Z" fill="#141B34"/>
<rect width="81" height="81" transform="translate(120.188 203.584)" fill="white"/>
<path d="M153.09 231.752C151.704 232.01 150.685 232.466 149.878 233.272C149.072 234.078 148.616 235.098 148.359 236.484M168.29 231.752C169.676 232.01 170.696 232.466 171.502 233.272C172.308 234.078 172.764 235.098 173.022 236.484M163.223 231.424C162.444 231.417 161.602 231.417 160.69 231.417C159.778 231.417 158.936 231.417 158.157 231.424M173.35 241.551C173.357 242.33 173.357 243.172 173.357 244.084C173.357 244.996 173.357 245.838 173.35 246.617M148.03 241.551C148.023 242.33 148.023 243.172 148.023 244.084C148.023 244.996 148.023 245.838 148.03 246.617M148.359 251.684C148.616 253.07 149.072 254.089 149.878 254.896C150.685 255.702 151.704 256.158 153.09 256.415M173.022 251.684C172.764 253.07 172.308 254.089 171.502 254.896C170.696 255.702 169.676 256.158 168.29 256.415M163.223 256.744C162.444 256.751 161.602 256.751 160.69 256.751C159.778 256.751 158.936 256.751 158.157 256.744" stroke="#141B34" stroke-width="2" stroke-linecap="round" stroke-linejoin="round"/>
<path opacity="0.4" d="M156.89 244.084H164.49M170.823 244.084H173.357M148.023 244.084H150.557M160.69 240.284V247.884M160.69 231.417V233.951M160.69 254.217V256.751" stroke="#141B34" stroke-width="2" stroke-linecap="round" stroke-linejoin="round"/>
<rect width="81" height="81" transform="translate(202.188 203.584)" fill="#FAFAFA"/>
<path d="M242.685 240.084C236.924 240.084 232.005 244 230.063 249.514C229.36 251.51 229.008 252.508 229.816 253.629C230.624 254.751 231.943 254.751 234.58 254.751H250.79C253.427 254.751 254.746 254.751 255.554 253.629C256.361 252.508 256.01 251.51 255.307 249.514C253.365 244 248.446 240.084 242.685 240.084Z" stroke="#141B34" stroke-width="2"/>
<path d="M255.124 248.084C256.414 246.388 256.308 244.044 254.805 242.454C254.115 241.725 253.694 240.797 253.608 239.822C253.41 237.585 251.52 235.8 249.149 235.629L248.877 235.609C247.827 235.534 246.822 235.154 246.006 234.527C244.079 233.047 241.29 233.047 239.364 234.527C238.548 235.154 237.543 235.534 236.493 235.609L236.221 235.629C233.85 235.8 231.96 237.585 231.762 239.822C231.675 240.797 231.255 241.725 230.565 242.454C229.061 244.044 228.955 246.388 230.246 248.084" stroke="#141B34" stroke-width="2" stroke-linecap="round"/>
<path d="M248.028 246.751H248.016" stroke="#141B34" stroke-width="2.66667" stroke-linecap="round" stroke-linejoin="round"/>
<path d="M244.028 249.417H244.016" stroke="#141B34" stroke-width="2.66667" stroke-linecap="round" stroke-linejoin="round"/>
<path d="M250.699 250.751H250.688" stroke="#141B34" stroke-width="2.66667" stroke-linecap="round" stroke-linejoin="round"/>
<rect width="81" height="81" transform="translate(284.188 203.584)" fill="white"/>
<path d="M328.685 230.751H320.685C316.272 230.751 315.352 231.672 315.352 236.084V257.417H334.018V236.084C334.018 231.672 333.097 230.751 328.685 230.751Z" stroke="#141B34" stroke-width="2" stroke-linejoin="round"/>
<path d="M312.688 257.417H336.688" stroke="#141B34" stroke-width="2" stroke-linecap="round" stroke-linejoin="round"/>
<path d="M328.688 257.417V253.417C328.688 251.211 328.227 250.751 326.021 250.751H323.354C321.148 250.751 320.688 251.211 320.688 253.417V257.417" stroke="#141B34" stroke-width="2" stroke-linejoin="round"/>
<path opacity="0.4" d="M326.688 236.084H322.688M326.688 240.751H322.688M326.688 245.417H322.688" stroke="#141B34" stroke-width="2" stroke-linecap="round"/>
<rect width="81" height="81" transform="translate(366.188 203.584)" fill="#FAFAFA"/>
<path d="M416.018 249.414L415.61 251.177C415.172 253.068 414.953 254.014 414.277 254.476C413.6 254.938 412.715 254.747 410.945 254.365L409.923 254.144C408.981 253.941 408.509 253.839 408.107 253.575C407.705 253.311 407.405 252.905 406.805 252.095L405.352 250.133" stroke="#141B34" stroke-width="2" stroke-linecap="round"/>
<path d="M393.352 242.747C393.352 246.747 404.018 250.747 410.685 250.747C416.018 250.747 420.018 247.165 420.018 242.747C420.018 238.329 416.018 234.747 410.685 234.747C404.018 234.747 393.352 238.747 393.352 242.747Z" stroke="#141B34" stroke-width="2" stroke-linecap="round" stroke-linejoin="round"/>
<path d="M393.352 242.747H397.352" stroke="#141B34" stroke-width="2" stroke-linecap="round"/>
<path d="M400.688 236.08C399.681 234.951 398.076 233.224 396.51 233.435C396.05 233.497 395.596 233.751 394.688 234.261L396.021 238.747" stroke="#141B34" stroke-width="2" stroke-linecap="round" stroke-linejoin="round"/>
<path d="M400.688 249.413C399.681 250.542 398.076 252.269 396.51 252.059C396.05 251.997 395.596 251.742 394.688 251.233L396.021 246.747" stroke="#141B34" stroke-width="2" stroke-linecap="round" stroke-linejoin="round"/>
<rect width="81" height="81" transform="translate(38.1875 285.584)" fill="white"/>
<path opacity="0.4" d="M82.6875 327.417V328.751C82.6875 332.522 82.6875 334.407 83.8591 335.579C85.0307 336.751 86.9163 336.751 90.6875 336.751" stroke="#141B34" stroke-width="2" stroke-linejoin="round"/>
<path d="M90.2734 334.084V339.417" stroke="#141B34" stroke-width="2" stroke-linecap="round" stroke-linejoin="round"/>
<path opacity="0.4" d="M74.6901 324.523L73.9739 324.603C72.9023 324.722 72.3665 324.781 71.9397 324.735C69.8565 324.509 68.2145 322.663 68.0343 320.344C67.9974 319.869 68.0569 319.274 68.1758 318.084" stroke="#141B34" stroke-width="2" stroke-linejoin="round"/>
<path opacity="0.4" d="M80.9453 319.417H80.9573" stroke="#141B34" stroke-width="2.66667" stroke-linecap="round" stroke-linejoin="round"/>
<path opacity="0.4" d="M85.3516 319.417H91.3516" stroke="#141B34" stroke-width="2" stroke-linecap="round" stroke-linejoin="round"/>
<path d="M65.6796 315.716C65.3835 314.52 65.2355 313.923 65.4607 313.478C65.5372 313.326 65.6417 313.191 65.7686 313.079C66.1415 312.751 66.7518 312.751 67.9724 312.751H84.7565C88.767 312.751 92.0182 316.034 92.0182 320.084C92.0182 324.134 88.767 327.417 84.7565 327.417H78.425C77.3373 327.417 76.7933 327.417 76.3261 327.231C75.9657 327.088 75.6411 326.866 75.3753 326.581C75.0305 326.212 74.8285 325.702 74.4245 324.682L73.7079 322.873C73.2935 321.827 73.0863 321.304 72.703 320.917C72.3197 320.53 71.8018 320.32 70.7658 319.902L68.5097 318.991C67.5407 318.599 67.0562 318.403 66.6925 318.059C66.5651 317.938 66.4498 317.804 66.3484 317.66C66.0592 317.25 65.9327 316.739 65.6796 315.716Z" stroke="#141B34" stroke-width="2" stroke-linejoin="round"/>
<rect width="81" height="81" transform="translate(120.188 285.584)" fill="#FAFAFA"/>
<path d="M159.5 317.519C159.849 318.12 160.023 318.421 160.023 318.751C160.023 319.081 159.849 319.381 159.5 319.982L157.834 322.852C157.485 323.453 157.311 323.754 157.023 323.919C156.736 324.084 156.387 324.084 155.689 324.084H152.358C151.66 324.084 151.311 324.084 151.023 323.919C150.736 323.754 150.562 323.453 150.213 322.852L148.547 319.982C148.198 319.381 148.023 319.081 148.023 318.751C148.023 318.421 148.198 318.12 148.547 317.519L150.213 314.649C150.562 314.048 150.736 313.747 151.023 313.582C151.311 313.417 151.66 313.417 152.358 313.417H155.689C156.387 313.417 156.736 313.417 157.023 313.582C157.311 313.747 157.485 314.048 157.834 314.649L159.5 317.519Z" stroke="#141B34" stroke-width="2" stroke-linecap="round" stroke-linejoin="round"/>
<path opacity="0.4" d="M172.828 325.519C173.177 326.12 173.352 326.421 173.352 326.751C173.352 327.081 173.177 327.381 172.828 327.982L171.162 330.852C170.813 331.453 170.639 331.754 170.352 331.919C170.064 332.084 169.715 332.084 169.017 332.084H165.686C164.988 332.084 164.639 332.084 164.352 331.919C164.064 331.754 163.89 331.453 163.541 330.852L161.875 327.982C161.526 327.381 161.352 327.081 161.352 326.751C161.352 326.421 161.526 326.12 161.875 325.519L163.541 322.649C163.89 322.048 164.064 321.747 164.352 321.582C164.639 321.417 164.988 321.417 165.686 321.417H169.017C169.715 321.417 170.064 321.417 170.352 321.582C170.639 321.747 170.813 322.048 171.162 322.649L172.828 325.519Z" stroke="#141B34" stroke-width="2" stroke-linecap="round" stroke-linejoin="round"/>
<path d="M159.5 332.186C159.849 332.787 160.023 333.087 160.023 333.417C160.023 333.747 159.849 334.048 159.5 334.649L157.834 337.519C157.485 338.12 157.311 338.421 157.023 338.586C156.736 338.751 156.387 338.751 155.689 338.751H152.358C151.66 338.751 151.311 338.751 151.023 338.586C150.736 338.421 150.562 338.12 150.213 337.519L148.547 334.649C148.198 334.048 148.023 333.747 148.023 333.417C148.023 333.087 148.198 332.787 148.547 332.186L150.213 329.316C150.562 328.715 150.736 328.414 151.023 328.249C151.311 328.084 151.66 328.084 152.358 328.084H155.689C156.387 328.084 156.736 328.084 157.023 328.249C157.311 328.414 157.485 328.715 157.834 329.316L159.5 332.186Z" stroke="#141B34" stroke-width="2" stroke-linecap="round" stroke-linejoin="round"/>
<rect width="81" height="81" transform="translate(202.188 285.584)" fill="white"/>
<path d="M254.688 338.084H240.021C235.621 338.084 233.421 338.084 232.054 336.717C230.687 335.35 230.688 333.15 230.688 328.751V314.084" stroke="#141B34" stroke-width="2" stroke-linecap="round"/>
<path d="M237.352 314.084C237.352 322.184 240.933 328.751 245.352 328.751C249.77 328.751 253.352 322.184 253.352 314.084" stroke="#141B34" stroke-width="2" stroke-linecap="round" stroke-linejoin="round"/>
<path opacity="0.4" d="M234.688 332.751H234.699M238.685 332.751H238.697M242.683 332.751H242.695M246.68 332.751H246.692M250.678 332.751H250.69M254.675 332.751H254.688" stroke="#141B34" stroke-width="2" stroke-linecap="round" stroke-linejoin="round"/>
<rect width="81" height="81" transform="translate(284.188 285.584)" fill="#FAFAFA"/>
<path d="M327.701 314.883C326.279 313.462 325.568 312.751 324.685 312.751C323.802 312.751 323.091 313.462 321.669 314.883C320.816 315.736 319.971 316.132 318.754 316.132C317.692 316.132 316.181 315.926 315.352 316.763C314.528 317.594 314.733 319.098 314.733 320.153C314.733 321.37 314.337 322.215 313.484 323.068C312.062 324.49 311.352 325.201 311.352 326.084C311.352 326.967 312.062 327.678 313.484 329.1C314.44 330.056 314.733 330.673 314.733 332.015C314.733 333.077 314.527 334.588 315.364 335.417C316.194 336.241 317.699 336.036 318.754 336.036C320.05 336.036 320.673 336.289 321.598 337.213C322.385 338.001 323.44 339.417 324.685 339.417C325.93 339.417 326.985 338.001 327.772 337.213C328.696 336.289 329.32 336.036 330.615 336.036C331.671 336.036 333.175 336.241 334.006 335.417M334.006 335.417C334.842 334.588 334.636 333.077 334.636 332.015C334.636 330.673 334.93 330.056 335.886 329.1C337.307 327.678 338.018 326.967 338.018 326.084C338.018 325.201 337.307 324.49 335.886 323.068M334.006 335.417H334.018" stroke="#141B34" stroke-width="2" stroke-linecap="round" stroke-linejoin="round"/>
<path opacity="0.4" d="M320.023 322.751L324.69 327.417L336.69 314.084" stroke="#141B34" stroke-width="2" stroke-linecap="round" stroke-linejoin="round"/>
<rect width="81" height="81" transform="translate(366.188 285.584)" fill="white"/>
<path d="M413.988 324.751C413.998 324.751 414.008 324.751 414.018 324.751C417.332 324.751 420.018 327.437 420.018 330.751C420.018 334.064 417.332 336.751 414.018 336.751H400.018C396.336 336.751 393.352 333.766 393.352 330.084C393.352 326.618 395.997 323.77 399.379 323.448M413.988 324.751C414.008 324.531 414.018 324.309 414.018 324.084C414.018 320.034 410.735 316.751 406.685 316.751C402.849 316.751 399.701 319.696 399.379 323.448M413.988 324.751C413.852 326.263 413.256 327.644 412.342 328.751M399.379 323.448C399.589 323.428 399.803 323.417 400.018 323.417C401.519 323.417 402.905 323.914 404.019 324.751" stroke="#141B34" stroke-width="2" stroke-linecap="round" stroke-linejoin="round"/>
<path d="M402.685 317.623C401.759 316.29 400.219 315.417 398.477 315.417C395.646 315.417 393.352 317.72 393.352 320.56C393.352 322.289 394.202 323.818 395.506 324.751" stroke="#141B34" stroke-width="2"/>
<rect width="81" height="81" transform="translate(38.1875 367.584)" fill="#FAFAFA"/>
<path opacity="0.4" d="M65.9707 404.542C65.6393 404.542 65.3369 404.274 65.3521 403.923C65.4413 401.867 65.6913 400.528 66.3917 399.469C66.7946 398.86 67.2951 398.33 67.8705 397.904C69.4259 396.751 71.6201 396.751 76.0084 396.751H81.3614C85.7497 396.751 87.944 396.751 89.4993 397.904C90.0748 398.33 90.5752 398.86 90.9781 399.469C91.6785 400.528 91.9285 401.866 92.0177 403.922C92.0329 404.274 91.7301 404.542 91.3984 404.542C89.5506 404.542 88.0528 406.128 88.0528 408.084C88.0528 410.04 89.5506 411.626 91.3984 411.626C91.7301 411.626 92.0329 411.895 92.0177 412.246C91.9285 414.302 91.6785 415.64 90.9781 416.699C90.5752 417.308 90.0748 417.838 89.4993 418.264C87.944 419.417 85.7497 419.417 81.3614 419.417H76.0084C71.6201 419.417 69.4259 419.417 67.8705 418.264C67.2951 417.838 66.7946 417.308 66.3917 416.699C65.6913 415.64 65.4413 414.302 65.3521 412.246C65.3369 411.894 65.6393 411.626 65.9707 411.626C67.8184 411.626 69.3163 410.04 69.3163 408.084C69.3163 406.128 67.8184 404.542 65.9707 404.542Z" stroke="#141B34" stroke-width="2" stroke-linejoin="round"/>
<path d="M88.0528 408.084C88.0528 406.128 89.5506 404.542 91.3984 404.542C91.7301 404.542 92.0329 404.274 92.0177 403.922C91.9285 401.866 91.6785 400.528 90.9781 399.469C90.5752 398.86 90.0748 398.33 89.4993 397.904C87.944 396.751 85.7497 396.751 81.3614 396.751H76.0084C71.6201 396.751 69.4259 396.751 67.8705 397.904C67.2951 398.33 66.7946 398.86 66.3917 399.469C65.6913 400.528 65.4413 401.867 65.3521 403.923C65.3369 404.274 65.6393 404.542 65.9707 404.542C67.8184 404.542 69.3163 406.128 69.3163 408.084" stroke="#141B34" stroke-width="2" stroke-linecap="round" stroke-linejoin="round"/>
<rect width="81" height="81" transform="translate(120.188 367.584)" fill="white"/>
<path d="M147.352 408.084C147.352 403.367 147.352 401.009 148.755 399.434C148.98 399.183 149.227 398.95 149.495 398.738C151.168 397.417 153.673 397.417 158.685 397.417H162.685C167.696 397.417 170.202 397.417 171.875 398.738C172.142 398.95 172.39 399.183 172.614 399.434C174.018 401.009 174.018 403.367 174.018 408.084C174.018 412.801 174.018 415.159 172.614 416.733C172.39 416.985 172.142 417.218 171.875 417.429C170.202 418.751 167.696 418.751 162.685 418.751H158.685C153.673 418.751 151.168 418.751 149.495 417.429C149.227 417.218 148.98 416.985 148.755 416.733C147.352 415.159 147.352 412.801 147.352 408.084Z" stroke="#141B34" stroke-width="2" stroke-linecap="round" stroke-linejoin="round"/>
<path opacity="0.4" d="M158.023 413.417H160.023" stroke="#141B34" stroke-width="2" stroke-miterlimit="10" stroke-linecap="round" stroke-linejoin="round"/>
<path opacity="0.4" d="M164.023 413.417H168.69" stroke="#141B34" stroke-width="2" stroke-miterlimit="10" stroke-linecap="round" stroke-linejoin="round"/>
<path d="M147.352 404.084H174.018" stroke="#141B34" stroke-width="2" stroke-linejoin="round"/>
<rect width="81" height="81" transform="translate(202.188 367.584)" fill="#FAFAFA"/>
<path opacity="0.4" d="M242.685 411.417V398.084M242.685 411.417C241.751 411.417 240.007 408.758 239.352 408.084M242.685 411.417C243.618 411.417 245.363 408.758 246.018 408.084" stroke="#141B34" stroke-width="2" stroke-linecap="round" stroke-linejoin="round"/>
<path d="M253.357 414.084C253.357 417.393 252.666 418.084 249.357 418.084H236.023C232.714 418.084 232.023 417.393 232.023 414.084" stroke="#141B34" stroke-width="2" stroke-linecap="round" stroke-linejoin="round"/>
<rect width="81" height="81" transform="translate(284.188 367.584)" fill="white"/>
<path opacity="0.4" d="M321.607 409.302H317.716C316.833 409.302 316.362 408.066 316.946 407.279L324.944 396.5C325.569 395.657 326.742 396.181 326.742 397.304V405.648C326.742 406.321 327.201 406.866 327.768 406.866" stroke="#141B34" stroke-width="2" stroke-linecap="round" stroke-linejoin="round"/>
<path d="M321.609 409.302C322.177 409.302 322.636 409.847 322.636 410.52V418.864C322.636 419.986 323.809 420.511 324.434 419.668L332.432 408.889C333.016 408.102 332.545 406.866 331.661 406.866H327.771" stroke="#141B34" stroke-width="2" stroke-linecap="round" stroke-linejoin="round"/>
<rect width="81" height="81" transform="translate(366.188 367.584)" fill="#FAFAFA"/>
<path d="M395.378 405.825C394.861 404.393 394.602 403.677 394.713 403.218C394.833 402.716 395.19 402.325 395.646 402.195C396.063 402.075 396.712 402.364 398.01 402.94C399.158 403.451 399.731 403.706 400.271 403.691C400.864 403.676 401.435 403.438 401.89 403.016C402.302 402.634 402.579 402.024 403.132 400.805L404.352 398.118C405.371 395.873 405.881 394.751 406.687 394.751C407.494 394.751 408.004 395.873 409.023 398.118L410.243 400.805C410.796 402.024 411.073 402.634 411.485 403.016C411.94 403.438 412.511 403.676 413.104 403.691C413.644 403.706 414.217 403.451 415.365 402.94C416.663 402.364 417.312 402.075 417.729 402.195C418.185 402.325 418.542 402.716 418.662 403.218C418.773 403.677 418.514 404.393 417.997 405.825L415.773 411.98C414.821 414.613 414.345 415.93 413.35 416.674C412.354 417.417 411.068 417.417 408.495 417.417H404.88C402.307 417.417 401.021 417.417 400.025 416.674C399.03 415.93 398.554 414.613 397.602 411.98L395.378 405.825Z" stroke="#141B34" stroke-width="2"/>
<path opacity="0.4" d="M406.688 410.751H406.699" stroke="#141B34" stroke-width="2.66667" stroke-linecap="round" stroke-linejoin="round"/>
<path opacity="0.4" d="M400.023 421.417H413.357" stroke="#141B34" stroke-width="2" stroke-linecap="round"/>
<line x1="38.6875" y1="16.584" x2="38.6875" y2="470.584" stroke="#EFEFEF"/>
<line x1="16.1875" y1="39.084" x2="470.188" y2="39.084" stroke="#EFEFEF"/>
<line x1="16.1875" y1="121.084" x2="470.188" y2="121.084" stroke="#EFEFEF"/>
<line x1="16.1875" y1="203.084" x2="470.188" y2="203.084" stroke="#EFEFEF"/>
<line x1="16.1875" y1="285.084" x2="470.188" y2="285.084" stroke="#EFEFEF"/>
<line x1="16.1875" y1="367.084" x2="470.188" y2="367.084" stroke="#EFEFEF"/>
<line x1="16.1875" y1="449.084" x2="470.188" y2="449.084" stroke="#EFEFEF"/>
<line x1="119.688" y1="16.584" x2="119.688" y2="470.584" stroke="#EFEFEF"/>
<line x1="201.688" y1="16.584" x2="201.688" y2="470.584" stroke="#EFEFEF"/>
<line x1="283.688" y1="16.584" x2="283.688" y2="470.584" stroke="#EFEFEF"/>
<line x1="365.688" y1="16.584" x2="365.688" y2="470.584" stroke="#EFEFEF"/>
<line x1="447.688" y1="16.584" x2="447.688" y2="470.584" stroke="#EFEFEF"/>
<g filter="url(#filter0_f_624_15627)">
<ellipse cx="253.688" cy="499.584" rx="44" ry="273.5" transform="rotate(-90 253.688 499.584)" fill="white"/>
</g>
<g filter="url(#filter1_f_624_15627)">
<ellipse cx="253.688" cy="-10.416" rx="44" ry="273.5" transform="rotate(-90 253.688 -10.416)" fill="white"/>
</g>
<g filter="url(#filter2_f_624_15627)">
<ellipse cx="-6.8125" cy="243.084" rx="44" ry="273.5" fill="white"/>
</g>
<g filter="url(#filter3_f_624_15627)">
<ellipse cx="487.188" cy="243.084" rx="44" ry="273.5" fill="white"/>
</g>
</g>
<rect x="0.9375" y="1.33398" width="484.5" height="484.5" rx="15.25" stroke="#EFEFEF" stroke-width="1.5"/>
<defs>
<filter id="filter0_f_624_15627" x="-69.8125" y="405.584" width="647" height="188" filterUnits="userSpaceOnUse" color-interpolation-filters="sRGB">
<feFlood flood-opacity="0" result="BackgroundImageFix"/>
<feBlend mode="normal" in="SourceGraphic" in2="BackgroundImageFix" result="shape"/>
<feGaussianBlur stdDeviation="25" result="effect1_foregroundBlur_624_15627"/>
</filter>
<filter id="filter1_f_624_15627" x="-69.8125" y="-104.416" width="647" height="188" filterUnits="userSpaceOnUse" color-interpolation-filters="sRGB">
<feFlood flood-opacity="0" result="BackgroundImageFix"/>
<feBlend mode="normal" in="SourceGraphic" in2="BackgroundImageFix" result="shape"/>
<feGaussianBlur stdDeviation="25" result="effect1_foregroundBlur_624_15627"/>
</filter>
<filter id="filter2_f_624_15627" x="-100.812" y="-80.416" width="188" height="647" filterUnits="userSpaceOnUse" color-interpolation-filters="sRGB">
<feFlood flood-opacity="0" result="BackgroundImageFix"/>
<feBlend mode="normal" in="SourceGraphic" in2="BackgroundImageFix" result="shape"/>
<feGaussianBlur stdDeviation="25" result="effect1_foregroundBlur_624_15627"/>
</filter>
<filter id="filter3_f_624_15627" x="393.188" y="-80.416" width="188" height="647" filterUnits="userSpaceOnUse" color-interpolation-filters="sRGB">
<feFlood flood-opacity="0" result="BackgroundImageFix"/>
<feBlend mode="normal" in="SourceGraphic" in2="BackgroundImageFix" result="shape"/>
<feGaussianBlur stdDeviation="25" result="effect1_foregroundBlur_624_15627"/>
</filter>
<clipPath id="clip0_624_15627">
<rect x="0.1875" y="0.583984" width="486" height="486" rx="16" fill="white"/>
</clipPath>
</defs>
</svg>